<?xml version="1.0" encoding="UTF-8"?>
<!DOCTYPE svg PUBLIC "-//W3C//DTD SVG 1.1//EN" "http://www.w3.org/Graphics/SVG/1.1/DTD/svg11.dtd">
<!-- Creator: CorelDRAW 2019 (64-Bit) -->
<svg xmlns="http://www.w3.org/2000/svg" xml:space="preserve" width="12.8847in" height="2.97808in" version="1.1" style="shape-rendering:geometricPrecision; text-rendering:geometricPrecision; image-rendering:optimizeQuality; fill-rule:evenodd; clip-rule:evenodd"
viewBox="0 0 3442.62 795.71"
 xmlns:xlink="http://www.w3.org/1999/xlink"
 xmlns:xodm="http://www.corel.com/coreldraw/odm/2003">
 <defs>
  <style type="text/css">
   <![CDATA[
    .fil0 {fill:#373435;fill-rule:nonzero}
   ]]>
  </style>
 </defs>
 <g id="Layer_x0020_1">
  <metadata id="CorelCorpID_0Corel-Layer"/>
  <path class="fil0" d="M1038.38 322.52c1.07,1.17 2.9,1.81 5.72,1.67 2.81,-0.13 6.76,-0.88 12.19,-1.66 5.45,-0.72 12.5,-1.31 21.62,0.13 9.04,1.47 20.5,5.23 32.37,13.64 5.87,4.2 11.78,9.6 16.67,16.25 4.95,6.59 8.73,14.47 10.1,22.8 1.54,9.31 1.41,20.02 -1.79,31.23 -3.15,11.2 -8.7,23.24 -17.72,34.59 -8.76,11.44 -20.66,22.24 -34.83,30.65 -14.32,7.99 -31.6,14.33 -50.85,16.74 -4.76,0.94 -9.78,0.78 -14.78,1.2 -5.02,0.29 -10.18,-0.23 -15.37,-0.22 -10.38,-1.08 -21.13,-2.4 -31.78,-5.59 -10.8,-2.66 -21.28,-7.28 -31.73,-12.37 -4.95,-3.01 -10.32,-5.57 -15.01,-9.19 -2.37,-1.75 -5.02,-3.24 -7.25,-5.21 -2.28,-1.91 -4.58,-3.84 -6.9,-5.78 -17.9,-16.06 -31.55,-37.02 -38.79,-61.94 -7.41,-24.71 -8.32,-52.59 -2.47,-79.27 3.1,-13.28 7.67,-26.29 13.97,-38.42 6.56,-11.98 14.6,-22.96 24.2,-32.66 5.21,-4.58 10.04,-9.67 15.92,-13.54l4.23 -3.14c1.39,-1.07 2.79,-2.14 4.36,-2.97l9.14 -5.41c12.57,-6.62 25.93,-12.4 40.3,-15.83 28.44,-7.81 59.44,-8.61 89.83,-5.34 30.46,3.51 60.4,12.05 88.28,23.98 8.18,3.65 16.24,7.55 24.18,11.67 26.95,22.18 54.15,46.47 82.12,70.73 14.59,12.67 29.43,25.32 44.55,37.59 15.1,12.28 30.1,24.02 45.48,35.47 7.09,5.27 14.22,10.43 21.38,15.43 6.93,3.31 13.69,6.48 20.23,9.51 7.61,3.25 14.8,6.74 21.75,9.48 3.46,1.42 6.78,2.99 10.04,4.27 3.25,1.28 6.4,2.53 9.42,3.72 6.01,2.59 11.59,4.42 16.5,6.34 2.46,0.94 4.76,1.83 6.89,2.64 2.13,0.73 4.09,1.41 5.87,2.03 7.09,2.5 11.1,4.11 11.1,4.11 0,0 -0.75,0.18 -2.21,0.5l208.38 51.44 0.01 0 0 -0 0.01 0 0 0 0 0 -8.08 0.89c-2.66,0.29 -5.97,0.65 -9.88,1.08 -3.92,0.24 -8.46,0.31 -13.6,0.51 -5.15,0.34 -10.86,-0.01 -17.14,-0.26 -6.31,-0.06 -13.1,-0.92 -20.46,-1.73 -1.84,-0.2 -3.71,-0.42 -5.61,-0.63 -1.89,-0.33 -3.8,-0.66 -5.75,-1.01l-10.42 -1.83c-4.05,-0.61 -8.18,-1.44 -12.45,-2.13l3.13 2.12c0,0 -1.87,-0.52 -5.29,-1.45 -2.61,-0.68 -6.04,-1.74 -10.24,-2.85 -4.08,-0.84 -8.23,-1.79 -12.46,-2.8 -11.36,-2.31 -25.45,-4.72 -41.11,-5.62 -19.69,-1.22 -41.59,-0.55 -62.92,2.25 -21.36,2.72 -42.05,7.54 -60.15,12.47 -36,10.58 -55.25,19.27 -67.73,21.69 -12.16,2.97 -17.3,0.1 -19.7,-3.36 -2.32,-3.35 -3.4,-8.87 5.49,-19.63 2.17,-2.79 5.22,-5.47 8.99,-8.59 3.81,-3.05 8.27,-6.72 14.04,-9.94 5.7,-3.37 12.28,-7.2 20.28,-10.44 3.99,-1.63 8.14,-3.68 12.78,-5.12 4.62,-1.54 9.53,-3.11 14.74,-4.71 10.2,-2.79 21.23,-4.89 32.67,-6.18l-1.81 -0.15c-8.14,-0.52 -16.68,-2.01 -25.71,-3.67 -17.89,-3.78 -37.28,-9.97 -56.26,-19.44 -15.56,-7.93 -29.49,-17.41 -41.56,-27.29l-249.11 -61.49zm-938.64 453.75c0,0 11.93,-9.54 19.63,-24.84 7.7,-15.3 8.26,-30.57 8.26,-30.57 0,0 -11.94,9.54 -19.64,24.84 -7.7,15.3 -8.26,30.57 -8.26,30.57zm-40.49 1.56c0,4.11 -6.38,4.12 -6.38,0 0,-4.1 6.38,-4.11 6.38,0l0 0zm-0.85 -11.06c0,4.11 -6.38,4.12 -6.38,0 0,-4.1 6.38,-4.11 6.38,0l0 0zm2.98 -11.49c0,4.1 -6.38,4.11 -6.38,0 0,-4.11 6.38,-4.12 6.38,0l0 0zm-1.27 -8.94c0,-0.14 0,-0.28 0,-0.43 0,-1.67 1.47,-3.27 3.19,-3.19 1.73,0.08 3.19,1.4 3.19,3.19 0,0.14 0,0.29 0,0.43 0,1.67 -1.47,3.27 -3.19,3.19 -1.73,-0.08 -3.19,-1.4 -3.19,-3.19l0 0zm-60.11 -42.12c13.12,9.02 22.12,6.49 22.12,6.49 0,0 -5.64,2.39 -5.64,11.93 0,9.54 12.42,13.92 12.42,13.92 4.37,-14.63 14.61,-23.58 21.71,-28.26l0 0.99 29.26 0c-7.73,2.51 -17.67,6.64 -27.23,13.19 -19.83,13.6 -30.52,32.5 -30.52,32.5 0,0 21.48,-3.14 41.32,-16.73 14.57,-9.99 24.19,-22.83 28.28,-28.95l19.56 0 -1.09 0.44c-1.37,0.56 -2.72,1.24 -4.15,1.93 -2.88,1.35 -5.76,3.09 -8.75,5.01 -5.88,3.94 -11.86,9.05 -17.04,15.36 -5.14,6.35 -8.94,13.24 -11.62,19.79 -1.28,3.32 -2.4,6.49 -3.15,9.58 -0.39,1.54 -0.78,3 -1.05,4.45 -0.27,1.45 -0.5,2.85 -0.7,4.18 -0.44,2.65 -0.57,5.12 -0.7,7.27 -0.05,1.08 -0.1,2.07 -0.1,2.99 0.02,0.93 0.05,1.78 0.06,2.55 0.12,3.06 0.33,4.75 0.33,4.75 0,0 1.3,-1.18 3.38,-3.31 2.06,-2.11 4.99,-5.13 8.53,-8.77 1.72,-1.8 3.59,-3.76 5.58,-5.83 1.91,-2.1 4.05,-4.24 6.11,-6.57 4.26,-4.56 8.69,-9.55 13.07,-14.97 4.43,-5.38 8.42,-10.72 12.03,-15.81 1.86,-2.49 3.53,-5.02 5.2,-7.31 1.64,-2.37 3.17,-4.59 4.59,-6.64l6.18 -9.08 164.97 0c2.51,1.92 5.07,3.75 7.68,5.5 9.96,6.66 20.53,11.97 31.36,15.9 2.75,0.88 5.48,1.75 8.2,2.61 2.73,0.84 5.76,1.42 8.61,2.08 2.89,0.72 5.75,1.12 8.59,1.46 2.84,0.32 5.68,0.83 8.47,0.86 22.39,1.38 43.01,-3.05 61.21,-11.23 9.67,-4.54 18.76,-10.29 26.72,-17.19l1019.41 0c1.14,3.1 2.43,6.17 3.86,9.18 5.2,10.74 12.14,20.44 20.12,28.92 16.17,17 36.43,29.05 57.55,37.02 5.3,1.97 10.66,3.77 16.08,5.26 5.46,1.53 11.16,2.78 16.78,3.75 11.28,1.91 22.65,2.54 33.86,2.14 22.42,-0.81 44.27,-5.73 64.21,-14.2 13.59,-5.79 26.35,-13.3 37.54,-22.45 11.19,9.15 23.95,16.67 37.54,22.45 19.95,8.47 41.79,13.38 64.21,14.2 11.21,0.39 22.57,-0.24 33.86,-2.14 5.62,-0.97 11.31,-2.22 16.78,-3.75 5.42,-1.49 10.78,-3.28 16.08,-5.26 21.12,-7.97 41.38,-20.02 57.55,-37.02 7.99,-8.49 14.93,-18.18 20.12,-28.92 1.44,-3.01 2.72,-6.07 3.86,-9.18l1019.41 0c7.96,6.9 17.05,12.65 26.72,17.19 18.19,8.19 38.82,12.62 61.21,11.23 2.79,-0.03 5.63,-0.54 8.47,-0.86 2.85,-0.35 5.71,-0.75 8.6,-1.46 2.84,-0.67 5.88,-1.25 8.6,-2.08 2.71,-0.86 5.44,-1.74 8.2,-2.61 10.83,-3.93 21.39,-9.24 31.36,-15.9 2.61,-1.75 5.17,-3.58 7.68,-5.5l161.19 0c1.6,2.35 3.68,5.45 6.16,9.08 1.45,2.05 2.97,4.27 4.6,6.64 1.67,2.29 3.34,4.82 5.2,7.31 3.64,5.09 7.61,10.43 12.06,15.81 4.38,5.42 8.8,10.4 13.06,14.97 2.04,2.32 4.19,4.46 6.09,6.57 2,2.08 3.86,4.03 5.6,5.83 3.52,3.64 6.46,6.66 8.54,8.77 2.08,2.13 3.38,3.31 3.38,3.31 0,0 0.19,-1.69 0.33,-4.75 0,-0.77 0.04,-1.62 0.04,-2.55 0,-0.92 -0.04,-1.91 -0.07,-2.99 -0.15,-2.14 -0.26,-4.62 -0.7,-7.27 -0.22,-1.33 -0.44,-2.73 -0.7,-4.18 -0.26,-1.45 -0.67,-2.92 -1.04,-4.45 -0.78,-3.09 -1.89,-6.26 -3.15,-9.58 -2.67,-6.55 -6.49,-13.44 -11.62,-19.79 -5.2,-6.31 -11.17,-11.42 -17.07,-15.36 -3.01,-1.92 -5.86,-3.66 -8.76,-5.01 -1.41,-0.69 -2.78,-1.37 -4.12,-1.93l-1.1 -0.44 19.55 0c4.09,6.12 13.72,18.97 28.27,28.95 19.85,13.59 41.34,16.73 41.34,16.73 0,0 -10.69,-18.9 -30.54,-32.5 -9.55,-6.55 -19.49,-10.67 -27.22,-13.19l30.72 0c6.97,4.9 16.17,13.61 20.25,27.26 0,0 12.43,-4.38 12.43,-13.92 0,-9.54 -5.64,-11.93 -5.64,-11.93 0,0 8.98,2.52 22.12,-6.49 -13.14,-9.02 -22.12,-6.49 -22.12,-6.49 0,0 5.64,-2.39 5.64,-11.93 0,-9.54 -12.43,-13.92 -12.43,-13.92 -4.08,13.65 -13.27,22.36 -20.25,27.26l-30.73 0c7.73,-2.51 17.67,-6.64 27.22,-13.19 19.85,-13.59 30.54,-32.5 30.54,-32.5 0,0 -21.49,3.14 -41.34,16.74 -14.55,9.98 -24.18,22.83 -28.27,28.95l-22.87 0c0.94,-0.31 1.92,-0.65 2.94,-1.01 1.37,-0.5 2.75,-1.12 4.23,-1.76 2.89,-1.23 5.86,-2.85 8.94,-4.65 6.05,-3.7 12.21,-8.56 17.66,-14.65 5.38,-6.13 9.46,-12.85 12.43,-19.29 1.41,-3.27 2.64,-6.39 3.53,-9.44 0.44,-1.52 0.89,-2.97 1.22,-4.41 0.33,-1.44 0.63,-2.82 0.89,-4.15 0.56,-2.62 0.78,-5.09 1,-7.23 0.07,-1.07 0.19,-2.06 0.22,-2.99 0,-0.92 0.04,-1.78 0.04,-2.55 0,-3.06 -0.15,-4.75 -0.15,-4.75 0,0 -1.34,1.13 -3.53,3.17 -2.11,2.03 -5.2,4.92 -8.87,8.41 -1.78,1.73 -3.75,3.6 -5.83,5.6 -1.97,2.02 -4.19,4.07 -6.38,6.31 -4.42,4.38 -9.05,9.18 -13.66,14.41 -4.64,5.2 -8.87,10.36 -12.65,15.3 -1.97,2.41 -3.75,4.86 -5.53,7.09 -1.71,2.29 -3.34,4.45 -4.86,6.44 -3.01,4.08 -5.53,7.46 -7.27,9.83l-0.23 0.3 -146.8 0c11.54,-10.91 21.51,-23.82 29.19,-38.44 5.89,-11.17 10.44,-23.32 13.2,-36.12 2.77,-12.81 3.65,-26.03 2.74,-39.03 -1.83,-26.03 -10.63,-51.34 -25.46,-73.03 -14.71,-21.73 -36.43,-39.63 -60.29,-49.52 -5.89,-2.78 -12.05,-4.57 -18.12,-6.6 -6.16,-1.49 -12.29,-3.25 -18.47,-4.05 -12.34,-2.19 -24.63,-2.61 -36.65,-2.21 -12.06,0.3 -23.76,2.16 -35.21,4.34 -11.38,2.5 -22.48,5.59 -33.14,9.55 -10.59,3.94 -21.07,8.55 -30.65,13.71 -9.68,5.03 -18.82,10.6 -27.62,16.3 -17.55,11.48 -33.52,23.75 -48.45,35.89 -22.4,18.25 -42.82,35.98 -62.43,51.36l9.66 -10.12 5.89 -6.24 5.49 -6.62c21.24,-25.06 38.62,-53.2 50.46,-80.98 12.11,-27.7 17.68,-55.23 19.5,-77.64 0.33,-5.43 0.55,-10.52 0.69,-15.26 0.03,-4.75 -0.51,-9.23 -0.82,-13.31 -0.38,-4.09 -0.81,-7.83 -1.29,-11.23 -0.43,-3.4 -1.48,-6.46 -2.21,-9.17 -3.24,-10.86 -6.6,-16.21 -9.84,-16.55 -3.23,-0.34 -6.37,4.31 -9.17,13.43 -1.4,4.56 -2.51,10.25 -4.62,16.99 -1.92,6.75 -3.37,14.61 -6.36,23.38 -1.14,3.81 -2.28,7.77 -3.4,11.86 -1.47,4.02 -3,8.17 -4.57,12.47 -2.65,8.66 -7.16,17.34 -10.89,26.61 -8.87,18.11 -19.6,37.19 -33.04,55.64 -13.63,18.29 -29.47,36.04 -46.86,52.16 -17.38,16.17 -36.69,30.08 -55.98,42.03l-12.9 7.66 -13.33 6.77 -6.66 3.39 -6.94 3c-4.64,1.98 -9.23,4.07 -13.88,5.99 -9.51,3.4 -18.8,7.33 -28.54,10.12 -4.83,1.47 -9.59,3.16 -14.48,4.46l-14.68 3.86c-19.68,4.76 -39.64,8.66 -59.89,11 -20.19,2.69 -40.63,3.92 -61.11,4.49 -82.17,2.1 -164.5,-11.29 -246.17,-30.33 -81.79,-19.01 -163.23,-43.49 -247.09,-63.02 -41.76,-9.57 -84.62,-19.39 -129.47,-20.31 -22.34,-0.37 -45.13,1.63 -67.25,7.64 -22.28,5.85 -43.56,16.62 -61.59,31.29 -3.07,2.38 -6.24,5.11 -9.47,8.18 -3.23,-3.06 -6.4,-5.79 -9.47,-8.18 -18.03,-14.67 -39.31,-25.44 -61.59,-31.29 -22.11,-6.01 -44.91,-8.01 -67.24,-7.64 -44.85,0.92 -87.71,10.74 -129.47,20.31 -83.86,19.53 -165.3,44.01 -247.09,63.02 -81.67,19.04 -164,32.43 -246.17,30.33 -20.48,-0.57 -40.92,-1.8 -61.11,-4.49 -20.25,-2.34 -40.21,-6.24 -59.89,-11l-14.68 -3.86c-4.89,-1.3 -9.65,-3 -14.48,-4.46 -9.73,-2.79 -19.03,-6.72 -28.53,-10.12 -4.66,-1.93 -9.25,-4.01 -13.89,-5.99l-6.94 -3 -6.66 -3.39 -13.33 -6.77 -12.9 -7.66c-19.28,-11.94 -38.6,-25.86 -55.98,-42.03 -17.39,-16.12 -33.22,-33.87 -46.86,-52.16 -13.44,-18.45 -24.17,-37.54 -33.04,-55.64 -3.73,-9.27 -8.24,-17.95 -10.89,-26.61 -1.57,-4.29 -3.1,-8.45 -4.57,-12.47 -1.12,-4.09 -2.26,-8.05 -3.4,-11.86 -2.99,-8.78 -4.44,-16.64 -6.36,-23.38 -2.1,-6.75 -3.21,-12.43 -4.62,-16.99 -2.8,-9.12 -5.94,-13.77 -9.17,-13.43 -3.24,0.34 -6.6,5.68 -9.84,16.55 -0.73,2.71 -1.79,5.78 -2.21,9.17 -0.48,3.4 -0.91,7.14 -1.29,11.23 -0.31,4.09 -0.85,8.56 -0.82,13.31 0.14,4.74 0.36,9.82 0.69,15.26 1.81,22.41 7.39,49.94 19.5,77.64 11.83,27.78 29.21,55.91 50.46,80.98l5.49 6.62 5.89 6.24 9.65 10.12c-19.61,-15.38 -40.03,-33.11 -62.43,-51.36 -14.92,-12.13 -30.9,-24.41 -48.45,-35.89 -8.8,-5.7 -17.94,-11.27 -27.62,-16.3 -9.57,-5.17 -20.05,-9.77 -30.65,-13.71 -10.65,-3.96 -21.76,-7.05 -33.14,-9.55 -11.45,-2.18 -23.15,-4.04 -35.21,-4.34 -12.02,-0.39 -24.31,0.03 -36.65,2.21 -6.18,0.8 -12.31,2.56 -18.47,4.05 -6.07,2.03 -12.23,3.82 -18.12,6.6 -23.87,9.89 -45.59,27.8 -60.3,49.52 -14.83,21.69 -23.62,47 -25.46,73.03 -0.91,13 -0.03,26.22 2.74,39.03 2.76,12.8 7.31,24.95 13.2,36.12 7.68,14.61 17.66,27.53 29.19,38.44l-150.58 0 -0.22 -0.3c-1.76,-2.36 -4.26,-5.74 -7.29,-9.83 -1.5,-1.99 -3.13,-4.15 -4.86,-6.44 -1.77,-2.23 -3.54,-4.68 -5.5,-7.09 -3.82,-4.94 -8.02,-10.11 -12.67,-15.3 -4.6,-5.24 -9.23,-10.03 -13.67,-14.41 -2.16,-2.23 -4.38,-4.29 -6.38,-6.31 -2.07,-2 -4.02,-3.87 -5.81,-5.6 -3.69,-3.5 -6.74,-6.39 -8.88,-8.41 -2.17,-2.04 -3.52,-3.17 -3.52,-3.17 0,0 -0.14,1.7 -0.14,4.75 0.01,0.77 0.03,1.62 0.04,2.55 0.04,0.92 0.13,1.92 0.23,2.99 0.21,2.13 0.44,4.61 0.99,7.23 0.25,1.33 0.54,2.71 0.87,4.15 0.33,1.44 0.78,2.89 1.24,4.41 0.88,3.06 2.13,6.18 3.54,9.44 2.95,6.44 7.03,13.16 12.43,19.29 5.44,6.09 11.63,10.95 17.66,14.65 3.07,1.8 6.02,3.41 8.95,4.65 1.45,0.63 2.84,1.25 4.23,1.76 1,0.36 1.98,0.7 2.93,1.01l-22.88 0c-4.09,-6.12 -13.71,-18.97 -28.28,-28.95 -19.83,-13.6 -41.32,-16.74 -41.32,-16.74 0,0 10.68,18.9 30.52,32.5 9.56,6.55 19.5,10.68 27.24,13.19l-29.27 0 0 0.99c-7.1,-4.67 -17.34,-13.63 -21.71,-28.26 0,0 -12.42,4.37 -12.42,13.92 0,9.55 5.64,11.93 5.64,11.93 0,0 -8.99,-2.52 -22.12,6.49zm99.74 -72.04c0,0 11.93,9.54 19.63,24.84 7.7,15.3 8.26,30.57 8.26,30.57 0,0 -11.94,-9.54 -19.64,-24.84 -7.7,-15.3 -8.26,-30.57 -8.26,-30.57zm-40.49 -1.56c0,-4.1 -6.38,-4.11 -6.38,0 0,4.11 6.38,4.12 6.38,0l0 0zm-0.85 11.06c0,-4.11 -6.38,-4.11 -6.38,0 0,4.11 6.38,4.12 6.38,0l0 0zm2.98 11.49c0,-4.11 -6.38,-4.12 -6.38,0 0,4.1 6.38,4.11 6.38,0l0 0zm-1.27 8.94c0,0.14 0,0.28 0,0.42 0,1.67 1.47,3.27 3.19,3.19 1.73,-0.08 3.19,-1.4 3.19,-3.19 0,-0.14 0,-0.28 0,-0.42 0,-1.67 -1.47,-3.27 -3.19,-3.19 -1.73,0.07 -3.19,1.4 -3.19,3.19l0 0zm3282.76 114.16c0,0 -11.95,-9.54 -19.63,-24.84 -7.72,-15.3 -8.28,-30.57 -8.28,-30.57 0,0 11.95,9.54 19.63,24.84 7.72,15.3 8.27,30.57 8.27,30.57zm40.49 1.56c0,4.11 6.38,4.12 6.38,0 0,-4.1 -6.38,-4.11 -6.38,0l0 0zm0.85 -11.06c0,4.11 6.38,4.12 6.38,0 0,-4.1 -6.38,-4.11 -6.38,0l0 0zm-2.97 -11.49c0,4.1 6.38,4.11 6.38,0 0,-4.11 -6.38,-4.12 -6.38,0l0 0zm1.26 -8.94c0,-0.14 0,-0.28 0,-0.43 0,-1.67 -1.48,-3.27 -3.19,-3.19 -1.74,0.08 -3.19,1.4 -3.19,3.19 0,0.14 0,0.29 0,0.43 0,1.67 1.48,3.27 3.19,3.19 1.74,-0.08 3.19,-1.4 3.19,-3.19l0 0zm-39.63 -114.17c0,0 -11.95,9.54 -19.63,24.84 -7.72,15.3 -8.28,30.57 -8.28,30.57 0,0 11.95,-9.54 19.63,-24.84 7.72,-15.3 8.27,-30.57 8.27,-30.57zm40.49 -1.56c0,-4.1 6.38,-4.11 6.38,0 0,4.11 -6.38,4.12 -6.38,0l0 0zm0.85 11.06c0,-4.11 6.38,-4.11 6.38,0 0,4.11 -6.38,4.12 -6.38,0l0 0zm-2.97 11.49c0,-4.11 6.38,-4.12 6.38,0 0,4.1 -6.38,4.11 -6.38,0l0 0zm1.26 8.94c0,0.14 0,0.28 0,0.42 0,1.67 -1.48,3.27 -3.19,3.19 -1.74,-0.08 -3.19,-1.4 -3.19,-3.19 0,-0.14 0,-0.28 0,-0.42 0,-1.67 1.48,-3.27 3.19,-3.19 1.74,0.07 3.19,1.4 3.19,3.19l0 0zm-1875.18 47.2l179.51 0c4.23,11.45 10.6,22.49 18.75,32.26 -7.28,5.31 -15.25,9.84 -23.63,13.52 -13.83,6.17 -28.76,10.14 -43.94,11.92 -14.76,1.81 -32.75,1.67 -51.4,-2.86 -18.61,-4.8 -39,-13.46 -55.63,-26.96 -4.12,-3.41 -8.03,-7.08 -11.65,-11.01 -3.54,-3.99 -6.78,-8.25 -9.63,-12.71 -0.83,-1.35 -1.63,-2.73 -2.38,-4.13zm204.6 0l22.55 0c-3.1,5.78 -6.9,11.23 -11.27,16.24 -4.37,-5.01 -8.18,-10.46 -11.27,-16.24zm47.64 0l179.51 0c-0.75,1.41 -1.55,2.79 -2.38,4.13 -2.86,4.46 -6.09,8.72 -9.63,12.71 -3.62,3.93 -7.53,7.6 -11.65,11.01 -16.63,13.5 -37.01,22.16 -55.63,26.96 -18.64,4.53 -36.64,4.67 -51.4,2.86 -15.17,-1.78 -30.11,-5.75 -43.94,-11.92 -8.38,-3.68 -16.35,-8.2 -23.63,-13.52 8.15,-9.77 14.52,-20.81 18.75,-32.26zm1222.9 -10.16l-477.52 0c32.07,-0.53 64.3,-3.39 96.24,-9.63 11.07,-1.87 21.99,-4.76 32.95,-7.38 5.47,-1.37 10.85,-3.14 16.28,-4.71 5.42,-1.61 10.85,-3.18 16.16,-5.2l16 -5.77c5.28,-2.07 10.48,-4.39 15.71,-6.59l7.83 -3.35c2.6,-1.17 5.15,-2.55 7.73,-3.81l15.39 -7.79c1.28,-0.73 2.55,-1.47 3.82,-2.22 21.84,-5.92 46.55,-15.95 72.18,-30.21 28.77,-15.84 58.26,-36.78 89.62,-57.34 15.68,-10.28 31.91,-20.31 48.83,-29.19 8.47,-4.39 17.08,-8.58 25.91,-12.16 8.8,-3.75 17.56,-6.63 26.67,-9.15 9.07,-2.49 18.35,-4.18 27.63,-5.44 9.3,-0.93 18.64,-1.68 27.79,-1.12 9.14,0.45 18.19,1.46 26.7,3.7 4.36,0.84 8.38,2.48 12.52,3.71 3.91,1.73 7.97,3.11 11.58,5.24 3.83,1.76 7.17,4.21 10.67,6.37 1.67,1.19 3.22,2.55 4.84,3.77l2.42 1.87 2.17 2.06c5.8,5.43 10.85,11.76 15,18.67 8.31,13.8 12.9,29.87 13.26,45.25 0.41,15.45 -3.36,29.7 -10.59,42.65 -7.14,12.91 -17.63,23.82 -29.2,31.53 -5.79,3.87 -11.8,6.91 -17.79,9.17 -1.51,0.5 -3.02,0.99 -4.51,1.48 -1.48,0.49 -2.79,0.65 -4.17,1.04 -1.33,0.41 -2.75,0.59 -4.17,0.77 -1.42,0.15 -2.78,0.55 -4.23,0.52 -5.69,0.6 -11.45,0.05 -16.91,-0.67 -5.48,-0.88 -10.59,-2.45 -15.29,-4.26 -9.18,-3.95 -16.28,-9.27 -20.37,-14.9 -0.92,-1.46 -2.13,-2.77 -2.71,-4.29l-1.19 -2.15c-0.23,-0.78 -0.5,-1.53 -0.79,-2.28 -1.23,-2.97 -1.74,-5.77 -1.85,-8.93 -0.31,-6.19 1.17,-12.69 3.72,-18.17 2.43,-5.61 6.03,-10.03 9.62,-13.49 3.67,-3.46 7.44,-5.76 11.62,-7.4 4.15,-1.66 8.5,-2.49 12.6,-2.86 8.28,-0.76 15.5,0.43 21.27,1.73 5.8,1.37 10.17,3.07 13.86,4.17 1.74,0.64 3.37,1.11 4.83,1.43 1.37,0.39 2.62,0.62 3.75,0.69 2.26,0.15 3.99,-0.32 5.3,-1.2 1.27,-0.85 2.3,-2.21 2.65,-4.58 0.17,-1.19 0.17,-2.63 -0.09,-4.41 -0.34,-1.7 -0.96,-3.69 -1.94,-6.07 -2.14,-4.52 -5.89,-10.51 -13.01,-16.61 -7.12,-5.96 -17.55,-12.4 -32.67,-15.51 -7.54,-1.53 -16.28,-2.22 -26.04,-0.85 -9.7,1.29 -20.64,4.9 -30.7,11.36 -10.05,6.45 -19.63,15.41 -26.93,27.15 -7.38,11.64 -12.92,26.03 -13.98,42.88 -0.57,8.32 0.16,17.57 2.62,26.37 0.62,2.2 1.24,4.43 1.87,6.67 0.81,2.18 1.74,4.33 2.67,6.52 1.72,4.46 4.25,8.5 6.76,12.68 2.29,3.6 4.84,7.01 7.62,10.24zm-499.87 0l-506.23 0c1.21,-4.67 2.11,-9.4 2.71,-14.15 2.88,-22.82 -2.27,-47.17 -16.24,-65.58 -7.18,-9.44 -16.28,-16.53 -25.88,-21.44 -9.63,-4.92 -19.85,-7.74 -30.02,-8.59 -10.16,-0.84 -20.35,0.34 -29.68,3.65 -9.37,3.32 -17.6,8.65 -24.06,15.58 -6.56,7.04 -10.74,15.29 -12.67,23.17 -1.96,7.9 -2.5,15.46 -1.66,22.34 1.44,13.78 7.24,24.81 13.83,32.03 6.68,7.31 14.12,10.42 19.06,11.3 5.15,0.57 7.83,-0.37 8.25,-2.06 0.76,-2.91 -3.63,-5.92 -8.3,-11.88 -0.58,-0.74 -1.18,-1.52 -1.81,-2.33 -0.53,-0.9 -1.08,-1.83 -1.66,-2.81 -0.64,-0.88 -1.11,-1.98 -1.6,-3.1 -0.48,-1.12 -1.14,-2.13 -1.48,-3.43 -1.89,-4.78 -3.08,-10.72 -3.03,-17.14 0.04,-6.38 1.35,-13.4 4.66,-19.26 0.89,-1.41 1.6,-2.96 2.75,-4.14 0.53,-0.63 0.99,-1.32 1.53,-1.93 0.62,-0.53 1.23,-1.08 1.82,-1.64 1.01,-1.22 2.81,-2.07 4.16,-3.2 1.62,-0.84 3.15,-1.86 4.92,-2.53 13.57,-6.26 34.69,-3.12 48.68,8.65 1.85,1.35 3.27,3.09 4.88,4.65 1.34,1.76 2.81,3.36 4.02,5.47 2.55,3.96 4.63,8.32 6.02,13.05 2.96,9.37 3.49,19.95 1.93,30.31 -0.78,5.11 -2.09,10.16 -3.87,15.02l-180.89 0c0.66,-2.58 1.2,-5.17 1.63,-7.76 3.25,-19.04 0.92,-37.6 -4.44,-53.2 -5.34,-15.69 -13.42,-28.57 -21.69,-38.92 -0.47,-0.58 -0.94,-1.14 -1.41,-1.71 6.84,-6.58 14.42,-12.46 22.51,-17.47 13.13,-8.25 27.31,-14.19 42.61,-17.91 15.28,-3.69 31.17,-5.35 47.22,-5.48 40.42,-0.17 80.93,9.14 121.3,19.84 40.43,10.61 80.55,23.17 120.78,35.94 80.46,25.58 161.53,53 246.8,70.18 42.6,8.59 86.12,14.3 130.19,16.11 4.78,0.17 9.57,0.29 14.36,0.37zm-743.56 0l-31.68 0c-0.72,-1.96 -1.36,-3.95 -1.92,-5.96 -1.95,-6.92 -3.02,-14.15 -3.03,-21.41 -0.16,-1.81 -0.05,-3.62 0.13,-5.44l0.4 -5.44c0.53,-3.6 1.2,-7.21 2,-10.78 3.44,-13.3 9.8,-25.89 18.26,-37.17 8.46,11.29 14.82,23.87 18.26,37.17 0.8,3.57 1.46,7.18 2,10.78l0.4 5.44c0.19,1.81 0.29,3.62 0.13,5.44 -0.01,7.26 -1.07,14.49 -3.02,21.41 -0.56,2.02 -1.2,4 -1.92,5.96zm-55.37 0l-180.89 0c-1.78,-4.86 -3.09,-9.91 -3.87,-15.02 -1.56,-10.36 -1.04,-20.94 1.93,-30.31 1.38,-4.73 3.47,-9.09 6.02,-13.05 1.2,-2.1 2.68,-3.7 4.02,-5.47 1.61,-1.56 3.03,-3.29 4.88,-4.65 13.99,-11.77 35.1,-14.91 48.68,-8.65 1.77,0.67 3.3,1.69 4.92,2.53 1.35,1.13 3.16,1.98 4.16,3.2 0.59,0.56 1.19,1.11 1.81,1.64 0.55,0.61 1,1.31 1.53,1.93 1.15,1.19 1.86,2.74 2.75,4.14 3.31,5.86 4.62,12.87 4.66,19.26 0.05,6.42 -1.14,12.36 -3.03,17.14 -0.33,1.3 -1,2.3 -1.48,3.43 -0.49,1.11 -0.96,2.22 -1.6,3.1 -0.57,0.98 -1.13,1.91 -1.66,2.81 -0.63,0.82 -1.23,1.59 -1.8,2.33 -4.68,5.96 -9.07,8.97 -8.3,11.88 0.42,1.69 3.1,2.63 8.25,2.06 4.94,-0.88 12.38,-3.99 19.06,-11.3 6.58,-7.23 12.38,-18.25 13.83,-32.03 0.84,-6.87 0.3,-14.44 -1.65,-22.34 -1.93,-7.88 -6.11,-16.13 -12.67,-23.17 -6.46,-6.92 -14.69,-12.26 -24.06,-15.58 -9.33,-3.31 -19.52,-4.49 -29.68,-3.65 -10.17,0.85 -20.39,3.67 -30.02,8.59 -9.6,4.91 -18.7,12.01 -25.88,21.44 -13.97,18.41 -19.12,42.76 -16.24,65.58 0.59,4.75 1.49,9.49 2.71,14.15l-506.22 0c4.79,-0.08 9.58,-0.2 14.36,-0.37 44.07,-1.81 87.59,-7.52 130.19,-16.11 85.27,-17.18 166.34,-44.6 246.8,-70.18 40.24,-12.77 80.35,-25.33 120.79,-35.94 40.37,-10.7 80.88,-20.01 121.3,-19.84 16.06,0.13 31.94,1.79 47.22,5.48 15.3,3.72 29.48,9.67 42.61,17.91 8.09,5.01 15.67,10.89 22.51,17.47 -0.47,0.56 -0.94,1.13 -1.41,1.71 -8.28,10.35 -16.35,23.23 -21.69,38.92 -5.36,15.6 -7.69,34.15 -4.44,53.2 0.43,2.59 0.98,5.18 1.63,7.76zm-742.22 0l-477.52 0c2.78,-3.23 5.33,-6.64 7.62,-10.24 2.51,-4.18 5.04,-8.22 6.76,-12.68 0.93,-2.19 1.86,-4.35 2.67,-6.52 0.63,-2.24 1.25,-4.46 1.87,-6.67 2.46,-8.8 3.2,-18.05 2.62,-26.37 -1.06,-16.85 -6.6,-31.24 -13.98,-42.88 -7.3,-11.74 -16.88,-20.7 -26.93,-27.15 -10.07,-6.46 -21,-10.08 -30.7,-11.36 -9.76,-1.37 -18.5,-0.68 -26.04,0.85 -15.13,3.11 -25.56,9.55 -32.67,15.51 -7.13,6.09 -10.87,12.09 -13.01,16.61 -0.98,2.38 -1.6,4.37 -1.94,6.07 -0.25,1.78 -0.25,3.22 -0.09,4.41 0.35,2.38 1.38,3.73 2.65,4.58 1.31,0.88 3.05,1.35 5.3,1.2 1.12,-0.07 2.37,-0.3 3.75,-0.69 1.46,-0.32 3.09,-0.79 4.83,-1.43 3.68,-1.1 8.05,-2.8 13.86,-4.17 5.77,-1.3 12.99,-2.49 21.27,-1.73 4.1,0.36 8.46,1.19 12.6,2.86 4.19,1.64 7.96,3.94 11.62,7.4 3.59,3.46 7.19,7.88 9.62,13.49 2.55,5.48 4.03,11.99 3.72,18.17 -0.11,3.16 -0.62,5.96 -1.85,8.93 -0.29,0.75 -0.55,1.5 -0.79,2.28l-1.19 2.15c-0.58,1.52 -1.79,2.83 -2.71,4.29 -4.09,5.64 -11.2,10.95 -20.37,14.9 -4.7,1.81 -9.8,3.38 -15.29,4.26 -5.47,0.72 -11.23,1.28 -16.91,0.67 -1.46,0.02 -2.81,-0.37 -4.23,-0.52 -1.42,-0.17 -2.84,-0.36 -4.17,-0.77 -1.38,-0.39 -2.69,-0.55 -4.17,-1.04 -1.49,-0.49 -2.99,-0.98 -4.51,-1.48 -6,-2.26 -12,-5.3 -17.79,-9.17 -11.57,-7.71 -22.06,-18.61 -29.2,-31.53 -7.23,-12.95 -11,-27.2 -10.59,-42.65 0.37,-15.38 4.95,-31.45 13.26,-45.25 4.14,-6.9 9.2,-13.24 15,-18.67l2.17 -2.06 2.42 -1.87c1.63,-1.23 3.17,-2.58 4.84,-3.77 3.5,-2.16 6.85,-4.61 10.67,-6.37 3.61,-2.12 7.67,-3.51 11.58,-5.24 4.14,-1.24 8.16,-2.87 12.52,-3.71 8.51,-2.24 17.56,-3.25 26.7,-3.7 9.15,-0.56 18.49,0.2 27.79,1.12 9.29,1.25 18.57,2.94 27.64,5.44 9.11,2.52 17.87,5.4 26.67,9.15 8.83,3.58 17.44,7.77 25.91,12.16 16.91,8.88 33.15,18.9 48.83,29.19 31.36,20.56 60.85,41.5 89.62,57.34 25.63,14.26 50.34,24.29 72.17,30.21 1.27,0.75 2.54,1.49 3.82,2.22l15.39 7.79c2.58,1.27 5.13,2.64 7.73,3.81l7.83 3.35c5.24,2.2 10.43,4.52 15.71,6.59l16 5.77c5.3,2.02 10.74,3.59 16.16,5.2 5.43,1.57 10.81,3.34 16.28,4.71 10.96,2.62 21.88,5.51 32.95,7.38 31.94,6.23 64.17,9.1 96.24,9.63zm1855.97 -497c2.98,-1.06 6.53,-1.56 10.75,-0.02 4.18,1.55 9.24,5.09 14.39,12.48 5.23,7.35 10.72,18.57 14.71,35.29 3.96,16.66 6.35,38.99 2.86,67.2 -3.57,28.14 -14.34,59.09 -31.46,85.85 -16.95,26.85 -39.65,48.85 -61.79,64.32 -22.17,15.63 -43.8,24.65 -59.26,29.71 -7.8,2.46 -14.02,4.14 -18.39,5.03 -4.32,0.93 -6.68,1.44 -6.68,1.44 0,0 1.98,-1.38 5.6,-3.9 3.63,-2.43 8.72,-6.28 14.84,-11.17 12.16,-9.9 28.06,-24.74 42.48,-43.83 14.49,-19 27.56,-41.93 36.33,-65.65 8.87,-23.65 13.59,-47.99 16.4,-69.71 2.68,-21.78 2.97,-38.97 3.3,-52.59 0.33,-13.63 0.76,-23.78 1.91,-31.45 1.24,-7.71 3.06,-12.9 5.59,-16.49 2.5,-3.59 5.54,-5.49 8.42,-6.52zm-640.52 466.63c13.42,0 13.44,-20.85 0,-20.85 -13.42,0 -13.44,20.85 0,20.85l0 0zm-28.5 -14.59c0,-0.46 0,-0.93 0,-1.39 0,-5.45 -4.79,-10.68 -10.42,-10.42 -5.65,0.25 -10.43,4.58 -10.43,10.42 0,0.46 0,0.93 0,1.39 0,5.45 4.79,10.68 10.43,10.42 5.65,-0.25 10.42,-4.58 10.42,-10.42l0 0zm-46.57 -3.48c13.42,0 13.44,-20.85 0,-20.85 -13.42,0 -13.44,20.85 0,20.85l0 0zm-36.14 -12.51c13.42,0 13.44,-20.85 0,-20.85 -13.42,0 -13.44,20.85 0,20.85l0 0zm-37.53 -15.29c13.42,0 13.44,-20.85 0,-20.85 -13.42,0 -13.44,20.85 0,20.85l0 0zm-49.59 -265.29c0,0 -31.17,38.99 -81.15,64.15 -49.99,25.17 -99.87,26.98 -99.87,26.98 0,0 31.17,-38.99 81.15,-64.15 49.99,-25.17 99.87,-26.98 99.87,-26.98zm568.91 -343.28c0,0 -1.04,-0.16 -3.01,-0.48 -1.97,-0.36 -4.88,-0.72 -8.62,-1.09 -3.75,-0.38 -8.31,-1.02 -13.61,-1.22 -2.65,-0.15 -5.47,-0.32 -8.47,-0.49 -2.99,-0.03 -6.15,-0.07 -9.46,-0.11 -13.23,0 -28.9,0.77 -45.94,3.36 -17.04,2.56 -35.47,6.72 -54.28,12.86 -37.29,12.26 -68.41,28.8 -90.03,41.62 -10.88,6.37 -19.39,11.89 -25.29,15.7 -2.97,1.88 -5.22,3.4 -6.75,4.42 -1.54,1.02 -2.34,1.55 -2.34,1.55 0,0 0.72,-0.64 2.1,-1.87 1.37,-1.24 3.41,-3.04 6.12,-5.28 5.38,-4.52 13.24,-11.03 23.59,-18.45 20.49,-14.89 51.21,-33.97 89.68,-46.62 19.43,-6.34 38.62,-10.06 56.24,-11.8 17.63,-1.77 33.72,-1.36 47.13,-0.18 3.35,0.35 6.54,0.68 9.56,0.99 3.01,0.48 5.85,0.92 8.5,1.34 5.3,0.75 9.83,1.91 13.52,2.73 3.7,0.81 6.54,1.53 8.46,2.14 1.92,0.57 2.93,0.87 2.93,0.87zm36.79 40.69c0,0 -1.17,-0.44 -3.43,-1.22 -2.26,-0.76 -5.53,-2 -9.8,-3.39 -8.62,-2.56 -21.14,-6 -36.87,-8.11 -31.36,-4.38 -75.66,-2.55 -121.09,12.39 -45.48,14.97 -83.17,37.85 -109.54,55.43 -13.19,8.86 -23.59,16.5 -30.82,21.75 -7.17,5.34 -11.13,8.29 -11.13,8.29 0,0 3.45,-3.55 9.7,-9.96 6.39,-6.27 15.71,-15.31 28.01,-25.71 12.3,-10.38 27.62,-22.09 45.93,-33.35 18.24,-11.33 39.69,-21.91 63.47,-29.82 23.95,-7.67 47.81,-11.57 69.56,-11.94 21.76,-0.52 41.32,2.05 57.22,6.01 15.93,3.94 28.14,9.15 36.37,12.98 4.07,2.02 7.14,3.77 9.25,4.88 2.1,1.13 3.17,1.77 3.17,1.77zm-254.16 62.47c6.92,-5.24 14.38,-10.52 22.36,-15.69 19,-12.34 41.16,-23.77 65.6,-31.88 24.28,-7.83 48.67,-11.18 70.49,-10.83 2.32,0.04 4.61,0.12 6.87,0.23 3.52,-0.28 6.97,-0.48 10.36,-0.63 22.77,-1.21 42.55,1.39 59.08,4.45 16.56,3.56 29.96,8.17 40.57,13.13 5.28,2.59 9.97,4.93 14.04,7.28 3.98,2.62 7.41,5.03 10.38,7.26 6.02,4.25 9.71,8.68 12.27,12.01 5.05,6.79 4.95,10.71 3.37,13.32l-532.47 225.65 -0.02 0.02 532.49 -225.66c-1.65,2.7 -5.34,4.69 -13.14,4.41 -3.93,-0.08 -8.67,-1.08 -15.17,-1.8 -3.2,-0.46 -6.71,-1.07 -10.57,-1.87 -3.96,-0.55 -8.36,-1.07 -13.1,-1.86 -9.57,-1.37 -21.04,-2.49 -34.72,-3.02 -13.76,-0.06 -29.72,-0.15 -48.33,2.67 -18.57,2.59 -39.71,7.12 -63.15,15.06 -10.29,3.51 -21.01,7.61 -32.07,12.51 27.38,-2.41 55.51,-1.52 83.38,4.71 18.32,3.61 36.27,10.23 53.46,18.51l12.65 6.83c2.14,1.07 4.13,2.43 6.12,3.79l5.98 4.05c8.19,5.11 15.3,11.69 22.66,17.9 14.28,13.33 26.46,28.83 36.16,45.44 9.45,16.77 16.35,34.62 21.07,52.83 9.02,36.51 8.72,74.67 -1.24,110.13 -4.63,17.81 -12.52,34.67 -21.93,50.27 -2.51,3.83 -5.01,7.64 -7.5,11.44 -2.84,3.55 -5.68,7.08 -8.5,10.6 -2.75,3.61 -5.92,6.76 -9.05,9.93 -3.19,3.1 -6.12,6.5 -9.54,9.26 -3.37,2.82 -6.72,5.62 -10.05,8.41 -3.32,2.81 -6.98,5.02 -10.44,7.51 -6.87,5.08 -14.32,8.85 -21.45,12.96 -14.71,7.24 -29.48,13.36 -44.45,16.99 -14.84,4.17 -29.76,5.97 -44.23,7.08 -7.28,0.01 -14.44,0.44 -21.51,-0.06 -7.06,-0.62 -14.03,-0.77 -20.83,-2.13 -27.33,-4.13 -52,-13.76 -73.18,-26.86 -20.89,-13.52 -37.31,-30 -49.52,-47.84 -12.39,-17.69 -20.24,-37.11 -23.91,-56.18 -0.54,-2.36 -0.89,-4.75 -1.12,-7.15 -0.26,-2.39 -0.52,-4.75 -0.77,-7.09 -0.29,-4.72 -0.24,-9.4 -0.21,-13.94 0.44,-4.57 0.7,-9.05 1.43,-13.38 0.92,-4.37 1.59,-8.44 2.82,-12.72 5.04,-17.45 14.32,-30.94 24.15,-40.88 9.87,-10.04 20.43,-16.89 30.52,-21.71 20.31,-9.53 38.85,-11.04 53,-9 14.27,2.11 23.95,7.54 29.85,12.38 5.92,4.96 8.49,9.21 9.48,12.22 0.98,3.04 0.53,4.8 -0.5,5.93 -1.06,1.17 -2.9,1.81 -5.72,1.67 -2.81,-0.13 -6.76,-0.88 -12.2,-1.66 -5.45,-0.72 -12.5,-1.31 -21.62,0.13 -9.04,1.47 -20.5,5.23 -32.37,13.64 -5.87,4.2 -11.77,9.6 -16.67,16.25 -4.95,6.59 -8.73,14.47 -10.1,22.8 -1.54,9.31 -1.41,20.02 1.79,31.23 3.15,11.2 8.7,23.24 17.72,34.59 8.76,11.44 20.66,22.24 34.83,30.65 14.32,7.99 31.6,14.33 50.85,16.74 4.76,0.94 9.78,0.78 14.78,1.2 5.02,0.29 10.18,-0.23 15.37,-0.22 10.38,-1.08 21.13,-2.4 31.78,-5.59 10.8,-2.66 21.29,-7.28 31.73,-12.37 4.95,-3.01 10.32,-5.57 15.01,-9.19 2.38,-1.75 5.02,-3.24 7.26,-5.21 2.28,-1.91 4.58,-3.84 6.9,-5.78 17.9,-16.06 31.55,-37.02 38.79,-61.94 7.41,-24.71 8.32,-52.59 2.47,-79.27 -3.1,-13.28 -7.67,-26.29 -13.97,-38.42 -6.56,-11.98 -14.6,-22.96 -24.2,-32.66 -5.21,-4.58 -10.04,-9.67 -15.92,-13.54l-4.23 -3.14c-1.39,-1.07 -2.79,-2.14 -4.36,-2.97l-9.14 -5.41c-12.57,-6.62 -25.93,-12.4 -40.3,-15.83 -28.44,-7.81 -59.45,-8.61 -89.83,-5.34 -30.46,3.51 -60.4,12.05 -88.27,23.98 -8.18,3.65 -16.24,7.55 -24.18,11.67 -26.95,22.18 -54.16,46.47 -82.12,70.73 -14.59,12.67 -29.43,25.32 -44.55,37.59 -15.1,12.28 -30.1,24.02 -45.48,35.47 -7.09,5.27 -14.21,10.43 -21.38,15.43 9.04,-4.32 18.39,-8.86 27.94,-13.63 16.79,-8.58 32.65,-17.01 47.23,-24.99 7.14,-4.19 14.21,-7.9 20.55,-11.86 3.2,-1.94 6.44,-3.67 9.4,-5.53 2.97,-1.86 5.84,-3.65 8.59,-5.37 5.65,-3.29 10.44,-6.69 14.9,-9.5 2.22,-1.41 4.29,-2.74 6.22,-3.97 1.86,-1.28 3.57,-2.45 5.12,-3.52 6.22,-4.22 9.9,-6.48 9.9,-6.48 0,0 -1.63,3.87 -5.01,10.77 -0.86,1.73 -1.82,3.64 -2.86,5.73 -1.11,2.05 -2.42,4.2 -3.81,6.54 -2.83,4.63 -5.98,10.08 -10.13,15.53 -2.07,2.79 -4.23,5.69 -6.47,8.68 -2.3,2.99 -4.93,5.87 -7.59,8.94 -5.26,6.24 -11.53,12.22 -18.23,18.5 -13.67,12.15 -30.17,24.06 -49.07,33.7 -18.98,9.47 -38.36,15.66 -56.26,19.44 -9.03,1.66 -17.56,3.15 -25.71,3.67l-1.81 0.15c11.43,1.29 22.47,3.39 32.67,6.18 5.21,1.6 10.12,3.17 14.74,4.71 4.65,1.44 8.79,3.49 12.78,5.12 8,3.24 14.58,7.07 20.28,10.44 5.77,3.22 10.23,6.89 14.04,9.94 3.77,3.12 6.82,5.8 8.99,8.59 8.89,10.76 7.81,16.28 5.49,19.63 -2.4,3.46 -7.54,6.33 -19.7,3.36 -12.48,-2.42 -31.74,-11.11 -67.73,-21.69 -18.1,-4.94 -38.79,-9.75 -60.15,-12.47 -21.33,-2.81 -43.23,-3.47 -62.92,-2.25 -15.66,0.9 -29.75,3.31 -41.11,5.62 -4.22,1.01 -8.37,1.96 -12.45,2.8 -4.21,1.11 -7.64,2.18 -10.25,2.85 -3.41,0.94 -5.29,1.45 -5.29,1.45l3.13 -2.12c-4.28,0.69 -8.41,1.52 -12.46,2.13l-10.42 1.83c-1.95,0.34 -3.87,0.68 -5.75,1.01 -1.9,0.21 -3.77,0.42 -5.62,0.63 -7.35,0.81 -14.14,1.67 -20.45,1.73 -6.29,0.25 -12,0.6 -17.14,0.26 -5.14,-0.19 -9.68,-0.27 -13.6,-0.51 -3.91,-0.43 -7.21,-0.79 -9.87,-1.08l-8.08 -0.89 0 0 0 0 0.01 0 0 0 0.01 0 232.69 -98.61 -0.84 0.74c-19.4,17.13 -38.31,30.73 -51.75,40.49 -13.5,9.71 -21.66,15.57 -21.66,15.57l0.07 -0.02c-6.75,3.24 -13.43,6.23 -20,8.98 -13.17,5.04 -25.61,10.18 -37.64,13.56 -5.99,1.76 -11.69,3.87 -17.33,5.17 -5.64,1.36 -11.03,2.66 -16.17,3.91 -2.58,0.63 -5.09,1.24 -7.54,1.83 -2.48,0.44 -4.89,0.86 -7.23,1.28 -4.7,0.82 -9.12,1.58 -13.24,2.3 -8.26,1.65 -15.42,2.23 -21.26,2.87l-18.11 1.95 232.74 -98.63c19.18,-16.92 38.16,-37.7 51.62,-60.94 6.91,-11.72 12.3,-23.94 16.02,-35.96 3.62,-11.96 5.65,-24.05 5.95,-34.75 0.44,-21.88 -5.03,-38.76 -10.15,-50.99 -5.5,-12.16 -10.89,-20.25 -14.87,-26.31 -3.98,-6.08 -6.56,-10.26 -7.69,-13.56 -1.13,-3.33 -0.79,-5.82 0.14,-7.63 0.96,-1.87 2.69,-3.6 6.51,-4.13 3.81,-0.54 9.84,0.13 18.43,4.61 8.51,4.43 19.68,12.98 30.21,28.77 10.05,15.79 19.68,39.12 19.04,70.44 -0.48,15.76 -4.04,31.58 -10.03,46.91 -1.23,3.09 -2.56,6.15 -3.99,9.17 5.09,-4.62 10.23,-9.28 15.43,-13.97 6.01,-5.88 12,-11.84 18,-17.84 1.05,-1.7 2.09,-3.42 3.13,-5.16 9.87,-16.57 18.44,-35.1 24.47,-54.72 6.04,-19.58 9.38,-40.3 8.63,-60.44 -0.6,-20.24 -5.42,-39.23 -13.8,-56.27 -8.3,-16.97 -20.05,-31.13 -32.84,-41.39 -6.41,-5.15 -13.09,-8.93 -19.57,-11.99 -1.64,-0.72 -3.26,-1.43 -4.85,-2.13 -1.59,-0.52 -3.16,-1.04 -4.7,-1.55 -1.51,-0.6 -3.1,-0.95 -4.67,-1.29 -1.56,-0.34 -3.08,-0.78 -4.62,-1.08 -12.37,-2.13 -23.9,-1.55 -33.71,0.25 -9.85,1.82 -18.01,4.83 -24.8,7.88 -3.31,1.66 -6.45,3.12 -9.07,4.83 -2.83,1.49 -5.1,3.2 -7.32,4.67 -2.33,1.38 -4.03,3 -5.85,4.28 -0.9,0.65 -1.75,1.27 -2.57,1.87 -0.75,0.63 -1.46,1.24 -2.14,1.81 -1.39,1.13 -2.7,2.1 -3.93,2.92 -1.14,0.87 -2.11,1.65 -3.07,2.26 -3.8,2.48 -6.5,2.71 -8.37,1.92 -1.94,-0.82 -3.63,-2.74 -3.69,-7.97 0,-1.3 0.05,-2.85 0.33,-4.58 0.37,-1.68 0.91,-3.6 1.63,-5.78 0.39,-1.11 0.8,-2.26 1.23,-3.47 0.51,-1.19 1.16,-2.38 1.83,-3.67 1.4,-2.53 2.86,-5.54 5.11,-8.33 2.15,-2.9 4.57,-6.14 7.74,-9.16 3,-3.27 6.69,-6.28 10.85,-9.5 8.44,-6.14 19.25,-12.16 32.91,-16.29 13.62,-4.09 30.15,-6.36 49.09,-3.98 2.36,0.33 4.74,0.85 7.17,1.3 2.43,0.44 4.89,0.94 7.34,1.74 2.46,0.74 4.96,1.5 7.49,2.26 2.4,0.97 4.83,1.95 7.3,2.95 9.71,4.27 19.56,9.84 28.73,17.18 18.34,14.65 33.53,34.66 43.24,57.47 4.87,11.41 8.46,23.48 10.61,35.91 2.16,12.49 2.74,25.09 2.08,37.44 -1.14,21.85 -6.35,42.91 -13.9,62.14 13.59,-13.36 27.39,-26.52 41.52,-39.19 25.95,-23.26 53.09,-44.84 81.15,-62.68zm-189.36 -1.96c13.42,0 13.44,-20.85 0,-20.85 -13.42,0 -13.44,20.85 0,20.85l0 0zm-25.02 -34.75c13.42,0 13.44,-20.85 0,-20.85 -13.42,0 -13.44,20.85 0,20.85l0 0zm-33.36 -9.73c13.42,0 13.44,-20.85 0,-20.85 -13.42,0 -13.44,20.85 0,20.85l0 0zm-31.97 5.56c0.46,0 0.93,0 1.39,0 5.45,0 10.68,-4.79 10.42,-10.42 -0.25,-5.65 -4.58,-10.43 -10.42,-10.43 -0.46,0 -0.93,0 -1.39,0 -5.45,0 -10.68,4.79 -10.42,10.43 0.25,5.65 4.58,10.42 10.42,10.42l0 0zm-66.72 148.74c13.42,0 13.44,-20.85 0,-20.85 -13.42,0 -13.44,20.85 0,20.85l0 0zm-36.14 -2.78c13.42,0 13.44,-20.85 0,-20.85 -13.42,0 -13.44,20.85 0,20.85l0 0zm-37.53 9.73c13.42,0 13.44,-20.85 0,-20.85 -13.42,0 -13.44,20.85 0,20.85l0 0zm-29.19 -4.17c-0.46,0 -0.93,0 -1.39,0 -5.46,0 -10.68,4.79 -10.43,10.42 0.25,5.65 4.58,10.42 10.43,10.42 0.46,0 0.92,0 1.39,0 5.46,0 10.68,-4.79 10.43,-10.42 -0.26,-5.65 -4.58,-10.42 -10.43,-10.42l0 0zm-137.62 -196.38c29.46,42.88 21.22,72.26 21.22,72.26 0,0 7.8,-18.43 38.98,-18.43 31.19,0 45.48,40.57 45.48,40.57 -76.66,22.89 -105.67,95.2 -105.67,95.2 0,0 -29.01,-72.31 -105.67,-95.2 0,0 14.29,-40.57 45.48,-40.57 31.18,0 38.98,18.43 38.98,18.43 0,0 -8.24,-29.38 21.21,-72.26zm165.86 72.26c0,0 -10.26,70.19 -54.68,134.99 -44.42,64.81 -106.17,99.69 -106.17,99.69 0,0 10.26,-70.19 54.68,-134.99 44.42,-64.8 106.17,-99.69 106.17,-99.69zm106.53 134.58c0,0 -3.86,4.24 -10.82,11.05 -6.9,6.71 -16.76,16.29 -28.67,27.86 -5.88,5.62 -12.26,11.72 -19.06,18.22 -6.87,6.25 -13.86,13.24 -21.44,19.98 -14.91,13.93 -31.19,28.37 -48.9,42.69 -17.59,14.47 -35.01,27.5 -51.66,39.31 -8.13,6.07 -16.39,11.51 -23.89,16.98 -7.73,5.35 -15,10.37 -21.68,15 -13.73,9.33 -25.1,17.06 -33.06,22.47 -8.08,5.46 -13,8.38 -13,8.38 0,0 0.43,-5.54 2.06,-15.4 0.44,-2.47 0.93,-5.21 1.46,-8.19 0.62,-2.96 1.43,-6.1 2.3,-9.51 1.8,-6.77 3.84,-14.62 7,-22.79 1.52,-4.13 3.18,-8.45 4.99,-12.92 1.83,-4.46 4.04,-8.89 6.3,-13.55 4.43,-9.4 10.1,-18.81 16.37,-28.6 12.89,-19.22 29.58,-38.76 50.2,-55.69 20.74,-16.79 43.24,-29.21 64.66,-37.97 10.85,-4.17 21.2,-7.83 31.3,-10.28 5.02,-1.27 9.81,-2.55 14.55,-3.44 4.75,-0.87 9.31,-1.63 13.66,-2.29 8.64,-1.45 16.74,-1.87 23.73,-2.27 3.51,-0.17 6.76,-0.33 9.78,-0.34 3.03,0.08 5.81,0.15 8.32,0.22 9.98,0.39 15.5,1.08 15.5,1.08zm368.12 183.74c0,0 0.72,-0.2 2.06,-0.56 1.34,-0.4 3.24,-0.74 5.64,-1.55 4.77,-1.37 11.35,-3.84 18.41,-7.42 14.33,-7.09 29.87,-19.76 40.97,-34.9 11.15,-15.1 18.63,-33.7 21.14,-49.48 1.32,-7.82 1.73,-14.83 1.61,-19.79 0.06,-2.53 -0.18,-4.45 -0.19,-5.85 -0.05,-1.38 -0.07,-2.13 -0.07,-2.13 0,0 0.59,0.46 1.66,1.3 1.03,0.89 2.77,2.15 4.57,4.09 3.83,3.75 8.78,9.95 12.96,19.02 4.18,9.02 7.21,21.03 6.66,34.8 -0.5,13.69 -4.98,29.2 -14.82,42.72 -9.98,13.41 -23.46,22.3 -36.38,26.85 -12.99,4.62 -25.35,5.3 -35.21,3.98 -9.9,-1.29 -17.3,-4.18 -22.01,-6.72 -2.38,-1.15 -4.1,-2.43 -5.26,-3.15 -1.12,-0.78 -1.74,-1.2 -1.74,-1.2zm109.75 9.26c0,0 0.68,-0.82 1.94,-2.35 1.22,-1.58 3.24,-3.55 5.35,-6.56 4.48,-5.66 10.1,-14.35 15.17,-25.22 10.33,-21.6 16.64,-53.65 9.54,-84.15 -7.16,-30.49 -27.02,-56.42 -45.85,-71.21 -9.36,-7.5 -18.24,-12.8 -24.77,-15.89 -3.22,-1.76 -5.9,-2.63 -7.7,-3.51 -1.81,-0.81 -2.78,-1.24 -2.78,-1.24 0,0 1.04,-0.19 2.97,-0.53 1.94,-0.25 4.91,-0.99 8.71,-1.11 7.66,-0.65 19.06,-0.22 32.85,3.65 6.9,1.9 14.21,4.91 21.81,8.89 7.41,4.21 15.22,9.31 22.39,16.03 14.5,13.14 27.32,32.3 32.89,55.44 5.26,23.22 2.26,46.08 -4.91,64.28 -3.46,9.2 -8.19,17.23 -12.97,24.3 -5.05,6.94 -10.27,12.88 -15.61,17.64 -10.65,9.58 -20.68,15.02 -27.83,17.83 -3.46,1.58 -6.45,2.23 -8.3,2.87 -1.88,0.54 -2.9,0.84 -2.9,0.84zm-401.12 -81l0.01 -0.01 -5.29 2.24 -0.01 0.01 5.29 -2.24zm-309.66 131.21l-0 0 0 0zm-1113.69 -279.65c-2.98,-1.06 -6.53,-1.56 -10.75,-0.02 -4.18,1.55 -9.24,5.09 -14.39,12.48 -5.23,7.35 -10.72,18.57 -14.72,35.29 -3.96,16.66 -6.35,38.99 -2.86,67.2 3.57,28.14 14.34,59.09 31.46,85.85 16.95,26.85 39.65,48.85 61.79,64.32 22.17,15.63 43.8,24.65 59.26,29.71 7.8,2.46 14.02,4.14 18.39,5.03 4.31,0.93 6.68,1.44 6.68,1.44 0,0 -1.98,-1.38 -5.6,-3.9 -3.63,-2.43 -8.72,-6.28 -14.84,-11.17 -12.16,-9.9 -28.06,-24.74 -42.48,-43.83 -14.49,-19 -27.57,-41.93 -36.33,-65.65 -8.87,-23.65 -13.59,-47.99 -16.4,-69.71 -2.68,-21.78 -2.96,-38.97 -3.3,-52.59 -0.33,-13.63 -0.76,-23.78 -1.91,-31.45 -1.24,-7.71 -3.06,-12.9 -5.59,-16.49 -2.51,-3.59 -5.54,-5.49 -8.42,-6.52zm640.52 466.63c-13.42,0 -13.44,-20.85 0,-20.85 13.42,0 13.44,20.85 0,20.85l0 0zm28.5 -14.59c0,-0.46 0,-0.93 0,-1.39 0,-5.45 4.79,-10.68 10.42,-10.42 5.65,0.25 10.43,4.58 10.43,10.42 0,0.46 0,0.93 0,1.39 0,5.45 -4.79,10.68 -10.43,10.42 -5.65,-0.25 -10.42,-4.58 -10.42,-10.42l0 0zm46.57 -3.48c-13.42,0 -13.44,-20.85 0,-20.85 13.42,0 13.44,20.85 0,20.85l0 0zm36.14 -12.51c-13.42,0 -13.44,-20.85 0,-20.85 13.42,0 13.44,20.85 0,20.85l0 0zm37.53 -15.29c-13.41,0 -13.44,-20.85 0,-20.85 13.42,0 13.44,20.85 0,20.85l0 0zm49.59 -265.29c0,0 31.17,38.99 81.15,64.15 49.99,25.17 99.87,26.98 99.87,26.98 0,0 -31.17,-38.99 -81.15,-64.15 -49.99,-25.17 -99.87,-26.98 -99.87,-26.98zm-568.91 -343.28c0,0 1.04,-0.16 3.01,-0.48 1.97,-0.36 4.88,-0.72 8.62,-1.09 3.75,-0.38 8.31,-1.02 13.61,-1.22 2.65,-0.15 5.47,-0.32 8.47,-0.49 2.99,-0.03 6.15,-0.07 9.46,-0.11 13.23,0 28.9,0.77 45.94,3.36 17.04,2.56 35.47,6.72 54.28,12.86 37.29,12.26 68.41,28.8 90.03,41.62 10.88,6.37 19.39,11.89 25.29,15.7 2.97,1.88 5.22,3.4 6.75,4.42 1.54,1.02 2.34,1.55 2.34,1.55 0,0 -0.72,-0.64 -2.1,-1.87 -1.37,-1.24 -3.41,-3.04 -6.12,-5.28 -5.38,-4.52 -13.24,-11.03 -23.59,-18.45 -20.48,-14.89 -51.21,-33.97 -89.68,-46.62 -19.43,-6.34 -38.62,-10.06 -56.24,-11.8 -17.63,-1.77 -33.72,-1.36 -47.13,-0.18 -3.35,0.35 -6.54,0.68 -9.56,0.99 -3.01,0.48 -5.84,0.92 -8.5,1.34 -5.3,0.75 -9.82,1.91 -13.52,2.73 -3.7,0.81 -6.54,1.53 -8.46,2.14 -1.92,0.57 -2.93,0.87 -2.93,0.87zm-36.79 40.69c0,0 1.17,-0.44 3.43,-1.22 2.26,-0.76 5.54,-2 9.8,-3.39 8.62,-2.56 21.14,-6 36.87,-8.11 31.36,-4.38 75.66,-2.55 121.09,12.39 45.48,14.97 83.17,37.85 109.54,55.43 13.19,8.86 23.59,16.5 30.81,21.75 7.17,5.34 11.13,8.29 11.13,8.29 0,0 -3.46,-3.55 -9.7,-9.96 -6.39,-6.27 -15.71,-15.31 -28.01,-25.71 -12.3,-10.38 -27.62,-22.09 -45.93,-33.35 -18.24,-11.33 -39.69,-21.91 -63.47,-29.82 -23.95,-7.67 -47.81,-11.57 -69.57,-11.94 -21.76,-0.52 -41.32,2.05 -57.21,6.01 -15.93,3.94 -28.14,9.15 -36.37,12.98 -4.08,2.02 -7.14,3.77 -9.25,4.88 -2.1,1.13 -3.17,1.77 -3.17,1.77zm254.16 62.47c-6.92,-5.24 -14.38,-10.52 -22.35,-15.68 -19,-12.34 -41.16,-23.77 -65.6,-31.88 -24.28,-7.83 -48.66,-11.18 -70.49,-10.83 -2.32,0.04 -4.61,0.12 -6.87,0.23 -3.52,-0.28 -6.97,-0.48 -10.36,-0.63 -22.77,-1.21 -42.55,1.39 -59.08,4.45 -16.56,3.56 -29.96,8.17 -40.57,13.13 -5.28,2.59 -9.97,4.93 -14.04,7.28 -3.98,2.62 -7.41,5.03 -10.38,7.26 -6.02,4.25 -9.71,8.68 -12.27,12.01 -5.05,6.79 -4.95,10.71 -3.37,13.32 1.65,2.7 5.34,4.69 13.14,4.41 3.92,-0.08 8.67,-1.08 15.16,-1.8 3.19,-0.46 6.71,-1.07 10.56,-1.87 3.96,-0.55 8.36,-1.07 13.1,-1.86 9.57,-1.37 21.04,-2.49 34.72,-3.02 13.76,-0.06 29.72,-0.15 48.34,2.67 18.57,2.59 39.71,7.12 63.15,15.06 10.29,3.51 21.01,7.61 32.07,12.51 -27.38,-2.41 -55.51,-1.52 -83.38,4.71 -18.32,3.61 -36.27,10.23 -53.46,18.51l-12.65 6.83c-2.14,1.07 -4.13,2.43 -6.12,3.79l-5.98 4.05c-8.19,5.11 -15.3,11.69 -22.66,17.9 -14.28,13.33 -26.46,28.83 -36.16,45.44 -9.45,16.77 -16.35,34.62 -21.07,52.83 -9.03,36.51 -8.72,74.67 1.24,110.13 4.63,17.81 12.52,34.67 21.93,50.27 2.51,3.83 5.01,7.64 7.5,11.44 2.85,3.55 5.68,7.08 8.51,10.6 2.75,3.61 5.91,6.76 9.05,9.93 3.19,3.1 6.12,6.5 9.54,9.26 3.37,2.82 6.72,5.62 10.05,8.41 3.32,2.81 6.98,5.02 10.44,7.51 6.87,5.08 14.32,8.85 21.45,12.96 14.71,7.24 29.48,13.36 44.45,16.99 14.84,4.17 29.76,5.97 44.23,7.08 7.28,0.01 14.45,0.44 21.51,-0.06 7.06,-0.62 14.03,-0.77 20.83,-2.13 27.33,-4.13 52,-13.76 73.18,-26.86 20.89,-13.52 37.31,-30 49.52,-47.84 12.39,-17.69 20.24,-37.11 23.91,-56.18 0.55,-2.36 0.89,-4.75 1.12,-7.15 0.26,-2.39 0.52,-4.75 0.77,-7.09 0.29,-4.72 0.24,-9.4 0.21,-13.94 -0.44,-4.57 -0.7,-9.05 -1.43,-13.38 -0.92,-4.37 -1.6,-8.44 -2.82,-12.72 -5.04,-17.45 -14.32,-30.94 -24.15,-40.88 -9.87,-10.04 -20.43,-16.89 -30.52,-21.71 -20.31,-9.53 -38.85,-11.04 -53,-9 -14.27,2.11 -23.95,7.54 -29.85,12.38 -5.92,4.96 -8.49,9.21 -9.48,12.22 -0.98,3.04 -0.53,4.8 0.5,5.93l229.58 43.42c-2.19,-2.26 -4.26,-4.52 -6.2,-6.82 -2.66,-3.08 -5.29,-5.95 -7.59,-8.94 -2.23,-3 -4.39,-5.9 -6.47,-8.68 -4.15,-5.45 -7.3,-10.89 -10.13,-15.53 -1.39,-2.34 -2.71,-4.49 -3.81,-6.54 -1.04,-2.08 -2,-4 -2.87,-5.73 -3.38,-6.89 -5.01,-10.77 -5.01,-10.77 0,0 3.67,2.26 9.9,6.48 1.55,1.06 3.26,2.24 5.12,3.52 1.92,1.22 4,2.55 6.22,3.97 4.46,2.81 9.25,6.21 14.9,9.5 2.76,1.72 5.63,3.51 8.6,5.37 2.96,1.86 6.2,3.6 9.4,5.53 6.34,3.96 13.42,7.68 20.55,11.86 14.58,7.98 30.44,16.41 47.23,24.99 7.81,3.89 15.47,7.64 22.95,11.23l63.02 11.92c1.98,1.21 3.96,2.39 5.92,3.53 23.67,13.76 45.32,22.87 60.75,29.28 14.81,6.08 24.03,9.58 24.77,9.86 6.75,3.23 13.42,6.23 19.99,8.97 13.17,5.04 25.61,10.18 37.64,13.56 5.99,1.76 11.69,3.87 17.33,5.17 5.64,1.36 11.03,2.66 16.17,3.91 2.58,0.63 5.1,1.24 7.54,1.83 2.48,0.44 4.89,0.86 7.23,1.28 4.7,0.82 9.12,1.58 13.24,2.3 8.26,1.65 15.42,2.23 21.26,2.87l18.11 1.95 -197.74 -70.3c-10.42,-7.8 -22.18,-17.02 -34.14,-27.57 -19.47,-17.06 -38.82,-38.1 -52.48,-61.7 -6.91,-11.72 -12.3,-23.94 -16.02,-35.96 -3.62,-11.96 -5.65,-24.05 -5.95,-34.75 -0.44,-21.88 5.02,-38.76 10.15,-50.99 5.5,-12.16 10.89,-20.25 14.87,-26.31 3.99,-6.08 6.56,-10.26 7.69,-13.56 1.13,-3.33 0.79,-5.82 -0.14,-7.63 -0.96,-1.87 -2.69,-3.6 -6.51,-4.13 -3.81,-0.54 -9.84,0.13 -18.42,4.61 -8.51,4.43 -19.68,12.98 -30.21,28.77 -10.05,15.79 -19.68,39.12 -19.04,70.44 0.47,15.76 4.04,31.58 10.03,46.91 1.23,3.09 2.57,6.15 3.99,9.17 -5.1,-4.62 -10.24,-9.29 -15.44,-13.99 -6,-5.88 -11.99,-11.83 -17.98,-17.83 -1.05,-1.7 -2.09,-3.42 -3.13,-5.16 -9.87,-16.57 -18.44,-35.1 -24.47,-54.72 -6.05,-19.58 -9.38,-40.3 -8.63,-60.44 0.6,-20.24 5.43,-39.23 13.8,-56.27 8.3,-16.97 20.05,-31.13 32.84,-41.39 6.41,-5.15 13.09,-8.93 19.57,-11.99 1.64,-0.72 3.26,-1.43 4.85,-2.13 1.59,-0.52 3.16,-1.04 4.7,-1.55 1.51,-0.6 3.1,-0.95 4.67,-1.29 1.56,-0.34 3.08,-0.78 4.62,-1.08 12.37,-2.13 23.9,-1.55 33.71,0.25 9.85,1.82 18.01,4.83 24.8,7.88 3.31,1.66 6.45,3.12 9.07,4.83 2.83,1.49 5.1,3.2 7.32,4.67 2.33,1.38 4.03,3 5.85,4.28 0.9,0.65 1.75,1.27 2.57,1.87 0.75,0.63 1.46,1.24 2.14,1.81 1.39,1.13 2.7,2.1 3.93,2.92 1.14,0.87 2.1,1.65 3.06,2.26 3.8,2.48 6.5,2.71 8.37,1.92 1.94,-0.82 3.63,-2.74 3.69,-7.97 0,-1.3 -0.04,-2.85 -0.33,-4.58 -0.38,-1.68 -0.91,-3.6 -1.63,-5.78 -0.39,-1.11 -0.8,-2.26 -1.23,-3.47 -0.51,-1.19 -1.16,-2.38 -1.83,-3.67 -1.4,-2.53 -2.87,-5.54 -5.11,-8.33 -2.15,-2.9 -4.57,-6.14 -7.74,-9.16 -3,-3.27 -6.69,-6.28 -10.85,-9.5 -8.43,-6.14 -19.25,-12.16 -32.91,-16.29 -13.62,-4.09 -30.16,-6.36 -49.1,-3.98 -2.36,0.33 -4.74,0.85 -7.17,1.3 -2.43,0.44 -4.89,0.94 -7.34,1.74 -2.46,0.74 -4.96,1.5 -7.49,2.26 -2.4,0.97 -4.83,1.95 -7.3,2.95 -9.71,4.27 -19.56,9.84 -28.73,17.18 -18.34,14.65 -33.53,34.66 -43.24,57.47 -4.87,11.41 -8.46,23.48 -10.61,35.91 -2.16,12.49 -2.74,25.09 -2.08,37.44 1.14,21.85 6.34,42.91 13.9,62.14 -13.59,-13.36 -27.39,-26.52 -41.52,-39.19 -25.95,-23.26 -53.09,-44.85 -81.15,-62.68zm189.36 -1.96c-13.42,0 -13.44,-20.85 0,-20.85 13.42,0 13.44,20.85 0,20.85l0 0zm25.02 -34.75c-13.42,0 -13.44,-20.85 0,-20.85 13.42,0 13.44,20.85 0,20.85l0 0zm33.36 -9.73c-13.42,0 -13.44,-20.85 0,-20.85 13.42,0 13.44,20.85 0,20.85l0 0zm31.97 5.56c-0.46,0 -0.93,0 -1.39,0 -5.45,0 -10.68,-4.79 -10.42,-10.42 0.25,-5.65 4.58,-10.43 10.42,-10.43 0.46,0 0.93,0 1.39,0 5.45,0 10.68,4.79 10.42,10.43 -0.25,5.65 -4.58,10.42 -10.42,10.42l0 0zm66.72 148.74c-13.42,0 -13.44,-20.85 0,-20.85 13.42,0 13.44,20.85 0,20.85l0 0zm36.14 -2.78c-13.42,0 -13.44,-20.85 0,-20.85 13.42,0 13.44,20.85 0,20.85l0 0zm37.53 9.73c-13.42,0 -13.44,-20.85 0,-20.85 13.42,0 13.44,20.85 0,20.85l0 0zm29.19 -4.17c0.46,0 0.93,0 1.39,0 5.45,0 10.68,4.79 10.42,10.42 -0.25,5.65 -4.58,10.42 -10.42,10.42 -0.46,0 -0.93,0 -1.39,0 -5.46,0 -10.68,-4.79 -10.42,-10.42 0.25,-5.65 4.58,-10.42 10.42,-10.42l0 0zm-28.24 -124.11c0,0 10.26,70.19 54.68,134.99 44.42,64.81 106.17,99.69 106.17,99.69 0,0 -10.26,-70.19 -54.68,-134.99 -44.42,-64.8 -106.17,-99.69 -106.17,-99.69zm-106.53 134.58c0,0 3.86,4.24 10.82,11.05 6.9,6.71 16.76,16.29 28.67,27.86 5.88,5.62 12.26,11.72 19.06,18.22 6.86,6.25 13.86,13.24 21.44,19.98 14.91,13.93 31.19,28.37 48.9,42.69 17.59,14.47 35.01,27.5 51.66,39.31 8.13,6.07 16.39,11.51 23.89,16.98 7.73,5.35 15,10.37 21.68,15 13.73,9.33 25.1,17.06 33.06,22.47 8.08,5.46 13,8.38 13,8.38 0,0 -0.43,-5.54 -2.06,-15.4 -0.44,-2.47 -0.93,-5.21 -1.46,-8.19 -0.62,-2.96 -1.43,-6.1 -2.3,-9.51 -1.8,-6.77 -3.84,-14.62 -7,-22.79 -1.52,-4.13 -3.18,-8.45 -4.99,-12.92 -1.83,-4.46 -4.04,-8.89 -6.3,-13.55 -4.43,-9.4 -10.1,-18.81 -16.37,-28.6 -12.89,-19.22 -29.58,-38.76 -50.2,-55.69 -20.74,-16.79 -43.24,-29.21 -64.66,-37.97 -10.85,-4.17 -21.2,-7.83 -31.3,-10.28 -5.02,-1.27 -9.81,-2.55 -14.55,-3.44 -4.75,-0.87 -9.31,-1.63 -13.66,-2.29 -8.64,-1.45 -16.74,-1.87 -23.73,-2.27 -3.51,-0.17 -6.76,-0.33 -9.78,-0.34 -3.03,0.08 -5.81,0.15 -8.32,0.22 -9.98,0.39 -15.5,1.08 -15.5,1.08zm-368.12 183.74c0,0 -0.72,-0.2 -2.06,-0.56 -1.34,-0.4 -3.24,-0.74 -5.64,-1.55 -4.77,-1.37 -11.35,-3.84 -18.41,-7.42 -14.32,-7.09 -29.87,-19.76 -40.96,-34.9 -11.15,-15.1 -18.63,-33.7 -21.14,-49.48 -1.32,-7.82 -1.73,-14.83 -1.61,-19.79 -0.06,-2.53 0.18,-4.45 0.19,-5.85 0.05,-1.38 0.07,-2.13 0.07,-2.13 0,0 -0.59,0.46 -1.66,1.3 -1.03,0.89 -2.77,2.15 -4.57,4.09 -3.83,3.75 -8.78,9.95 -12.96,19.02 -4.18,9.02 -7.21,21.03 -6.66,34.8 0.5,13.69 4.98,29.2 14.82,42.72 9.99,13.41 23.46,22.3 36.38,26.85 12.99,4.62 25.35,5.3 35.21,3.98 9.9,-1.29 17.3,-4.18 22.02,-6.72 2.38,-1.15 4.09,-2.43 5.26,-3.15 1.12,-0.78 1.73,-1.2 1.73,-1.2zm-109.75 9.26c0,0 -0.68,-0.82 -1.94,-2.35 -1.22,-1.58 -3.24,-3.55 -5.35,-6.56 -4.48,-5.66 -10.1,-14.35 -15.17,-25.22 -10.32,-21.6 -16.64,-53.65 -9.53,-84.15 7.15,-30.49 27.02,-56.42 45.85,-71.21 9.35,-7.5 18.24,-12.8 24.77,-15.89 3.23,-1.76 5.9,-2.63 7.7,-3.51 1.81,-0.81 2.78,-1.24 2.78,-1.24 0,0 -1.04,-0.19 -2.97,-0.53 -1.94,-0.25 -4.91,-0.99 -8.71,-1.11 -7.66,-0.65 -19.06,-0.22 -32.85,3.65 -6.9,1.9 -14.21,4.91 -21.81,8.89 -7.41,4.21 -15.22,9.31 -22.39,16.03 -14.5,13.14 -27.32,32.3 -32.89,55.44 -5.26,23.22 -2.26,46.08 4.91,64.28 3.45,9.2 8.19,17.23 12.97,24.3 5.05,6.94 10.27,12.88 15.61,17.64 10.65,9.58 20.68,15.02 27.83,17.83 3.46,1.58 6.45,2.23 8.3,2.87 1.89,0.54 2.9,0.84 2.9,0.84zm710.78 50.21l0 0 -0 0z"/>
 </g>
</svg>
