<?xml version="1.0" encoding="UTF-8"?>
<!DOCTYPE svg PUBLIC "-//W3C//DTD SVG 1.1//EN" "http://www.w3.org/Graphics/SVG/1.1/DTD/svg11.dtd">
<!-- Creator: CorelDRAW 2019 (64-Bit) -->
<svg xmlns="http://www.w3.org/2000/svg" xml:space="preserve" width="2.89292in" height="0.929421in" version="1.1" style="shape-rendering:geometricPrecision; text-rendering:geometricPrecision; image-rendering:optimizeQuality; fill-rule:evenodd; clip-rule:evenodd"
viewBox="0 0 2869.91 922.03"
 xmlns:xlink="http://www.w3.org/1999/xlink"
 xmlns:xodm="http://www.corel.com/coreldraw/odm/2003">
 <defs>
  <style type="text/css">
   <![CDATA[
    .fil2 {fill:#FEFEFE;fill-rule:nonzero}
    .fil1 {fill:#4A494B;fill-rule:nonzero}
    .fil0 {fill:#795411;fill-rule:nonzero}
   ]]>
  </style>
 </defs>
 <g id="Layer_x0020_1">
  <metadata id="CorelCorpID_0Corel-Layer"/>
  <g id="_2519198341200">
   <path class="fil0" d="M1666.06 737.31c-22.52,-6.41 -45.51,-14.56 -62.35,-25.46 -0.4,-0.28 -0.76,-0.36 -1.14,-0.55 -4.52,-15.14 -9.77,-30.08 -15.56,-44.9 -3.65,1.87 -7.7,2.66 -11.67,2.28 17.24,43.7 29.75,88.5 32.83,136.16 -13.6,10.99 -26.59,24.33 -29.3,42.22 -2.82,18.56 13.94,32.09 30.41,34.43 16.93,2.43 33.74,-9.98 33.95,-27.28 0.23,-17.69 -12.01,-37.53 -23.52,-50.41 -1.17,-17.11 -3.47,-33.9 -6.74,-50.36 19.33,13.43 34.8,31.83 52.94,46.87 -8.13,17.72 1.05,41.56 16.09,52.76 12.74,9.51 39.49,14.19 48.18,-3.4 7.42,-15.05 -4.12,-33.28 -14.59,-43.57 -11.77,-11.56 -25.34,-15.63 -40.59,-12.72 -0.37,-0.64 -0.83,-1.25 -1.49,-1.78 -21.69,-17.68 -39.17,-40.28 -63.89,-54.03 -0.95,-3.98 -2.08,-7.89 -3.13,-11.85 14.41,6.39 42.79,18.59 62.51,24.38 9.51,8.94 18.74,16.03 32.34,19.32 11.85,2.88 31.64,3.1 36.62,-11.14 5.67,-16.23 -7.72,-35.16 -23.4,-39.03 -17.09,-4.23 -36.97,5.75 -48.51,18.06z"/>
   <path class="fil0" d="M2379.66 628.03c-48.29,-34.96 -101.31,-47.48 -160.26,-42.35 -46.6,4.05 -101.05,17.99 -133.28,54.31 -44.22,-24.23 -90.5,-46.76 -137.8,-64.12 44.28,-7.26 85.32,-16.33 125.23,-41.14 34.24,-21.3 71.44,-44.92 93.81,-79.39 2.63,-4.05 0.58,-10.65 -4.88,-10.86 -102.24,-3.8 -197.58,24.51 -249.68,118.62 -0.19,0.32 -0.19,0.66 -0.32,0.98 -1.36,-0.38 -2.7,-0.77 -4.05,-1.14 -0.11,-0.06 -0.19,-0.11 -0.29,-0.17 -0.65,-0.3 -1.23,-0.34 -1.83,-0.44 -47.09,-12.74 -96.67,-16.38 -145.57,-19.25 36.46,-9.76 72.34,-18.04 101.86,-44.04 30.88,-27.18 58.17,-62.84 66.48,-103.74 0.99,-4.91 -5.39,-9.58 -9.74,-6.97 -43.76,26.19 -97.14,25.38 -137.55,58.47 -29.41,24.09 -55.14,55.45 -61.05,93.76 -0.04,0.05 -0.08,0.12 -0.12,0.18 -53.28,-2.88 -109.47,-0.18 -154.31,31.52 -7.26,5.14 1.57,15.71 8.79,10.6 35.23,-24.88 78.26,-30.13 121.11,-29.44 9.07,53.05 32.81,107.36 67.1,148.67 31.15,37.52 78.38,58.55 118.81,84.05 4.96,3.14 11.82,-0.54 10.8,-6.71 -8.94,-54.33 -39.2,-105.17 -70.93,-149.19 -19.02,-26.4 -43.95,-55.96 -73.85,-73.93 3.21,0.23 6.38,0.51 9.53,0.74 46.89,3.76 92.3,7.11 137.32,17.39 7.48,47.37 13.2,94.91 28.57,140.57 17.39,51.7 64.35,69.56 90.5,114.04 3.8,6.45 14.37,4.09 13.05,-4.02 -12.52,-77.43 -20.06,-177.84 -79.47,-234.84 45.21,16.53 89.67,38.73 132.23,62.08 -8.43,52.82 -0.95,105.93 21.74,154.45 21.18,45.36 64.22,76.93 97.62,112.91 4.16,4.48 11.14,2.32 12.15,-3.68 6.97,-41.6 -4.62,-83.88 -22.51,-121.9 41.98,25.09 91.15,38.18 138.73,34.67 4.34,-0.32 7.14,-5.97 5.14,-9.69 -27.53,-51.48 -67.76,-111.27 -119.27,-146.6 54.82,1.2 110.38,-22.41 163.27,-32.02 5.89,-1.07 7.82,-8.85 2.88,-12.39z"/>
   <path class="fil1" d="M1815.16 304.59c0.15,0.33 0.26,0.69 0.48,0.98 -0.81,0.28 -1.64,0.52 -2.45,0.8 0.65,-0.59 1.3,-1.17 1.97,-1.78z"/>
   <path class="fil0" d="M2157.55 314.81c-1.42,-0.05 -2.88,0.05 -4.35,0.29 -8.13,1.37 -16.7,7.11 -22.27,15.89 -1.62,2.55 -2.8,4.96 -3.76,7.34 -68.26,20.85 -125.56,7.14 -173.06,-21.07 53.75,13.16 122.38,-9.81 181.46,-42.19 5.51,5.04 14.45,6.88 24.65,3.72 10.2,-3.12 17.75,-23.3 16.8,-32.23 -0.33,-3.29 -1.68,-6.12 -3.64,-8.47 -4.18,-4.99 -11.1,-7.76 -17.08,-7.88 -8.07,-0.17 -15.19,4.89 -20.39,13.56 -4.91,8.16 -6.27,15.1 -5.53,20.88 -59.29,32.48 -128.57,55.1 -180.84,37.73 52.15,-7.11 104.97,-44.89 148.67,-86.2 9.01,2.66 21.29,-1.09 29.73,-11.01 11.94,-14.15 4.01,-25.97 -7.48,-30.11 -6.31,-2.3 -13.68,-2.4 -19.56,0.51 -10.44,5.19 -16.83,18.21 -14.25,28.55 0.54,2.12 1.38,3.98 2.45,5.59 -44.22,41.56 -98.6,79.95 -151.16,81.73 58.36,-33.34 101.82,-98.39 123.11,-161.76 1.92,0.39 3.89,0.65 5.84,0.73 11.06,0.5 23.08,-4.09 27.82,-17.87 3.17,-9.18 3.55,-19.03 -1.61,-25.36 -1.7,-2.05 -3.82,-3.69 -6.24,-4.92 -13.37,-6.61 -35.37,-1.32 -42.79,16.05 -5.54,12.92 -1.25,22.03 6.82,27.25 -20.94,63.35 -65.26,129.96 -125.19,160.06 8.64,-22.27 14.72,-43.6 25.96,-65.9 14.03,-27.96 32.09,-54.34 48.43,-81.23 1.65,0.02 3.36,-0.05 5.15,-0.5 15.4,-3.83 24.33,-26.59 15.36,-37.5 -2.55,-3.16 -6.05,-5.29 -10.1,-5.84 -8.98,-1.2 -22.97,2.38 -27.35,13.08 -4.34,10.58 -0.89,21.62 6.56,27.21 -16.3,26.91 -33.08,53.04 -48.17,80.63 -9.19,16.7 -14.63,33.01 -20.39,49.71 3.68,-52.98 14.56,-103.28 25.5,-155.46 6.2,-1.83 11.99,-5.94 14.98,-12.14 3.65,-7.58 1.47,-17.92 -3.87,-23.5 -1.28,-1.32 -2.73,-2.4 -4.3,-3.1 -7.7,-3.39 -18.9,-2.19 -25.97,3.34 -3.94,3.1 -6.6,8.9 -7.65,13.64 -1.56,7.05 1.61,10.35 4.89,15.64 2.45,3.71 6.3,5.8 10.58,6.7 -12.14,57.02 -23.91,111.69 -26.73,170.41 -28.74,-39.53 -47.41,-96.74 -43.61,-146.63 2.86,-0.52 5.75,-1.45 8.46,-3.09 7.32,-4.45 11.97,-12.18 12.41,-20.58 0.37,-7.48 -3.64,-12.35 -9.12,-15.17 -2.91,-1.49 -6.24,-2.41 -9.58,-2.85 -14.03,-1.78 -22.89,9.87 -24.06,22.94 -0.82,9.44 4.08,15.6 10.98,18.05 -4.23,56.26 16.74,120.51 50.31,163.2 -125.55,132.26 -286.15,226.83 -464.02,285.71 -8.27,2.7 -5.62,13.15 2.81,10.39 179.77,-59.4 342.09,-154.98 468.99,-288.66 55.18,44.84 124.67,73.63 212.84,47.85 0.82,5.35 3.86,9.65 8.99,12.22 23.48,11.77 54.45,-48.51 23.56,-49.4z"/>
   <path class="fil0" d="M2866.73 491.13c-44.85,-22.44 -91.59,-31.65 -139.96,-43.4 -15.15,-3.69 -30.45,-6.67 -45.84,-8.9 -1.43,-1.01 -3.27,-1.31 -5.13,-0.62 -43.31,-5.82 -87.28,-5.72 -130.45,1.98 -24.31,4.33 -48.11,12.03 -71.62,21.27 7.92,-5.62 15.67,-11.39 23.08,-17.5 89.12,-30.86 153.16,-98.02 210.26,-170.51 27.05,-34.32 49.55,-71.55 72.11,-108.82 1.42,-1.03 2.08,-2.36 2.26,-3.71 2.69,-4.44 5.37,-8.87 8.07,-13.31 27.47,-44.99 46.17,-93.47 71.9,-139.28 2.11,-3.73 -1.62,-8.98 -5.84,-8.27 -45.67,7.84 -83.55,33.65 -119.08,62.16 -6.83,5.48 -13.38,11.3 -19.97,17.04 -0.98,0.4 -1.8,1.04 -2.39,2.03 -32.6,28.64 -62.46,60.19 -89.24,94.44 -2.71,3.48 -5.07,7.19 -7.69,10.75 -1.27,0.58 -2.19,1.71 -2.48,3.46 -23.7,32.68 -43.24,67.76 -59.77,104.5 -1.31,0.71 -2.29,1.98 -2.44,4.01 -0.04,0.55 -0.03,1.11 -0.07,1.66 -2.78,6.32 -5.73,12.56 -8.36,18.99 -16.63,40.49 -26.91,82.92 -56,116.1 -0.77,0.65 -1.24,1.46 -1.5,2.34 -0.03,0.07 -0.09,0.12 -0.11,0.19 -0.55,0.44 -1.06,0.94 -1.62,1.39 -67.65,53.61 -150.03,86.31 -233.49,105.68 -16.65,3.85 -33.36,6.62 -50.08,8.97 52.64,-22.53 95.94,-66.48 131.35,-112.13 1.09,-0.76 1.89,-1.72 2.22,-2.84 6.34,-8.24 12.43,-16.52 18.26,-24.73 26.77,-37.69 44.46,-81.27 63.83,-122.97 9.37,-20.17 20.77,-39.68 27.07,-61.14 5.26,-17.82 8.45,-35.92 16.05,-52.98 1.89,-4.23 -2.56,-10.46 -7.37,-7.91 -33.67,17.84 -61.69,44.41 -89.28,70.29 -33.21,31.12 -67.72,60.94 -97.63,95.29 -25.93,29.78 -48.47,61.95 -67.4,95.99 -0.95,0.75 -1.6,1.79 -1.79,3.17 -20.25,37.03 -36.01,76.41 -46.56,117.74 -3.24,2.23 -6.39,4.6 -9.73,6.68 -0.69,0.44 -1.19,0.96 -1.57,1.52 -45.43,2.23 -149.13,-3.53 -149.38,-3.03 -15.57,-1.04 -31.14,-2.15 -46.69,-3.32 -7.44,-0.56 -9.52,10.94 -2.03,11.49 97.61,7.33 196.14,14.87 292.92,-4.32 6.67,-1.34 13.31,-2.88 19.95,-4.38 0.21,0.22 54.21,-14.18 73.85,-20.95l0 0c7.69,-0.95 15.4,-1.68 23.12,-2.3 45.01,58.87 137.12,59.44 204.15,49.74 106.82,-15.47 199.61,-84.14 310.21,-80.45 6.19,0.21 6.64,-8.73 1.92,-11.09z"/>
   <path class="fil2" d="M2327.62 431.41c-0.04,0.01 -0.08,0 -0.12,0.03 -22.58,10.32 -46.04,18.68 -68.59,29.02 8.1,-9.98 16.05,-19.98 23.81,-29.84 1.56,-1.97 3,-4.02 4.55,-5.99 21.3,-11.08 43.67,-19.79 65.17,-30.37 -7.48,12.37 -15.76,24.86 -24.82,37.16z"/>
   <path class="fil2" d="M2363.88 374.36c-0.3,0.54 -0.62,1.08 -0.91,1.61 -0.36,0.11 -0.72,0.14 -1.09,0.36 -18.99,10.83 -39.28,18.88 -59.15,27.89 4.3,-5.69 8.71,-11.28 12.94,-17.03 18.35,-11.34 37.73,-20.71 57.1,-30.13 -2.95,5.78 -5.82,11.58 -8.89,17.3z"/>
   <path class="fil2" d="M2344.81 273.24c0.01,-0.15 -0.04,-0.25 -0.04,-0.39 3.24,-3.02 6.5,-6.01 9.71,-9.07 27.82,-26.45 55.98,-55.4 88.89,-76 -8.23,23.78 -12.88,48.51 -24.04,71.62 -12.94,26.81 -25.1,54.07 -38.12,80.85 -0.39,0.11 -0.73,0.11 -1.13,0.3 -16.22,8 -32.56,15.76 -48.5,24.26 6.19,-8.73 12.48,-17.39 18.53,-26.22 1.02,-0.69 1.78,-1.68 2.01,-3.03 20.94,-30.77 41.02,-62.13 60.28,-93.89 3.91,-6.45 -6.74,-11.27 -10.58,-4.9 -16.79,27.66 -34.35,54.86 -52.45,81.69 -2.98,-14.96 -5.94,-30.12 -4.55,-45.24z"/>
   <path class="fil2" d="M2313.81 303.88c-0.07,-0.62 -0.29,-1.09 -0.5,-1.6 6.57,-6.24 13.2,-12.43 19.86,-18.6 0.5,16.34 4.16,32.49 6.97,48.61 -6,8.74 -12.24,17.32 -18.38,25.96 -2.92,-18.09 -6.14,-36.12 -7.95,-54.37z"/>
   <path class="fil2" d="M2208.54 437.19c17.17,-30.64 37.26,-59.84 60.03,-87.77 10.73,-13.17 22.47,-25.3 34.5,-37.1 2.39,19.97 6.09,39.71 9.01,59.6 -12.52,17.29 -25.25,34.42 -38.37,51.25 -13.05,16.8 -26.64,33.96 -40.9,50.69 -0.41,0.23 -0.84,0.41 -1.25,0.65 -1.7,1 -2.43,2.41 -2.53,3.84 -4.04,4.66 -8.2,9.22 -12.36,13.76 -1.53,-18.46 -5.32,-36.64 -8.13,-54.93z"/>
   <path class="fil2" d="M2199.49 453.85c2.74,15.74 5.58,31.44 6.23,47.41 0.03,0.76 0.25,1.35 0.47,1.93 -12.99,13.44 -26.65,26.07 -41.17,37.41 8.74,-30.3 20.31,-59.16 34.47,-86.75z"/>
   <path class="fil2" d="M2168.85 552.51c26.15,-19.93 49.5,-44.09 71.22,-69.42 23.08,-13.44 48.17,-22.61 72.81,-32.75 -38.79,47.27 -88.51,88.35 -144.03,102.17z"/>
   <path class="fil2" d="M2364.63 531.97c17.06,-1.09 34.14,-1.92 51.15,-3.42 23.48,-2.08 46.7,-7 69.88,-11.96 0.51,0.84 1.2,1.64 2.32,2.19 31.43,15.86 63.02,31.44 95.06,46.04 -70.53,17.29 -169.32,22.2 -218.4,-32.86z"/>
   <path class="fil2" d="M2608.36 557.82c-2.51,0.8 -5.21,1.53 -7.81,2.3 -33.12,-14.69 -65.6,-30.78 -97.97,-47.07 8.17,-1.7 16.36,-3.36 24.53,-4.78 3.95,-0.69 7.89,-1.32 11.85,-2 0.19,0.11 0.29,0.29 0.52,0.4 31.44,15.2 64.07,27.72 95.92,42.02 -8.98,3.17 -18.01,6.27 -27.05,9.12z"/>
   <path class="fil2" d="M2787.43 473.6c17.29,4.92 34.28,10.66 50.77,17.47 -65.24,3.9 -126.22,29.67 -187.57,52.14 -0.48,-0.51 -1.05,-0.98 -1.8,-1.32 -29.58,-13.71 -59.99,-25.53 -89.67,-39.02 16.54,-2.71 33.14,-5.19 49.75,-7.51 0.5,0 0.99,-0.03 1.5,-0.21 57.95,-8.03 116.25,-13.14 174.83,-11.12 6.16,0.22 6.38,-7.5 2.18,-10.43z"/>
   <path class="fil2" d="M2703.16 454.59c26.66,4.93 53.71,10.48 80.19,17.83 -51.88,-1.74 -103.16,2.37 -154.29,8.86 15.76,-10.91 32.68,-20.27 48.66,-30.8 8.51,1.21 17.02,2.53 25.43,4.11z"/>
   <path class="fil2" d="M2523.86 456.96c44.23,-12.34 90.39,-13.6 135.82,-8.75 -18.45,11.42 -37.48,22.14 -53.96,36.25 -23.08,3.22 -46.13,6.79 -69.21,10.44 -38.21,6.08 -75.89,16.6 -114.26,21.25 -16.69,2.02 -33.47,2.89 -50.23,3.83 49.84,-22.31 99.92,-48.56 151.85,-63.03z"/>
   <path class="fil2" d="M2724.66 87.18c5.43,-4.8 10.95,-9.55 16.6,-14.25 -3.57,20.63 -6.71,41.29 -8.49,62.18 -0.06,0.66 0.08,1.21 0.2,1.78 -5.07,7.28 -10.11,14.56 -15.13,21.88 1.57,-23.92 3.58,-47.8 6.81,-71.59z"/>
   <path class="fil2" d="M2625.96 193.98c25.13,-34.42 54.16,-66.06 85.5,-94.82 -3.03,26 -4.84,52.1 -6.37,78.25 -11.59,16.85 -23.32,33.54 -35.71,49.56 -16.59,21.44 -33.07,43.53 -49.84,65.51 2.27,-32.83 4.8,-65.62 6.42,-98.5z"/>
   <path class="fil2" d="M2563.89 303.6c13.32,-30.13 28.07,-59.5 46.33,-87.44 0.94,-1.45 2.04,-2.81 3.01,-4.25 -1.89,31.6 -4.26,63.14 -6.31,94.73 -0.04,0.73 0.1,1.36 0.26,1.97 -13.75,17.75 -27.85,35.22 -42.48,52.14 -0.72,-19.06 -2,-38.08 -0.81,-57.16z"/>
   <path class="fil2" d="M2539.78 362.03c3.98,-10.35 8.1,-20.58 12.26,-30.8 0.4,14.07 1.17,28.14 1.37,42.23 -10.53,11.7 -21.41,22.95 -32.65,33.8 7.05,-13.94 12.66,-28.7 19.01,-45.24z"/>
   <path class="fil2" d="M2522.97 420.81c13.41,-12.83 26.19,-26.26 38.46,-40.21 1.5,-0.66 2.71,-1.91 3.29,-3.64 11.23,-12.95 22.06,-26.3 32.76,-39.78 0.86,-0.09 1.72,-0.36 2.59,-0.91 27.8,-17.71 56.13,-34.38 83.68,-52.37 -45.36,55.58 -95.87,106.38 -160.78,136.9z"/>
   <path class="fil2" d="M2707.07 254.07c-0.29,0.15 -0.59,0.19 -0.88,0.4 -28.6,20.54 -58.62,38.62 -88.5,57.09 11.44,-14.69 22.84,-29.42 34.49,-43.98 0.36,-0.45 0.71,-0.92 1.1,-1.39 0.32,-0.17 0.65,-0.22 0.95,-0.46 34.3,-25.63 65.99,-54.45 99.36,-81.21 -14.56,23.82 -29.66,47.27 -46.52,69.55z"/>
   <path class="fil2" d="M2789.67 125.48c-6.46,10.26 -12.76,20.65 -19.04,31.04 -30.2,22.29 -58.31,47.17 -87.18,71.1 10.4,-13.53 20.65,-27.17 30.63,-41.02 0.94,-0.52 1.6,-1.45 1.96,-2.67 6.74,-9.4 13.34,-18.88 19.8,-28.46 25.89,-38.42 51.32,-76 85.95,-107.31 5.54,-4.99 -1.21,-14.52 -6.8,-9.46 -26.01,23.48 -47.91,50.76 -68.48,79.2 2.21,-18.72 4.98,-37.37 8.41,-55.94 27.21,-21.18 57.06,-39.21 90,-47.45 -19.13,36.68 -33.18,75.85 -55.25,110.98z"/>
   <path class="fil0" d="M1203.84 737.31c22.53,-6.41 45.52,-14.56 62.35,-25.46 0.41,-0.28 0.77,-0.36 1.16,-0.55 4.52,-15.14 9.77,-30.08 15.54,-44.9 3.65,1.87 7.7,2.66 11.67,2.28 -17.24,43.7 -29.73,88.5 -32.84,136.16 13.62,10.99 26.59,24.33 29.32,42.22 2.83,18.56 -13.94,32.09 -30.42,34.43 -16.9,2.43 -33.74,-9.98 -33.95,-27.28 -0.21,-17.69 12.03,-37.53 23.53,-50.41 1.17,-17.11 3.47,-33.9 6.74,-50.36 -19.33,13.43 -34.8,31.83 -52.94,46.87 8.14,17.72 -1.05,41.56 -16.08,52.76 -12.78,9.51 -39.51,14.19 -48.2,-3.4 -7.42,-15.05 4.12,-33.28 14.59,-43.57 11.77,-11.56 25.34,-15.63 40.61,-12.72 0.34,-0.64 0.81,-1.25 1.46,-1.78 21.68,-17.68 39.2,-40.28 63.9,-54.03 0.95,-3.98 2.07,-7.89 3.12,-11.85 -14.41,6.39 -42.78,18.59 -62.5,24.38 -9.49,8.94 -18.73,16.03 -32.34,19.32 -11.86,2.88 -31.64,3.1 -36.62,-11.14 -5.67,-16.23 7.72,-35.16 23.38,-39.03 17.11,-4.23 36.97,5.75 48.51,18.06z"/>
   <path class="fil0" d="M493.13 640.42c52.89,9.6 108.43,33.22 163.27,32.02 -51.5,35.33 -91.75,95.13 -119.26,146.6 -2,3.72 0.79,9.37 5.14,9.69 47.58,3.52 96.75,-9.58 138.74,-34.67 -17.91,38.01 -29.5,80.3 -22.52,121.9 1.01,6 7.99,8.16 12.15,3.68 33.4,-35.99 76.44,-67.55 97.63,-112.91 22.68,-48.53 30.16,-101.63 21.73,-154.45 42.56,-23.36 87.02,-45.55 132.23,-62.08 -59.41,57 -66.95,157.4 -79.49,234.84 -1.31,8.12 9.26,10.47 13.06,4.02 26.15,-44.48 73.09,-62.35 90.51,-114.04 15.38,-45.66 21.08,-93.2 28.56,-140.57 45.01,-10.28 90.42,-13.63 137.31,-17.39 3.16,-0.23 6.34,-0.51 9.52,-0.74 -29.89,17.98 -54.81,47.54 -73.84,73.93 -31.75,44.02 -61.98,94.87 -70.93,149.19 -1.04,6.17 5.84,9.85 10.8,6.71 40.41,-25.5 87.66,-46.53 118.81,-84.05 34.31,-41.31 58.03,-95.62 67.1,-148.67 42.84,-0.69 85.88,4.56 121.11,29.44 7.21,5.11 16.05,-5.46 8.79,-10.6 -44.85,-31.7 -101.04,-34.4 -154.32,-31.52 -0.03,-0.05 -0.07,-0.12 -0.12,-0.18 -5.9,-38.32 -31.64,-69.68 -61.04,-93.76 -40.43,-33.09 -93.8,-32.28 -137.55,-58.47 -4.34,-2.61 -10.73,2.07 -9.74,6.97 8.31,40.89 35.59,76.55 66.48,103.74 29.52,26 65.41,34.28 101.85,44.04 -48.89,2.87 -98.47,6.5 -145.56,19.25 -0.59,0.1 -1.17,0.14 -1.83,0.44 -0.1,0.05 -0.19,0.11 -0.29,0.17 -1.35,0.37 -2.7,0.76 -4.05,1.14 -0.12,-0.32 -0.14,-0.66 -0.32,-0.98 -52.1,-94.11 -147.44,-122.42 -249.68,-118.62 -5.46,0.21 -7.51,6.81 -4.88,10.86 22.36,34.48 59.57,58.09 93.83,79.39 39.9,24.82 80.95,33.88 125.22,41.14 -47.32,17.36 -93.58,39.89 -137.8,64.12 -32.23,-36.32 -86.68,-50.26 -133.28,-54.31 -58.94,-5.12 -111.96,7.4 -160.27,42.35 -4.92,3.54 -3,11.31 2.89,12.39z"/>
   <path class="fil0" d="M712.36 314.81c1.42,-0.05 2.88,0.05 4.34,0.29 8.14,1.37 16.7,7.11 22.29,15.89 1.6,2.55 2.77,4.96 3.75,7.34 68.26,20.85 125.56,7.14 173.06,-21.07 -53.75,13.16 -122.39,-9.81 -181.47,-42.19 -5.5,5.04 -14.45,6.88 -24.64,3.72 -10.2,-3.12 -17.75,-23.3 -16.79,-32.23 0.33,-3.29 1.66,-6.12 3.64,-8.47 4.16,-4.99 11.09,-7.76 17.08,-7.88 8.06,-0.17 15.17,4.89 20.38,13.56 4.91,8.16 6.28,15.1 5.55,20.88 59.26,32.48 128.55,55.1 180.83,37.73 -52.15,-7.11 -104.96,-44.89 -148.67,-86.2 -9.01,2.66 -21.29,-1.09 -29.73,-11.01 -11.96,-14.15 -4.03,-25.97 7.47,-30.11 6.32,-2.3 13.69,-2.4 19.58,0.51 10.43,5.19 16.82,18.21 14.24,28.55 -0.54,2.12 -1.39,3.98 -2.45,5.59 44.2,41.56 98.6,79.95 151.17,81.73 -58.37,-33.34 -101.84,-98.39 -123.13,-161.76 -1.9,0.39 -3.87,0.65 -5.83,0.73 -11.06,0.5 -23.08,-4.09 -27.82,-17.87 -3.17,-9.18 -3.54,-19.03 1.61,-25.36 1.68,-2.05 3.82,-3.69 6.24,-4.92 13.37,-6.61 35.37,-1.32 42.78,16.05 5.55,12.92 1.25,22.03 -6.81,27.25 20.95,63.35 65.26,129.96 125.19,160.06 -8.64,-22.27 -14.73,-43.6 -25.96,-65.9 -14.04,-27.96 -32.09,-54.34 -48.43,-81.23 -1.65,0.02 -3.35,-0.05 -5.15,-0.5 -15.4,-3.83 -24.35,-26.59 -15.36,-37.5 2.55,-3.16 6.04,-5.29 10.09,-5.84 8.99,-1.2 22.97,2.38 27.36,13.08 4.34,10.58 0.89,21.62 -6.56,27.21 16.3,26.91 33.08,53.04 48.18,80.63 9.16,16.7 14.62,33.01 20.38,49.71 -3.68,-52.98 -14.56,-103.28 -25.5,-155.46 -6.2,-1.83 -11.99,-5.94 -14.96,-12.14 -3.67,-7.58 -1.49,-17.92 3.86,-23.5 1.27,-1.32 2.71,-2.4 4.31,-3.1 7.69,-3.39 18.89,-2.19 25.95,3.34 3.95,3.1 6.6,8.9 7.65,13.64 1.55,7.05 -1.59,10.35 -4.88,15.64 -2.47,3.71 -6.3,5.8 -10.58,6.7 12.13,57.02 23.91,111.69 26.73,170.41 28.74,-39.53 47.4,-96.74 43.6,-146.63 -2.85,-0.52 -5.75,-1.45 -8.44,-3.09 -7.33,-4.45 -11.99,-12.18 -12.42,-20.58 -0.37,-7.48 3.62,-12.35 9.11,-15.17 2.91,-1.49 6.24,-2.41 9.59,-2.85 14.04,-1.78 22.89,9.87 24.04,22.94 0.84,9.44 -4.06,15.6 -10.97,18.05 4.23,56.26 -16.74,120.51 -50.31,163.2 125.55,132.26 286.17,226.83 464.02,285.71 8.25,2.7 5.62,13.15 -2.81,10.39 -179.78,-59.4 -342.09,-154.98 -468.99,-288.66 -55.17,44.84 -124.67,73.63 -212.84,47.85 -0.82,5.35 -3.85,9.65 -9.01,12.22 -23.47,11.77 -54.45,-48.51 -23.55,-49.4z"/>
   <path class="fil0" d="M3.19 491.13c44.85,-22.44 91.57,-31.65 139.97,-43.4 15.13,-3.69 30.44,-6.67 45.83,-8.9 1.43,-1.01 3.27,-1.31 5.12,-0.62 43.31,-5.82 87.28,-5.72 130.45,1.98 24.31,4.33 48.11,12.03 71.61,21.27 -7.91,-5.62 -15.65,-11.39 -23.08,-17.5 -89.1,-30.86 -153.15,-98.02 -210.25,-170.51 -27.06,-34.32 -49.54,-71.55 -72.13,-108.82 -1.41,-1.03 -2.07,-2.36 -2.25,-3.71 -2.7,-4.44 -5.37,-8.87 -8.09,-13.31 -27.46,-44.99 -46.17,-93.47 -71.88,-139.28 -2.09,-3.73 1.63,-8.98 5.83,-8.27 45.69,7.84 83.57,33.65 119.08,62.16 6.85,5.48 13.38,11.3 19.98,17.04 0.96,0.4 1.81,1.04 2.39,2.03 32.6,28.64 62.46,60.19 89.23,94.44 2.73,3.48 5.07,7.19 7.7,10.75 1.25,0.58 2.19,1.71 2.48,3.46 23.7,32.68 43.22,67.76 59.77,104.5 1.3,0.71 2.27,1.98 2.44,4.01 0.04,0.55 0.01,1.11 0.05,1.66 2.8,6.32 5.75,12.56 8.38,18.99 16.63,40.49 26.91,82.92 55.99,116.1 0.77,0.65 1.24,1.46 1.5,2.34 0.03,0.07 0.08,0.12 0.1,0.19 0.56,0.44 1.07,0.94 1.62,1.39 67.67,53.61 150.03,86.31 233.5,105.68 16.65,3.85 33.34,6.62 50.09,8.97 -52.66,-22.53 -95.94,-66.48 -131.36,-112.13 -1.09,-0.76 -1.87,-1.72 -2.22,-2.84 -6.32,-8.24 -12.42,-16.52 -18.24,-24.73 -26.77,-37.69 -44.46,-81.27 -63.85,-122.97 -9.37,-20.17 -20.75,-39.68 -27.06,-61.14 -5.26,-17.82 -8.45,-35.92 -16.07,-52.98 -1.87,-4.23 2.58,-10.46 7.37,-7.91 33.69,17.84 61.7,44.41 89.3,70.29 33.19,31.12 67.72,60.94 97.65,95.29 25.91,29.78 48.44,61.95 67.38,95.99 0.96,0.75 1.6,1.79 1.8,3.17 20.25,37.03 36,76.41 46.54,117.74 3.24,2.23 6.41,4.6 9.73,6.68 0.7,0.44 1.18,0.96 1.59,1.52 45.43,2.23 149.12,-3.53 149.38,-3.03 15.57,-1.04 31.14,-2.15 46.7,-3.32 7.45,-0.56 9.52,10.94 2.02,11.49 -97.61,7.33 -196.15,14.87 -292.92,-4.32 -6.68,-1.34 -13.31,-2.88 -19.95,-4.38 -0.21,0.22 -54.2,-14.18 -73.85,-20.95l0 0c-7.69,-0.95 -15.4,-1.68 -23.12,-2.3 -45.01,58.87 -137.12,59.44 -204.15,49.74 -106.82,-15.47 -199.61,-84.14 -310.22,-80.45 -6.17,0.21 -6.62,-8.73 -1.9,-11.09z"/>
   <path class="fil2" d="M517.48 394.26c21.51,10.58 43.87,19.29 65.17,30.37 1.53,1.97 2.99,4.02 4.55,5.99 7.77,9.87 15.72,19.87 23.81,29.84 -22.56,-10.33 -45.99,-18.7 -68.6,-29.02 -0.03,-0.03 -0.07,-0.02 -0.11,-0.03 -9.07,-12.3 -17.33,-24.79 -24.82,-37.16z"/>
   <path class="fil2" d="M497.14 357.05c19.36,9.42 38.75,18.79 57.1,30.13 4.23,5.75 8.62,11.34 12.92,17.03 -19.86,-9.01 -40.15,-17.06 -59.15,-27.89 -0.36,-0.22 -0.72,-0.25 -1.07,-0.36 -0.29,-0.54 -0.62,-1.07 -0.91,-1.61 -3.07,-5.72 -5.95,-11.52 -8.89,-17.3z"/>
   <path class="fil2" d="M520.55 318.47c-18.09,-26.83 -35.67,-54.03 -52.45,-81.69 -3.86,-6.37 -14.49,-1.55 -10.6,4.9 19.27,31.76 39.34,63.12 60.28,93.89 0.25,1.35 1.01,2.34 2.03,3.03 6.03,8.83 12.33,17.49 18.52,26.22 -15.94,-8.5 -32.27,-16.26 -48.49,-24.26 -0.4,-0.2 -0.76,-0.2 -1.13,-0.3 -13.03,-26.79 -25.18,-54.04 -38.12,-80.85 -11.16,-23.11 -15.82,-47.84 -24.06,-71.62 32.91,20.6 61.08,49.55 88.9,76 3.21,3.06 6.46,6.05 9.7,9.07 0.02,0.14 -0.05,0.23 -0.04,0.39 1.39,15.12 -1.57,30.27 -4.53,45.24z"/>
   <path class="fil2" d="M548.15 358.25c-6.14,-8.64 -12.38,-17.22 -18.39,-25.96 2.82,-16.12 6.48,-32.27 6.97,-48.61 6.67,6.17 13.29,12.36 19.87,18.6 -0.2,0.51 -0.43,0.98 -0.5,1.6 -1.82,18.24 -5.03,36.28 -7.95,54.37z"/>
   <path class="fil2" d="M653.24 492.12c-4.16,-4.55 -8.32,-9.11 -12.35,-13.76 -0.12,-1.43 -0.86,-2.84 -2.56,-3.84 -0.4,-0.23 -0.84,-0.41 -1.24,-0.65 -14.26,-16.73 -27.85,-33.89 -40.89,-50.69 -13.12,-16.84 -25.86,-33.96 -38.39,-51.25 2.94,-19.9 6.64,-39.64 9.03,-59.6 12.03,11.81 23.75,23.93 34.5,37.1 22.78,27.93 42.86,57.12 60.02,87.77 -2.81,18.3 -6.58,36.47 -8.11,54.93z"/>
   <path class="fil2" d="M704.88 540.59c-14.51,-11.34 -28.18,-23.97 -41.17,-37.41 0.23,-0.58 0.45,-1.17 0.48,-1.93 0.63,-15.97 3.49,-31.68 6.23,-47.41 14.16,27.59 25.74,56.45 34.46,86.75z"/>
   <path class="fil2" d="M557.04 450.35c24.63,10.14 49.72,19.32 72.79,32.75 21.72,25.32 45.07,49.49 71.24,69.42 -55.53,-13.82 -105.25,-54.89 -144.03,-102.17z"/>
   <path class="fil2" d="M286.87 564.83c32.05,-14.6 63.64,-30.19 95.08,-46.04 1.1,-0.55 1.79,-1.35 2.32,-2.19 23.18,4.96 46.39,9.88 69.86,11.96 17.02,1.5 34.1,2.33 51.17,3.42 -49.09,55.06 -147.89,50.15 -218.43,32.86z"/>
   <path class="fil2" d="M234.5 548.69c31.85,-14.3 64.48,-26.82 95.92,-42.02 0.22,-0.11 0.33,-0.29 0.52,-0.4 3.96,0.68 7.91,1.31 11.85,2 8.19,1.42 16.34,3.09 24.53,4.78 -32.37,16.29 -64.84,32.38 -97.97,47.07 -2.62,-0.77 -5.32,-1.5 -7.81,-2.3 -9.05,-2.85 -18.05,-5.95 -27.05,-9.12z"/>
   <path class="fil2" d="M84.64 484.04c58.6,-2.03 116.89,3.09 174.85,11.12 0.51,0.18 1.01,0.21 1.5,0.21 16.6,2.32 33.21,4.8 49.75,7.51 -29.68,13.49 -60.09,25.31 -89.69,39.02 -0.76,0.34 -1.31,0.81 -1.8,1.32 -61.34,-22.47 -122.31,-48.24 -187.55,-52.14 16.49,-6.81 33.48,-12.55 50.76,-17.47 -4.19,2.93 -3.97,10.65 2.18,10.43z"/>
   <path class="fil2" d="M192.18 450.48c15.97,10.53 32.9,19.88 48.66,30.8 -51.13,-6.49 -102.42,-10.6 -154.29,-8.86 26.47,-7.35 53.52,-12.9 80.18,-17.83 8.43,-1.57 16.92,-2.89 25.45,-4.11z"/>
   <path class="fil2" d="M497.91 519.98c-16.78,-0.94 -33.57,-1.81 -50.25,-3.83 -38.39,-4.64 -76.06,-15.17 -114.26,-21.25 -23.08,-3.65 -46.13,-7.22 -69.21,-10.44 -16.48,-14.11 -35.49,-24.83 -53.94,-36.25 45.43,-4.85 91.57,-3.59 135.8,8.75 51.93,14.47 102,40.72 151.86,63.03z"/>
   <path class="fil2" d="M152.06 158.77c-5.01,-7.32 -10.06,-14.6 -15.13,-21.88 0.11,-0.56 0.25,-1.12 0.21,-1.78 -1.79,-20.89 -4.92,-41.56 -8.49,-62.18 5.65,4.7 11.17,9.45 16.59,14.25 3.24,23.79 5.25,47.67 6.82,71.59z"/>
   <path class="fil2" d="M250.35 292.49c-16.77,-21.99 -33.23,-44.08 -49.82,-65.51 -12.39,-16.03 -24.13,-32.71 -35.71,-49.56 -1.53,-26.15 -3.34,-52.25 -6.38,-78.25 31.34,28.76 60.37,60.41 85.49,94.82 1.64,32.88 4.16,65.67 6.42,98.5z"/>
   <path class="fil2" d="M305.21 360.76c-14.63,-16.92 -28.73,-34.39 -42.48,-52.14 0.15,-0.61 0.3,-1.24 0.26,-1.97 -2.05,-31.59 -4.42,-63.13 -6.31,-94.73 0.96,1.43 2.07,2.8 3.02,4.25 18.26,27.94 33,57.3 46.31,87.44 1.18,19.07 -0.08,38.1 -0.8,57.16z"/>
   <path class="fil2" d="M349.16 407.26c-11.26,-10.85 -22.14,-22.1 -32.67,-33.8 0.21,-14.1 0.98,-28.16 1.36,-42.23 4.16,10.21 8.28,20.45 12.26,30.8 6.37,16.53 11.97,31.29 19.04,45.24z"/>
   <path class="fil2" d="M186.16 283.9c27.55,17.99 55.87,34.66 83.68,52.37 0.87,0.55 1.72,0.81 2.57,0.91 10.72,13.48 21.54,26.83 32.78,39.78 0.57,1.72 1.79,2.98 3.31,3.64 12.25,13.95 25.02,27.38 38.44,40.21 -64.91,-30.52 -115.42,-81.32 -160.78,-136.9z"/>
   <path class="fil2" d="M116.32 184.52c33.37,26.76 65.06,55.58 99.36,81.21 0.32,0.23 0.63,0.29 0.95,0.46 0.37,0.47 0.73,0.94 1.12,1.39 11.63,14.56 23.04,29.29 34.48,43.98 -29.87,-18.46 -59.91,-36.54 -88.5,-57.09 -0.29,-0.21 -0.59,-0.25 -0.9,-0.4 -16.84,-22.28 -31.95,-45.73 -46.5,-69.55z"/>
   <path class="fil2" d="M24.98 14.49c32.93,8.24 62.79,26.27 90,47.45 3.43,18.57 6.19,37.21 8.39,55.94 -20.57,-28.44 -42.46,-55.72 -68.46,-79.2 -5.59,-5.06 -12.33,4.48 -6.81,9.46 34.64,31.3 60.07,68.89 85.96,107.31 6.46,9.59 13.06,19.07 19.79,28.46 0.37,1.23 1.03,2.15 1.97,2.67 9.98,13.85 20.23,27.49 30.63,41.02 -28.88,-23.93 -56.98,-48.81 -87.19,-71.1 -6.28,-10.39 -12.58,-20.78 -19.03,-31.04 -22.07,-35.14 -36.14,-74.31 -55.25,-110.98z"/>
   <path class="fil0" d="M1636.75 651.69c33.48,-10.56 16.7,-44.77 -4.28,-69.65 -21.14,-25.06 -47.63,-46.16 -77.2,-60.19 52.52,-9.28 117.89,-49.27 125.06,-101.2 0.47,-3.32 -1.39,-6.05 -4.89,-6.21 -9.81,-0.5 -18.66,1.75 -28.01,3.33 4.96,-15.02 11.23,-36.61 -3.5,-45.27 -12.79,-7.52 -44.99,5.37 -57.32,8.85 -31.29,8.8 -66.22,27.89 -92.58,53.1 20.06,-53.14 17.44,-110.62 -11.9,-161.25 -10.83,-18.68 -26.38,-37.82 -48.54,-42.08 -17.06,-3.28 -22.76,8.87 -22.82,21.95 -30.64,-19.69 -45.94,18.22 -50.68,50.13 -7.19,48.38 -0.72,99.59 23.6,141.7 -15.83,-15.18 -32.08,-30.15 -49.77,-41.86 -38.31,-25.41 -104.43,-48.24 -146.9,-20.72 -2.05,1.32 -3.47,4.6 -1.75,6.81 6.17,7.98 13.79,13.53 21.29,19.81 -13.45,5.37 -32.92,13.94 -32.71,27.52 0.19,12.63 16.74,22.18 25.45,28.71 35.73,26.84 77.9,43.27 122.14,47.92 -33.63,13.82 -62.48,34.87 -83.43,70.57 -13.88,23.65 -24.06,53.42 -17.53,80.77 4.2,17.56 23.59,13.71 37.78,11.31 -1.82,9.51 -3.22,19.02 -4.32,28.69 -0.32,2.86 2.63,4.71 5.05,4.88 47.01,3.28 81.31,-23.99 107.13,-60.87 0.33,41.54 15.02,87.96 43.97,116.5 2.93,2.89 6.99,1.1 8.32,-2.29 2.52,-14.19 11.85,-17.43 27.96,-9.67 1.09,1.98 3.53,2.82 5.63,2.26 45,-12.06 49.75,-76.88 45.97,-119.87 19.76,20.74 44.06,36.94 73.07,46.28 18.41,5.94 45.77,9.85 63.56,0.5 17.8,-9.34 13.32,-21.49 2.15,-30.43z"/>
   <path class="fil2" d="M1567.17 399.41c14.41,-6.99 29.83,-10.86 45.4,-14.29 7.84,-1.74 15.8,-3.06 23.82,-3.68 13.99,-1.07 0.58,36.13 -0.99,41.13 -0.94,2.92 1.75,6.56 4.88,6.23 9.78,-1.05 19.29,-3.64 29.02,-4.23 -12.39,50.61 -85.1,88 -133.18,89.32 -20.53,-7.25 -42.2,-10.99 -64.4,-10.33 0.05,-5.7 -1.13,-11.38 -3.37,-16.56 0.15,-0.25 0.36,-0.43 0.48,-0.73 16.2,-41.06 60.32,-68.4 98.35,-86.86z"/>
   <path class="fil2" d="M1367.51 330.41c1.03,-25.11 7.62,-99.15 46.08,-62.57 3.66,3.49 9.49,-0.04 8.29,-4.89 -9.78,-39.28 29.23,-14.11 40.94,-0.26 11.3,13.37 19.11,29.93 25.11,46.18 17.37,47.15 10.43,97.77 -11.85,141.89 -0.73,1.46 -0.7,2.87 -0.22,4.05 -5.44,7.21 -10.09,14.73 -13.77,22.53 -0.65,-0.73 -1.17,-1.57 -1.89,-2.23 -0.19,-0.18 -0.39,-0.23 -0.59,-0.36 -0.16,-0.14 -0.25,-0.32 -0.43,-0.44 -12.21,-7.94 -30.64,-10.39 -44.57,-4.19 -0.06,-0.07 -0.07,-0.12 -0.11,-0.19 -35.52,-37.46 -49.08,-88.82 -46.98,-139.52z"/>
   <path class="fil2" d="M1450.88 525.14c-8.87,6.49 -21.47,5.35 -31.26,2.12 -17.62,-5.83 -19.42,-24.46 -11.33,-39.05 8.6,-15.47 32.24,-13.68 45.26,-5.6 11.82,11.45 10.84,32.62 -2.68,42.53z"/>
   <path class="fil2" d="M1232.33 475.6c-12.92,-6.8 -24.89,-16.37 -36.14,-25.52 -21.84,-17.77 2.88,-26.99 21.07,-34.79 3.23,-1.37 5.13,-5.47 2.14,-8.31 -3.95,-3.73 -7.67,-6.87 -12.03,-10.15 -15.12,-11.34 -12.9,-9.05 0.44,-13.42 14.44,-4.75 31.04,-3.19 45.76,-0.95 28.4,4.34 56,16.31 79.83,32.1 25.46,16.88 47.96,42.36 70.59,63.37 -0.79,0.87 -1.68,1.58 -2.37,2.56 -2.73,3.89 -4.69,8.02 -6.08,12.18 -17.6,3.32 -34.62,7.15 -50.8,12.11 -0.36,-0.08 -0.66,-0.22 -1.07,-0.23 -38.7,-0.54 -77.09,-10.98 -111.33,-28.95z"/>
   <path class="fil2" d="M1264.51 699.53c1.2,-9.6 2.58,-18.96 4.71,-28.46 0.65,-2.89 -1.56,-6.62 -4.89,-6.23 -7.07,0.83 -14.07,2.03 -21.12,2.98 -22.35,3.05 -13.67,-34.78 -11.21,-44.64 6.35,-25.3 21.73,-48.82 38.92,-68.01 18.67,-20.86 44.88,-32.74 72.31,-40.7 0.2,0 0.37,0.03 0.57,0.03 1.28,0.03 2.23,-0.43 2.99,-1.06 15.68,-4.34 31.64,-7.48 46.77,-10.31 -0.52,11.26 4.06,22.12 14.89,29.62 0.58,0.39 1.23,0.66 1.82,1.02 -24.13,65.21 -63.77,166.84 -145.76,165.77z"/>
   <path class="fil2" d="M1466.51 735.98c-14.48,16.67 -16.78,-4.08 -32.59,-5.1 -10.21,-0.65 -17.46,11.66 -21.91,21.55 -27.31,-31.1 -38.8,-80.3 -35.28,-120.4 18.36,-30.7 31.91,-65.4 42.59,-94.2 8.23,2.51 17.33,2.59 25.66,0.36 -0.05,0.58 -0.04,1.17 0.15,1.83 8.72,30.12 22.59,58.42 41.54,82.2 0.01,0.16 -0.05,0.3 -0.03,0.48 5.33,35.49 4.56,84.85 -20.13,113.27z"/>
   <path class="fil2" d="M1611.79 677.04c-6.42,0.45 -13.41,-0.02 -19.77,-0.82 -16.35,-2.09 -32.01,-8.47 -46.49,-16.12 -19.76,-10.44 -36.28,-24.86 -49.92,-41.69 -0.19,-0.37 -0.47,-0.66 -0.74,-0.91 -18.67,-23.35 -31.83,-51.35 -40.18,-80.18 -0.3,-1.02 -0.84,-1.71 -1.48,-2.26 1.7,-0.88 3.35,-1.83 4.88,-2.95 6.32,-4.63 10.28,-11.32 12.21,-18.61 21.41,-0.82 42.16,2.63 61.75,9.48 0.65,0.47 1.41,0.76 2.37,0.84 25.66,9.37 49.29,24.47 69.78,43.32 18.35,16.85 72.43,71.58 19.48,77.28 -4.46,0.48 -7.22,6.93 -2.41,9.29 8.28,2.11 12.29,8.09 12.03,17.88 -5.62,4.23 -14.97,4.98 -21.5,5.44z"/>
   <path class="fil0" d="M1419.18 461.89c1.21,6.3 10.78,3.56 9.56,-2.7 -3.84,-20.02 -6.92,-40.19 -12.79,-59.75 -1.83,-6.14 -11.41,-3.46 -9.56,2.69 5.85,19.57 8.93,39.75 12.79,59.76z"/>
   <path class="fil0" d="M1487.11 490.44c17.9,-13.76 36.86,-26.21 57.77,-34.9 5.84,-2.44 3.22,-12.03 -2.71,-9.56 -21.77,9.05 -41.46,21.56 -60.12,35.91 -5.01,3.84 -0.03,12.46 5.06,8.56z"/>
   <path class="fil0" d="M1523.37 490.65c11.28,-2.03 22.61,-3.72 34.03,-4.8 6.34,-0.61 6.25,-10.54 -0.15,-9.93 -12.29,1.17 -24.47,2.99 -36.6,5.17 -6.3,1.13 -3.55,10.68 2.71,9.56z"/>
   <path class="fil0" d="M1551.73 570.47c-21.99,-19.26 -46.21,-35.4 -71.19,-50.45 -5.53,-3.32 -10.44,5.3 -4.98,8.62 24.27,14.6 47.81,30.18 69.15,48.88 4.8,4.2 11.82,-2.84 7.01,-7.05z"/>
   <path class="fil0" d="M1485.11 539.13c-4.37,-4.73 -11.35,2.36 -7,7.05 8.96,9.7 17.77,19.55 25.08,30.59 3.54,5.33 12.12,0.3 8.57,-5.04 -7.77,-11.74 -17.11,-22.28 -26.65,-32.6z"/>
   <path class="fil0" d="M1429.46 549.11c1.21,-6.25 -8.41,-8.79 -9.63,-2.49 -7.25,37.64 -17.02,74.94 -11.16,113.44 0.96,6.32 10.51,3.55 9.56,-2.7 -5.54,-36.54 4.35,-72.58 11.23,-108.24z"/>
   <path class="fil0" d="M1444.01 576.85c-1.32,-6.27 -10.89,-3.54 -9.56,2.7 4.39,20.94 7.7,41.94 8.84,63.33 0.35,6.38 10.28,6.25 9.95,-0.17 -1.18,-22.21 -4.66,-44.1 -9.23,-65.86z"/>
   <path class="fil0" d="M1380.7 531.25c-26.26,9.53 -51.53,21.2 -74.56,37.15 -5.24,3.64 -0.22,12.24 5.04,8.57 22.35,-15.47 46.74,-26.89 72.23,-36.15 5.98,-2.18 3.32,-11.76 -2.71,-9.56z"/>
   <path class="fil0" d="M1371.08 562.56c-10.65,15.54 -21.26,31.02 -34.28,44.71 -4.41,4.64 2.65,11.64 7.07,7 13.58,-14.31 24.7,-30.52 35.84,-46.76 3.62,-5.3 -5.03,-10.2 -8.63,-4.95z"/>
   <path class="fil0" d="M1375.16 480.33c-25.5,0.32 -50.03,-4.88 -74.61,-11.16 -6.21,-1.59 -8.69,8.05 -2.5,9.63 25.46,6.5 50.88,11.81 77.25,11.48 6.41,-0.09 6.27,-10.03 -0.15,-9.95z"/>
   <path class="fil0" d="M1360.18 455.7c-18.02,-8.72 -35.96,-17.62 -53.6,-27.11 -5.64,-3.05 -10.6,5.58 -4.95,8.62 17.62,9.51 35.56,18.4 53.59,27.13 5.75,2.77 10.73,-5.84 4.96,-8.64z"/>
   <path class="fil0" d="M1441.73 448.18c-0.9,6.28 8.72,8.82 9.62,2.5 4.95,-34.9 10.2,-69.51 5.71,-104.77 -0.79,-6.28 -10.75,-6.2 -9.94,0.16 4.37,34.38 -0.57,68.05 -5.39,102.11z"/>
   <path class="fil0" d="M1428.23 501.16c1.49,-4.93 -4.37,-7.41 -7.72,-5.07 -2.88,1.27 -4.71,5.17 -1.79,8.05 0.18,0.19 0.37,0.38 0.57,0.56 1.86,1.86 5.19,1.97 7.03,-0.03 0.99,-1.07 1.49,-2.12 1.92,-3.51z"/>
   <path class="fil0" d="M1438.58 495.85c6.21,1.61 8.69,-8.02 2.48,-9.62 -6.2,-1.61 -8.69,8.02 -2.48,9.62z"/>
   <path class="fil0" d="M1434.95 508.34c-0.23,-0.39 -0.47,-0.8 -0.7,-1.19 -0.58,-0.96 -1.34,-1.49 -2.14,-1.87 0.32,0.09 0.64,0.17 0.94,0.25 6.21,1.6 8.71,-8.03 2.5,-9.63 -0.32,-0.08 -0.63,-0.16 -0.94,-0.25 -6.21,-1.6 -8.69,7.99 -2.52,9.62 -3.79,-1.74 -9.12,2.4 -6.41,6.93 0.23,0.4 0.47,0.8 0.7,1.19 3.29,5.52 11.86,0.47 8.57,-5.04z"/>
   <path class="fil0" d="M1450.12 504.19c-3.22,-5.54 -11.8,-0.48 -8.56,5.04 0.23,0.41 0.47,0.8 0.7,1.2 3.25,5.55 11.81,0.5 8.56,-5.04 -0.22,-0.4 -0.45,-0.79 -0.7,-1.2z"/>
   <path class="fil0" d="M1431.65 487.93c0.09,-0.33 0.15,-0.63 0.23,-0.95 1.6,-6.2 -8.02,-8.69 -9.62,-2.48 -0.08,0.32 -0.16,0.62 -0.25,0.94 -1.6,6.2 8.02,8.69 9.63,2.5z"/>
   <path class="fil0" d="M1416.97 509.24c-0.32,-0.07 -0.63,-0.15 -0.95,-0.23 -6.2,-1.6 -8.69,8.02 -2.48,9.63 0.32,0.08 0.62,0.16 0.94,0.25 6.21,1.6 8.69,-8.02 2.49,-9.64z"/>
   <path class="fil0" d="M1446.36 492.73c-0.1,0.33 -0.18,0.63 -0.26,0.96 -1.6,6.2 8.03,8.68 9.63,2.48 0.1,-0.32 0.16,-0.63 0.25,-0.95 1.6,-6.2 -8.02,-8.69 -9.62,-2.49z"/>
   <path class="fil0" d="M1438.72 514.87c-0.32,-0.08 -0.63,-0.17 -0.95,-0.25 -6.21,-1.6 -8.69,8.02 -2.48,9.62 0.3,0.08 0.62,0.16 0.94,0.25 6.21,1.61 8.71,-8.02 2.49,-9.62z"/>
  </g>
 </g>
</svg>
