<?xml version="1.0" encoding="UTF-8"?>
<!DOCTYPE svg PUBLIC "-//W3C//DTD SVG 1.1//EN" "http://www.w3.org/Graphics/SVG/1.1/DTD/svg11.dtd">
<!-- Creator: CorelDRAW 2019 (64-Bit) -->
<svg xmlns="http://www.w3.org/2000/svg" xml:space="preserve" width="2.13125in" height="2.42206in" version="1.1" style="shape-rendering:geometricPrecision; text-rendering:geometricPrecision; image-rendering:optimizeQuality; fill-rule:evenodd; clip-rule:evenodd"
viewBox="0 0 2148.25 2441.38"
 xmlns:xlink="http://www.w3.org/1999/xlink"
 xmlns:xodm="http://www.corel.com/coreldraw/odm/2003">
 <defs>
  <style type="text/css">
   <![CDATA[
    .str0 {stroke:#4A494B;stroke-width:14;stroke-linecap:round;stroke-linejoin:round;stroke-miterlimit:10}
    .fil2 {fill:none;fill-rule:nonzero}
    .fil1 {fill:#FEFEFE;fill-rule:nonzero}
    .fil0 {fill:#4A494B;fill-rule:nonzero}
   ]]>
  </style>
 </defs>
 <g id="Layer_x0020_1">
  <metadata id="CorelCorpID_0Corel-Layer"/>
  <path class="fil0" d="M1379.99 1646.54c-3.9,5.85 -8.33,8.39 -12.66,8.84 -1.46,0.15 -2.89,0.09 -4.29,-0.23 -4.38,-0.96 -8.36,-3.96 -11.24,-7.91 -1.2,-1.65 -2.27,-3.41 -3,-5.29 -1.52,-3.78 -1.96,-7.86 -0.95,-11.58 0.49,-1.85 1.41,-3.56 2.7,-5.12 1.07,-1.3 2.31,-2.52 3.98,-3.51 2.34,-1.39 4.86,-1.97 7.39,-2.02 1.33,-0.03 2.66,0.07 3.96,0.37 3.94,0.84 7.66,3 10.6,5.86 0.96,0.94 1.82,1.98 2.58,3.04 2.28,3.23 3.56,6.98 3.25,10.78 -0.14,1.9 -0.71,3.79 -1.73,5.65 -0.19,0.38 -0.34,0.76 -0.59,1.12zm16.83 -8.1c22.25,-26.27 86.63,-65.11 64.01,-86.89 -17.89,-14.55 -66.68,36.4 -80.83,60.63 2.03,-14.15 22.22,-111.13 -20.22,-92.96 -22.22,8.09 -10.1,76.78 -14.13,94.98 -8.09,-18.2 -52.55,-76.78 -70.75,-46.49 -14.11,26.27 38.43,62.65 56.59,66.69 -12.11,10.12 -84.85,44.48 -66.65,68.71 16.14,22.23 70.7,-28.28 78.79,-42.42 0,20.19 -6.1,89.24 20.16,97.32 24.25,6.08 14.2,-70.78 14.2,-88.97 16.16,12.12 82.18,52.28 94.3,15.88 8.08,-24.23 -59.26,-44.43 -75.46,-46.47z"/>
  <path class="fil0" d="M1602.63 2145.62c5.36,8.54 6.09,15.81 4.13,21.73 -0.63,1.99 -1.54,3.84 -2.77,5.49 -3.83,5.19 -10.09,8.64 -16.98,10.1 -2.86,0.6 -5.78,0.95 -8.68,0.83 -5.87,-0.24 -11.45,-2.06 -15.73,-5.56 -2.12,-1.74 -3.84,-3.93 -5.14,-6.54 -1.06,-2.15 -1.93,-4.5 -2.25,-7.28 -0.45,-3.86 0.25,-7.52 1.69,-10.86 0.74,-1.75 1.64,-3.44 2.79,-4.98 3.42,-4.64 8.43,-8.28 13.9,-10.43 1.81,-0.71 3.65,-1.23 5.52,-1.61 5.54,-1.08 11.21,-0.54 16,2.06 2.41,1.3 4.58,3.16 6.41,5.6 0.37,0.48 0.77,0.9 1.12,1.44zm-0.74 -26.81c-21.39,-44.55 -34.54,-151.67 -76.34,-134.79 -29.57,14.88 8.58,108.68 32.07,141.45 -17.36,-10.95 -132.62,-94.27 -133.67,-28.02 -2.44,33.87 94.71,58.22 116.17,74.2 -28.58,-0.07 -131.42,23.84 -102.38,65.45 26.14,33.92 104.62,-13.62 120.56,-35.05 6.13,21.81 8.51,137.27 50.93,127.62 38.6,-8.12 4.4,-109.24 -9.39,-128.12 26.46,11.84 113.34,60.32 139.34,30.62 22.16,-28.21 -84.45,-60.07 -108.27,-70.73 25.37,-14.08 116.68,-77.05 76.12,-114.27 -27.05,-24.81 -92.99,51.59 -105.14,71.62z"/>
  <path class="fil0" d="M1509.36 682.74c8.64,-28.93 0.46,-59.28 -5.44,-88.03 -1.35,-6.5 -11.29,-3.74 -9.94,2.74 4.9,23.84 11.7,48.83 7.7,73.05 -13,-20.8 -25.86,-41.7 -38.51,-62.72 0,-0.07 0.04,-0.1 0.04,-0.15 0.38,-32.93 7.41,-67.78 0.59,-100.38 -1.36,-6.5 -11.3,-3.73 -9.93,2.76 5.5,26.33 1.4,54.6 -0.31,81.8 -9.84,-16.44 -19.66,-32.91 -29.35,-49.46 12.96,-33.84 13.06,-68.12 12.96,-104 -0.01,-6.64 -10.32,-6.64 -10.3,0 0.1,31.72 0.03,62.3 -9.46,92.34 -24.79,-42.49 -49.34,-85.15 -73.74,-127.86 -3.3,-5.75 -12.21,-0.57 -8.9,5.19 23.8,41.65 47.71,83.23 71.87,124.65 -22.61,-9.42 -44.42,-19.77 -64.82,-33.78 -5.5,-3.78 -10.64,5.15 -5.21,8.89 24.51,16.84 51.09,28.47 78.53,39.48 10.3,17.58 20.76,35.1 31.22,52.59 -31.13,-8.54 -56.04,-28.91 -84.68,-44.21 -5.87,-3.12 -11.08,5.78 -5.21,8.91 32.48,17.34 60.28,40.76 97.18,47.41 12.31,20.43 24.77,40.75 37.38,60.97 -30,-13.15 -59.3,-28.6 -87.37,-45.22 -5.74,-3.39 -10.93,5.52 -5.21,8.91 32.75,19.37 67.07,37.15 102.25,51.68 8.16,12.95 16.17,25.97 24.46,38.81 -85.32,-25.62 -181.94,-62.51 -211.71,-156.78 -25.75,-72.14 -9.59,-255.23 -9.59,-255.23 0,0 179.65,85.19 231.16,162.48 60.51,80.67 17.05,162.13 0.69,247.62 0,0 -18.02,-29.27 -26.33,-42.46z"/>
  <path class="fil0" d="M1502.54 428.24c12.46,-16.44 14.49,-37.83 17.6,-57.64 0.71,-4.49 -6.31,-5.11 -7.01,-0.63 -2.58,16.44 -4.21,34.05 -12.57,48.59 -3.35,-16.42 -6.55,-32.88 -9.62,-49.37 0.02,-0.04 0.04,-0.04 0.06,-0.08 8.13,-20.98 21,-41.59 24.44,-64.09 0.69,-4.48 -6.33,-5.1 -7.01,-0.63 -2.79,18.18 -12.19,35.29 -19.81,52.29 -2.35,-12.88 -4.69,-25.77 -6.93,-38.68 16.41,-18.55 24.7,-40.47 33.24,-63.45 1.57,-4.27 -5.01,-6.73 -6.61,-2.48 -7.54,20.31 -14.89,39.85 -28.18,56.81 -5.7,-33.12 -11.17,-66.3 -16.55,-99.48 -0.74,-4.48 -7.67,-3.31 -6.94,1.19 5.25,32.34 10.6,64.69 16.12,96.99 -12.21,-11.45 -23.69,-23.29 -33.39,-37.16 -2.6,-3.72 -8.04,0.76 -5.44,4.45 11.65,16.65 25.86,30.47 40.8,44.09 2.38,13.72 4.87,27.43 7.38,41.13 -17.89,-12.94 -28.95,-31.95 -43.62,-48.59 -3,-3.4 -8.45,1.04 -5.46,4.44 16.63,18.9 28.82,40.56 50.83,53.65 2.98,16.01 6.09,32.02 9.31,47.99 -16.03,-15.61 -31.09,-32.52 -45.08,-49.88 -2.85,-3.56 -8.3,0.9 -5.46,4.44 16.31,20.25 34.02,39.85 53.06,57.59 2.1,10.25 4.1,20.5 6.34,30.7 -48.47,-36.85 -101.46,-83.62 -97.91,-151.08 0.81,-52.35 55.03,-165.65 55.03,-165.65 0,0 94.56,97.56 109,159.39 19.37,66.12 -27.95,107.84 -58.91,158.63 0,0 -4.52,-23.04 -6.68,-33.47z"/>
  <path class="fil0" d="M1975.55 1573.51c-18.8,2.77 -37.72,5.22 -56.61,7.38 -0.65,5.03 -2.4,9.45 -5.1,13.19 9.95,10.85 20.23,21.24 30.84,31.46 8.58,8.35 -3.6,21.63 -12.11,13.31 -11.29,-10.78 -22.09,-22.08 -32.62,-33.61 -5.15,2.45 -11.04,3.85 -17.25,4.48 0.11,16.59 3.85,33.39 2.44,50.01 -0.84,11.54 -19.06,11.92 -18.14,0.15 1.41,-17.21 -1.96,-34.28 -2.19,-51.3 -4.66,-1.02 -9.11,-2.66 -13.35,-4.77 -14.17,10.45 -25.89,23.87 -41.16,32.91 -9.9,6 -19.79,-9.58 -9.88,-15.62 13.4,-8.05 24.25,-19.45 36.35,-29.33 -4.87,-6.17 -8.37,-13.8 -9.23,-23.41 -0.01,-0.33 0.09,-0.85 0.02,-1.19 -16.45,-2.96 -33.16,-4.03 -49.31,-8.5 -11.4,-3.06 -7.46,-20.82 3.89,-17.71 15.51,4.19 31.51,5.42 47.28,8.04 1.19,-4.08 2.86,-7.73 4.97,-11.14 -7.87,-13.66 -18.04,-26.18 -28.43,-37.85 -7.89,-8.92 4.2,-22.18 12.12,-13.27 10.46,11.98 21.14,24.57 29.59,38.25 4.38,-2.37 9.24,-3.86 14.81,-3.92 2.29,-16.26 4.67,-32.6 9.62,-48.11 3.53,-10.89 21.38,-6.64 17.71,4.56 -4.89,15.3 -7.25,31.47 -9.56,47.62 6.43,2.77 12.56,6.77 18.17,11.64 13.4,-10.98 27.69,-21.64 37,-35.85 6.3,-9.67 22.5,-0.86 16.13,8.91 -10.62,16.36 -26.21,28.08 -40.91,40.56 2.65,3.89 4.68,7.98 6.12,12.1 17.85,-2.06 35.64,-3.98 53.28,-6.63 11.35,-1.69 17.05,15.96 5.5,17.67zm25.72 -67.89c89.3,-122.1 -198.19,-215.65 -185.89,-55.91 -115.58,-154.85 -184.91,84.96 -83,116.53 -85.51,18.44 -60.16,210.12 116.06,142.65 31.78,124.6 192.24,53.27 141.9,-69.49 137.32,58.59 130.13,-151.7 10.94,-133.79z"/>
  <path class="fil0" d="M1860.95 1564.81c4.31,-2.49 5.65,-7.97 3.16,-12.37 -2.52,-4.37 -8.04,-5.98 -12.33,-3.62 -4.24,2.46 -5.68,7.98 -3.11,12.41 2.48,4.38 8.01,5.93 12.28,3.58z"/>
  <path class="fil0" d="M1883.01 1558.94c4.26,-2.38 5.71,-7.86 3.18,-12.26 -2.6,-4.44 -8.05,-6.01 -12.32,-3.62 -4.31,2.4 -5.71,7.98 -3.15,12.29 2.49,4.42 8.02,6 12.29,3.58z"/>
  <path class="fil0" d="M1854.41 1571.21c-4.2,2.46 -5.65,7.98 -3.12,12.48 2.52,4.33 8.05,5.95 12.35,3.57 4.24,-2.42 5.6,-8 3.18,-12.35 -2.55,-4.4 -8.14,-6.05 -12.41,-3.7z"/>
  <path class="fil0" d="M1876.06 1577.42c-4.28,2.42 -5.75,7.92 -3.18,12.38 2.48,4.28 8,5.9 12.28,3.55 4.33,-2.46 5.7,-7.92 3.18,-12.39 -2.54,-4.34 -8.06,-5.92 -12.28,-3.54z"/>
  <path class="fil0" d="M1888.39 1559.89c-4.28,2.33 -5.73,7.85 -3.19,12.33 2.6,4.44 8.02,5.97 12.35,3.62 4.29,-2.45 5.7,-8 3.21,-12.34 -2.6,-4.35 -8.09,-6.02 -12.36,-3.61z"/>
  <path class="fil0" d="M1872.15 1564.6c-0.8,-1.59 -2.72,-2.09 -4.21,-1.2 -1.46,0.75 -1.99,2.62 -1.12,4.2 0.92,1.46 2.8,2.06 4.23,1.22 1.46,-0.87 1.95,-2.7 1.11,-4.22z"/>
  <path class="fil0" d="M1874.98 1562.92c-1.38,0.82 -1.94,2.76 -1.02,4.22 0.9,1.44 2.77,2.15 4.17,1.27 1.57,-0.85 1.95,-2.79 1.12,-4.15 -0.89,-1.54 -2.76,-2.1 -4.27,-1.34z"/>
  <path class="fil0" d="M1874.57 1574.84c1.46,-0.74 1.95,-2.72 1.11,-4.15 -0.88,-1.49 -2.7,-2.05 -4.23,-1.27 -1.51,0.89 -1.93,2.73 -1.05,4.28 0.84,1.4 2.77,2.12 4.17,1.15z"/>
  <path class="fil0" d="M1923.8 1496.86c-7.83,-89.88 -34.05,-173.4 -71.5,-248.58 3.5,-18.91 7.66,-37.63 11.86,-56.34 30.91,-52.89 92.83,-197.04 15.3,-210.75 -56.96,-7.03 -21.54,146.31 -27.01,200.35 -3.44,15.71 -6.98,31.39 -10.15,47.14 -5.87,-11.06 -11.97,-21.99 -18.29,-32.77 -0.89,-26.21 -3.29,-52.33 -7.42,-78.23 0.03,-0.07 0.06,-0.13 0.08,-0.18 12.1,-35.03 -26.14,-328.08 -105.25,-246.03 -53.72,67.78 78.06,202.54 93.94,266.28 1.48,11.27 2.67,22.58 3.54,33.89 -37.66,-58.46 -84.84,-109.95 -139.35,-155.28 -5.21,-4.33 -10.65,-8.86 -16.22,-13.55 -0.14,-0.52 -0.39,-0.99 -0.66,-1.48 -1.36,-13.17 -3.1,-26.36 -5.18,-39.55 -3.21,-48.73 7.67,-161.13 -71.15,-187.44 -57.43,-18.38 -37.74,26.98 -24.96,53.56 27.02,52.7 69.57,114 95.58,169.57 -25.09,-21.2 -52.8,-44.8 -75.75,-69.3 -12.49,-45.97 -59.01,-149.88 -132.73,-133.82 -104.56,27.05 99.34,115.22 118.62,138.26 20.96,21.67 45.44,42.07 66.54,61.8 -21.79,-4.76 -43.69,-13.3 -64.43,-21.64 -0.17,-0.25 -0.32,-0.5 -0.49,-0.75 -18.62,-36.19 -102.69,-105.95 -166.85,-77.11 -93.56,45.48 107.69,68.13 163.78,90.46 27.43,10.88 56.56,21.95 85.25,24.86 1.11,1.01 2.2,2.03 3.32,3.02 -34.97,4.05 -69.98,5.73 -104.64,9.97 -43.8,-4.59 -82.15,-35.5 -126.56,-16 -38.08,18.09 -41.84,55.51 0.31,59.44 32.51,2.76 81.2,-17.63 120.7,-30.51 40.64,-5.27 81.79,-6.22 122.93,-11.29 0.14,-0.01 0.24,-0.1 0.37,-0.11 18.91,15.96 38.62,31.65 56.21,48.14 22.05,20.64 41.09,43.45 58.31,67.59 -41.06,-4.49 -78.82,-20.12 -118.41,-30.36 -41.43,-23.47 -165.67,-59.64 -216.44,-25.23 -56.38,35.1 8.78,52.64 41.26,51.92 73.93,-4.08 129.66,-15.26 177.18,-13.05 41.05,11.1 80.08,27.59 123.8,31.14 0.91,0.08 1.69,-0.08 2.45,-0.28 4.04,5.99 7.96,12.06 11.83,18.2 12.28,19.49 23.94,39.35 34.78,59.75 -27.74,-3.56 -54.87,-9.66 -81.66,-16.53 0.8,-0.14 1.61,-0.28 2.42,-0.42 -1.75,-0.03 -3.49,-0.17 -5.21,-0.32 -7.07,-1.83 -14.12,-3.68 -21.17,-5.56 -51.18,-22.97 -105.07,-96.6 -175.05,-68.22 -55.79,23.37 -13.75,54.7 17.27,65.9 34.85,12 78.53,5.56 121.35,6.31 48.8,12.91 98.28,28.26 149.99,34.07 0.65,1.33 1.33,2.63 1.99,3.96 0.08,2 0.91,3.5 2.22,4.48 36.01,72.95 61.7,153.65 69.9,240.49 4.48,-0.04 8.97,-0.07 13.43,0.13z"/>
  <path class="fil0" d="M1904.98 1868.73c13.06,-9.42 15.54,-19.28 15.09,-26.29 -0.7,-11.45 -9.95,-22.65 -25.25,-31.12 12.63,-14.25 11.73,-26.53 9.72,-33.18 -3.92,-12.92 -16.73,-22.37 -35.04,-26.36 6.19,-17.08 3.57,-27.49 -0.15,-33.46 -3.65,-5.86 -12.03,-12.96 -29.18,-11.98 3.44,-8.35 4.91,-19 -1.65,-29.7 -2.49,-4.08 -6.62,-6.4 -11.4,-6.4 -6.3,0 -13.64,4.4 -20.24,9.8 -0.11,-9.53 -1.81,-20.8 -7.37,-31.41 -4.28,-8.17 -9.95,-9.9 -13.97,-9.9 -7.31,0 -14.05,6.2 -19.72,14.25 -1.86,-6.73 -4.82,-12.6 -8.73,-17.1 -8.63,-9.83 -21.39,-11 -29.5,-2.83 -0.7,0.7 -1.37,1.48 -1.98,2.3 -14.2,-26.12 -43.41,-28.79 -57.49,-11.6 -3.11,3.83 -5.43,8.4 -6.94,13.63 -8.02,-7.46 -17.67,-10.47 -25.93,-10.47 -10.6,0 -20.51,4.69 -27.23,12.87 -5.8,7.06 -8.85,16.21 -9.02,26.55 -19.26,-5.19 -38.53,0.24 -49.1,13.78 -6.78,8.69 -9.77,20.03 -8.75,32.69 -22.89,-1.99 -40.4,4.23 -47.33,16.84 -3.56,6.48 -5.7,17.21 2.15,33.01 -15.51,9.66 -26.01,25.76 -27.47,42.93 -1.02,11.69 2.46,22.61 9.8,31.42 -0.1,0.04 -0.2,0.08 -0.31,0.12 -4.66,2.27 -13.19,8.36 -15.52,16.82 -1.25,4.5 -0.58,8.91 1.96,12.79 3.71,5.7 9.67,7.06 14.52,7.45 -9.97,12.62 -9.7,22.78 -7.36,29.4 3.81,10.81 15.73,19.1 32.77,23.1 -7.57,15.77 -4.52,26.77 -1.58,32.41 6.54,12.54 22.43,19.26 42.43,17.96 -0.24,11.86 3.11,22.39 9.73,30.35 11.12,13.32 30.42,17.21 49.6,9.8 4.25,23.24 20.66,40.07 40.82,40.07 6.72,0 16.21,-1.96 26.15,-10.35 3.3,3.42 7,6.67 10.92,9.67 6.39,4.92 13.71,7.49 21.23,7.49 8.44,0 16.54,-3.37 22.82,-9.54 4.04,-3.93 8.31,-9.87 10.64,-16.18 7.35,3.67 15.1,5.62 22.69,5.62 18.1,0 36.67,-11.46 41.55,-36.81 22.93,8.61 43.06,6.5 52.36,-6.05 5.46,-7.31 7,-17.27 4.62,-29.69 17.56,-5.1 32.06,-17.74 38.14,-33.85 4.13,-10.96 3.72,-22.43 -0.91,-32.86 0.13,-0.03 0.24,-0.03 0.35,-0.06 5.11,-0.95 14.97,-4.52 19.49,-12 2.41,-3.99 2.96,-8.44 1.6,-12.83 -2.02,-6.44 -7.36,-9.35 -12.01,-11.12z"/>
  <path class="fil1" d="M1880.66 1877.5c5.49,1.55 10.89,3.24 16.66,5.11 1.48,0.48 4.25,1.4 4.79,1.83 -0.42,1.33 -4.73,4.09 -9.35,4.94 -1.48,0.25 -5.31,0.98 -8.15,1.06 -2.56,-0.95 -5.52,-0.47 -7.74,1.44 -3.26,2.8 -3.64,7.71 -0.84,11 9.65,11.25 8.5,22.1 5.81,29.23 -4.94,13.15 -18.65,23.48 -34.12,25.72 -2.24,0.31 -4.23,1.61 -5.47,3.53 -1.22,1.89 -1.54,4.25 -0.88,6.44 3.29,10.94 3.22,19.47 -0.15,24.05 -3.14,4.17 -9.17,5.06 -13.68,5.06 -8.27,0 -18.72,-2.88 -29.37,-8.1 -2.38,-1.17 -5.19,-1.05 -7.46,0.33 -2.27,1.38 -3.69,3.81 -3.77,6.45 -0.62,20.23 -11,32.8 -27.13,32.8 -8.71,0 -17.95,-3.88 -25.55,-10.47 -0.17,-0.18 -0.77,-0.73 -1.23,-1.15 -0.06,-0.03 -0.1,-0.08 -0.11,-0.1 -0.21,-0.18 -0.39,-0.33 -0.48,-0.4 -3.26,-2.52 -7.37,-1.62 -10.11,1.42 -2.73,3.05 -2.13,8.13 0.71,11.1 1.28,1.29 -2.25,9.5 -7.47,14.63 -6.52,6.41 -16.04,6.67 -23.65,0.81 -5.36,-4.09 -10.12,-8.75 -13.79,-13.43 -1.4,-1.84 -3.58,-2.93 -5.89,-3.01 -0.1,-0.01 -0.15,-0.01 -0.25,-0.01 -2.23,0 -4.35,0.95 -5.84,2.61 -6.57,7.4 -13.75,11.29 -20.79,11.29 -14.5,0 -26.29,-16.34 -26.29,-36.44 0,-2.8 -1.5,-5.39 -3.95,-6.78 -2.45,-1.4 -5.46,-1.37 -7.87,0.11 -15.72,9.45 -31.93,8.91 -40.32,-1.16 -5.5,-6.6 -7.39,-16.49 -5.31,-27.87 0.45,-2.53 -0.37,-5.11 -2.17,-6.93 -1.79,-1.79 -4.41,-2.64 -6.91,-2.16 -17.14,3.12 -31.7,-0.44 -35.93,-8.56 -3.29,-6.31 -0.94,-15.7 6.61,-26.5 1.58,-2.25 1.86,-5.19 0.71,-7.69 -1.13,-2.52 -3.5,-4.23 -6.25,-4.54 -16.3,-1.8 -28.9,-7.75 -31.37,-14.77 -2.28,-6.48 4.7,-14.78 7.88,-18.18l10.12 -6.77c2.86,-1.91 4.12,-5.44 3.14,-8.75 -1.01,-3.29 -4.05,-5.54 -7.48,-5.54 -5.68,0 -11.31,-0.13 -17.23,-0.38 -1.48,-0.04 -4.6,-0.16 -5.28,-0.48 0.07,-1.37 3.44,-5.19 7.59,-7.2 4.61,-2.27 6.81,-3.08 7.39,-3.33 2.86,0.25 5.63,-0.94 7.27,-3.42 2.39,-3.58 1.46,-8.4 -2.12,-10.82 -0.01,0 -0.01,-0.02 -0.03,-0.03 -12.35,-8.23 -14.18,-19 -13.52,-26.57 1.19,-14.02 11.58,-27.66 25.86,-34.01 2.07,-0.92 3.64,-2.72 4.3,-4.89 0.64,-2.15 0.34,-4.5 -0.88,-6.43 -6.65,-10.46 -8.72,-19.13 -5.81,-24.42 4.35,-7.93 21.73,-11.18 41.66,-7.56 2.66,0.49 5.28,-0.39 7.1,-2.35 1.82,-1.92 2.52,-4.65 1.88,-7.22 -3.08,-12.27 -1.62,-23.02 4.06,-30.31 8.43,-10.75 25.95,-12.78 42.22,-4.66 2.67,1.33 5.85,1.02 8.21,-0.75 2.37,-1.84 3.49,-4.83 2.91,-7.76 -2.21,-11.06 -0.62,-20.6 4.54,-26.85 3.73,-4.58 9.25,-7.18 15.15,-7.18 9.23,0 21.46,6.89 25.75,27.06 0.87,4.2 4.94,6.54 9.13,5.66 4.23,-0.87 6.86,-5.35 6,-9.58 -2.83,-13.96 -1.37,-25.33 4.09,-32.02 10.78,-13.19 35.59,-1.75 37.76,31.88 0,1.97 0.07,4.08 0.21,6.27 0.22,4.23 3.78,7.18 8.01,7.35 4.23,-0.12 7.57,-3.57 7.57,-7.8 0,-2.17 -0.07,-4.3 -0.18,-5.87 -0.06,-15.08 3.87,-20.18 5.06,-21.37 1.01,-1 1.65,-1 1.89,-1 1.02,0 2.83,0.81 4.82,3.08 4.69,5.36 8.89,17.16 6.59,34.26 -0.5,3.88 1.93,7.56 5.74,8.58 3.83,1.01 7.75,-0.98 9.22,-4.6 5.85,-14.29 15.06,-28.94 17.54,-30.39 0,0 0.5,0.4 1.23,1.82 10.12,19.39 3.43,43.03 3.37,43.27 -0.42,1.43 -0.31,2.86 0.06,4.21 -2.8,-1.93 -6.68,-2.51 -10,0.23 -14.7,12.02 -29.41,23.97 -42.27,38.02 -6.79,7.42 4.21,18.5 11.05,11.05 12.85,-14.06 27.55,-26.01 42.25,-38.03 2.46,-2.03 2.9,-4.48 2.29,-6.71 0.14,0.08 0.24,0.21 0.38,0.29 3.25,1.75 7.25,1.04 9.64,-1.76 8.29,-9.67 18.81,-18.66 23.49,-20.29 5.68,11.83 -7.33,25.26 -7.46,25.4 -2.48,2.52 -2.96,6.39 -1.18,9.44 1.77,3.04 5.38,4.53 8.77,3.6 6.55,-1.79 12.32,-2.71 17.16,-2.71 4.52,0 10.46,0.84 12.88,4.73 3.19,5.1 1.46,15.3 -4.74,27.95 -1.12,2.28 -1.05,5.02 0.21,7.24 1.25,2.25 3.52,3.71 6.08,3.96 16.77,1.6 29.31,8.25 31.96,16.95 2.17,7.17 -2.53,15.96 -13.31,24.75 -2.13,1.74 -3.18,4.48 -2.77,7.21 0.42,2.73 2.23,5.03 4.8,6.08 15.19,6.15 25.73,15.27 26.18,22.71 0.45,6.89 -8.52,12.96 -12.5,15.37l-11.58 3.77c-3.26,1.05 -5.46,4.11 -5.39,7.56 0.06,3.42 2.37,6.41 5.64,7.37z"/>
  <path class="fil0" d="M1725.76 1860.89c5.92,12.14 -3.67,41.87 -21.56,22.92 -3.42,-3.61 -9.84,-2.72 -12.25,1.6 -9.18,5.25 -13.72,1.86 -13.61,-10.15 -0.27,-5.74 -6.48,-9.94 -11.75,-6.73 -18.58,11.29 -18.47,-7.48 -15.3,-20.77 1.22,-5.15 -2.38,-9.52 -7.53,-9.89 -7.55,-0.48 -24.89,-1.1 -25.82,-12.15 -0.88,-10.91 16.17,-12.8 23.31,-11.96 1.9,0.78 4.13,0.78 6.44,-0.75 1.41,-0.95 2.81,-1.91 4.21,-2.83 4.59,-3.06 5.54,-10.65 0,-13.48 -7.08,-2.09 -8.78,-4.16 -5.04,-6.23 6.21,2.83 13.03,-1.73 11.46,-8.81 -4.03,-18.12 14.73,-23 22.36,-8.09 3.43,6.72 15.26,3.82 14.53,-3.93 -2.24,-24.12 26.05,-0.27 30.53,9.58 2.15,4.72 8.92,4.79 12.25,1.57 13.85,-13.25 22.9,-1.13 24.58,13.3 1.15,9.92 -2.99,18.79 -8.66,26.53 -2.54,3.47 -0.58,8.68 2.8,10.7 9.12,5.44 -20.69,17.5 -24.22,17.85 -6.09,0.57 -9.48,6.12 -6.75,11.73zm16.48 1.64c19.26,-6.3 43.78,-24.4 28.63,-39.77 15.51,-30.56 -3.79,-80.92 -36.47,-59.03 -8.66,-10.82 -23.63,-19.22 -35.81,-19.64 0.62,-1.1 1.02,-2.38 0.87,-4.03 -1.34,-14.53 -1.4,-29.09 -1.4,-43.67 0,-10.08 -15.61,-10.08 -15.61,0 0,14.58 0.06,29.14 1.38,43.67 0.31,3.14 2.12,5.17 4.35,6.34 -2.46,1.36 -4.51,3.36 -6,6.15 -16,-9.24 -37.08,1.72 -39.52,21.64 -12.32,0.4 -16.29,13.23 -10.58,24.29 -13.09,1.41 -24.65,8.05 -29.1,22.25 -6.27,19.96 15.16,28.68 31.82,31.62 -2.31,22.81 8.05,42.1 30.42,34.06 6.16,15.54 22.41,25.75 34.71,14.12 23.57,15.95 47.09,-11.8 42.32,-38z"/>
  <path class="fil0" d="M1673.32 1825.21c-10.05,0 -10.05,15.61 0,15.61 10.07,0 10.07,-15.61 0,-15.61z"/>
  <path class="fil0" d="M1689.15 1805.96c4.54,9 17.97,1.1 13.46,-7.88 -0.46,-0.94 -0.94,-1.86 -1.41,-2.8 -4.55,-8.99 -18,-1.1 -13.47,7.86 0.46,0.94 0.94,1.89 1.42,2.82z"/>
  <path class="fil0" d="M1714.08 1830.3c-6.83,-7.44 -17.84,3.64 -11.06,11.05 0.28,0.26 0.54,0.51 0.81,0.78 3.84,9.12 18.96,5.12 15.06,-4.15 -1.31,-3.17 -2.49,-5.14 -4.81,-7.67z"/>
  <path class="fil0" d="M1671.44 1821.94c6.36,4.55 16.71,-2.38 11.45,-9.78 -2.7,-3.79 -4.93,-4.83 -9.56,-5.28 -9.29,-0.84 -9.79,12.38 -1.89,15.06z"/>
  <path class="fil0" d="M1721.23 1802.68c-10.05,0 -10.05,15.6 0,15.6 10.07,0 10.07,-15.6 0,-15.6z"/>
  <path class="fil0" d="M1681.03 1852.73c0,0.48 0,0.93 0,1.4 0,10.08 15.61,10.08 15.61,0 0,-0.46 0,-0.92 0,-1.4 0,-10.07 -15.61,-10.07 -15.61,0z"/>
  <path class="fil0" d="M1693.07 1813.94c-0.48,0 -0.95,0 -1.43,0 -10.07,0 -10.07,15.61 0,15.61 0.48,0 0.95,0 1.43,0 10.05,0 10.05,-15.61 0,-15.61z"/>
  <path class="fil0" d="M1769.77 1864.93c-9.66,-2.9 -13.76,12.15 -4.14,15.05 27.2,8.15 54.96,23.42 66.37,50.89 3.82,9.16 18.93,5.14 15.08,-4.15 -13.73,-32.98 -44.14,-51.85 -77.31,-61.79z"/>
  <path class="fil0" d="M1861.31 1838.17c-22.68,-7 -45.71,-7.13 -68.92,-2.83 -9.9,1.82 -5.68,16.89 4.14,15.07 20.52,-3.82 40.63,-3.35 60.63,2.8 9.66,2.99 13.75,-12.1 4.14,-15.04z"/>
  <path class="fil0" d="M1789.94 1800.31c16.94,-8.33 34.38,-14.58 53.06,-17.51 9.93,-1.59 5.71,-16.62 -4.13,-15.07 -20,3.15 -38.68,10.19 -56.8,19.1 -9.04,4.45 -1.12,17.89 7.87,13.48z"/>
  <path class="fil0" d="M1653.94 1734.14c4.26,9.1 17.7,1.18 13.47,-7.88 -7.21,-15.45 -17.46,-28.97 -30.8,-39.62 -7.77,-6.2 -18.9,4.76 -11.03,11.04 12.43,9.94 21.62,22.08 28.36,36.45z"/>
  <path class="fil0" d="M1579.71 1757.44c18.37,4.06 36.13,9.75 53.52,16.9 9.32,3.85 13.33,-11.28 4.16,-15.04 -17.4,-7.16 -35.17,-12.85 -53.52,-16.91 -9.8,-2.17 -13.98,12.89 -4.16,15.05z"/>
  <path class="fil0" d="M1599.44 1795.46c9.83,1.86 14.03,-13.16 4.15,-15.02 -21.36,-4.05 -42.56,-1.82 -64.05,-0.31 -9.98,0.73 -10.05,16.33 0,15.61 19.92,-1.4 40.08,-4 59.89,-0.28z"/>
  <path class="fil0" d="M1605.06 1843.78c-25.51,6.83 -48.8,20.97 -63.81,43.02 -5.68,8.36 7.84,16.17 13.48,7.9 12.67,-18.62 33.05,-30.13 54.47,-35.85 9.71,-2.61 5.6,-17.67 -4.14,-15.07z"/>
  <path class="fil0" d="M1642.46 1890.85c-14.11,15.89 -26.53,33.2 -31.58,54.16 -2.35,9.79 12.73,13.95 15.06,4.15 4.4,-18.37 15.19,-33.32 27.55,-47.26 6.68,-7.49 -4.31,-18.56 -11.03,-11.04z"/>
  <path class="fil0" d="M1699.45 1924.56c-0.62,-10.01 -16.25,-10.06 -15.62,0 1.37,21.65 0.95,42.77 9.54,63.09 3.9,9.26 17.35,1.27 13.48,-7.87 -7.35,-17.4 -6.23,-36.75 -7.39,-55.22z"/>
  <path class="fil0" d="M1742.05 1912.18c-4.23,-9.13 -17.7,-1.19 -13.48,7.86 7.16,15.46 15.76,30.16 23.95,45.07 4.83,8.85 18.31,0.95 13.48,-7.85 -8.19,-14.95 -16.8,-29.62 -23.95,-45.08z"/>
  <path class="fil0" d="M1537.22 1512.16c-2.18,4.87 -2.17,10.96 1.21,18.13 11.8,25.13 49.54,23.33 53.84,-5.46 4.87,-32.61 -45.61,-33.88 -55.05,-12.67z"/>
  <path class="fil0" d="M1537.81 1584.36c-5.61,12.91 6.22,34.54 21.47,34.05 4.04,-0.12 8.52,-1.67 13.34,-5.12 20.9,-15.57 -4.27,-43.04 -24.61,-37.38 -5.24,1.47 -8.51,4.58 -10.19,8.46z"/>
  <path class="fil0" d="M1612.44 1550.22c-4.42,18.66 17.18,36.08 35.15,31.14 7.67,-2.09 13.86,-8.3 14.94,-19.69 2.19,-22.94 -38.13,-38.38 -48.56,-15.84 -0.69,1.46 -1.19,2.94 -1.53,4.39z"/>
  <path class="fil0" d="M2002.66 1923.32c5.11,-1.55 9.71,-5.54 12.93,-12.75 11.29,-25.39 -14.77,-52.76 -39.37,-37.18 -27.84,17.65 4.23,56.67 26.43,49.93z"/>
  <path class="fil0" d="M2056.89 1875.63c13.43,-4.18 22.04,-27.28 11.72,-38.5 -2.76,-2.98 -6.86,-5.36 -12.63,-6.76 -25.45,-5.6 -29.76,31.4 -12.17,43.08 4.54,3.01 9.03,3.46 13.08,2.18z"/>
  <path class="fil0" d="M1982.24 1841.51c17.01,-8.86 16.03,-36.58 0.55,-46.95 -6.61,-4.45 -15.35,-5.05 -24.67,1.58 -18.79,13.36 -4.09,53.94 19.79,47.09 1.56,-0.45 3,-1.02 4.33,-1.72z"/>
  <path class="fil0" d="M1514.81 1875.93c-7.92,11.38 -16.07,22.71 -24.37,33.86 2.35,2.86 3.83,6.01 4.47,9.31 10.77,0.11 21.45,-0.18 32.2,-0.72 8.73,-0.39 9.73,12.73 1.04,13.12 -11.38,0.63 -22.82,0.73 -34.23,0.58 -1.27,3.97 -3.46,7.8 -6.21,11.43 8.88,8.24 19.71,14.65 27.86,23.71 5.73,6.21 -3.18,16.11 -8.99,9.76 -8.47,-9.37 -19.26,-16.1 -28.43,-24.5 -2.89,1.96 -5.99,3.53 -9.24,4.73 -1.51,12.78 -0.21,25.73 -3.02,38.4 -1.76,8.27 -15.02,5.75 -13.27,-2.55 2.41,-11.17 1.76,-22.63 2.55,-34.03 -5.74,-0.5 -11.56,-2.45 -17.08,-6.81 -0.19,-0.17 -0.43,-0.47 -0.64,-0.6 -9.8,7.29 -18.73,15.66 -29.18,22.02 -7.34,4.56 -14.84,-6.42 -7.49,-10.91 9.98,-6.18 18.65,-14.1 27.91,-21.18 -1.57,-2.67 -2.7,-5.39 -3.44,-8.22 -11.23,-2.65 -22.97,-3.47 -34.4,-3.78 -8.69,-0.25 -9.73,-13.31 -1.01,-13.09 11.62,0.4 23.66,1.02 35.17,3.34 0.95,-3.51 2.58,-6.84 5.33,-9.85 -7.53,-9.35 -15.05,-18.8 -20.85,-29.18 -4.04,-7.35 7.14,-14.71 11.29,-7.17 5.73,10.25 13.16,19.6 20.61,28.91 4.67,-2.03 9.87,-3.32 15.3,-3.88 0.83,-12.62 2.3,-25.56 -0.62,-37.64 -2.02,-8.2 10.78,-12.43 12.8,-4.15 3.4,13.86 1.87,28.03 1.17,42.1 3.39,0.53 6.6,1.5 9.52,2.79 7.81,-10.54 15.68,-20.98 23.08,-31.71 4.79,-6.92 17.05,-1.12 12.18,5.89zm-23.33 -47.64c-20.43,-108.67 -214.04,-2.21 -122.74,71.12 -140.33,-15.82 -47.18,141.03 20.61,102.49 -32.91,54.81 81.93,137.14 134.06,9.49 82.3,45.36 124.51,-75.83 33.92,-110.4 99.89,-43.9 -15.81,-145.2 -65.85,-72.7z"/>
  <path class="fil0" d="M1452.86 1932.66c0.84,-3.55 -1.4,-7 -5,-7.88 -3.6,-0.83 -7.21,1.29 -8.1,4.76 -0.81,3.5 1.41,7.03 5.07,7.88 3.57,0.87 7.17,-1.32 8.04,-4.77z"/>
  <path class="fil0" d="M1460.77 1917.97c0.87,-3.44 -1.33,-6.96 -4.94,-7.83 -3.65,-0.83 -7.23,1.27 -8.09,4.76 -0.88,3.48 1.41,7.03 4.98,7.83 3.6,0.88 7.21,-1.27 8.05,-4.76z"/>
  <path class="fil0" d="M1453.01 1939.35c-0.8,3.47 1.43,7 5.08,7.91 3.56,0.81 7.2,-1.32 8.08,-4.8 0.83,-3.47 -1.47,-6.99 -5,-7.88 -3.62,-0.83 -7.28,1.33 -8.16,4.77z"/>
  <path class="fil0" d="M1467.14 1930.91c-0.85,3.5 1.36,7.04 5.01,7.89 3.53,0.83 7.16,-1.32 8.04,-4.77 0.84,-3.54 -1.37,-7 -5.01,-7.88 -3.58,-0.83 -7.21,1.34 -8.04,4.77z"/>
  <path class="fil0" d="M1463.95 1915.58c-0.88,3.44 1.35,6.98 5,7.87 3.65,0.83 7.18,-1.29 8.09,-4.76 0.83,-3.53 -1.41,-7.06 -4.97,-7.91 -3.61,-0.77 -7.25,1.31 -8.12,4.8z"/>
  <path class="fil0" d="M1458.35 1926.59c-1.23,-0.36 -2.46,0.4 -2.75,1.63 -0.33,1.15 0.42,2.38 1.68,2.71 1.25,0.24 2.49,-0.46 2.77,-1.65 0.27,-1.2 -0.48,-2.38 -1.71,-2.69z"/>
  <path class="fil0" d="M1458.86 1924.24c-0.27,1.14 0.5,2.41 1.75,2.66 1.21,0.23 2.54,-0.42 2.76,-1.6 0.32,-1.26 -0.52,-2.42 -1.65,-2.67 -1.27,-0.31 -2.5,0.42 -2.86,1.61z"/>
  <path class="fil0" d="M1465.03 1930.43c0.33,-1.15 -0.49,-2.4 -1.67,-2.69 -1.25,-0.26 -2.44,0.42 -2.8,1.62 -0.27,1.25 0.49,2.4 1.77,2.72 1.16,0.22 2.5,-0.45 2.7,-1.65z"/>
  <path class="fil2 str0" d="M2114.28 7c-76.05,27.77 -167.44,93.66 -145.09,248.07l1.35 1.33c3.53,1.15 7,2.41 10.37,3.87 89.25,-30.34 172.19,-160.61 133.37,-253.27z"/>
  <path class="fil2 str0" d="M1887.55 331.02c0.25,-3.39 0.49,-6.64 0.92,-9.44 0.56,-3.78 1.29,-7.78 2.31,-11.74 0.77,-66.26 -40.92,-165.55 -113.24,-174.13 -31.06,95.23 15.78,189.7 101.01,212.47 3.23,-5.6 6.3,-11.31 9,-17.16z"/>
  <path class="fil2 str0" d="M1881.5 362.24c68.39,41.62 183.9,28.81 259.75,-67.16 -98.24,-35.63 -208.2,-13.97 -254.96,44.16 -2.67,7.54 -4.26,15.25 -4.79,23z"/>
  <path class="fil2 str0" d="M1808.6 503.35c3.75,-8.99 6.39,-18.41 7.27,-28.6 -18.65,-81.42 -122.29,-120.55 -191.95,-149.38 6.37,89.16 70.82,227.24 184.68,177.98z"/>
  <path class="fil2 str0" d="M1808.73 514.01c87.21,50.88 185.02,29.58 236.19,-51.69 -72.44,-35.08 -165.7,-36.37 -222.97,23.18 -6,9.04 -10.81,18.48 -13.21,28.51z"/>
  <path class="fil2 str0" d="M1783.37 677.02c2.64,-7.88 4.81,-15.95 5.89,-24.15 -0.2,-1.05 -0.5,-2.03 -0.52,-3.21 -0.17,-6.82 -1.3,-13.43 -2.83,-19.94 -32.38,-51.63 -121.2,-73.19 -186.74,-75.63 26.11,79.14 97.2,165.86 178.19,132.52 0.9,-3.93 3.12,-7.17 6.01,-9.6z"/>
  <path class="fil2 str0" d="M1800.11 714.73c104.46,5.32 182.44,-56.15 210.44,-155.17 -85.03,-1.16 -181.66,18.68 -214.98,111.74 1.48,14.56 1.86,29.15 4.54,43.43z"/>
  <path class="fil2 str0" d="M1830.11 908.2c111.65,-26.09 145.71,-105.66 131.4,-174.28 -70.76,-5.33 -129.68,50.51 -144.55,113.96 4.54,20.06 8.54,40.26 13.15,60.32z"/>
  <path class="fil2 str0" d="M1808.9 830.58c-3.94,-16.54 -7.39,-33.22 -10.96,-49.85 -45.36,-31.37 -118.39,-32.38 -179.38,-0.25 46,67.88 135.5,112.75 190.34,50.1z"/>
  <path class="fil2 str0" d="M1885.45 1113.38c-0.06,-0.13 -0.07,-0.25 -0.13,-0.39 -45.78,-43.08 -117.39,-31.51 -174.26,-20.08 37.45,77.43 134.47,133.67 191.54,67.69 -3.49,-16.14 -10.88,-32.14 -17.15,-47.22z"/>
  <path class="fil2 str0" d="M1909.12 1141.1c0.08,1.54 0.08,3.08 0.18,4.62 0.31,4.84 -1.07,8.57 -3.36,11.37 0.67,4.3 1.3,8.6 1.9,12.88 69.86,51.76 179.66,-8.37 208.94,-86.49 -63.8,1.12 -132.83,-14.18 -207.67,57.63z"/>
  <path class="fil2 str0" d="M1845.34 969.28c-0.14,14.63 1.46,29.31 2.37,40.32 55.75,28.81 148.09,-0.56 180.53,-64.52 -64.89,-53.34 -151.24,-21.04 -182.89,24.2z"/>
  <path class="fil2 str0" d="M1851.61 1014.33c-7.07,-18.06 -14.28,-37.73 -19.45,-57.34 -44.13,-33.61 -117.85,-35.97 -161.47,-4.87 16.02,65.92 126.49,119.08 180.92,62.22z"/>
  <path class="fil2 str0" d="M1982.27 254.91c-307.96,213.7 -161.74,645.36 -75.88,931.61 27.79,92.65 58.81,186.11 63.38,283.5"/>
  <path class="fil0" d="M578.76 1726.91c-27.2,13.1 -58.46,9.82 -87.78,8.52 -6.64,-0.31 -5.47,-10.54 1.13,-10.25 24.33,1.09 50.07,3.85 73.36,-3.94 -22.61,-9.53 -45.28,-18.93 -68.02,-28.12 -0.07,0.02 -0.08,0.06 -0.15,0.06 -32.45,5.58 -65.76,18.03 -99.01,16.43 -6.62,-0.31 -5.47,-10.56 1.13,-10.23 26.88,1.28 54.15,-7.23 80.75,-13.22 -17.81,-7.11 -35.61,-14.21 -53.48,-21.17 -31.37,18.15 -65.21,23.65 -100.65,29.22 -6.57,1.02 -8.19,-9.16 -1.63,-10.18 31.33,-4.93 61.51,-9.8 89.68,-23.93 -45.86,-17.78 -91.85,-35.28 -137.88,-52.64 -6.21,-2.33 -2.5,-11.94 3.73,-9.6 44.88,16.93 89.69,33.98 134.42,51.3 -12.87,-20.85 -26.53,-40.74 -43.59,-58.69 -4.59,-4.81 3.43,-11.31 7.96,-6.52 20.5,21.54 36.18,45.95 51.38,71.3 18.98,7.41 37.94,14.96 56.84,22.54 -13.34,-29.41 -37.39,-50.79 -57.01,-76.66 -4.02,-5.31 3.93,-11.85 7.95,-6.56 22.26,29.34 49.8,53.11 62.17,88.49 22.11,8.92 44.16,18.02 66.11,27.29 -17.73,-27.54 -37.59,-54.04 -58.43,-79.14 -4.26,-5.14 3.71,-11.65 7.95,-6.55 24.32,29.28 47.29,60.37 67.2,92.83 14.07,5.99 28.2,11.84 42.16,18.02 -38.75,-80.23 -90.44,-169.79 -188.23,-184.3 -75.3,-14.06 -253.55,30.81 -253.55,30.81 0,0 112.49,163.94 196.93,202.62 89.21,47.01 162.79,-8.75 244.63,-38.41 0,0 -31.75,-13.18 -46.09,-19.31z"/>
  <path class="fil0" d="M326.37 1760.36c-14.27,14.9 -35.05,20.28 -54.14,26.49 -4.31,1.39 -6.02,-5.44 -1.73,-6.84 15.83,-5.12 32.97,-9.52 46,-20.09 -16.74,-0.68 -33.5,-1.27 -50.26,-1.69 -0.04,0.03 -0.04,0.06 -0.08,0.09 -19.43,11.33 -37.77,27.3 -59.43,34.24 -4.33,1.39 -6.04,-5.44 -1.72,-6.83 17.51,-5.61 32.91,-17.6 48.49,-27.82 -13.09,-0.28 -26.19,-0.56 -39.3,-0.73 -15.72,19.14 -36.05,30.78 -57.41,42.83 -3.95,2.23 -7.42,-3.89 -3.47,-6.12 18.87,-10.66 37.02,-21.02 51.67,-36.81 -33.62,-0.39 -67.25,-0.56 -100.87,-0.64 -4.55,0 -4.48,-7.04 0.07,-7.03 32.78,0.07 65.56,0.24 98.34,0.6 -13.25,-10.26 -26.76,-19.72 -41.97,-27.11 -4.09,-1.98 -0.52,-8.06 3.53,-6.09 18.29,8.88 34.16,20.72 49.98,33.32 13.93,0.18 27.86,0.48 41.78,0.78 -15.58,-15.61 -36.1,-23.53 -54.86,-35.39 -3.84,-2.42 -0.31,-8.51 3.53,-6.1 21.28,13.45 44.59,22.07 60.99,41.75 16.3,0.4 32.58,0.94 48.86,1.61 -17.95,-13.39 -37.01,-25.58 -56.38,-36.64 -3.95,-2.27 -0.42,-8.36 3.53,-6.1 22.57,12.91 44.73,27.3 65.25,43.3 10.43,0.46 20.87,0.83 31.3,1.43 -44.03,-42.05 -98.58,-87 -164.65,-72.84 -51.55,9.06 -154.88,80.5 -154.88,80.5 0,0 111.28,77.95 174.61,82.46 68.34,8.7 102.08,-44.62 147.34,-83.22 0,0 -23.48,-0.83 -34.12,-1.3z"/>
  <path class="fil0" d="M1448.1 2007.62c-89.98,6.46 -176.59,-6.24 -256.74,-31.36 -18.13,6.44 -35.95,13.51 -53.76,20.62 -47.35,38.85 -179.92,122.75 -205.7,48.37 -15.92,-55.16 141.09,-44.37 193.59,-58.28 14.97,-5.9 29.86,-11.87 44.94,-17.49 -11.86,-4.03 -23.62,-8.34 -35.25,-12.86 -26.03,3.23 -52.19,5 -78.44,5.01 -0.04,0.03 -0.1,0.07 -0.15,0.12 -32.66,17.46 -328.1,25.98 -259.55,-65.1 58.45,-63.73 212.32,45.12 277.77,50.73 11.38,-0.31 22.72,-0.91 34.05,-1.86 -63.7,-27.95 -121.98,-66.4 -175.35,-113.09 -5.1,-4.46 -10.44,-9.12 -15.95,-13.89 -0.53,-0.06 -1.05,-0.21 -1.57,-0.4 -13.24,0.74 -26.53,1.1 -39.87,1.12 -48.63,4.53 -157.9,33.03 -196.33,-40.66 -27.22,-53.8 20.68,-41.52 48.96,-33.08 56.31,18.34 123.56,50.68 182.53,67.59 -24.89,-21.45 -52.57,-45.07 -80.38,-63.87 -47.37,-5.08 -157.33,-34.61 -153.09,-109.93 10.19,-107.53 129.43,79.9 155.24,95.29 24.71,17.29 48.7,38.23 71.52,55.93 -8.15,-20.76 -20.02,-41.01 -31.54,-60.17 -0.28,-0.13 -0.56,-0.25 -0.84,-0.38 -38.68,-12.67 -120.82,-84.68 -102.48,-152.58 30.14,-99.58 84.28,95.59 115.18,147.45 15.08,25.37 30.63,52.38 38.04,80.25 1.16,0.94 2.34,1.86 3.5,2.8 -1.54,-35.15 -5.4,-70 -6.67,-104.9 -11.45,-42.53 -48.02,-75.51 -35.78,-122.44 11.84,-40.45 48.21,-50.08 58.76,-9.09 7.84,31.68 -4.59,82.98 -11.08,124.02 1.21,40.95 6.78,81.73 8.26,123.17 0.01,0.14 -0.06,0.24 -0.06,0.38 18.76,16.16 37.37,33.14 56.42,47.89 23.87,18.52 49.41,33.72 75.95,46.93 -10.92,-39.86 -32.31,-74.66 -48.68,-112.14 -29.71,-37.2 -85.05,-154.18 -59.07,-209.73 25.73,-61.22 53.35,0.35 57.79,32.52 7.63,73.67 5.39,130.45 15.08,177.03 17.45,38.78 39.89,74.71 50.27,117.31 0.23,0.91 0.2,1.69 0.11,2.48 6.57,3.04 13.18,5.97 19.84,8.81 21.18,9.06 42.64,17.43 64.5,24.89 -7.88,-26.81 -18.2,-52.64 -29.22,-78.02 -0.01,0.82 -0.01,1.64 -0.03,2.46 -0.31,-1.72 -0.71,-3.42 -1.15,-5.07 -2.92,-6.72 -5.87,-13.4 -8.82,-20.04 -30.76,-46.93 -111.98,-88.49 -95,-162.09 14.27,-58.76 51.84,-22.19 67.8,6.65 17.35,32.52 17.86,76.66 25.39,118.84 20.44,46.14 43.41,92.58 57.32,142.72 1.4,0.45 2.81,0.88 4.23,1.33 1.98,-0.23 3.59,0.35 4.77,1.48 77.73,24.05 161.47,36.68 248.49,31.07 0.69,4.43 1.37,8.87 2.25,13.24z"/>
  <path class="fil2 str0" d="M7 2430.93c15.43,-79.48 66.05,-180.15 222.05,-182.45l1.54 1.11c1.69,3.31 3.49,6.54 5.45,9.65 -15.86,92.91 -131.4,195.39 -229.04,171.69z"/>
  <path class="fil2 str0" d="M291.18 2155.88c-3.32,0.78 -6.49,1.54 -9.19,2.4 -3.63,1.15 -7.48,2.51 -11.23,4.14 -65.29,11.23 -169.94,-14.29 -189.82,-84.34 89.12,-45.7 189.82,-14.36 225.76,66.19 -5.02,4.08 -10.16,8 -15.51,11.6z"/>
  <path class="fil2 str0" d="M321.04 2144.97c51.9,60.97 57.47,177.05 -25.31,267.11 -50.68,-91.39 -46.66,-203.4 3.35,-258.76 7.03,-3.83 14.39,-6.6 21.97,-8.36z"/>
  <path class="fil2 str0" d="M448.87 2050.73c-8.27,5.14 -17.18,9.21 -27.1,11.68 -83.36,-5.54 -138.36,-101.71 -177.81,-165.94 89.05,-7.8 235.57,34.05 204.91,154.26z"/>
  <path class="fil2 str0" d="M459.4 2049.17c64.02,78.06 58.43,178.02 -13.73,241.38 -46.09,-65.99 -62.09,-157.88 -12.32,-223.84 7.98,-7.35 16.55,-13.59 26.05,-17.54z"/>
  <path class="fil2 str0" d="M616.38 1998.37c-7.38,3.86 -14.99,7.28 -22.92,9.64 -1.08,-0.03 -2.08,-0.16 -3.25,0 -6.76,0.91 -13.47,0.81 -20.13,0.35 -56.08,-23.83 -91.42,-108.12 -104.16,-172.46 82.26,13.29 179.11,69.78 158.98,155.05 -3.74,1.5 -6.57,4.2 -8.53,7.42z"/>
  <path class="fil2 str0" d="M656.25 2008.97c21.74,102.33 -26.64,189.03 -120,232.31 -14.57,-83.79 -10.25,-182.36 76.42,-229.95 14.6,-0.83 29.06,-2.75 43.58,-2.37z"/>
  <path class="fil2 str0" d="M852.03 2008.04c-8.15,114.36 -81.32,160.56 -151.35,157.27 -16.43,-69.03 29.4,-136.03 89.71,-160.73 20.54,1.32 41.12,2.07 61.64,3.46z"/>
  <path class="fil2 str0" d="M772.04 1999.35c-16.96,-1.29 -33.97,-2.06 -50.96,-2.95 -38.13,-39.84 -50.65,-111.81 -28.56,-177.09 74.28,34.72 132.73,116 79.52,180.04z"/>
  <path class="fil2 str0" d="M1063.39 2030.29c-0.14,-0.03 -0.28,-0.03 -0.4,-0.06 -49.77,-38.4 -49.66,-110.92 -47.34,-168.9 82.36,24.76 153.21,111.68 97.06,178.45 -16.48,-0.88 -33.44,-5.65 -49.32,-9.49z"/>
  <path class="fil2 str0" d="M1094.5 2049.31c1.52,-0.16 3.04,-0.42 4.59,-0.56 4.83,-0.45 8.29,-2.41 10.68,-5.13 4.35,0 8.71,-0.04 13.03,-0.14 62.12,60.82 20.09,178.72 -52.43,219.99 -8.97,-63.2 -34.97,-128.93 24.12,-214.17z"/>
  <path class="fil2 str0" d="M914.75 2013.43c14.42,-2.45 29.19,-3.16 40.19,-4.02 37.25,50.51 22.82,146.31 -35.22,188.45 -62.9,-55.65 -44.64,-146.02 -4.97,-184.43z"/>
  <path class="fil2 str0" d="M960.24 2012.52c-18.95,-4.13 -39.52,-8.14 -59.69,-10.15 -40.16,-38.26 -54.12,-110.68 -30.31,-158.67 67.62,5.42 137.55,106.09 90,168.82z"/>
  <path class="fil2 str0" d="M230.95 2261.42c162.41,-337.84 611.73,-261.57 907.96,-221.98 95.86,12.81 193.06,28.68 289.94,17.82"/>
 </g>
</svg>
