<?xml version="1.0" encoding="UTF-8"?>
<!DOCTYPE svg PUBLIC "-//W3C//DTD SVG 1.1//EN" "http://www.w3.org/Graphics/SVG/1.1/DTD/svg11.dtd">
<!-- Creator: CorelDRAW 2019 (64-Bit) -->
<svg xmlns="http://www.w3.org/2000/svg" xml:space="preserve" width="1.11415in" height="0.249205in" version="1.1" style="shape-rendering:geometricPrecision; text-rendering:geometricPrecision; image-rendering:optimizeQuality; fill-rule:evenodd; clip-rule:evenodd"
viewBox="0 0 541.29 121.07"
 xmlns:xlink="http://www.w3.org/1999/xlink"
 xmlns:xodm="http://www.corel.com/coreldraw/odm/2003">
 <defs>
  <style type="text/css">
   <![CDATA[
    .fil0 {fill:#362C2E;fill-rule:nonzero}
   ]]>
  </style>
 </defs>
 <g id="Layer_x0020_1">
  <metadata id="CorelCorpID_0Corel-Layer"/>
  <path class="fil0" d="M0.1 72.89c-0.9,-1.61 4.69,-5.83 13.83,-11.07 4.59,-2.57 9.69,-5.43 15.17,-8.5 4.83,-2.66 10.33,-4.84 15.57,-7.77 4.99,-2.87 10.05,-5.8 15.07,-8.7 5.15,-3.11 10.07,-6.07 14.9,-9 5.44,-2.99 10.76,-5.93 15.3,-8.42 9.19,-5.08 15.44,-8.04 16.19,-6.96 0.73,1.07 -4.65,5.29 -13.13,11.58 -4.12,3.05 -9.02,6.46 -14.43,10 -4.66,3.07 -9.82,6.01 -15.01,9.12 -5,2.97 -9.6,6.88 -14.74,9.65 -5.34,2.87 -10.52,5.84 -15.57,8.25 -5.83,2.83 -11.76,4.36 -16.5,6.31 -9.74,3.99 -16.22,6.27 -16.65,5.51z"/>
  <path class="fil0" d="M41.42 52.51c-1.71,-0.6 -2.71,-2.7 -2.58,-5.33 0.07,-1.25 0.32,-2.66 0.69,-4.15 0.33,-1.28 1.48,-2.33 1.96,-3.67 0.47,-1.28 0.86,-2.62 1.45,-3.86 0.61,-1.29 0.89,-2.67 1.56,-3.82 0.8,-1.33 1.79,-2.46 2.59,-3.44 1.66,-2.02 3.3,-3.12 4.52,-2.66 1.23,0.46 1.01,2.1 0.67,4.62 -0.17,1.23 -0.49,2.6 -0.91,4.06 -0.36,1.26 -1.02,2.51 -1.52,3.83 -0.48,1.28 0.03,2.96 -0.53,4.21 -0.58,1.3 -0.94,2.65 -1.56,3.81 -0.72,1.35 -2.38,2.22 -3.08,3.24 -1.43,2.09 -2.42,3.45 -3.27,3.14z"/>
  <path class="fil0" d="M25.04 61.05c0.46,-1.76 4.57,-2.18 10.4,-1.27 2.81,0.43 6.04,1.1 9.52,1.89 3,0.7 5.97,2.24 9.21,3.12 3.1,0.84 6.31,1.59 9.4,2.54 3.21,0.99 6.45,1.65 9.37,2.71 3.39,1.23 6.44,2.68 9.07,3.88 5.39,2.48 8.65,4.76 8.26,5.98 -0.41,1.26 -4.12,0.45 -9.84,-0.66 -2.79,-0.55 -5.99,-1.28 -9.45,-2.13 -2.99,-0.73 -6.1,-1.77 -9.33,-2.65 -3.1,-0.84 -6.54,-0.67 -9.63,-1.6 -3.22,-0.96 -6.43,-1.71 -9.38,-2.72 -3.41,-1.15 -6.26,-3.27 -8.9,-4.37 -5.43,-2.24 -8.93,-3.85 -8.69,-4.72z"/>
  <path class="fil0" d="M87.47 79.3c-0.26,-1.83 7.69,-3.61 19.97,-4.95 6.08,-0.6 12.91,-1.28 20.27,-2 6.44,-0.59 13.35,-0.49 20.34,-1.17 6.7,-0.75 13.5,-1.52 20.23,-2.28 6.97,-0.77 13.76,-1.94 20.18,-2.72 7.27,-0.79 14.3,-1.55 20.28,-2.21 12.19,-1.41 20.2,-2.04 20.49,-0.73 0.27,1.25 -7.45,3.37 -19.46,6.18 -5.84,1.36 -12.69,2.75 -20.15,4.01 -6.42,1.12 -13.32,1.89 -20.34,2.79 -6.75,0.86 -13.52,2.69 -20.32,3.28 -7.06,0.59 -13.97,1.33 -20.49,1.61 -7.56,0.37 -14.6,-0.51 -20.59,-0.53 -12.27,-0.05 -20.28,-0.39 -20.41,-1.28z"/>
  <path class="fil0" d="M88.14 79.24c-0.94,-1.58 3.42,-5.54 10.79,-10.28 3.54,-2.3 7.75,-4.83 12.27,-7.59 3.92,-2.36 8.47,-4.2 12.73,-6.76 4.05,-2.52 8.14,-5.09 12.21,-7.63 4.23,-2.61 8.14,-5.49 12.02,-7.93 4.32,-2.61 8.67,-5.24 12.37,-7.48 7.39,-4.55 12.45,-7.31 13.3,-6.29 0.82,0.99 -3.29,4.96 -9.95,10.71 -3.25,2.79 -7.15,5.9 -11.5,9.06 -3.75,2.76 -7.96,5.35 -12.18,8.1 -4.06,2.63 -7.69,6.16 -11.9,8.6 -4.37,2.52 -8.58,5.12 -12.72,7.25 -4.78,2.48 -9.76,3.72 -13.66,5.44 -8,3.51 -13.31,5.57 -13.78,4.8z"/>
  <path class="fil0" d="M87.7 79.29c0.51,-1.73 4.98,-1.91 11.3,-0.48 3.05,0.69 6.54,1.67 10.28,2.83 3.22,1 6.37,2.88 9.82,4.11 3.31,1.19 6.73,2.3 10.01,3.6 3.41,1.34 6.87,2.34 9.97,3.7 3.59,1.58 6.82,3.31 9.6,4.75 5.72,2.95 9.23,5.43 8.79,6.66 -0.45,1.23 -4.48,0.18 -10.67,-1.44 -3.01,-0.78 -6.47,-1.84 -10.19,-3.05 -3.21,-1.04 -6.52,-2.43 -9.97,-3.66 -3.31,-1.19 -7.05,-1.39 -10.33,-2.66 -3.42,-1.32 -6.84,-2.41 -9.95,-3.71 -3.61,-1.51 -6.58,-3.9 -9.4,-5.22 -5.77,-2.71 -9.52,-4.54 -9.27,-5.42z"/>
  <path class="fil0" d="M228.08 62.82c0.99,-1.51 4.83,-0.8 9.67,1.9 2.33,1.31 4.93,2.99 7.65,4.94 2.35,1.67 4.28,4.16 6.69,6.15 2.31,1.91 4.72,3.8 6.91,5.85 2.28,2.13 4.74,3.99 6.71,6.09 2.3,2.43 4.19,4.93 5.83,7.02 3.37,4.33 5.07,7.61 4.16,8.54 -0.93,0.94 -3.67,-1.24 -7.96,-4.49 -2.08,-1.58 -4.43,-3.51 -6.94,-5.6 -2.14,-1.92 -4.34,-3.9 -6.62,-5.95 -2.23,-1.93 -5.22,-3.05 -7.42,-5 -2.36,-1.98 -4.56,-3.82 -6.81,-5.7 -2.42,-2.19 -4.05,-5.03 -5.94,-6.85 -3.87,-3.7 -6.44,-6.12 -5.93,-6.89z"/>
  <path class="fil0" d="M229.38 63.13c-0.92,-1.58 1.75,-4.8 6.55,-8.35 2.31,-1.71 5.08,-3.58 8.07,-5.58 2.59,-1.71 5.76,-2.85 8.6,-4.68 2.7,-1.79 5.4,-3.6 8.14,-5.42 2.83,-1.83 5.4,-3.93 8.03,-5.59 3.06,-1.91 6.02,-3.53 8.52,-4.99 5.13,-3 8.8,-4.65 9.65,-3.64 0.84,0.98 -1.86,3.81 -6.21,7.98 -2.11,2.02 -4.69,4.25 -7.59,6.53 -2.48,1.98 -5.35,3.81 -8.18,5.77 -2.73,1.88 -4.94,4.65 -7.8,6.38 -2.96,1.79 -5.77,3.7 -8.6,5.18 -3.27,1.73 -6.86,2.33 -9.54,3.48 -5.51,2.36 -9.19,3.71 -9.64,2.93z"/>
  <path class="fil0" d="M227.36 63.57c-1.13,-1.35 9.1,-8.33 27.35,-10.86 8.7,-1.19 19.02,-1.67 30.11,-0.57 9.53,0.86 19.71,3.8 29.31,7.66 9.28,3.58 18.17,7.82 27.02,10.91 9.18,3.38 18.44,4.19 27.58,4.35 10.61,0.19 20.65,0.36 29.23,0.52 17.6,0.51 29.04,1.25 29.08,2.56 0.05,1.3 -11.39,2.08 -28.95,2.98 -8.55,0.4 -18.35,1.07 -29.33,1.28 -9.41,0.22 -20.06,-1.14 -29.89,-4.65 -9.47,-3.19 -18.87,-6.63 -27.64,-10.09 -9.07,-3.72 -18.25,-5.6 -27.23,-6.76 -10.3,-1.4 -20.08,-2.46 -28.45,-2 -17.23,0.98 -27.69,5.55 -28.19,4.67z"/>
  <path class="fil0" d="M368.49 79.98c0.78,-1.64 4.76,-1.38 10.06,0.6 2.55,0.95 5.45,2.23 8.53,3.72 2.65,1.27 5.06,3.39 7.87,4.91 2.7,1.46 5.49,2.86 8.14,4.43 2.74,1.63 5.6,2.93 8.07,4.53 2.87,1.87 5.38,3.85 7.55,5.5 4.48,3.4 7.1,6.13 6.47,7.27 -0.62,1.15 -3.97,-0.24 -9.12,-2.41 -2.5,-1.05 -5.35,-2.39 -8.4,-3.91 -2.63,-1.31 -5.28,-2.96 -8.09,-4.49 -2.69,-1.46 -5.94,-2.02 -8.6,-3.55 -2.75,-1.6 -5.56,-2.99 -8.06,-4.54 -2.89,-1.8 -5.06,-4.39 -7.29,-5.94 -4.57,-3.18 -7.53,-5.29 -7.13,-6.12z"/>
  <path class="fil0" d="M273.76 55.96c-0.77,-1.65 2.24,-4.66 7.59,-7.65 2.58,-1.44 5.66,-2.96 9.02,-4.49 2.91,-1.33 6.32,-1.93 9.54,-3.23 3.08,-1.25 6.19,-2.6 9.32,-3.75 3.25,-1.17 6.32,-2.64 9.37,-3.62 3.53,-1.13 6.91,-1.89 9.78,-2.6 5.9,-1.46 9.96,-1.85 10.45,-0.64 0.49,1.21 -3.01,3.03 -8.4,5.79 -2.61,1.34 -5.72,2.78 -9.1,4.27 -2.92,1.28 -6.13,2.38 -9.34,3.66 -3.08,1.24 -5.83,3.49 -8.95,4.64 -3.25,1.21 -6.34,2.59 -9.36,3.62 -3.5,1.19 -7.13,1.29 -9.95,2.11 -5.79,1.67 -9.59,2.71 -9.98,1.89z"/>
  <path class="fil0" d="M427.34 78.02c-0.99,-1.51 3.06,-5.71 10.43,-10.51 3.55,-2.31 7.84,-4.81 12.65,-7.24 4.15,-2.11 8.99,-3.43 13.73,-5.22 4.56,-1.73 9.31,-3.36 14.12,-4.44 4.99,-1.12 9.93,-2.25 14.68,-2.5 5.5,-0.3 10.59,0.21 14.85,0.82 8.83,1.29 14.1,3.81 13.83,5.01 -0.27,1.35 -5.72,0.39 -14.1,0.53 -4.06,0.07 -8.77,0.29 -13.81,0.93 -4.35,0.55 -8.98,1.22 -13.62,2.36 -4.49,1.12 -8.63,3.55 -12.96,5.1 -4.52,1.6 -8.82,3.6 -12.93,5.34 -4.76,2 -9.62,3.1 -13.44,4.78 -7.82,3.44 -12.93,5.81 -13.44,5.03z"/>
  <path class="fil0" d="M393.58 78.99c-1.19,-1.38 1.59,-5.56 6.99,-10.59 2.6,-2.43 5.75,-5.12 9.21,-7.93 3,-2.43 6.69,-4.32 10.03,-6.84 3.21,-2.42 6.42,-4.97 9.7,-7.29 3.41,-2.42 6.56,-5.06 9.78,-7.19 3.73,-2.46 7.35,-4.51 10.42,-6.3 6.33,-3.7 10.8,-5.62 11.58,-4.58 0.78,1.05 -2.77,4.19 -8.25,9.01 -2.66,2.34 -5.85,4.95 -9.34,7.73 -3.02,2.39 -6.4,4.71 -9.73,7.22 -3.21,2.4 -5.84,5.71 -9.1,8.05 -3.38,2.43 -6.58,5 -9.76,7.17 -3.68,2.52 -7.72,3.99 -10.72,5.88 -6.15,3.86 -10.2,6.34 -10.8,5.65z"/>
  <path class="fil0" d="M424.24 78.19c-0.07,-1.77 3.96,-3.39 10.23,-3.37 3,0.03 6.5,0.33 10.21,0.96 3.22,0.53 6.4,2.04 9.76,3 3.25,0.9 6.55,1.86 9.69,3.08 3.26,1.26 6.54,2.33 9.43,3.79 3.33,1.75 6.23,3.68 8.66,5.41 5.03,3.53 7.66,6.7 6.96,7.75 -0.73,1.12 -4.07,-0.67 -9.49,-2.82 -2.79,-1.11 -5.78,-2.3 -8.99,-3.58 -2.87,-1.09 -5.85,-2.47 -9,-3.57 -3.04,-1.07 -6.47,-1.06 -9.51,-2 -3.15,-1.01 -6.34,-1.65 -9.29,-2.45 -3.39,-0.94 -6.41,-2.69 -9.18,-3.37 -5.66,-1.35 -9.45,-1.87 -9.47,-2.83z"/>
  <path class="fil0" d="M47.43 31.56c-0.01,0.86 -0.76,1.86 -2.52,1.86 -1.69,0.02 -4.26,-1.16 -5.63,-4.15 -1.4,-3.01 -0.76,-7.19 1.69,-10.12 2.13,-2.69 5.98,-3.53 9.01,-3.57 3.1,-0.05 5.92,0.47 8.72,2.56 3.41,2.43 4.68,7.53 2.24,10.77 -2.33,3.08 -4.66,3.93 -6.89,4.79 -4.57,1.48 -7.52,0.07 -7.49,-1.14 -0.07,-1.35 2.26,-1.67 4.8,-3.7 1.11,-0.87 2.66,-2.5 3.16,-3.52l-0.26 -1.28c-0.9,-0.67 -2.92,-0.12 -3.94,-0.1 -1.32,-0.02 -2.06,0.49 -2.77,1.03 -0.8,0.54 -2.32,1.28 -2.31,2.43 0.16,2.54 2.28,3.33 2.19,4.15z"/>
  <path class="fil0" d="M102.06 15.08c-0.74,0.49 -1.87,0.46 -3.02,-0.64 -1.1,-1.06 -2.1,-3.26 -1.66,-6.11 0.36,-2.73 2.52,-5.99 5.82,-7.53 2.82,-1.44 6.71,-0.8 9.51,0.62 1.39,0.67 2.48,1.36 3.7,2.56 1.36,1.33 2.35,3.07 2.49,4.92l0.02 0.43c0.03,1.99 -0.77,3.91 -1.96,5.48 -0.92,1.19 -1.71,1.98 -2.77,2.76 -2.39,1.74 -5.39,2.52 -7.91,2.27 -2.56,-0.22 -4.37,-1.48 -5.15,-2.64 -0.8,-1.19 -0.64,-2.11 -0.16,-2.51 1.03,-0.82 2.4,0.36 4.87,-0.39 1.06,-0.35 2.32,-1.07 3.56,-2.3l1.61 -1.68 0.32 -0.62 -0.01 -0.05 -0.73 -0.2 -1.4 -0.45c-0.89,-0.49 -1.57,-0.33 -2.51,-0.15 -0.94,0.17 -2.63,0.09 -3.34,1.27 -1.36,2.33 -0.51,4.49 -1.3,4.93z"/>
  <path class="fil0" d="M170.08 27.13c-0.43,0.71 -1.39,1.37 -2.77,0.96 -1.34,-0.35 -3.08,-1.99 -3.27,-4.73 -0.18,-2.59 1.14,-5.51 3.65,-7.36 2.27,-1.59 4.72,-1.47 7.37,-1.34 2.5,0.14 5.02,1.21 6.47,3.21l0.72 1.23c1.24,2.71 1.01,6.1 -0.8,8.34 -2.32,2.7 -4.89,2.92 -6.71,2.96 -3.91,-0.12 -5.51,-2.23 -5.09,-3.37 0.36,-1.27 2.05,-1.07 3.89,-2.04 0.84,-0.43 1.69,-1.21 1.64,-1.47l0.17 -0.99 -0.16 -0.09 -0.82 0.58 -1.84 0.34c-0.44,-0.01 -1.89,-0.13 -2.28,0.53 -0.78,1.29 0.25,2.59 -0.18,3.25z"/>
  <path class="fil0" d="M152.88 101.81c-1.55,-0.72 -1.48,-4.87 3.39,-7.77 2.3,-1.26 5.41,-2.16 9.19,-1.32 1.63,0.38 3.43,1.42 4.74,3.12 1.3,1.67 1.88,3.59 2.13,5.45 0.58,3.65 -1.26,7.57 -3.91,9.49 -2.73,2.16 -6.16,3.14 -8.99,2.77 -3.28,-0.45 -5.92,-1.95 -7.79,-3.94 -1.96,-2.08 -2.29,-4.7 -1.78,-6.11 0.48,-1.5 1.45,-1.88 2.01,-1.64 1.19,0.44 0.97,2.27 3.25,3.43 1.04,0.52 2.84,0.97 4.61,0.93 1.5,-0.05 2.92,-0.24 3.97,-1.11l0.61 -1.62 -0.28 -1.13c-0.18,-0.82 -0.11,-0.67 -0.95,-1.19 -0.99,-0.53 -2.94,-1.63 -4.51,-1.33 -3.25,0.6 -4.9,2.51 -5.68,1.97z"/>
  <path class="fil0" d="M279.14 28.64c-0.43,0.74 -1.71,1.18 -3.35,0 -1.56,-1.15 -3.05,-3.96 -2.33,-7.54 0.72,-3.45 3.34,-6.45 6.3,-8.35 2.51,-1.59 5.9,-2.41 9.8,-2.29 1.85,0.08 3.79,0.53 5.61,1.62 1.82,1.08 3.33,2.96 4,4.85 1.49,3.84 0.74,8.44 -1.73,11.14 -2.8,3.12 -6.47,3.97 -9.23,3.99 -5.79,-0.19 -8.19,-2.98 -7.77,-4.04 0.38,-1.31 3.37,-0.38 6.92,-1.43 1.62,-0.5 3.32,-1.55 4.27,-2.99 0.8,-1.14 1.19,-2.56 0.69,-3.91 -0.59,-1.25 -1.89,-0.7 -3.1,-0.87 -1.29,-0.18 -3.17,0.61 -4.94,1.47 -1.94,0.88 -4.06,1.36 -4.87,2.72 -1.56,2.98 0.23,4.98 -0.26,5.63z"/>
  <path class="fil0" d="M332.71 31.69c-0.53,0.66 -1.9,0.88 -3.36,-0.6 -1.38,-1.36 -2.57,-4.74 -0.72,-8.35 1.6,-3.31 5.63,-5.89 9.95,-6.06 3.75,-0.14 7.03,1.56 10.12,3.85 1.47,1.13 2.9,2.65 3.8,4.7 0.92,2.03 1.02,4.57 0.4,6.56 -1.28,4.14 -4.18,7.04 -7.4,8.36 -3.76,1.53 -7.71,1.01 -10.38,-0.29 -5.65,-2.9 -5.99,-7.33 -4.89,-7.71 1.13,-0.72 2.79,1.79 6.52,2.4 1.71,0.26 3.72,0.01 5.55,-1 1.54,-0.83 3.06,-2.17 3.45,-3.65 0.28,-1.51 -1.07,-1.72 -2.15,-2.73 -1.2,-1.07 -3.32,-1.58 -4.82,-1.7 -1.63,-0.24 -3.7,-0.54 -4.9,0.63 -1.09,1.05 -1.28,2.55 -1.2,3.56 0.07,1.01 0.35,1.66 0.03,2.02z"/>
  <path class="fil0" d="M270.74 97.71c-0.6,-0.66 -0.59,-1.88 0.41,-3.4 1,-1.44 3.07,-3.42 6.88,-3.83 1.79,-0.15 3.83,0.1 5.88,1.15 2.04,0.99 4.06,3.16 4.87,5.72 1.41,4.52 -0.64,8.56 -2.8,11.62 -2.1,3.01 -5.37,5.57 -9.33,6.26 -3.95,0.69 -8.32,-0.07 -11.27,-2.89 -3.32,-3.22 -4,-7.75 -2.94,-11.02 1.13,-3.41 3.64,-4.98 5.34,-5.4 1.79,-0.41 2.76,0.18 2.86,0.77 0.35,1.2 -2.57,2.23 -2.75,5.66 -0.03,1.41 0.75,3.31 2.25,4.41 1.17,0.91 3.1,1.62 5.04,1.22 1.9,-0.4 2.92,-2.46 3.95,-3.82 1.21,-1.48 1.37,-3.38 1.24,-4.26 -0.05,-0.49 0.08,-0.98 -0.34,-1.7 -0.39,-0.69 -1.21,-1.33 -2.07,-1.49 -3.69,-0.55 -6.69,1.83 -7.21,1z"/>
  <path class="fil0" d="M452.9 32.78c-0.55,0.66 -1.89,0.83 -3.42,-0.54 -1.46,-1.3 -2.9,-4.36 -1.84,-8.13 0.94,-3.51 3.99,-6.89 8.1,-8.4 3.63,-1.29 7.19,-0.66 10.91,0.32 1.83,0.53 3.81,1.49 5.39,3.09 1.65,1.56 2.69,4.11 2.81,6.07 0.16,2.13 0.11,3.64 -0.31,5.73 -0.33,1.98 -2.06,4.68 -4.08,5.64 -2.25,1.17 -3.89,1.29 -5.6,1.46 -1.69,0.12 -3.25,0.01 -4.66,-0.21 -4.37,-0.7 -6.98,-2.72 -7.67,-4l-0.25 -0.46 0.2 0.01 1.06 0.42 -0.02 1.04 -0.26 -2.65c1.25,-0.2 3.72,0.47 7,0.09 1.92,-0.21 4.86,-0.94 6.29,-1.92 0.45,-0.38 0.44,-0.33 0.75,-1.17 0.22,-0.73 0.34,-2.17 0.22,-3.04 -0.31,-1.76 -1.74,-1.45 -3.2,-2.05 -1.74,-0.59 -4.19,-0.43 -5.76,-0.03 -1.82,0.34 -4.14,0.77 -5.11,2.34 -1.89,3.21 0.1,5.87 -0.55,6.4z"/>
  <path class="fil0" d="M508.63 50.88c-0.88,0.03 -1.82,-1.16 -1.98,-3.59 -0.16,-2.36 0.57,-6.05 3.45,-9.55 2.74,-3.31 7.37,-6.18 13.08,-6.62 4.94,-0.36 10.15,1.92 13.9,5.94 3.59,3.83 5.4,9.7 3.37,15.09 -2.04,5.37 -6.57,8.79 -10.81,10.15 -4.95,1.48 -9.33,1.59 -13.5,0.66 -4.29,-0.96 -7.05,-4.09 -7.67,-6.38 -0.72,-2.39 0.11,-3.69 0.7,-3.66 0.69,-0.02 1.03,0.91 2.08,2.02 1.07,1.12 2.86,2.45 5.72,2.54 2.63,0.14 6.6,-0.63 10.02,-2.01 2.88,-1.17 5.55,-3.12 6.51,-5.76 0.91,-2.52 -0.98,-5.24 -2.52,-6.92 -1.66,-1.96 -4.66,-2.86 -7.35,-2.89 -3.07,-0.11 -6.73,0.28 -9.05,2.2 -4.74,3.99 -4.97,8.91 -5.94,8.78z"/>
  <path class="fil0" d="M481.5 92.47c-0.73,-0.48 -0.86,-1.91 0.24,-3.89 1.08,-1.94 3.52,-4.39 7.44,-5.71 3.66,-1.09 8.89,-1.94 14.2,2.04 4.35,3.77 4.77,9.45 3.93,14.16 -0.8,4.62 -3.47,9.07 -7.7,11.56 -4.31,2.54 -9.4,3.21 -13.73,1.75 -5.13,-1.75 -8.17,-6 -9.36,-9.55 -1.27,-3.79 -0.86,-7.08 0.29,-9.15 1.28,-2.17 3.03,-1.96 3.13,-1.34 0.21,0.68 -0.02,1.06 -0.04,2.27 -0.03,1.18 0.27,3.66 1.63,5.84 1.31,2.17 3.52,4.2 6.35,4.87 2.43,0.61 5.48,0.5 7.81,-0.97 2.3,-1.44 2.92,-4.46 3.37,-6.72 0.57,-2.46 -0.39,-5.01 -1.44,-6.07 -0.97,-1.36 -4.28,-3 -6.98,-2.63 -5.68,0.72 -8.42,4.18 -9.16,3.54z"/>
  <path class="fil0" d="M415.8 104.42c-1.65,-0.47 -0.49,-6.3 6.43,-9.56 3.24,-1.53 7.54,-2.45 12.34,-1.61 2.08,0.38 4.4,1.38 6.37,3.34 2.03,1.98 3.11,4.83 3.33,7.38 0.55,5.18 -2.27,9.74 -5.51,12.35 -3.4,2.81 -7.52,4.66 -11.64,4.75 -4.76,0.07 -8.74,-1.74 -11.59,-4.08 -1.5,-1.22 -2.72,-3.04 -2.96,-4.8 -0.25,-1.73 0.18,-3.01 0.58,-3.92 0.88,-1.8 1.81,-2.5 2.42,-2.35 1.54,0.16 -0.55,5.24 3.06,6.48 2,0.99 4.99,1.72 7.91,1.35 2.5,-0.28 5.24,-1.16 7.35,-3 2.15,-1.86 2.23,-4.59 2.05,-5.93 -0.15,-1.65 -0.86,-2.14 -3.24,-2.98 -2.59,-0.78 -5.75,-1.7 -8.35,-1.11 -2.63,0.58 -4.68,1.7 -6.05,2.53 -1.17,0.89 -2.11,1.36 -2.5,1.16z"/>
 </g>
</svg>
