<?xml version="1.0" encoding="UTF-8"?>
<!DOCTYPE svg PUBLIC "-//W3C//DTD SVG 1.1//EN" "http://www.w3.org/Graphics/SVG/1.1/DTD/svg11.dtd">
<!-- Creator: CorelDRAW 2019 (64-Bit) -->
<svg xmlns="http://www.w3.org/2000/svg" xml:space="preserve" width="1.78983in" height="1.79655in" version="1.1" style="shape-rendering:geometricPrecision; text-rendering:geometricPrecision; image-rendering:optimizeQuality; fill-rule:evenodd; clip-rule:evenodd"
viewBox="0 0 1840.04 1846.94"
 xmlns:xlink="http://www.w3.org/1999/xlink"
 xmlns:xodm="http://www.corel.com/coreldraw/odm/2003">
 <defs>
  <style type="text/css">
   <![CDATA[
    .fil0 {fill:#3C3F40;fill-rule:nonzero}
   ]]>
  </style>
 </defs>
 <g id="Layer_x0020_1">
  <metadata id="CorelCorpID_0Corel-Layer"/>
  <path class="fil0" d="M1339.88 1358.77c-4.28,0.51 -5.51,-18.97 -4.53,-46.9 0.07,-6.68 0.04,-13.91 -0.8,-21.01 -0.36,-3.63 -1.13,-6.84 -2.11,-10.13 -1.16,-3.63 -2.6,-7.24 -4.23,-10.82 -5.57,-12.19 -12.99,-25.2 -25.13,-32.96 -11.38,-7.37 -25.99,-9.85 -39.47,-7.78 -14.22,2.04 -26.11,10.42 -34.44,20.59 -9.74,11.71 -14.65,26.47 -13.83,38.55 0.73,17.38 14.75,24.9 21.65,24.96l2.54 0.03 -1.4 1.53c-3.36,3.61 -5.87,1.23 -5.4,0.64l1.08 -2.63 3.78 5.12c-4.27,1.23 -11.61,0.93 -18.68,-3.61 -7.18,-4.27 -13.48,-13.55 -15.21,-24.37 -2.68,-15.51 1.56,-34.01 13.09,-49.59 9.78,-13.45 26.11,-23.77 44.04,-26.62 16.86,-2.97 36.17,-1.91 51.59,8.14 15.73,10.21 26.57,25.26 32.74,40.32 1.77,4.4 3.16,8.82 4.1,13.24 1.02,4.67 1.47,9.52 1.36,13.75 -0.12,8.62 -1.3,16.22 -2.09,23.22 -3.93,28.49 -7.14,46.08 -8.67,46.33z"/>
  <path class="fil0" d="M1287.82 1297.1c-1.66,3.53 -13.28,0 -26.1,6.93 -6.04,3.14 -11.25,8.8 -13.79,16.85 -2.12,6.68 -3.85,14.96 -0.64,22.59 3.04,7.29 9.01,13.56 15.88,17.87 1.83,1.19 3.6,1.99 5.7,2.89l7.31 3.25c4.67,2.19 9.07,4.5 13.19,7.01 9.54,5.86 17.78,12.17 24.59,17.95 7.02,5.9 12.26,11.64 15.15,16.25 2.91,4.68 3.21,8.01 2.1,8.62 -2.24,1.34 -8.6,-6.51 -23.9,-15.22 -7.2,-4.29 -15.84,-9.05 -25.3,-13.92 -4.1,-2.11 -8.26,-4.24 -12.56,-6.44l-6.38 -3c-2.46,-1.08 -5.3,-2.36 -7.75,-3.87 -9.57,-5.58 -19.68,-13.07 -24.3,-24.47 -4.81,-11.73 -4.88,-24.92 -0.61,-35.67 4.9,-12.83 16.92,-20.2 26.28,-22.89 9.78,-3.23 18.45,-2.04 23.8,-0.08 5.44,2.04 7.74,4.6 7.35,5.35z"/>
  <path class="fil0" d="M1208.39 1281.01c1.73,3.89 -15.76,10.17 -27.96,31.61 -5.65,10.08 -9.65,23.67 -7.08,37.25 1.95,11.48 7.62,24.27 18.3,33.01 10.15,8.38 23.24,12.95 35.97,12.56 13.68,-0.33 27.64,-6.38 42.38,-9.37 4.25,-0.74 8.25,-1.87 14.52,-1.32 5.3,0.72 9.39,2.53 13.21,4.36 7.5,3.8 13.44,8.37 18.7,12.73 21.76,18.02 28.89,36.22 25.8,37.2 -1.37,0.54 -3.57,-2.66 -8.81,-7.91 -5.18,-5.23 -13.17,-12.64 -23.9,-19.8 -5.21,-3.44 -11.05,-6.97 -17.25,-9.45 -3.05,-1.2 -6.32,-2.24 -8.98,-2.36 -1.82,-0.2 -5.78,0.67 -9.62,1.66 -13.15,3.2 -27.87,8.94 -45.18,9.9 -16.65,0.93 -34.77,-3.31 -47.92,-14.35 -13.54,-11.22 -23.33,-27.01 -25.58,-43.7 -2.67,-19.65 6.13,-36.1 14.19,-47.32 8.54,-11.9 18.82,-18.72 26.39,-22.01 7.67,-3.25 12.51,-3.42 12.81,-2.68z"/>
  <path class="fil0" d="M1160.47 1342.22c-0.59,1.76 -3.81,2.7 -8.94,0.93 -5.06,-1.68 -11.82,-6.42 -16.75,-14.74 -4.82,-7.98 -7.42,-18.86 -6.95,-30.14 0.37,-9.81 4.41,-19.36 8.58,-28.6 3.99,-8.94 9.5,-17.46 16.41,-24.44 7.11,-7.26 15.13,-13.65 23.77,-17.46 9.98,-4.47 20.03,-5.88 28.39,-6.15 17.48,-0.47 27.55,5.28 26.87,7.68 -0.56,2.93 -10.6,0.77 -25.27,3.94 -7.04,1.56 -15.11,4.07 -22.94,8.37 -6.73,3.66 -13.64,8.17 -19.39,14.32 -5.63,5.94 -8.34,14.01 -11.66,20.97 -3.54,7.34 -5.3,15.28 -6.17,22.54 -1.06,8.27 -2.23,16.55 0.2,23.09 5.06,13.53 14.77,17.88 13.87,19.69z"/>
  <path class="fil0" d="M1207.12 1223.25c-3.73,-0.5 -4.97,-11.35 2.33,-24.92 3.46,-6.42 8.51,-13.43 15.62,-19.9 6.1,-5.64 15.48,-9.16 23.92,-11.34 8.3,-2.34 17.19,-3.43 25.75,-2.39 8.88,1.1 17.55,3.04 24.93,7.43 8.57,5.15 14.32,12.49 17.72,19.39 3.61,7.14 3.89,14.19 2.72,18.47 -1.26,4.39 -3.33,6.13 -4.56,5.78 -2.85,-0.7 -0.6,-8.68 -8.04,-17.93 -3.46,-4.36 -8.64,-8.89 -15.04,-11.95 -5.5,-2.63 -12.15,-4.96 -19.09,-5.6 -6.81,-0.64 -13.38,2.28 -19.49,3.81 -6.71,1.66 -11.71,4.75 -16.83,8.55 -5.82,4.31 -12.51,8.15 -16.63,13.01 -8.45,9.94 -11.34,18.03 -13.29,17.57z"/>
  <path class="fil0" d="M1300.75 1222.55c-2.67,-2.44 0.94,-11.45 13.34,-17.7 5.84,-2.93 13.35,-5 21.56,-5.5 7.15,-0.47 14.48,1.87 21.7,3.8 6.95,1.78 14.17,4.7 20.03,8.44 5.97,3.73 12.32,7.3 17.26,12.51 5.77,5.95 9.24,13.18 11.13,19.05 3.87,12.21 3,20.23 0.54,21.01 -2.77,0.91 -5.27,-6.55 -11.02,-15.72 -2.83,-4.41 -6.31,-8.85 -11.14,-12.87 -4.1,-3.5 -8.98,-7.2 -14.58,-10.42 -5.35,-3.13 -11.35,-3.24 -16.72,-4.86 -5.63,-1.7 -11.39,-2.08 -16.75,-2.33 -6.12,-0.34 -12.39,-1.81 -17.56,-0.67 -10.47,2.3 -16.39,6.82 -17.8,5.27z"/>
  <path class="fil0" d="M1439.31 1242.5c2.01,3.53 -8.58,11.48 -22.8,24.16 -6.87,6.12 -14.38,13.66 -21.48,22.71 -6.17,7.73 -13.51,15.65 -19.06,25.26 -5.38,9.27 -9.99,18.88 -13.98,28.59 -4.19,10.11 -6.59,20.62 -8.95,30.41 -2.76,11.37 -4.81,22.12 -5.8,31.51 -2,19.3 -1.61,32.4 -4.5,32.88 -2.54,0.5 -6.27,-12.41 -7.24,-33.03 -0.45,-9.99 0.14,-21.74 2.27,-34.25 1.84,-10.79 5.29,-21.99 9.59,-33.04 4.06,-10.62 7.35,-22.16 13.24,-31.89 6.1,-10.16 12.61,-20.05 20.09,-28.31 8.64,-9.68 19.31,-15.79 27.67,-21.26 17.27,-11.3 30.1,-15.21 30.94,-13.75z"/>
  <path class="fil0" d="M1169.92 1365.61c1.94,3.2 -10.96,12.07 -10.09,31 0.27,8.42 4.82,18.02 13.38,25.62 7.21,6.55 16.39,12.82 27.94,15.64 10.94,2.73 22.99,3.36 34.97,4.04 12.43,0.67 24.64,-0.06 36.11,-0.36 13.3,-0.38 25.69,-0.87 36.3,-1.86 21.82,-2.08 36.21,-4.18 37.03,-1.41 0.76,2.53 -12.94,7.81 -34.97,12.96 -10.69,2.47 -23.37,4.54 -37.21,5.8 -11.94,1.04 -24.7,0.93 -37.68,0.5 -12.36,-0.49 -25.57,0.96 -38.64,-2.44 -13.35,-3.37 -26.9,-9.5 -36.51,-19.25 -11.44,-11.19 -15.35,-27.26 -13.92,-39.51 1.11,-12.72 7.44,-21.83 12.96,-26.34 5.61,-4.67 10.01,-5.08 10.34,-4.38z"/>
  <path class="fil0" d="M1155.37 1414.91c1.73,1.38 -3.17,6.78 -7.44,17.56 -4,10.67 -6.64,27.96 0.29,46.55 5.78,17.98 22.84,33.95 46.08,40.79 19.83,5.91 43.29,7.07 65.71,-0.37 21.62,-6.92 41.88,-19.42 60.87,-33.08 19.78,-14.22 37.84,-30.73 56.54,-44.55 21.52,-16.1 43.76,-28.98 64.31,-36.15 21.05,-7.71 39.88,-9.28 52.56,-8.2 12.78,1.13 19.42,4.15 19.19,5.35 -0.16,3.08 -28.5,-3.67 -67.3,13.7 -18.7,7.98 -38.67,21.18 -59.17,37.48 -17.75,13.99 -36.34,29.81 -56.71,44.83 -19.48,14.32 -40.14,29.63 -64.55,37.35 -25.09,8.22 -52.76,9.31 -76.59,1.53 -28.02,-8.68 -47.93,-32.14 -53.35,-54.14 -6.69,-22.43 -1.86,-42.51 4.95,-53.85 6.86,-11.64 14.18,-15.23 14.61,-14.82z"/>
  <path class="fil0" d="M1270.26 1166.44c-1.77,0.27 -3.9,-5.98 -2.13,-17.52 1.8,-11.28 8.33,-28.2 24.69,-42.14 15.56,-13.35 40.45,-21.78 66.55,-16.93 22.87,4.13 42.55,20.69 55.84,39.57 13.29,18.1 21.7,39.72 26.34,60.8 4.96,21.97 8.01,43.31 11.21,62.88 3.45,22.73 8.32,42.98 15.93,59.21 15.15,34.08 38.72,45.97 37.11,48.56 -0.5,1.11 -6.95,-0.51 -16.51,-7.05 -9.52,-6.48 -21.35,-18.66 -31,-36.05 -9.55,-16.76 -16.43,-38.54 -20.77,-61.71 -4,-20.03 -6.21,-41.3 -11.14,-62 -4.64,-20.02 -14.12,-38.31 -25.36,-54.02 -11.48,-16.56 -27.9,-28.11 -45.01,-31.88 -19.76,-4.61 -40.83,-1.24 -54.76,8.78 -14.36,10.27 -21.88,23.89 -25.57,33.48 -3.71,9.78 -4.34,15.95 -5.44,16.02z"/>
  <path class="fil0" d="M1271.3 1140.32c-0.17,4.46 -20.84,1.93 -49.17,10.99 -13.58,4.44 -28.64,11.88 -43.08,22.8 -12.36,9.39 -25.52,20.15 -36.04,33.86 -10.08,13.15 -18.43,27.96 -25.02,43.12 -6.86,15.65 -10.07,32.17 -10.38,47.35 -0.17,8.74 0.83,17.39 2.93,24.83 2.24,7.47 5.87,14.35 9.9,20.23 8.37,12.21 18.18,20.13 25.41,24.92 7.33,4.71 12.31,6.51 12.05,8 -0.15,1.23 -5.88,1.61 -14.98,-1.81 -8.94,-3.54 -20.95,-11 -31.7,-23.85 -5.2,-6.22 -10.15,-13.7 -13.7,-22.73 -3.42,-9.17 -5.11,-18.93 -5.44,-29.28 -0.43,-17.85 4.17,-36.28 11.41,-53.52 6.84,-16.45 14.14,-33.56 25.32,-47.87 11.56,-14.78 24.7,-28.07 39.04,-38.11 16.7,-11.65 35.12,-17.15 50.49,-20.62 32.25,-6.93 53.23,0.46 52.97,1.68z"/>
  <path class="fil0" d="M1125.16 1357.03c2.66,3.06 -18.72,19.04 -43.85,51.22 -6.14,7.67 -12.54,16.25 -19.16,25.52 -6.41,9.01 -12.41,18.93 -17.35,29.84 -8.48,18.61 -15.71,39.97 -14.44,62.23 1.03,21.28 8.6,42.42 19.96,60.65 11.85,19.09 28.56,34.27 45.95,45.34 20.27,12.96 41.98,20.5 61.11,24.22 39.73,7.31 66.86,2.06 67.31,5.31 0.67,2.07 -26.33,10.94 -69,6.29 -20.49,-2.44 -44.49,-8.94 -67.37,-22.47 -19.78,-11.68 -37.69,-29.13 -51.06,-50.09 -12.82,-19.95 -23.49,-43.23 -24.59,-68.04 -1.33,-25.6 5.01,-50.37 15.11,-71.02 5.86,-12.01 13.38,-22.49 21.16,-31.57 7.64,-8.84 15.11,-16.96 22.01,-24.44 28.1,-31.2 53.07,-44.47 54.19,-42.98z"/>
  <path class="fil0" d="M1227.49 1537.59c3.3,-2.03 8.48,-0.03 13.58,4.34 2.47,2.12 5.08,4.74 7.87,7.55 2.38,2.44 3.67,6.14 6.24,8.84 2.56,2.48 5.04,4.9 7.71,7.5 2.61,2.61 5.68,4.55 8.08,6.93 2.21,2.36 5.11,5.45 7.48,7.98 4.64,4.72 7.85,8.45 6.84,11.09 -0.94,2.53 -5.74,1.7 -12.69,-0.93 -3.4,-1.25 -7.11,-3.2 -10.85,-5.65 -3.27,-2.11 -6.17,-5.02 -9.26,-7.75 -2.94,-2.66 -7.47,-3.87 -10.11,-6.93 -2.74,-3.17 -5.67,-6.05 -7.8,-9.27 -2.51,-3.7 -2.84,-8.55 -4.29,-11.72 -3,-6.52 -4.41,-10.99 -2.8,-11.98z"/>
  <path class="fil0" d="M1174.59 1520.76c3.9,1.27 1.42,13.11 -1.73,28.91 -1.36,7.57 -2.11,16.23 -0.33,24.63 1.44,7.07 3.53,14.41 9.81,19.69 5.91,4.94 13.89,7.91 21.97,9.42 8.52,1.72 16.82,0.23 25.6,-1.04 9.96,-1.38 19.38,-2.98 27.33,-4.9 16.36,-3.86 26.97,-7.54 28.43,-5.1 1.38,2.3 -8.18,9.16 -24.5,16.15 -7.92,3.43 -17.48,6.68 -28.21,9.08 -9.01,2.07 -20.13,3.14 -31.01,1.25 -10.24,-1.6 -21.89,-3.53 -30.89,-11.21 -9.24,-7.69 -15.55,-19.29 -16.83,-30.03 -1.67,-12.62 2.91,-23.22 5.87,-31.37 6.58,-16.88 12.89,-25.99 14.49,-25.5z"/>
  <path class="fil0" d="M1283.73 1590.39c1.97,0.81 0.47,5.58 1.63,12.72 1.02,6.94 5.3,16.96 14.72,24.35 8.74,6.88 23.12,10.2 39.35,9.85 14.08,-0.3 30.21,-0.14 45.75,-2.63 15,-2.5 29.93,-6.5 43.83,-11.96 14.51,-5.77 27.34,-13.79 37.88,-22.96 12.39,-10.61 22.35,-22.63 28.96,-34.08 14.11,-23.6 14.33,-42.72 17.44,-42.69 2.36,-0.53 5.74,20.36 -6.94,47.92 -5.91,13.26 -15.51,27.57 -28.93,40.26 -11.62,11.12 -26.75,19.5 -42.35,25.96 -15.06,6.23 -30.72,12.52 -46.83,15.02 -16.8,2.44 -32.82,4.1 -48.76,3.78 -18.53,-0.46 -36.54,-7.34 -47.95,-18.36 -11.58,-11.25 -15,-25.1 -13.89,-34.25 1.21,-9.37 5.46,-13.31 6.08,-12.92z"/>
  <path class="fil0" d="M1284.49 1592.4c1.06,-3.91 14.88,-2.01 35.57,-1.85 9.98,0.11 21.67,-0.26 34.21,-1.7 10.79,-1.21 22.58,-1.53 34.24,-4.21 11.18,-2.55 22.3,-6.18 33.15,-10.02 11.28,-3.98 21.78,-9.27 31.63,-14.05 11.45,-5.5 21.82,-11.16 30.26,-16.78 17.39,-11.51 27.07,-21.66 29.47,-19.89 2.1,1.43 -5.4,14.23 -22.13,29.04 -8.08,7.18 -18.32,14.61 -30.14,21.26 -10.18,5.77 -21.67,10.56 -33.48,15 -11.31,4.29 -22.57,10.09 -34.63,12.66 -12.45,2.67 -24.8,4.87 -36.61,5.51 -13.68,0.76 -26.32,-2.07 -36.9,-3.65 -21.92,-3.21 -35.1,-9.68 -34.64,-11.32z"/>
  <path class="fil0" d="M1507.74 1525.18c-3.02,-3.11 15.96,-18.12 40.56,-43.92 11.69,-12.53 24.07,-28.21 32.9,-47.26 7.54,-16.23 14.15,-34.81 13.17,-54.24 -0.9,-18.6 -7.73,-37.35 -14.62,-56.1 -7.2,-19.65 -14.98,-38.7 -21.4,-56.9 -3.57,-10.51 -7.03,-20.71 -10.32,-30.45 -3.3,-9.71 -5.84,-18.92 -9.47,-26.1 -3.9,-7.24 -8.47,-13.62 -13.79,-14.04 -6.04,-0.94 -12.25,0.71 -16.85,2.34 -9.52,3.37 -13.34,8.37 -14.62,7.75 -1.33,-0.4 1.36,-8.05 11.52,-13.85 5.07,-2.77 11.52,-5.87 20.75,-5.63 2.3,0.08 4.83,0.59 7.46,1.7 2.88,1.46 4.51,2.8 6.37,4.41 3.61,3.21 6.74,7.18 9.34,11.47 5.11,8.42 8.37,17.65 12.22,26.94 3.78,9.47 7.75,19.46 11.88,29.81 6.84,18.06 14.08,37.24 21.49,56.8 7.08,18.75 16.7,38.44 17.75,60.65 1,22.9 -4.73,44.96 -13.95,63.21 -10.78,21.35 -26.94,36.44 -40.21,48.56 -27.76,24.79 -49.09,35.91 -50.16,34.84z"/>
  <path class="fil0" d="M1408.76 1125.58c2.84,-2.61 10.38,1.02 19.4,8.63 4.36,3.65 9.2,8.15 14.38,13.01 4.44,4.2 7.99,9.87 12.78,14.51 4.67,4.38 9.34,8.77 14.09,13.21 4.78,4.64 10,8.58 14.39,12.9 5.04,5.04 9.48,10.04 13.39,14.21 8.09,8.57 12.88,14.96 11.24,17.22 -1.61,2.21 -8.37,-1.6 -18.46,-7.97 -4.9,-3.13 -10.42,-7.04 -16.15,-11.57 -4.98,-3.87 -9.78,-8.58 -14.88,-13.15 -4.85,-4.4 -11.29,-7.34 -15.93,-12.08 -4.77,-4.93 -9.72,-9.5 -13.82,-14.32 -4.8,-5.57 -7.41,-12.35 -10.78,-17.05 -6.93,-9.68 -11.05,-16.25 -9.65,-17.53z"/>
  <path class="fil0" d="M1504.17 1213.94c3.82,-0.53 7.65,16.8 9.72,43.75 1,12.96 1.78,28.15 2.4,44.53 0.53,14.14 -0.76,29.21 -0.5,44.58 0.24,14.75 0.7,29.8 0.69,44.56 -0.02,15.35 0.7,30.41 0.41,44.57 -0.33,16.39 -1.24,31.57 -1.91,44.59 -1.37,26.76 -3.54,44.16 -6.3,44.21 -2.77,0.04 -3.84,-17.32 -5.44,-44.02 -0.77,-12.97 -1.38,-28.1 -1.88,-44.47 -0.43,-14.12 -0.27,-29.17 -0.51,-44.51 -0.23,-14.74 -2.72,-29.73 -2.76,-44.48 -0.04,-15.34 -0.54,-30.36 -0.4,-44.51 0.17,-16.36 2.59,-31.54 3,-44.52 0.89,-26.63 1.57,-44.02 3.48,-44.29z"/>
  <path class="fil0" d="M1429.8 1142.6c-1.89,-0.25 -2.1,-6.22 -0.41,-16.6 1.85,-10.3 5.2,-25.45 14.78,-42.48 4.81,-8.08 10.79,-16.51 19.88,-23.82 8.86,-7.17 19.93,-12.56 32.5,-14.96 10.82,-1.94 23.16,-0.9 34.18,4.81 11.07,5.8 19.21,15.96 23.99,26.53 9.12,20.78 10.01,41.24 13.35,60.67 2.91,20.46 6.48,40.44 8.89,59.34 2.8,21.88 4.78,42.24 6.61,59.66 3.72,35.84 4.9,59.32 2.15,59.73 -2.72,0.43 -7.1,-22.54 -13.75,-57.91 -3.24,-17.18 -6.72,-37.27 -10.34,-59 -2.86,-18.83 -5.9,-38.82 -8.99,-59.23 -3.4,-19.48 -7.07,-40.11 -13.89,-55.56 -6.85,-16.59 -22.66,-23.37 -38.85,-20.73 -18.78,2.45 -35,13.26 -44.35,27.2 -9.61,14.08 -14.78,27.93 -18.62,37.41 -3.8,9.56 -6.12,15.09 -7.12,14.95z"/>
  <path class="fil0" d="M1533.14 1059.11c0.79,-1.87 12.73,8.51 32.05,29.57 19.11,21.15 46.12,53.02 71.22,97.34 11.95,21.35 23.29,45.59 32.24,72.51 8.62,26.98 15.43,56.21 18.62,87.18 5.77,53.32 0.03,111.64 -19.38,166.75 -18.1,53.24 -51.32,102.1 -93.14,139.46 -43.59,39.12 -94.72,66.71 -148.75,78.74 -4.48,0.64 -10.47,0.8 -16.09,-2.38 -5.76,-3.18 -9.04,-9.25 -9.87,-14.51 -2.16,-10.77 3.86,-21.15 10.03,-26.56 6.34,-5.88 12.28,-9.47 17.73,-13.82 5.65,-4.11 10.98,-8.5 16.25,-12.82 21.02,-17.34 38.98,-35.95 54.17,-54.26 31.24,-37.79 50.79,-73.83 62.57,-99.55 11.86,-25.79 17.05,-41.15 18.58,-40.69 1.13,0.3 -1.96,16.36 -12.25,43.31 -10.25,26.86 -28.77,64.42 -59.67,104.21 -15.04,19.25 -32.95,38.94 -54.2,57.37 -5.33,4.6 -10.73,9.27 -16.48,13.65 -5.59,4.58 -11.85,8.81 -16.18,13.01 -4.48,4.38 -6.46,8.72 -5.67,13.21 1.14,4.2 2.34,5.08 8.55,4.53 48.35,-11.45 99.42,-37.28 140.4,-74.66 39.86,-35.93 69.75,-83.24 87.06,-133.36 18.7,-52.18 22.67,-107.84 17.92,-158.78 -5.24,-59.24 -21.13,-113 -43.46,-155.12 -22.58,-43.32 -47.52,-75.69 -64.77,-98.25 -17.54,-22.45 -27.97,-35.03 -27.49,-36.05z"/>
  <path class="fil0" d="M1194.62 1614.15c3.81,-1.1 8.94,6.35 17.48,16.04 4.11,4.73 9.12,9.99 15.06,14.92 5.06,4.21 9.91,9.62 16.27,12.7 6.2,3.03 12.1,4.15 18.93,4.36 6.98,0.31 13.74,-1.46 19.96,-3.29 7.27,-2.06 14.04,-4.8 19.36,-8.17 11.02,-6.81 16.95,-14 19.55,-12.55 2.26,1.07 -1.01,10.79 -12.07,21.59 -5.29,5.21 -12.65,10.2 -21.46,13.7 -7.61,3.08 -16.42,4.44 -25.36,4.36 -8.28,0.17 -18.65,0.23 -26.49,-3.96 -8.2,-4.17 -15.42,-9.18 -21.18,-14.89 -6.69,-6.71 -10.07,-15.04 -13.49,-21.31 -7.21,-12.99 -8.28,-23.03 -6.58,-23.49z"/>
  <path class="fil0" d="M1281.93 1674.41c4.07,0.86 2.78,13.24 9.03,28.93 2.94,7.52 7.64,15.88 14.68,22.96 5.86,6.03 12.77,12.67 21.89,16.31 8.68,3.53 18.29,5.16 27.79,5.6 9.94,0.53 19.52,-1.49 28.5,-3.7 10.44,-2.51 20.09,-6.04 28.09,-9.86 16.45,-7.94 26.75,-15.05 28.7,-12.87 1.74,1.86 -6.42,11.6 -22.62,22.92 -7.87,5.43 -17.89,10.88 -29.64,14.66 -10.12,3.31 -21.67,4.81 -33.32,4.48 -11.08,-0.21 -23.13,-0.17 -34,-4.76 -11.15,-4.61 -21.5,-11.38 -28.98,-20.09 -8.73,-10.08 -11.65,-22.29 -13.74,-31.87 -4.33,-20.39 2.21,-33.33 3.64,-32.72z"/>
  <path class="fil0" d="M1181.3 1660.22c1.55,-1.06 5.08,5.41 13.66,15.16 4.31,4.87 9.81,10.65 16.86,16.52 3.47,2.97 7.38,5.91 11.62,8.74l3.27 2.07c1.91,1.21 4,2.45 6.35,3.6 2.32,1.17 4.67,2.34 7.05,3.54 2.27,1.16 5.27,2.42 6.43,3.51 -3,2.11 -6.05,4.26 -9.16,6.41 -1.76,1.14 -2.66,2.26 -4.03,3.4l-0.88 0.89 -0.43 0.66 -0.1 0.19 -0.43 0.79c-1.08,2.18 -1.73,4.78 -1.94,7.51 -1.2,11.12 7.07,21.85 20.19,29.07 12.75,7.48 30.57,10.82 48.21,21.4 14.78,9.01 26.28,21.06 38.86,30 12.27,8.92 27.1,14.35 42.85,15.36 15.06,1.04 30.53,-2.03 44.16,-8.48 13.84,-6.25 24.5,-17.15 35.9,-29.21 5.93,-6.2 12.02,-12.64 19.04,-18.46 6.98,-5.93 14.95,-10.74 22.75,-14.58 15.72,-7.75 31.28,-12.59 44.7,-19.19 31.21,-15.08 54.07,-40.22 67.72,-64.57 14.12,-25.32 19.1,-49.37 20.99,-66.08 1.67,-16.82 0.91,-26.64 2.54,-26.86 1.1,-0.21 4.1,9.44 4.27,27.13 -0.06,17.53 -3.64,43.36 -17.38,71.18 -13.25,26.7 -36.64,55.3 -71.02,73 -14.7,7.61 -30.41,12.45 -44.62,19.39 -14.47,6.57 -25.76,16.79 -37.38,29.51 -10.96,11.83 -23.37,25.59 -39.86,33.74 -16.08,8.3 -34.43,12.42 -52.42,11.17 -18.6,-1.15 -37.12,-7.24 -52.09,-17.58 -14.79,-10.09 -26.19,-21.65 -38.35,-29.36 -13.46,-8.98 -30.9,-13.41 -46.39,-23.22 -7.61,-4.84 -14.64,-10.94 -19.55,-18.56 -5,-7.47 -7.38,-17.01 -6.33,-25.36 0.47,-4.45 1.73,-8.77 3.86,-12.64 1.43,-2.44 1.54,-2.41 2.19,-3.14l1.95 -1.57 -0.5 -1.03 -1.67 -1.06 -1.66 -1.19 -3.25 -2.41c-4.4,-3.36 -8.24,-6.84 -11.65,-10.28 -6.85,-6.84 -11.96,-13.49 -15.7,-19.25 -7.55,-11.54 -9.24,-19.48 -8.64,-19.88z"/>
  <path class="fil0" d="M1632.36 1586.87c-2.38,-4.04 27.37,-14.79 63.8,-44.49 17.52,-14.19 35.87,-33.38 51.96,-56.66 13.79,-20.05 26.79,-42.95 34.57,-68.39 7.39,-24.43 10.26,-50.59 8.71,-75.88 -1.61,-26.34 -9.46,-51.44 -21.49,-72.12 -13.72,-24.03 -34.08,-41.53 -53.94,-51.58 -20.5,-10.58 -39.89,-13.44 -53.31,-13.71 -13.48,-0.24 -21.33,1.25 -21.75,-0.32 -0.37,-1.06 7.02,-4.8 21.33,-6.5 14.19,-1.67 35.54,-0.28 58.6,9.85 22.28,9.52 46.05,27.57 62.3,54.1 14.09,22.67 21.83,50.56 23.84,78.87 2,27.17 0.9,55.62 -7.2,81.97 -8.45,27.24 -20.78,52.72 -36.12,73.98 -17.93,24.63 -39.78,42.68 -58.98,56.5 -19.75,14.25 -37.82,23.32 -50.93,28.27 -13.04,5.16 -20.93,6.77 -21.37,6.1z"/>
  <path class="fil0" d="M1668.64 1203.16c0.03,-1.9 4.93,-3.16 13.78,-2.96 8.71,0.51 22.01,1.5 36.81,10.86 6.9,4.59 13.99,12.13 17.29,22.04 3.53,9.95 2.86,21.26 -0.08,31.17 -5,17.6 -17.82,30.83 -25.5,44.6 -7.82,13.42 -10.54,27.2 -5.99,40.98 4.31,14.38 14.88,26.89 24.56,38.65 11.45,13.35 23,27.41 29.88,40.81 7.44,13.74 10.12,27.19 8.94,36.18 -1.04,9.05 -4.13,13.3 -5.24,12.95 -1.5,-0.38 -0.74,-5.01 -1.6,-12.74 -0.69,-7.72 -4.25,-18.62 -12.12,-30.28 -7.57,-11.61 -18.58,-22.92 -31.46,-36.57 -10.61,-11.91 -21.88,-25.93 -27.81,-44.13 -2.84,-8.65 -4.48,-18.26 -3.48,-27.97 0.96,-9.69 4.4,-18.72 8.75,-26.32 9.29,-15.87 19.05,-28.38 23.22,-41.41 2.55,-7.41 3.78,-14.38 2.64,-20.8 -1.06,-6.52 -4.74,-12.25 -9.59,-16.38 -10.34,-8.29 -22.32,-11.55 -30.17,-14.04 -8.08,-2.33 -12.84,-3.64 -12.81,-4.65z"/>
  <path class="fil0" d="M1260.1 1300.62c-1.13,-3.28 4.23,-10.18 18.39,-13.53 6.57,-1.47 17.02,-0.89 25.47,5.47 3.63,2.68 6.81,6.73 8.47,11.82 1.8,5.03 1.49,11.07 0,15.81 -3.16,9.37 -8.38,14.84 -14.01,20.05 -6.01,5.2 -12.85,10.04 -20.69,11.78 -8.99,2.19 -18.29,-0.08 -24.19,-3.67 -6.37,-3.64 -9.98,-8.82 -11.07,-12.74 -1.14,-3.94 -0.25,-6.28 0.99,-6.65 2.7,-0.94 5.02,5.81 14.62,8.57 4.6,1.27 9.69,1.53 15.29,-0.41 4.77,-1.57 9.95,-4.26 14.44,-8.35 4.28,-3.95 6.72,-10.65 7.61,-13.59 1.04,-2.96 -0.08,-4.99 -2.95,-7.97 -3.08,-3.16 -7.4,-6.73 -12.9,-6.94 -10.71,-0.17 -18.87,2.45 -19.48,0.37z"/>
  <path class="fil0" d="M1295.91 1293.34c0.34,-3.77 11.91,-4.9 24.47,4.54 5.94,4.43 12.18,10.64 16.93,19.42 2.03,3.8 3.4,8.37 3.84,13.25 0.37,4.54 0.14,9.01 -0.04,13.29 -0.38,8.28 -1.59,16.02 -2.55,23.05 -1.04,7.22 -0.53,14.23 -0.34,20.9 0.24,7.71 0.73,15.04 1.85,21.28 2.29,12.81 5.06,21.43 2.56,22.89 -2.23,1.37 -8.11,-5.95 -13.72,-19.29 -2.72,-6.46 -4.95,-14.42 -6.14,-23.24 -1,-7.63 -0.66,-15.92 0.23,-24.15 0.86,-7.81 -0.06,-15.58 0.42,-22.15 0.27,-3.44 0.1,-6.65 -0.34,-9.62 -0.43,-2.64 -1.33,-5.23 -2.41,-7.94 -2.51,-6.14 -5.04,-13.26 -9.09,-17.86 -8.3,-9.61 -16.17,-12.41 -15.65,-14.36z"/>
  <path class="fil0" d="M1020.12 1508.12c-0.07,3.46 -23.66,2.63 -55.44,-13.89 -15.14,-7.92 -31.87,-19.33 -47.58,-34.38 -13.55,-13.02 -24.9,-29.69 -35.22,-47.08 -2.61,-4.11 -4.76,-8.54 -7.1,-12.85 -0.83,-1.31 -3.19,-6.65 -4.9,-10.39l-5.57 -12.19c-1.11,-1.36 0.47,-1.27 1.55,-1.47l3.3 -0.54 6.61 -1.08 12.22 -1.98 14.16 -2c19.66,-2.46 39.6,-4.34 58.43,-1.96 21.5,2.9 40.85,8.94 56.15,17.23 15.81,8.44 26.22,19.19 32.19,27.16 5.97,8.08 8.01,13.42 7,14.19 -2.61,2.38 -14.45,-17.61 -44.21,-30.74 -14.27,-6.24 -32.63,-10.47 -52.55,-12.38 -17.08,-1.5 -35.68,-0.64 -54.71,1.95 -4.58,0.64 -9.17,1.46 -13.75,2.4 -1.56,0.3 -1.5,0.34 -1.67,0.43l-0.44 0.27 -0.36 0.51 0.76 0.7 0.26 0.14 0.2 0.21 0.84 1.44c2.33,3.89 4.31,7.92 6.71,11.71 9.34,16.18 21.03,30.47 32.98,42.88 13.78,14.35 27.38,27.47 40.99,36.21 27.94,17.87 49.56,23.18 49.13,25.5z"/>
  <path class="fil0" d="M1013.96 1384.48c-3.1,1.95 -13.08,-9.47 -20.5,-31.17 -3.54,-10.39 -6.45,-23 -7.95,-36.87 -1.31,-11.99 0.14,-24.83 1.27,-37.74 0.56,-6.22 1.36,-12.47 2.38,-18.72l1.54 -7.68 0.76 -3.82c0.47,-1.07 -0.1,-3.17 1.74,-2.86l7.98 -1.14c2.72,-0.4 5.5,-0.79 6.68,-0.8 13.22,-1.07 26.63,-0.96 38.71,2.41 13.97,3.9 25.69,10.88 34.18,18.21 17.68,15.25 22.43,29.81 20.45,30.94 -2.54,1.89 -10.04,-10.29 -27.26,-21.39 -8.26,-5.38 -18.83,-10.01 -30.84,-12.62 -10.35,-2.25 -21.83,-3.15 -33.54,-2 -1.77,0.15 -2.29,0.24 -2.6,0.37l-1.18 0.43 -0.04 2.91c-0.38,5.6 -0.71,11.55 -1.32,17.19 -1.23,11.87 -0.93,23.6 -0.4,34.58 0.61,12.68 0.17,24.86 2.15,35.03 4.07,20.78 9.62,33.71 7.78,34.74z"/>
  <path class="fil0" d="M1364.02 1091.25c-3.16,2.5 -13.68,-8.64 -30.2,-24.24 -3.98,-3.77 -8.37,-7.75 -13.15,-11.81 -2.44,-2 -4.93,-4.03 -7.47,-6.11l-5.1 -4.01c-2.86,-2.13 -5.74,-4.27 -8.65,-6.44 -3.19,-2.37 -6.34,-4.73 -9.74,-7.27 4.19,-2.8 8.47,-5.67 12.85,-8.61 2.1,-1.44 4.38,-2.76 6.71,-4.04 2.33,-1.32 4.87,-2.76 5.82,-3.1 5.41,-2.5 11.05,-4.65 16.81,-6.58 13.09,-4.46 27.27,-6.77 41.18,-5.98 14.16,0.89 27.96,2.94 40.38,7.72 14.34,5.59 26,14.24 34.34,22.76 17.27,17.82 21.3,33.55 19.32,34.52 -2.73,1.76 -9.74,-11.96 -27.02,-25.66 -8.34,-6.59 -19.05,-12.79 -31.71,-16.95 -10.85,-3.51 -23.19,-6.2 -35.8,-6.77 -12.05,-0.49 -23.83,3.54 -34.9,7.08 -4.94,1.58 -9.69,3.63 -14.17,5.95l-1.36 0.7 -0.16 0.03 -0.08 0.1c-2.44,-1.78 5.87,6.04 9.52,10.64 4.36,5.38 8.5,10.5 11.88,14.66 15.09,18.42 22.07,32.31 20.68,33.4z"/>
  <path class="fil0" d="M1569.73 1101.27c-1.4,-1.06 0.3,-6.11 7.92,-11.18 7.48,-5.04 21.03,-8.47 36.61,-5.9 15.15,2.34 30.54,10.04 45.79,17.04 12.99,5.95 26.62,12.15 41.98,14.58 14.61,2.4 29.81,2.36 44.48,0.63l3.4 -0.44c1.89,-0.26 3.77,-0.7 5.68,-1.12 3.81,-0.88 7.44,-1.55 11.37,-2.61 7.74,-2.13 15.31,-4.21 22.58,-6.22 -7.3,12.38 -14.91,24.84 -22.82,36.18 -11.49,15.56 -22.16,26.54 -32.47,36.47 -20.87,19.89 -37.28,29.08 -38.85,27.06 -1.88,-2.28 12.24,-13.85 30.21,-34.99 8.55,-10.01 18.8,-23.16 27.44,-36.1l2.24 -3.84 -2.2 0.46 -4.37 0.63c-16.03,2.21 -32.95,4.27 -49.31,1.42 -16.84,-2.78 -33.29,-8.08 -47.11,-15.19 -15.73,-8.11 -28.01,-17.68 -40.46,-20.96 -12.64,-3.47 -23.69,-2.46 -30.7,-0.23 -7.1,2.24 -10.6,5.07 -11.41,4.32z"/>
  <path class="fil0" d="M1566.09 1094.06c-1.51,-0.93 1.07,-7.24 10.64,-14.31 9.39,-7.08 26.2,-13.39 46.86,-13.59 19.79,-0.51 41.92,4.34 64.41,7.07 9.69,1.1 19.55,2.08 29.37,1.67 2.46,-0.09 4.9,-0.3 7.33,-0.6 1.72,-0.23 1.36,-0.14 1.53,-0.14l0.46 0.02 0.41 -0.54c-0.04,-0.33 0.08,-0.02 -0.97,-3.4 -5.97,-19.13 -16.48,-37.14 -29.74,-52.07 -13.79,-15.61 -31.36,-26.93 -48.92,-33.97 -20.35,-8.68 -41.29,-9.33 -58.13,-4.65 -17.38,4.63 -27.83,16.15 -32.57,25.57 -4.64,9.55 -5.73,16.04 -7.42,15.83 -1.02,-0.04 -2.29,-6.72 1.07,-18.3 2.14,-5.54 5.06,-12.62 11.18,-18.79 5.87,-6.28 14.15,-11.81 23.95,-15.42 18.73,-7.04 43.85,-7.78 67.24,1.17 20.33,7.3 39.49,20.76 55.04,37.9 14.94,16.32 28.47,35.47 35.14,57.16l1.42 4.87 1.94 7.9 1.69 7.77 0.24 1.84 -1.93 0.54 -3.84 1.07 -7.64 2.06c-2.24,0.62 -6.05,1.27 -6.94,1.43 -2.93,0.46 -5.85,0.81 -8.75,1.04 -11.61,0.91 -22.76,0.07 -33.17,-1.43 -24.09,-3.76 -44.18,-11.44 -62.23,-12.35 -18.31,-1.27 -33.25,2.4 -42.72,6.74 -9.55,4.33 -14.04,8.64 -14.94,7.94z"/>
  <path class="fil0" d="M1103.72 1643.28c3.73,2.03 -6.74,19.29 -13.49,47.84 -3.18,13.71 -5.02,30.21 -3.42,47.59 1.38,14.82 4.14,30.66 13.16,44.06 4.26,6.41 9.5,12.27 15.39,17.32 1.49,1.24 2.97,2.5 4.53,3.64l2.97 2.14 1.47 0.94 0.25 -0.08 -0.01 -1.54 0.27 -2.36 0.61 -3.36c0.46,-2.21 1.03,-4.41 1.72,-6.54 2.73,-8.54 7.14,-16.31 12.89,-22.62 7.1,-7.99 16.66,-13.62 25.37,-16.4 8.7,-2.99 16.55,-4.5 23.28,-6.7 13.58,-4.64 24.7,-10.78 30.33,-16.42 5.99,-5.67 5.31,-11.49 6.81,-11.77 0.57,-0.16 1.67,1.1 2.04,4.06 0.43,2.91 -0.51,7.48 -3.37,11.78 -5.84,8.72 -16.7,16.43 -31.53,23.28 -14.61,6.27 -31.06,9.22 -41.09,22.23 -4.17,4.94 -7.55,10.85 -9.69,17.34 -0.53,1.61 -0.99,3.27 -1.37,4.95l-0.49 2.53 -0.44 3.51c-0.26,7.1 1.2,16.35 2.18,24.29l-2.1 -0.59 -3.04 -1.41c-6.47,-3 -12.66,-5.63 -19.1,-9.28l-4.68 -2.78 -2.97 -1.93c-1.95,-1.24 -3.81,-2.66 -5.69,-4.03 -7.37,-5.65 -14.06,-12.39 -19.16,-20.19 -10.73,-16.19 -16.18,-35.13 -17.06,-52.37 -1.06,-20.16 4.33,-38.08 9.18,-52.6 10.28,-30.13 24.99,-45.41 26.27,-44.55z"/>
  <path class="fil0" d="M1091.09 1665c1.68,3.45 -10.47,12.08 -30.54,21.82 -9.68,4.68 -21.1,9.79 -33.54,15.11 -5.37,2.29 -11.09,4.23 -16.93,6.18l-6.29 2.21 -8.46 3.1c-5.58,2.11 -11.07,4.2 -16.57,6.31l-7.17 2.84c-2.67,1.08 -3.46,1.2 -5.8,2.04 5.93,-11.15 14.12,-23.79 16.38,-32l1.31 -5.42 0.57 -3.21c0.37,-2.14 0.64,-4.36 0.89,-6.55 1.36,-11.85 0.17,-24.36 1.43,-36.67 1.34,-14.16 5.65,-28.14 13.28,-37.69 7.5,-9.87 17.19,-14.79 24.06,-15.73 6.95,-1.07 10.62,0.98 10.52,2.17 -0.04,1.53 -3.41,1.87 -8.35,4.31 -4.88,2.29 -11.56,7.2 -16.42,15.71 -4.81,8.01 -7.1,19.21 -7.58,32.12 -0.51,11.12 -0.16,23.66 -1.34,37.07 -0.23,2.51 -0.45,5.03 -0.7,7.65l-0.45 3.9c-0.19,1.44 -0.06,1.17 -0.08,1.8l1.08 0.25 0.3 -0.27 -0.11 0.11 -0.1 0.04 -0.04 0.02 2.17 -0.86c5.8,-2.23 11.42,-4.38 16.99,-6.5 12.85,-4.64 25.57,-6.82 35.84,-10.22 21.05,-6.94 34.81,-11.37 35.67,-9.64z"/>
  <path class="fil0" d="M1016.79 1513.59c-0.17,4.44 -28.69,-1.2 -71.72,2.98 -20.68,2.06 -44.54,6.83 -68.85,16.32 -21.08,8.08 -43.64,17.99 -66.91,28.71 -22.19,10.42 -46.55,19.73 -71.52,23.83 -25.88,4.25 -51.86,4.78 -75.71,1.2 -27.68,-3.98 -52.06,-13.25 -71.62,-23.05 -40.56,-20.53 -59.01,-44.38 -57.41,-45.66 2.19,-2.66 22.45,18.12 62.24,34.95 19.2,8.07 42.63,15.39 68.69,18.33 22.4,2.7 46.68,3.02 70.86,-1.13 23.33,-4.08 44.99,-14.47 66.79,-24.45 22.75,-10.22 45.01,-22.02 67.71,-30.04 26.4,-9.51 52.59,-11.44 74.33,-12.17 22.45,-0.81 40.9,1.53 53.53,4.07 12.65,2.59 19.61,5.18 19.58,6.08z"/>
  <path class="fil0" d="M825.92 1537.04c-1.33,3.63 -19.98,-2.19 -47.1,-14.6 -13.11,-5.94 -28,-13.52 -44.18,-20.23 -13.92,-5.77 -28.49,-12.41 -44.35,-14.55 -7.56,-1.02 -15.26,-1.3 -22.8,-0.69 -3.77,0.29 -7.51,0.79 -11.15,1.54l-1.87 0.39 -0.43 0.23 0.97 1.13 2.8 3.8 3.33 4.87c4.28,6.48 7.99,12.9 11.41,19.06 8.54,15.68 16.75,29.3 26.99,37.82 10.26,8.78 21.67,12.18 29.61,12.78 8.07,0.68 12.98,-0.71 13.6,0.68 0.59,1.04 -3.71,4.8 -13.19,6.14 -9.34,1.33 -23.47,-0.85 -37.01,-10.18 -13.15,-8.85 -23.87,-23.69 -33.28,-39.22 -3.65,-5.98 -7.42,-12.11 -11.26,-18.39l-2.99 -4.48 -1.57 -2.19 -2.31 -3.08c-4.17,-5.27 -9.67,-10.69 -14.52,-15.86 1.23,-0.9 4.34,-1.76 6.55,-2.67 6.25,-2.38 12.91,-4.91 19.78,-6.54 4.31,-1.14 8.7,-1.98 13.09,-2.61 8.82,-1.23 17.79,-1.37 26.45,-0.1 17.99,2.6 34.77,8.18 49.36,14.95 16.95,7.92 30.43,18.38 42.82,25.54 25.39,14.83 41.94,24.63 41.28,26.46z"/>
  <path class="fil0" d="M542.08 1533.47c1.7,-3.86 27.02,11.13 65.74,33.15 18.73,10.41 40.94,21.86 65.97,30.8 21.49,7.68 45.04,14.94 69.74,16.29 23.77,1.38 47.53,-2.49 70.19,-10.17 23.66,-7.82 45.82,-19.56 67.64,-29.1 25.16,-11.65 51.03,-18.63 72.92,-21.5 22.67,-3.17 41.81,-2.11 54.63,0.6 12.9,2.67 19.44,6.39 19.06,7.55 -0.6,2.81 -28.49,-5.9 -71.61,3.4 -20.89,4.23 -44.06,11.88 -68.35,23.99 -21.22,10.01 -44.06,21.22 -69.01,29.79 -23.73,8.41 -50.18,14.85 -76.05,13.17 -26.79,-1.61 -52.49,-7.63 -75.22,-16.41 -26.39,-10.26 -47.87,-24.97 -66.25,-36.81 -37.54,-24.7 -60,-43.18 -59.4,-44.75z"/>
  <path class="fil0" d="M725 1627.75c2.5,3.4 -22.69,14.96 -39.11,50.35 -8.03,16.62 -13.15,38.01 -15.75,62.01 -0.34,2.93 -0.67,5.88 -1.02,8.85l-0.25 2.24 -0.03 0.01 -0.09 0.07 -0.48 1.25 0.81 -0.23 0.41 -0.2 3.41 -1.97c2.38,-1.37 4.86,-2.56 7.3,-3.78 21.83,-10.31 45.62,-13.52 67.29,-16.79 22.69,-3.33 43.64,-8.98 59.78,-20.13 19.08,-12.62 32.14,-30.97 38.14,-48.45 6.29,-18.13 6.31,-34.68 5.35,-45.93 -1.03,-11.37 -2.66,-17.89 -1.26,-18.42 1.16,-0.49 4.95,5.35 7.95,17.15 2.93,11.68 4.74,29.67 -0.8,50.52 -5.26,20.14 -18.66,42.24 -40.35,57.77 -18.8,13.94 -43.21,19.29 -66.05,22.9 -22.22,3.53 -43.78,8.75 -62.24,17.29 -2.13,1.03 -4.27,2.04 -6.25,3.21 -1.1,0.6 -1.83,1.01 -3.16,1.88 -2.1,1.34 -4.2,2.69 -6.31,4.68l-6.33 5.65 -6.87 7.38c-4.53,4.84 -8.95,9.6 -13.31,14.27 1.04,-12.52 2.07,-24.6 3.06,-36.35 0.54,-5.37 1.07,-10.65 1.59,-15.89 0.4,-3.01 0.8,-6.01 1.17,-8.98 3.51,-25.13 12.17,-47.99 22.35,-65.72 10.21,-18.36 23.23,-30.64 33.4,-37.21 10.22,-6.68 17.22,-8.1 17.63,-7.44z"/>
  <path class="fil0" d="M549.79 1536.12c-1.61,1.33 -5.23,-1.97 -11.95,-5.48 -6.6,-3.5 -16.97,-7.18 -29.37,-6.2 -11.71,0.89 -25.18,7.08 -36.25,18.09 -9.54,9.28 -18.71,21.35 -24.75,35.91l-2.89 7.41 -0.3 1.1 0.83 0.07 3.37 0.59c4.72,0.9 9.34,1.94 13.87,3.1 16.23,4.17 31.55,8.24 45.73,10.91 16.36,3.25 31.74,3.87 44.17,0.57 26.49,-6.74 35.57,-25.36 37.96,-23.92 1.14,0.41 0.54,5.71 -4.6,13.17 -5.01,7.42 -15,16.4 -29.64,21.87 -14.27,5.5 -32.2,6.35 -50.22,3.65 -15.65,-2.19 -31.25,-7.25 -46.89,-11.01 -4.4,-1.06 -8.85,-1.84 -13.28,-2.4 -3.42,-0.39 -6.91,-0.77 -10.38,-1.16l-13.87 -1.1c1.67,-5.8 3.44,-11.83 5.46,-17.99l2.33 -6.71 1.93 -4.8c6.73,-15.76 15.61,-31.3 28.21,-42.64 14.47,-13.24 33.31,-18.4 48.62,-17.92 15.86,0.37 27.84,6.98 34.33,13.05 6.58,6.24 8.24,11.34 7.58,11.82z"/>
  <path class="fil0" d="M462.05 1528.11c0.54,3.94 -15.79,7.77 -40.25,16.06 -11.87,3.87 -25.71,8.82 -41.29,13.64 -13.41,4.11 -28.6,6.42 -44.12,8.34 -14.89,1.84 -30.27,2.37 -45.21,0.94 -15.49,-1.46 -30.67,-3.81 -44.36,-8.17 -15.86,-5.03 -29.64,-12 -40.86,-18.63 -23.22,-13.78 -34.53,-27.37 -32.93,-29.23 1.88,-2.4 14.95,8.31 38.21,18.76 11.26,5.04 24.71,10.2 39.69,14.12 12.91,3.4 26.87,6.41 41.35,7.54 13.96,1.13 28.1,-1.4 41.73,-2.9 14.22,-1.53 27.97,-5.29 41.19,-8.63 15.29,-3.9 30.34,-5.88 42.95,-8.48 25.92,-5.65 43.68,-5.18 43.89,-3.37z"/>
  <path class="fil0" d="M173.85 1518.26c2.3,-3.31 16.12,4.68 37.17,15.98 10.15,5.43 22.12,11.47 35.44,17.01 11.45,4.76 23.4,10.77 36.47,14.46 12.53,3.59 25.59,6.07 38.48,7.97 13.42,2.03 26.75,2.3 39.24,2.66 14.48,0.45 28,0.24 39.58,-0.66 23.83,-1.9 39.49,-4.81 40.34,-2.02 0.8,2.46 -14.15,8.61 -38.54,13.61 -11.82,2.4 -25.87,4.2 -41.15,4.6 -13.19,0.36 -27.21,-0.8 -41.39,-2.67 -13.59,-1.76 -27.89,-2.38 -41.21,-6.38 -13.81,-4.13 -27.19,-8.77 -39.17,-14.49 -13.92,-6.63 -25.03,-15.85 -34.85,-22.75 -20.22,-14.23 -31.4,-25.87 -30.4,-27.31z"/>
  <path class="fil0" d="M224.94 1546.26c-2.36,3.88 -23.86,-13.92 -62.44,-28.87 -18.48,-7.29 -41.04,-13.24 -65.86,-15.53 -19.33,-1.61 -40.12,-2.2 -61.02,1.44l-35.63 6.21 28.93 -20.87c1.89,-1.36 3.83,-2.76 5.77,-4.17 20.2,-14.35 44.32,-23.82 68.81,-26.7 25.35,-3.18 51.14,-0.93 73.3,7.71 25.97,9.9 44.98,26.58 60.51,40 15.93,14.12 28.62,25.79 37.95,33.5 9.27,7.77 14.78,12.07 14.06,13.34 -0.62,1.14 -7.3,-1.27 -17.92,-7.71 -10.67,-6.34 -24.77,-17.16 -41.43,-29.96 -16.23,-12.22 -35.14,-26.56 -58.32,-34.5 -19.87,-7.1 -42.95,-9.95 -65.86,-6.91 -22.22,2.8 -42.92,13.24 -60.6,25.5 -1.84,1.33 -3.67,2.63 -5.33,3.81l-7.58 -16.63c22.57,-4.1 44.99,-4.94 65.82,-2.6 26.89,3.27 50.19,12.73 69.12,21.74 19.59,9.1 34.3,19.31 43.86,27.17 9.65,7.82 14.22,13.34 13.84,14.04z"/>
  <path class="fil0" d="M183.19 1524.94c1.93,3.75 -16.51,11.74 -32.24,35.61 -7.71,11.29 -14.32,25.9 -18.82,43.01 -2.01,7.34 -4.06,15 -5.94,23.01l-1.34 5.83 -0.49 1.54 -0.49 1.7 -0.03 0.5 0.46 -0.5 0.98 -0.79 0.51 -0.3c0.97,-0.4 3.04,-1.38 4.67,-1.94 7.08,-2.69 14.26,-4.17 21.35,-5.03 18.56,-2.03 35.37,-1.03 50.07,-2.81 16.99,-1.51 30.78,-8.81 40.82,-18.55 10.28,-9.85 16.97,-20.22 21.65,-27.41 4.67,-7.24 7.47,-11.48 8.81,-10.98 1.24,0.46 0.5,5.5 -2.63,13.88 -3.18,8.34 -8.75,20.19 -19.25,32.5 -9.75,11.98 -27.1,23.33 -47.06,25.92 -16.86,2.73 -34.21,0.9 -50.23,2.96 -6.21,0.81 -12.25,2.5 -17.63,4.98 -1.47,0.64 -2.47,1.19 -4.43,2.28 -2.81,1.73 -5.61,3.14 -8.77,6.47 -2.77,2.21 -7.12,7.55 -10.98,11.85 -4.53,5.13 -9.02,10.22 -13.46,15.26 0.33,-2.63 0.66,-5.21 0.97,-7.78l1.37 -9.2c1.32,-8.47 2.61,-16.88 3.9,-25.23 1.07,-6.17 2.11,-12.29 3.14,-18.36 1.64,-8.46 3.53,-16.78 6.05,-24.75 5.7,-18.53 16.22,-34.04 26.03,-45.75 20.35,-25 42.77,-29.57 42.99,-27.93z"/>
  <path class="fil0" d="M242.62 1616.08c3.84,0.4 4.67,14.24 2.21,34.93 -0.3,2.44 -0.63,4.93 -0.94,7.48l-0.54 3.94 0.07 0.74 0.72 -0.03 0.04 -0.06 0.03 0.03 0.49 0.07c1.68,-0.36 3.27,-0.45 4.91,-0.66 6.5,-0.61 12.7,-0.33 18.7,-0.4 11.69,-0.02 21.92,-0.3 31.6,-3.24 10.17,-2.93 19.02,-8.8 26.36,-15.06 8.63,-7.24 15.08,-15.98 19.09,-24.42 8.25,-17.51 7.98,-31.44 10.98,-31.66 2.37,-0.53 6.47,14.09 0.04,35.7 -3.15,10.29 -9.39,21.95 -19.43,31.66 -8.57,8.41 -19.93,14.81 -32.28,18.67 -11.81,3.95 -25.05,6.27 -36.07,6.07 -5.81,-0.04 -11.3,0.1 -16.19,0.8l-3.55 0.63c-1.56,0.29 -5.03,1.2 -7.77,2.96l-4.37 2.34 -5.12 3.43 -10.2 6.8 -3.29 2.16c0.94,-4.37 2.54,-11 4,-16.62 1.41,-5.23 2.87,-10.61 4.3,-15.89 0.66,-2.32 1.31,-4.6 1.94,-6.82l1.3 -3.76c0.81,-2.47 1.57,-4.87 2.18,-7.2 5.29,-19.83 8.86,-32.78 10.78,-32.59z"/>
  <path class="fil0" d="M375.67 1544.45c-0.33,1.74 -7.74,1.18 -18.83,-5.65 -11.15,-6.65 -24.56,-20.45 -36.6,-39.01 -11.82,-17.62 -22.86,-39.48 -39.96,-56.63 -5.13,-5.04 -10.61,-9.73 -16.82,-13.52 -1.61,-1.1 -9.84,-5.83 -18.99,-8.09 -9.24,-2.34 -27.89,-3.9 -48.5,-6.6 9.92,-3.43 11.96,-4.21 13.26,-4.78 6.04,-2.03 12.1,-4.04 18.19,-6.08 8.69,-3.08 18.39,-5.94 28.66,-8.55 2.6,-0.64 5.4,-1.14 8.22,-1.63 2.78,-0.49 3.4,-0.66 5.24,-0.89l9.28 -1.17c12.44,-1.27 24.98,-1.3 37.29,-0.04 25.56,2.51 50.39,9.47 71.27,20.91 24.24,13.13 42.83,30.98 56.11,47.78 27.5,35.2 31.74,64.74 29.61,65.04 -3.07,1.3 -10.45,-26.24 -38.5,-57.36 -13.52,-14.89 -31.71,-30.27 -54.27,-41.62 -19.32,-9.84 -41.78,-17.02 -65.41,-19.16 -11.34,-1.06 -22.89,-0.44 -34.18,1.2l-8.44 1.43 -3.78 0.79 -0.01 0.14 0.16 0.24 -0.17 0.02 0.1 0.03 4.19 2.31c7.84,4.54 14.64,10.21 20.44,16.27 19.68,21.01 27.7,44.98 38.01,62.65 10.24,18.41 20.83,31.91 29.7,39.85 8.81,7.97 15.05,11.07 14.74,12.15z"/>
  <path class="fil0" d="M465.14 1499.61c-1.24,1.21 -6.25,-1.71 -7.78,-11.09 -1.4,-9.17 1.93,-22.47 11.35,-34.93 9.26,-12.53 24.76,-21.29 39.04,-29.44 12.19,-6.95 25.01,-14.31 35.95,-24.96 2.5,-1.99 12.73,-13.84 19.89,-22.69l12.64 22.4c2.23,4.06 4.43,8.18 6.48,12.35 7.22,14.53 14.23,29.41 17.52,44.68 4,17.66 3.04,35.05 -0.66,48.82 -3.65,14.35 -10.58,24.83 -16.45,30.7 -5.94,5.93 -10.42,7.68 -11.22,6.74 -2.3,-2.11 12.26,-13.56 16.15,-39.68 1.91,-12.44 1.4,-27.26 -2.87,-42.71 -3.53,-13.39 -9.14,-27.4 -16.29,-41.25 -2.06,-4 -4.38,-7.9 -6.84,-11.77l-1.41 -0.55 -0.19 1 0.03 0.1 0 0.03 -0.83 0.9 -3.42 3.47c-12.09,11.58 -25.62,21.59 -39.2,28.55 -15.39,7.86 -29.6,12.45 -38.04,21.61 -8.74,9.25 -13.07,19.42 -13.94,26.3 -0.93,6.98 1.03,10.79 0.08,11.42z"/>
  <path class="fil0" d="M837.48 1532.53c-0.77,1.69 -7.18,-0.37 -16.72,-7.45 -9.47,-7.07 -21.55,-19.39 -33.64,-35.9 -11.95,-15.7 -23.49,-35.57 -37.62,-54.32 -5.54,-7.22 -11.25,-14.48 -17.65,-21.26l-2.46 -2.47c-1.01,-0.97 -1.1,-1.27 -3.28,-3.04 -3.51,-2.94 -6.52,-5.81 -11.71,-8.88 -2.5,-1.53 -4.3,-2.91 -7.32,-4.57l-8.88 -4.89 -18 -9.84 4.14 -0.45c1.24,-0.16 2.66,-0.31 5.04,-0.43 9.57,-0.53 19.18,-1.06 28.81,-1.58 4.73,-0.24 9.47,-0.47 14.6,-0.42l12 0.59c11.51,0.99 22.93,2.73 34.06,5.43 23.02,5.74 44.99,14.23 63.6,25.86 21.39,13.61 39.05,29.3 50.76,46.12 11.82,16.85 18.59,32.53 21.45,44.01 2.93,11.62 1,18.45 -0.26,18.27 -1.51,-0.08 -1.84,-5.94 -6.18,-16 -4.29,-9.97 -12.07,-24.18 -24.27,-39.07 -11.38,-14.17 -29.09,-28 -49.29,-39.9 -17.58,-10.21 -37.67,-18.86 -59.2,-24.02 -10.35,-2.4 -21.06,-3.5 -31.72,-3.88l-4.01 -0.03 -0.67 0.16 -0.11 0.33 0.29 0.27 -0.12 -0.03 0.04 0.04 0.55 0.49 4.99 4.7c7.45,7.38 13.88,15.23 19.53,23.11 14.66,20.76 23.07,41.78 33.52,57.84 10.41,16.63 20.32,29.33 27.8,37.7 7.53,8.34 12.43,12.53 11.94,13.49z"/>
  <path class="fil0" d="M875.04 1585.57c1.72,1.15 -0.46,5.61 -1.36,13.16 -1.11,7.58 -0.14,18.44 2.02,32.86 1.88,13.99 3.68,30.4 5.4,48.12l0.49 6.05c0.11,1.5 0.04,0.74 0.04,0.94l-0.07 0.06 -0.33 0.93 0.64 0.06 0.3 -0.08 2.45 -1.28 5.74 -2.89c15.51,-7.37 31.4,-11.66 45.43,-17.51 14.56,-5.81 26.3,-15.35 35.72,-25.93 11.11,-12.35 18.14,-25.88 20.92,-39.07 6.07,-27.33 3.11,-46.51 6.02,-47.04 2.39,-0.71 9.03,18.5 5.56,48.96 -0.93,7.35 -2.72,15.42 -6.25,23.67 -3.51,7.95 -8.22,15.93 -14.27,23.35 -10.26,12.85 -25.11,23.59 -41.36,30.36 -15.36,6.61 -30.61,12.92 -43.98,19.1 -1.69,0.81 -3.41,1.59 -5,2.49l-2.83 1.58 -5.07 3.63c-6.72,4.71 -13.79,11.46 -19.72,16.3 -1.06,-14.88 -2.04,-28.58 -3,-42 -0.91,-17.75 0.46,-34.33 0.02,-48.44 -0.71,-14.43 0,-27.51 3.65,-36.05 3.5,-8.63 8.22,-11.84 8.82,-11.34z"/>
  <path class="fil0" d="M515.55 1614.34c3.54,1.54 -1.94,17.85 -13.73,41.18 -2.47,5 -7.48,14.18 -6.05,12.32l0.56 0.17 0.47 -0.07c0.59,0.04 0.16,-0.07 2.77,0.34 13.41,2.07 27.3,5.85 41.71,7.01 13.85,1.13 27.84,1.02 41.36,-0.43 14.09,-1.49 27.34,-5.45 39.09,-10.37 13.65,-5.57 25.24,-13.24 33.71,-21.63 17.61,-17.31 21.85,-34.38 24.81,-33.64 2.42,0.02 1.53,19.48 -15.99,41.38 -8.32,10.45 -20.7,20.75 -35.98,27.97 -13.15,6.34 -28.28,9.91 -43.61,11.79 -14.69,1.85 -29.94,3.98 -44.66,2.6 -15.25,-1.43 -29.97,-3.56 -43.48,-6.31 -6.2,-1.38 -12.42,-2.76 -18.8,-4.15l-4.95 -1.19 -2.38 -0.59 -0.9 -1.21 5.85 -8.82c8.52,-12.95 11.21,-15.89 14.94,-21.59 14.17,-21.54 23.5,-35.55 25.27,-34.77z"/>
  <path class="fil0" d="M347.15 1620.91c3.84,0.36 4.7,14.55 2.25,35.81 -0.31,2.58 -0.63,5.25 -0.98,7.97 -0.27,1.9 -0.14,1.63 -0.1,1.8l0.19 0.31 0.46 0.02c0,0 0.1,-0.08 1.83,0.67 2.6,1.19 5.35,2.12 8.13,3.13 9.62,3.2 20.16,6.93 31.5,7.33 10.81,0.33 21.8,-1.2 32.16,-4.07 10.81,-2.95 20.49,-8.41 29.14,-14.09 10.11,-6.5 18.72,-14.02 25.16,-21.4 13.29,-15.28 18.73,-28.21 21.62,-27.27 2.37,0.57 0.06,15.25 -12.12,34.18 -5.9,9.09 -14.42,18.8 -25.55,27.07 -9.52,7.2 -21.25,12.78 -33.68,16.46 -11.83,3.6 -24.44,7.39 -37.19,6.82 -13.12,-0.63 -25.96,-2.98 -37.25,-7.51 -3.24,-1.37 -6.37,-2.83 -9.25,-4.61l-5.81 -3.55 -6.61 -4.3c-0.1,-4.33 2.51,-10.85 3.08,-13.49 0.87,-2.66 1.66,-5.24 2.3,-7.72 5.27,-20.41 8.83,-33.73 10.75,-33.54z"/>
  <path class="fil0" d="M1566.49 1093.2c-4.95,0.39 -1.85,-27.04 -15.16,-64.82 -6.11,-18.12 -16.18,-38.35 -30.67,-57.8 -12.38,-16.78 -26.77,-34.27 -44.64,-48.75 -8.47,-7.05 -17.66,-13.41 -27.11,-19.16 -4.61,-3.08 -9.59,-5.44 -14.38,-8.17l-2.26 -1.2 -0.8 -0.11 -0.24 1.06 -1.17 7.63c-0.86,5.71 -1.6,11.35 -2.2,16.93 -1.23,11.17 -1.93,22.02 -1.91,32.46 -0.3,24.16 5.04,46.12 13.09,63.74 16.82,36.44 39.55,52.94 37.31,55.43 -0.85,1.97 -26.69,-12.19 -47.75,-50.07 -10.03,-18.14 -17.63,-42.28 -18.18,-68.62 -0.4,-11.31 0.38,-22.89 1.74,-34.51 0.67,-5.8 1.51,-11.62 2.41,-17.45 1.34,-8.26 2.69,-16.59 4.04,-24.94l0.6 -3.74 0.16 -0.94 0.81 0.3 1.7 0.77 6.84 3.08c4.27,1.9 8.57,3.82 12.91,5.76 5.24,2.72 10.77,5.05 15.85,8.11 10.38,5.76 20.49,12.11 29.45,19.71 18.86,15.52 35.68,32.93 48.59,51.52 15.08,21.54 23.14,44.93 28.33,64.74 3.03,10.14 4.06,19.76 5.25,28.17 0.6,8.48 0.64,15.89 0.62,21.93 -1.21,12.11 -2.27,18.89 -3.23,18.97z"/>
  <path class="fil0" d="M1558.69 1021.01c-2.88,1.83 -15.93,-25.77 -15.05,-72.02 0.5,-22.03 4.48,-48.04 13.98,-74.45 8.05,-22.77 20.93,-44.49 31.34,-67.25 10.21,-21.88 18.26,-44.42 22.55,-67.54 4.41,-24.06 3.98,-48.32 1.55,-70.71 -2.61,-26.07 -9.21,-49.76 -17.06,-69.18 -16.33,-40.14 -36.12,-61.76 -33.52,-63.95 1.34,-1.58 24.19,18.22 44.19,59.07 9.58,19.72 18.12,44.29 21.79,71.9 3.33,23.77 2.9,49.62 -1.5,75.34 -4.24,24.69 -11.14,49.9 -21.73,72.13 -10.85,23.22 -21.84,45.18 -30.01,66.25 -9.55,24.16 -16.4,47.69 -18.36,68.64 -3.85,42.98 4.16,70.99 1.84,71.77z"/>
  <path class="fil0" d="M1581.9 829.48c-3.16,2.26 -15.29,-13.15 -30.74,-38.81 -7.37,-12.36 -16.08,-26.94 -23.99,-44.02 -6.8,-14.72 -11.22,-32 -13.58,-49.93 -1.16,-8.63 -1.55,-17.49 -0.87,-26.41 0.41,-4.57 0.89,-8.67 1.98,-13.57 1.73,-7.65 4.27,-14.4 6.91,-21.12 0.81,-2.02 1.61,-4.5 2.34,-5.81 5.61,5.34 11.42,11.29 17.06,15.76l5.25 3.86 4.55 3.06c6.38,3.97 12.58,7.84 18.72,11.66 15.54,9.74 29.94,21.45 38.25,34.78 8.13,12.38 14.39,24.41 14.61,33.9 0.36,9.61 -4.15,13.56 -5.04,12.88 -1.46,-0.66 0.24,-4.71 -1.7,-11.7 -1.71,-7.12 -8.05,-16.7 -17.35,-28.17 -8.05,-10.44 -21.08,-19.48 -36.67,-28.31 -6.24,-3.61 -12.81,-7.43 -19.41,-11.82l-4.97 -3.4 -4.19 -3.11 -1.97 -1.77 -0.36 0.37 -0.43 2.74c-0.49,3 -0.76,7.34 -0.83,10.96 -0.06,7.6 0.71,15.16 1.61,22.7 1.84,15.72 7.25,30.73 12.98,44.75 6.65,16.22 12.41,32.14 18.53,45.21 12.66,26.7 20.83,44.19 19.26,45.32z"/>
  <path class="fil0" d="M1573.57 548.55c2.59,-2.64 20.91,15.64 43.93,48.66 10.94,15.98 22.89,35.5 33.18,58.11 8.88,19.57 14.72,41.95 18.78,64.98 3.93,22.14 4.95,45.57 1.14,68.09 -2.01,12.42 -6.93,23.7 -11.58,33.8 -4.78,10.24 -9.85,19.7 -14.79,28.89 -11.45,21.08 -21.76,40.48 -27.9,58.13 -13.53,36.34 -8,62.35 -11.34,62.89 -1.1,0.3 -3.76,-5.97 -5.01,-17.71 -1.53,-11.75 -0.16,-28.93 5.11,-48.54 5.05,-19.12 14.45,-40.05 25.26,-61.74 8.88,-18.68 21.28,-37.97 24.77,-57.93 3.28,-20.69 0.34,-42.06 -3.06,-62.52 -3.54,-21.43 -10.55,-41.86 -18.28,-60.53 -8.98,-21.65 -17.69,-42.02 -27.23,-58.47 -19.78,-33.51 -34.54,-54.6 -33,-56.1z"/>
  <path class="fil0" d="M1663.9 730.37c-1.7,-0.17 -1.64,-7.71 5.5,-18.45 6.9,-10.79 20.99,-23.35 40.39,-33.63 18.33,-10.14 42.77,-18.33 68.88,-21.79 7.14,-0.99 9.88,-1.34 25.35,-2.6 6.18,-0.46 12.45,-0.91 18.75,-1.37 5.9,-0.37 13.21,-1 17.28,-1.04 -9.03,8.57 -21.69,19.01 -27.6,26.56 -1.63,1.84 -3.27,4.47 -4.04,5.64l-1.84 3.04c-1.23,2.03 -2.27,4.21 -3.3,6.41 -9.08,19.58 -11.49,42.55 -15.56,65.65 -4,23.76 -10.74,49.62 -26.77,68.02 -8.88,10.67 -19.49,19.02 -30.49,24.99 -11.15,6.1 -22.24,9.18 -32.14,11.99 -20.62,5.76 -38.68,7.34 -51.06,5.76 -12.52,-1.5 -18.42,-6.01 -17.86,-7.07 0.58,-1.44 6.64,0.66 18.08,0.24 11.37,-0.33 27.97,-3.23 47.25,-10.09 9.43,-3.42 19.52,-7.02 28.6,-12.72 9.26,-5.7 18.09,-13.32 25.41,-22.7 13.08,-15.95 19.73,-37.41 23.53,-60.81 3.81,-22.29 4.06,-47.29 14.76,-70.34 1.24,-2.67 2.56,-5.33 4.04,-7.9l2.25 -3.82 0.37 -0.57 0.08 -0.08c-1.24,0.17 4.94,-0.67 -12.24,1.23 -24.85,2.54 -47.19,6.67 -65.5,15.04 -18.59,8.2 -32.31,18.02 -40.25,26.3 -8.15,8.2 -10.72,14.44 -11.88,14.12z"/>
  <path class="fil0" d="M1580 552.31c-0.63,1.63 -6.14,1.28 -13.35,-4.91 -7.05,-6.02 -14.94,-18.76 -15.09,-36.07 -0.21,-16.7 7.95,-35.37 22.07,-49.65 12.3,-12.62 29.1,-20.1 45.41,-26.44l4.1 -1.57 6.71 -2.37 13.49 -4.53c0.64,5.28 1.17,10.82 1.95,16.15l0.59 3.98 0.43 2.34 0.77 4.03 3.64 16.17c3.9,16.26 9.05,32.74 10.26,49.3 0.74,9.54 0.37,18.98 -1.33,27.75 -1.5,9.05 -5.68,17.35 -9.84,23.52 -17.78,26.37 -39.17,32.42 -39.68,29.5 -0.57,-1.41 3.33,-3.57 9.14,-9.09 5.81,-5.37 13.92,-14.12 20.39,-26.29 3.13,-6.07 5.59,-12.11 6.24,-19.49 0.87,-7.51 0.67,-15.66 -0.36,-24.17 -1.72,-14.71 -5.71,-30.46 -9.95,-47.04 -1.49,-5.48 -2.98,-11.05 -4.55,-16.82l-1.1 -4.31 -0.47 -1.87 -0.17 -0.19 -0.54 -0.14 -0.32 0.44 -0.01 0.08 -2.74 1.04c-15.17,5.65 -28.64,13.55 -38.78,23.06 -11.77,10.84 -20.89,23.86 -22.14,36.85 -1.29,13.22 3.18,24.19 7.47,30.56 4.4,6.48 8.26,9.2 7.77,10.18z"/>
  <path class="fil0" d="M1573.27 467.08c-3.73,0.5 -6.97,-17.59 -1.57,-44.25 2.43,-12.77 6.41,-27.26 10.37,-42.56 3.38,-13.21 8.35,-26.7 10.07,-41.05 1.67,-13.79 1.7,-27.98 0.81,-41.85 -0.88,-14.47 -3.98,-28.39 -7.12,-41.34 -3.63,-15.05 -8.08,-28.8 -12.91,-40.27 -9.95,-23.57 -19.53,-37.81 -17.16,-39.69 1.88,-1.61 14.33,10.87 27.6,34.37 6.42,11.4 12.68,25.45 17.39,41.31 4.1,13.71 6.55,28.79 7.78,44.23 1.21,14.79 3.21,30.19 1.21,45.22 -2.07,15.59 -5.57,30.49 -9.69,43.86 -4.83,15.52 -11.77,28.74 -15.48,40.74 -7.88,24.49 -9.24,41.13 -11.3,41.28z"/>
  <path class="fil0" d="M1558.51 180.52c2.44,-2.76 16.17,6.71 31.11,27.19 7.14,9.82 14.58,22.01 21.19,35.94 5.72,12.04 9.24,25.84 13.18,39.62 3.84,13.26 6.95,27.07 8.51,40.81 1.66,14.26 2.93,28.36 2.32,41.59 -0.72,15.32 -3.27,29.33 -5.93,41.09 -5.57,24.28 -13.22,38.62 -15.66,37.82 -2.81,-0.85 1.6,-15.91 4.06,-39.59 1.17,-11.49 2.12,-24.92 2,-39.41 -0.1,-12.51 -0.47,-25.83 -2.26,-39.31 -1.7,-12.99 -6.61,-25.53 -10.01,-37.98 -3.51,-13.02 -8.37,-25.34 -13.08,-36.85 -5.46,-13.29 -9.68,-26.27 -15.34,-36.44 -11.56,-20.78 -21.54,-32.97 -20.09,-34.48z"/>
  <path class="fil0" d="M1590.74 227.96c-1.56,2.93 -25.92,-14.66 -45.49,-55.47 -9.34,-19.45 -16.92,-43.95 -19.91,-71.25 -2.12,-20.39 -0.33,-42.19 4.02,-63.88l14.72 6.72c-1.8,2.43 -3.64,4.95 -5.5,7.47 -12.39,18.59 -19.91,40.75 -22.55,63.01 -2.67,23.29 1.24,46.41 8.68,66.41 8.6,23.07 24.09,41.81 37.04,58 13.62,16.52 24.73,30.76 31.04,41.62 6.41,10.82 8.42,17.72 7.29,18.32 -1.31,0.7 -5.15,-4.94 -12.81,-14.3 -7.58,-9.44 -19.46,-22.19 -34.3,-37.84 -13.98,-15.31 -31.76,-33.8 -42.62,-59.89 -9.09,-22.19 -12.58,-48.05 -9.91,-73.72 2.59,-24.52 8.95,-50.06 23.22,-71.23 2.24,-3.04 4.45,-6.07 6.48,-8.82l24.29 -33.11 -7.67 40.69c-3.78,20.01 -4.29,39.81 -2.93,58.41 1.93,25.06 5.78,48.68 13.32,67.68 15.39,39.08 35.33,59.36 33.57,61.17z"/>
  <path class="fil0" d="M1569.96 188.99c-1.8,-0.33 -2.32,-5.6 0.77,-14.34 3.04,-8.67 10.33,-20.55 22.89,-31.06 11.9,-10.25 28.53,-19.04 47.04,-24.69 7.98,-2.53 16.4,-4.12 24.92,-5.44 13.65,-1.97 27.47,-3.95 41.28,-5.95l8.89 -1.31 2.38 -0.2 4.6 -0.5 -13.38 12.18c-3.76,3.54 -8.7,7.67 -10.68,10.34 -3.04,3.06 -4.4,5.82 -5.97,8.64 -1.07,2.1 -1.42,3.07 -2,4.6 -2.07,5.48 -3.37,11.47 -4.29,17.59 -2.3,15.85 -0.34,33.29 -3.34,50.24 -2.91,20.1 -14.94,37.05 -26.97,46.49 -12.44,10.21 -24.46,15.25 -32.89,17.95 -8.47,2.66 -13.56,2.98 -14.02,1.74 -0.5,-1.36 3.8,-3.74 11.12,-7.92 7.27,-4.19 17.79,-10.35 27.76,-20.32 9.77,-9.68 17.75,-23.02 19.63,-40.09 2.04,-14.74 0.97,-31.58 3.17,-49.96 0.96,-7.02 2.06,-14.22 4.31,-21.44 0.46,-1.72 1.33,-3.77 1.66,-4.89l-0.15 -0.43 -0.5 -0.08 -0.26 0.14 0.02 -0.07 -6.67 1.23c-8.04,1.56 -15.79,3.27 -23.13,5.25 -17,4.4 -32.67,9.14 -44.23,17.19 -24.01,16.39 -29.93,35.88 -31.97,35.11z"/>
  <path class="fil0" d="M1659.01 250.22c-1.11,-3.68 11.32,-9.82 31.37,-15.56 2.36,-0.66 4.77,-1.33 7.25,-2.02l3.84 -1.01c2.4,-0.56 4.84,-1.13 7.3,-1.7 10.61,-2.36 21.66,-4.81 33.15,-7.35l-1.88 2.84c-2.36,3.48 -4.69,6.93 -7.05,10.44l-3.57 5.2c-1.08,1.67 -1.68,2.98 -2.57,4.5 -1.81,2.84 -2.98,6.08 -3.34,8l-0.88 3.51c-1.06,4.88 -1.54,10.42 -1.57,16.25 0.03,10.97 0.27,24.29 -3.94,36.38 -4.13,12.42 -10.51,23.97 -19.18,32.47 -10.02,9.94 -22.06,15.51 -32.36,18.36 -21.73,5.81 -35.72,0.1 -35.15,-2.23 0.17,-3.04 13.48,-1.16 31.08,-8.78 8.39,-3.7 17.52,-9.45 25.06,-17.93 6.54,-7.22 12.36,-16.22 15.58,-26.41 3.21,-9.94 1.01,-20.22 1.19,-31.83 0.14,-5.99 0.2,-12.24 1.11,-18.69 0.28,-1.64 0.47,-3.24 0.87,-4.88l0.2 -0.67 0.27 -0.24 0.1 -0.08 -0.04 -1.9 -1.17 -0.34c-1.34,0.1 -2.68,0.19 -3.95,0.27 -2.61,0.19 -5.1,0.43 -7.48,0.76 -20.35,2.8 -33.65,4.53 -34.23,2.67z"/>
  <path class="fil0" d="M1589.35 379.33c-1.71,1.24 -5.74,-4.53 -14.32,-12.69 -8.5,-8.28 -22.22,-18.26 -40.85,-28.43 -17.63,-10.09 -40.78,-20.03 -61.82,-39.65 -6.18,-5.9 -11.87,-12.92 -16.29,-20.93 -3.06,-5.67 -1.97,-4.07 -2.21,-4.76l-0.17 -1.54 -0.18 -1.85 -0.46 1.03 -0.5 2.21 -0.64 4.08 -1.02 8.51c-1.08,11.39 -1.11,22.88 -0.2,34.17 1.88,23.57 9.11,45.96 18.69,65.35 11,22.63 25.84,41.38 40.64,55.22 30.81,28.58 58.21,37.64 56.94,40.71 -0.33,2.14 -29.71,-3.8 -64.56,-31.78 -16.66,-13.53 -33.91,-32.61 -46.75,-56.87 -11.15,-20.89 -18.19,-45.51 -20.49,-70.95 -1.17,-12.24 -1.7,-24.69 -1.04,-37.17l0.73 -9.37c0.14,-1.74 0.31,-2.68 0.66,-5.06 0.47,-2.91 0.87,-5.94 1.51,-8.67 2.54,-10.92 5.57,-21.52 8.87,-30.57 4.03,-11.75 8.02,-23.43 11.69,-34.11 2.86,23.05 4.34,42.95 6.68,52.52 2.24,9.55 6.91,17.88 7.87,19.48 3.58,6.21 8.05,11.75 13.01,16.82 16.93,17.13 37.84,30.07 55.44,41.62 18.31,11.62 32.27,23.96 39.84,34.44 7.65,10.47 9.62,17.79 8.95,18.25z"/>
  <path class="fil0" d="M1541.26 471.25c-0.76,1.91 -5.44,0.83 -12.34,1.95 -6.82,1.1 -16.44,5.03 -24.7,13.58 -8.03,8.25 -14.29,21.42 -22.26,36.84 -7.15,13.52 -18.15,26.04 -29.77,37.71l-4.33 4.24 14.46 7.83c13.62,7.27 27.53,12.61 40.68,16.27 15.16,4.44 29.87,5.61 42.39,3.93 26.09,-3.27 39.24,-17.08 41.38,-14.88 0.94,0.8 -1.25,5.17 -7.61,10.85 -6.28,5.61 -17.08,12.1 -31.43,15.52 -13.81,3.47 -31,3.84 -48.33,-0.31 -15.01,-3.4 -29.77,-10.07 -44.06,-17.39 -4.28,-2.08 -8.65,-4.2 -13.19,-6.41 -8,-4.1 -16.21,-8.31 -24.22,-12.42 4.23,-3.74 8.37,-7.41 12.45,-11.01 2.1,-1.89 4.25,-3.77 6.2,-5.71l2.88 -2.84c10.68,-10.43 19.11,-22.39 26.15,-34.29 8.21,-14 18.13,-28.01 29.47,-37.45 11.68,-9.85 24.79,-12.78 33.63,-11.71 8.98,1.11 12.92,5.03 12.55,5.7z"/>
  <path class="fil0" d="M1581.77 829.29c-1.46,1.51 -6.3,-2.7 -15.48,-8.32 -9.22,-5.7 -23.33,-12.01 -41.62,-19.36 -8.77,-3.68 -18.48,-7.58 -28.64,-13.18 -10,-5.64 -19.74,-11.72 -29.97,-18.95 -7.95,-5.71 -15.72,-12.41 -22.93,-20.08l-2.66 -2.95 -1.98 -2.3 -0.71 -1.17 -0.97 -1.95 -0.37 -0.64 -0.04 2.11 0.24 4.13c0.91,10.43 2.16,20.87 4.48,31.02 4.54,21.16 12.81,40.98 22.33,58.47 10.83,20.25 24.02,38.08 37.05,50.43 13.99,12.68 27.68,20.93 37.6,25.52 9.98,4.6 16.48,5.34 16.53,6.82 0.16,1.26 -7.1,2.81 -18.69,-0.36 -11.51,-3.17 -26.79,-10.44 -42.92,-22.93 -15.66,-12.76 -30.44,-30.23 -43.01,-51.71 -10.91,-18.44 -18.98,-40.03 -24.1,-62.61 -2.6,-10.85 -4.54,-21.96 -6.07,-33.21 -0.16,-1.7 -0.81,-8.14 -0.9,-13.14 -0.23,-5.27 0.1,-9.95 0.16,-15.03 0.21,-9.86 0.83,-20.45 1.44,-30.4 0.21,-3.1 0.41,-6.18 0.6,-9 3.55,6.67 7.1,13.3 10.62,19.91l5.18 9.69c1.76,3.33 3.16,5.23 4.76,7.9 3.15,5.53 6.07,8.78 9.01,12.39 1.78,2.23 2.18,2.5 3.06,3.47l2.36 2.5c6.5,6.54 13.53,12.42 20.67,17.92 9.12,6.95 18.4,13.91 26.98,19.98 8.51,5.94 17.54,10.85 25.99,15.18 17.49,8.58 32.01,17.09 40.72,25.06 8.74,7.98 11.85,14.25 11.28,14.81z"/>
  <path class="fil0" d="M1624.18 876.84c-1.42,-1.02 -0.16,-5.73 6.67,-9.24 6.65,-3.64 17.31,-4.68 28.79,-4.02 5.77,0.3 10.95,0.67 17.23,0.77 6.33,0.26 12.92,0.51 19.74,0.79 5.93,0.29 12,1.04 18.2,1.84l9.4 1.19c3.37,0.4 5.23,0.62 12.45,1.16 8.92,0.68 17.92,1.37 26.94,2.06 -4.63,5.65 -10.71,12.18 -14.99,18.26 -5.51,7.5 -5.48,8.48 -7.48,12.11 -5.42,10.68 -8.6,22.76 -13.25,34 -5.23,13.26 -12.69,24.63 -19.12,33.61 -6.73,9.84 -15.59,16.05 -21.86,18.32 -6.33,2.44 -10.2,2.54 -10.77,1.37 -1.57,-3.1 13.19,-7.27 22.62,-25.83 4.97,-9.42 10.42,-20.13 14.52,-32.77 3.81,-10.9 7.84,-23.09 13.74,-35.41 1.4,-3.12 4.51,-8.94 3.8,-8.22l-0.59 -0.77 -1.13 0.49c-11.61,-0.97 -22.86,-1.91 -33.65,-2.81 -13.42,-1.5 -26.39,-4.81 -37.08,-7 -10.79,-2.04 -19.44,-2.74 -25.06,-1.84 -5.69,0.71 -8.29,2.74 -9.11,1.97z"/>
  <path class="fil0" d="M1658.14 522.82c-2.34,-3.07 10.34,-14.68 31.97,-29.37 5.82,-3.9 8.38,-5.81 22.69,-14.56 3.04,-1.85 6.11,-3.74 9.21,-5.65l1.19 -0.71 0.43 0.97 0.54 2.61 1.08 5.34c1.3,6.42 2.61,12.99 3.95,19.66 2.76,13.55 3.68,28.46 4.95,43.68 1.23,14.61 1.63,29.85 -0.46,44.72 -2.11,15.38 -5.58,30.67 -12.19,43.79 -7.56,15.26 -18.48,27.2 -29.02,35.24 -22.29,16.99 -41.52,16.09 -41.47,13.71 -0.81,-3 16.04,-5.44 33.7,-22.5 8.47,-8.15 16.74,-19.25 22.63,-32.85 5.18,-11.68 9.09,-25.03 10.81,-39.14 1.68,-13.64 -0.68,-27.62 -1.64,-41.31 -1,-14.34 -3.54,-28.4 -5.58,-41.79 -0.4,-2.55 -0.34,-2.6 -0.32,-3.1l0.24 -0.96 0.23 -1.28 -0.63 -0.3c0.54,-1.23 -8.24,3 -13.38,5.65 -22.8,11.98 -37.78,19.72 -38.95,18.16z"/>
  <path class="fil0" d="M1663.83 354.76c-1.1,-3.68 11.71,-9.82 32.34,-15.56 2.53,-0.67 5.1,-1.37 7.75,-2.08 2.14,-0.5 4.31,-1.02 6.51,-1.51 2.61,-0.49 5.52,-1.43 8.08,-1.51 1.42,2.44 2.85,4.9 4.31,7.39 1.57,2.61 2.94,5.29 3.5,6.35 1.61,2.99 2.96,6.17 4.34,9.43 4.51,11.38 5.69,24.44 6.17,37.41 0.44,12.52 -0.83,25.45 -4.7,37.48 -3.91,12.48 -9.44,24.36 -16.91,33.8 -8.56,11.02 -18.82,19.02 -28.01,24.64 -19.23,11.66 -34.08,12.31 -34.63,9.94 -0.96,-2.88 12.14,-6.65 27.68,-19.4 7.48,-6.15 15.49,-14.21 22.31,-24.19 5.94,-8.52 11.34,-18.31 14.55,-29.13 3.14,-10.5 2.17,-21.79 2.01,-32.36 -0.2,-11.13 -2.68,-21.86 -5.87,-31.57 -0.9,-2.68 -1.83,-5.42 -2.78,-8.28l-0.62 -1.85 0.04 -0.51 -0.02 -1.23 -0.8 -0.53c-0.56,-0.08 -0.29,-0.33 -2.13,-0.13 -2.8,0.19 -5.47,0.43 -8.02,0.77 -20.89,2.78 -34.57,4.5 -35.13,2.64z"/>
  <path class="fil0" d="M172.97 1589.44c-2.78,-2.57 -2.38,-8.18 1.77,-13.94 2,-2.74 4.67,-5.63 7.9,-8.35 2.77,-2.4 6.82,-3.24 10.15,-5.25 3.2,-1.94 6.47,-3.99 9.95,-5.43 3.61,-1.47 6.91,-3.48 10.45,-4.31 4.1,-1.03 8.11,-1.13 11.44,-1.23 6.94,-0.2 11.55,1.43 12.08,4.1 0.57,2.76 -3.24,4.28 -8.72,7.15 -3.16,1.53 -6.05,2.94 -9.11,4.43 -2.88,1.34 -6.12,2.38 -9.24,3.9 -3.02,1.49 -4.87,5.07 -7.75,6.58 -3,1.6 -5.65,3.63 -8.38,5.18 -3.2,1.73 -7.47,1.8 -10.15,3.25 -5.47,2.97 -8.94,5.25 -10.38,3.91z"/>
  <path class="fil0" d="M418.36 1533.45c-3.57,1.53 -8.63,-1.84 -13.55,-7.69 -2.73,-3.43 -5.18,-6.52 -7.73,-9.73 -2.34,-3.08 -3.61,-7.28 -6.28,-10.64 -2.58,-3.19 -5.51,-6.14 -8.2,-9.22 -2.85,-3.2 -6.2,-5.72 -8.9,-8.6 -2.57,-2.93 -5.75,-6.58 -8.38,-9.59 -5.23,-5.73 -8.61,-10.18 -7.27,-12.65 1.3,-2.38 6.39,-0.7 13.91,2.97 3.61,1.8 7.68,4.27 11.72,7.39 3.54,2.63 6.71,6.14 10.07,9.51 3.2,3.25 8.01,5.28 10.83,9.04 2.85,3.91 5.93,7.57 8.02,11.52 2.54,4.54 2.57,10.01 3.87,13.79 2.64,7.85 3.6,13.13 1.89,13.89z"/>
  <path class="fil0" d="M309.73 1581c3.67,0.98 6.08,5.6 5.47,11.81 -0.32,2.95 -1.1,6.33 -2.42,9.77 -1.08,3.02 -4.01,5.27 -5.69,8.21 -1.66,2.83 -3.27,5.77 -5.33,8.32 -2.17,2.63 -3.8,5.61 -6.2,7.71 -2.71,2.46 -5.84,4.16 -8.41,5.59 -5.33,2.95 -9.74,3.47 -11.52,1.41 -1.83,-2.1 0.29,-4.97 3.08,-9.57 1.34,-2.24 3.06,-4.65 4.86,-7.29 1.81,-2.3 3.51,-4.46 5.35,-6.78 1.64,-2.38 1.3,-6.04 2.87,-8.35 1.63,-2.44 2.77,-5.08 4.25,-7.35 1.76,-2.6 5.3,-4.25 6.84,-6.44 3.08,-4.42 4.94,-7.54 6.84,-7.02z"/>
  <path class="fil0" d="M427.54 1582.31c3.6,1.17 5.48,6.73 3.84,14.05 -0.81,3.5 -2.21,7.44 -4.21,11.45 -1.7,3.51 -5.24,6.08 -7.64,9.45 -2.33,3.23 -4.7,6.56 -7.52,9.41 -2.93,2.93 -5.38,6.24 -8.51,8.5 -3.58,2.67 -7.45,4.41 -10.67,5.88 -6.69,3 -11.83,3.29 -13.28,1.01 -1.54,-2.37 1.67,-5.3 5.98,-10.21 2.49,-2.72 4.8,-5.24 7.24,-7.92 2.32,-2.46 5.03,-4.8 7.47,-7.55 2.33,-2.67 2.78,-6.86 4.95,-9.52 2.24,-2.83 4,-5.9 5.98,-8.57 2.36,-3.04 6.31,-5.01 8.27,-7.6 3.93,-5.25 6.22,-9.01 8.09,-8.38z"/>
  <path class="fil0" d="M583.18 1556.39c-0.98,3.77 -6.78,5.65 -14.44,6.03 -4.41,0.11 -8.37,0.2 -12.48,0.3 -3.9,0.02 -8.04,-1.47 -12.34,-1.31 -4.12,0.2 -8.26,0.81 -12.36,1.18 -4.27,0.42 -8.3,1.66 -12.21,2.2 -3.9,0.4 -8.74,0.88 -12.75,1.28 -7.73,1.02 -13.34,1.27 -14.62,-1.24 -1.23,-2.4 3.13,-5.68 10.54,-9.75 3.6,-1.94 8.02,-3.84 12.96,-5.33 4.27,-1.37 9.01,-1.9 13.78,-2.64 4.57,-0.67 9.12,-3.38 13.88,-3.4 4.9,0.01 9.73,-0.26 14.22,0.43 5.23,0.68 9.67,3.98 13.51,5.25 7.94,2.67 12.75,5.18 12.31,6.99z"/>
  <path class="fil0" d="M517.68 1520.51c-3.68,-0.8 -6.28,-5.65 -5.28,-12.42 0.49,-3.21 1.57,-6.87 3.36,-10.52 1.47,-3.23 4.84,-5.44 7.08,-8.39 2.18,-2.83 4.45,-5.73 7.18,-8.1 2.84,-2.41 5.28,-5.23 8.37,-6.9 3.5,-1.98 7.24,-2.95 10.31,-3.72 6.43,-1.54 11,-0.56 11.95,1.95 1.03,2.64 -2.08,4.61 -6.17,8.27 -2.37,2.07 -4.5,3.94 -6.71,5.88 -2.1,1.81 -4.55,3.51 -6.76,5.63 -2.08,2.08 -2.34,5.78 -4.2,7.87 -1.93,2.23 -3.37,4.76 -5.01,6.93 -1.97,2.42 -5.6,3.95 -7.21,6.17 -3.26,4.48 -5,7.82 -6.91,7.37z"/>
  <path class="fil0" d="M631.08 1588.18c3.1,2.23 2.4,9.01 -2.11,17.25 -2.2,3.94 -5.14,8.35 -8.8,12.85 -3.17,3.9 -8.02,6.65 -12.12,10.29 -3.94,3.51 -8.15,7.08 -12.85,9.82 -4.85,2.84 -9.59,5.87 -14.65,7.43 -5.86,1.83 -11.66,2.19 -16.48,2.12 -10.08,-0.14 -15.91,-3.74 -15.51,-6.34 0.31,-2.84 5.8,-2.71 13.55,-5.24 3.75,-1.23 8.02,-2.75 12.51,-4.9 3.82,-1.83 8.08,-3.63 12.07,-6.2 3.85,-2.47 6.1,-7.08 9.61,-9.96 3.68,-3 6.82,-6.54 10.14,-9.6 3.84,-3.53 9.02,-5.61 12.24,-8.55 6.52,-6.04 10.84,-10.14 12.41,-8.98z"/>
  <path class="fil0" d="M785.43 1555.44c0.62,3.7 -6.24,8.09 -16.74,6.3 -4.9,-0.8 -10.25,-2.66 -15.43,-4.98 -4.5,-2.02 -8.08,-5.68 -12.6,-8.11 -4.34,-2.32 -8.84,-4.48 -13.05,-7.03 -4.37,-2.64 -9.01,-4.6 -12.92,-7.27 -4.51,-3.1 -8.39,-6.51 -11.79,-9.31 -6.97,-5.8 -10.89,-10.68 -9.58,-13.11 1.32,-2.43 6.78,-0.4 15.17,2.78 4.07,1.54 8.68,3.6 13.59,5.95 4.24,2.04 8.47,4.76 12.94,7.17 4.33,2.33 9.79,2.71 14.02,5.2 4.37,2.57 8.99,4.78 12.79,7.21 4.38,2.78 7.42,7.07 10.99,8.94 7.15,3.84 12.42,4.25 12.61,6.25z"/>
  <path class="fil0" d="M794.85 1620.74c3.72,-0.32 7.52,7.48 5.01,18.93 -1.19,5.41 -3.44,11.52 -7.17,17.58 -3.19,5.3 -8.63,9.41 -14.24,13.71 -5.11,3.84 -10.59,7.05 -16.08,9.34 -5.69,2.37 -10.91,4.91 -15.92,6.5 -5.8,1.81 -11.11,3.08 -15.49,4.68 -8.94,3.2 -14.81,6.54 -16.95,4.65 -2.03,-1.71 1.98,-8.04 10.92,-14.73 4.3,-3.23 9.71,-6.23 15.47,-8.91 4.97,-2.33 10.35,-4.04 15.35,-6.35 4.87,-2.25 8.27,-6.71 12.05,-9.32 3.58,-2.5 6.61,-6.33 9.47,-9.95 3.36,-4.11 7.97,-7.63 10.16,-11.69 4.54,-8.27 5.38,-14.41 7.41,-14.42z"/>
  <path class="fil0" d="M871.87 1517.11c-3.87,0.74 -8.07,-4.42 -12.36,-11.78 -2.13,-3.57 -4.38,-7.72 -7.21,-11.95 -2.27,-3.68 -3.66,-8.37 -6.59,-12.24 -2.84,-3.65 -6.17,-7 -9.37,-10.35 -3.37,-3.44 -7.3,-6.1 -10.71,-8.94 -3.87,-3.43 -7.57,-6.65 -10.99,-9.24 -7.04,-5.18 -12.17,-8.84 -11.45,-11.61 0.66,-2.57 6.99,-2.03 16.4,0.97 4.54,1.51 9.71,3.77 14.79,7.04 4.5,2.72 8.54,6.57 12.68,10.4 3.9,3.68 9.35,6.33 12.65,10.85 3.3,4.7 6.71,9.25 8.88,14.13 2.67,5.6 2.36,11.9 3.33,16.48 1.94,9.58 1.72,15.91 -0.06,16.23z"/>
  <path class="fil0" d="M913.51 1631.9c-3.68,0.24 -7.55,-6.67 -3.93,-16.32 1.66,-4.46 4.63,-9.09 8.45,-13.24 3.34,-3.67 8.2,-5.5 11.97,-8.27 3.48,-2.57 6.9,-5.1 10.5,-7.74 3.54,-2.46 6.17,-5.42 8.75,-7.71 3.08,-2.7 5.95,-5.34 7.95,-8.04 4.14,-5.38 5.5,-10.61 8.28,-11.11 2.56,-0.64 5.1,5.87 2.64,15.38 -1.16,4.53 -3.57,9.41 -7.08,13.85 -3.03,3.93 -7.08,6.95 -10.9,9.92 -3.67,2.88 -6.12,7.34 -9.65,9.71 -3.72,2.47 -6.74,5.17 -9.52,7.38 -3.27,2.51 -7.67,3.83 -9.92,6.44 -4.6,5.18 -5.51,9.81 -7.54,9.74z"/>
  <path class="fil0" d="M1031.06 1462.56c-1.71,3.46 -8.25,3.9 -16.57,1.49 -4.03,-1.16 -8.53,-2.83 -13.34,-4.73 -4.13,-1.67 -7.78,-5.04 -12.19,-7.05 -4.24,-1.91 -8.67,-3.61 -12.85,-5.67 -4.36,-2.13 -8.92,-3.51 -12.87,-5.63 -4.6,-2.46 -8.65,-5.24 -12.19,-7.5 -7.31,-4.63 -11.75,-8.71 -10.84,-11.32 0.91,-2.6 6.47,-1.57 14.95,0.34 4.12,0.93 8.84,2.31 13.85,4.07 4.33,1.49 8.67,3.7 13.24,5.65 4.37,1.87 9.74,1.77 14.02,3.93 4.46,2.24 8.98,4.06 12.95,6.4 4.61,2.68 7.78,7.25 11.22,9.72 7.04,5.07 11.46,8.58 10.62,10.3z"/>
  <path class="fil0" d="M1079.42 1398.55c-3.4,1.73 -9.03,-2.02 -12.98,-9.82 -1.93,-3.7 -3.61,-8.14 -5.15,-12.79 -1.36,-4 -1,-8.58 -2.37,-12.71 -1.28,-3.95 -2.98,-7.68 -4.53,-11.25 -1.63,-3.76 -4.14,-6.68 -6.04,-9.56 -2.24,-3.42 -4.54,-6.63 -7.01,-9.03 -4.97,-4.93 -9.91,-7.34 -9.78,-10.18 0,-2.63 6.55,-3.7 15.53,-0.04 4.3,1.76 8.87,4.77 12.87,8.94 3.51,3.61 6.07,8.22 8.37,12.78 2.21,4.36 6.12,8.2 7.44,12.83 1.36,4.78 2.81,9.3 3.54,13.57 0.81,4.93 -0.66,9.88 -0.2,13.7 0.87,7.8 2.07,12.71 0.32,13.57z"/>
  <path class="fil0" d="M1065.12 1619.11c1.38,3.6 -0.25,7.91 -3.67,11.28 -1.68,1.61 -3.7,3.2 -5.93,4.8 -1.9,1.36 -4.81,1.28 -7.01,2.64 -2.08,1.32 -4.04,2.89 -6.18,4.11 -2.19,1.26 -4.07,3.29 -5.94,4.21 -2.23,1.13 -4.44,1.81 -6.05,2.71 -3.36,1.53 -5.64,4.07 -8.39,4.41 -2.7,0.45 -4.17,-4.71 -1.38,-10.91 1.24,-2.94 3.37,-5.67 5.8,-8.07 2.14,-2.08 4.51,-3.37 6.93,-5.1 2.26,-1.63 3.41,-5.11 5.95,-6.47 2.63,-1.38 5.01,-3.04 7.58,-3.99 3.02,-1.12 6.76,0.01 9.21,-0.4 5.07,-0.87 8.41,-1 9.09,0.77z"/>
  <path class="fil0" d="M1171.41 1665.08c1.54,3.63 -2.81,8.74 -7.67,15.39 -2.36,3.23 -4.9,6.98 -6.8,11.29 -1.61,3.59 -4.45,7.28 -5.52,12.34 -1.02,4.78 -1.49,10.07 -2.7,15.53 -1.24,5.64 -2.15,11.73 -4.97,17.11 -3.13,6.22 -8.31,11.26 -13.18,14.05 -10.56,6.2 -18.7,2.21 -18,-0.33 0.14,-2.86 5.41,-2.91 10.55,-8.75 2.49,-2.77 4.64,-6.25 6.31,-10.96 1.46,-3.98 2.97,-8.61 3.9,-13.82 0.89,-5 -0.63,-10.81 0.79,-16.49 1.38,-5.83 3.14,-12.21 6.44,-17.48 3.8,-6.14 10.08,-9.27 14.28,-12.24 8.9,-6.2 15.92,-7.28 16.58,-5.64z"/>
  <path class="fil0" d="M1437.24 1110.54c-3.82,-0.7 -6.76,-4.08 -9.81,-7.61 -1.91,-2.47 -3.53,-4.53 -5.14,-6.59 -1.72,-2.21 -2.25,-5.54 -4.27,-7.98 -1.9,-2.34 -4.17,-4.41 -6.18,-6.67 -2.11,-2.34 -4.77,-3.94 -6.82,-6.03 -1.83,-2.07 -4.37,-4.9 -6.41,-7.18 -4.07,-4.3 -6.87,-7.86 -5.86,-10.47 0.97,-2.54 5.23,-1.93 11.55,0.2 3.07,1.04 6.47,2.73 9.92,4.93 2.99,1.89 5.61,4.6 8.38,7.21 2.63,2.49 6.9,3.71 9.14,6.8 2.31,3.14 4.77,6.11 6.37,9.38 1.9,3.84 1.37,8.72 1.83,12.16 1.16,7.33 -0.87,12.21 -2.7,11.84z"/>
  <path class="fil0" d="M1508.95 1048.85c-3.87,0.27 -7.51,-3.91 -10.24,-9.91 -1.5,-3.59 -2.78,-6.7 -4.1,-9.85 -1.2,-3.07 -1.06,-6.9 -2.49,-10.27 -1.41,-3.23 -3.21,-6.31 -4.74,-9.47 -1.66,-3.28 -3.97,-6.04 -5.61,-8.98 -1.44,-2.93 -3.34,-6.77 -4.9,-9.9 -3.17,-5.94 -5.14,-10.55 -3.36,-12.72 1.71,-2.1 5.95,0.16 11.91,4.68 2.86,2.21 5.94,5.14 8.82,8.68 2.57,3.02 4.53,6.76 6.67,10.42 2.04,3.51 5.95,6.29 7.45,10.22 1.51,4.08 3.29,7.98 4.06,11.94 0.97,4.58 -0.73,9.32 -0.73,12.89 -0.03,7.4 -0.9,12.09 -2.75,12.25z"/>
  <path class="fil0" d="M1614.48 1160.48c-0.47,-3.76 5.06,-7.85 13.96,-8.11 4.23,-0.17 9.01,0.34 13.89,1.2 4.21,0.74 8.05,3.34 12.24,4.31 4.04,0.93 8.05,1.47 11.84,2.1 3.95,0.66 7.69,0.17 11.02,0.17 3.97,0.03 7.78,-0.06 11.04,-0.77 6.61,-1.33 11.2,-4.1 13.54,-2.5 2.23,1.37 -0.29,7.47 -8.11,12.91 -3.76,2.6 -8.7,4.71 -14.22,5.74 -4.84,0.93 -9.94,0.51 -14.85,0.02 -4.71,-0.49 -9.82,0.81 -14.25,-0.41 -4.57,-1.26 -8.94,-2.17 -12.75,-3.5 -4.41,-1.57 -7.88,-5.02 -11.35,-6.21 -7.01,-2.44 -11.81,-2.97 -12,-4.94z"/>
  <path class="fil0" d="M1564.02 1047.01c-2.14,-3.04 0.83,-9.39 9.07,-14.39 3.94,-2.32 8.91,-4.51 14.54,-5.87 4.87,-1.33 10.32,-0.3 15.6,-0.5 5.11,-0.13 10.38,-0.04 15.42,0.91 5.21,1.04 10.47,1.67 15.02,3.7 5.28,2.2 9.61,5.46 13.11,8.22 7.24,5.84 9.98,11.49 8.31,13.53 -1.8,2.24 -6.29,-0.55 -13.73,-3.14 -3.64,-1.2 -7.77,-2.7 -12.38,-3.81 -3.91,-1.08 -8.09,-2.34 -12.48,-3.03 -4.3,-0.6 -8.73,1.42 -12.84,1.32 -4.33,-0.03 -8.52,0.6 -12.49,1.07 -4.57,0.34 -9.45,-0.85 -13.29,-0.09 -7.78,1.6 -12.74,3.77 -13.85,2.07z"/>
  <path class="fil0" d="M1606.79 946.28c-2.5,-2.8 -0.81,-8.98 5.38,-14.88 2.97,-2.8 6.81,-5.68 11.29,-8.18 3.86,-2.24 8.8,-2.58 13.24,-4.19 4.29,-1.51 8.72,-3.01 13.24,-3.8 4.68,-0.76 9.21,-2.06 13.62,-2 5.1,-0.03 9.81,1 13.74,1.84 8.11,1.86 12.83,5.07 12.48,7.73 -0.37,2.83 -5.27,2.88 -12.55,4.01 -3.98,0.63 -7.84,1.23 -11.95,1.86 -3.77,0.6 -7.81,0.94 -11.87,1.83 -3.93,0.87 -7.15,4.16 -10.88,5.25 -3.89,1.2 -7.48,2.91 -11,4.23 -4.08,1.44 -8.89,1.2 -12.26,2.55 -6.84,2.8 -11.17,5.25 -12.48,3.74z"/>
  <path class="fil0" d="M1563.48 873.92c-0.67,3.68 -6.69,6.15 -15.29,4.71 -4.11,-0.73 -8.8,-2.1 -13.57,-4.3 -4.17,-1.81 -7.42,-5.67 -11.39,-8.39 -3.8,-2.69 -7.65,-5.5 -10.94,-8.81 -3.37,-3.47 -7.05,-6.52 -9.54,-10.28 -2.97,-4.28 -4.78,-8.85 -6.27,-12.65 -2.99,-7.92 -2.83,-13.72 -0.4,-14.83 2.59,-1.21 5.27,2.93 10.25,8.44 2.44,2.64 5.11,5.8 8.22,8.97 2.61,2.8 5.21,5.95 8.27,8.8 2.98,2.74 7.55,3.5 10.61,5.9 3.25,2.47 6.77,4.42 9.94,6.46 3.58,2.46 6.27,6.46 9.42,8.34 6.43,3.8 11.07,5.7 10.68,7.67z"/>
  <path class="fil0" d="M1601.2 788.53c-3.64,1.33 -8.12,-1.04 -11.92,-5.17 -1.86,-2.01 -3.71,-4.44 -5.76,-6.98 -1.7,-2.2 -2.19,-5.48 -4.08,-7.95 -1.94,-2.23 -3.8,-4.37 -5.84,-6.74 -1.98,-2.37 -4.48,-4.11 -6.35,-6.28 -1.61,-2.13 -3.87,-5.1 -5.69,-7.51 -3.59,-4.51 -5.87,-8.32 -4.59,-10.82 1.23,-2.41 5.21,-1.41 11.13,1.09 2.84,1.23 6.02,3.01 9.15,5.35 2.74,1.99 5.08,4.74 7.63,7.34 2.41,2.49 6.48,3.76 8.55,6.71 2.11,3.07 4.46,5.9 5.93,9.02 1.77,3.61 1.1,8.08 1.83,11.04 1.51,6.17 1.78,10.27 0.03,10.91z"/>
  <path class="fil0" d="M1663.77 779.88c-2.47,-2.93 -1.46,-8.37 2.91,-13.88 2.11,-2.66 4.91,-5.44 8.3,-8.17 2.93,-2.36 7.15,-3.21 10.79,-5.16 3.48,-1.87 7.21,-3.81 11.21,-4.91 4.11,-1.16 8.15,-2.61 12.21,-2.7 4.7,-0.11 9.07,1.01 12.57,2.21 7.34,2.5 10.55,6.85 9.48,9.26 -1.06,2.64 -4.87,1.74 -10.57,2.42 -2.77,0.34 -5.91,0.72 -9.31,1.48 -2.9,0.64 -6.11,1.03 -9.28,2.12 -3.08,1.04 -5.11,4.42 -8.01,5.78 -3.07,1.4 -5.78,3.4 -8.65,4.9 -3.31,1.73 -7.74,1.76 -10.61,3.19 -5.85,2.91 -9.78,4.94 -11.04,3.46z"/>
  <path class="fil0" d="M1632.68 624.91c0.89,1.28 1.04,2.97 0.57,4.87l-3.31 -5.07c0.6,-2.8 2.61,-6.14 5.63,-9.44 2.46,-2.67 5.42,-5.48 8.58,-8.41 2.71,-2.51 6.67,-3.86 9.5,-6.61 2.73,-2.61 5.11,-5.54 7.52,-8.25 2.53,-2.84 4.1,-6.21 6.08,-8.99 2.34,-3.24 4.68,-6.29 6.33,-9.18 3.38,-5.9 5.42,-10.68 8.26,-10.79 2.64,-0.14 4.03,5.27 3.1,13.72 -0.46,4.08 -1.74,8.75 -3.89,13.38 -1.84,4.04 -4.67,7.75 -7.52,11.45 -2.76,3.54 -4.23,8.46 -7.61,11.45 -3.5,3.1 -6.77,6.18 -10.27,8.47 -4.07,2.64 -9.14,3.01 -12.49,4.58 -4.2,1.95 -7.53,3.4 -9.73,3.87l-3.58 -5.48c1.46,-0.28 2.4,-0.18 2.83,0.45z"/>
  <path class="fil0" d="M1595.92 569.7c-3.7,-0.87 -6.21,-5.59 -5.77,-12.07 0.23,-3.08 0.9,-6.63 2.07,-10.28 1,-3.2 3.84,-5.76 5.41,-8.92 1.53,-3.07 3,-6.24 4.95,-9.07 2.04,-2.93 3.5,-6.16 5.78,-8.55 2.6,-2.83 5.64,-4.91 8.16,-6.7 5.2,-3.65 9.62,-4.8 11.64,-2.95 2.07,1.9 0.1,5.14 -2.47,10.26 -1.23,2.49 -2.83,5.23 -4.53,8.18 -1.73,2.6 -3.37,5.06 -5.12,7.71 -1.57,2.66 -1.07,6.47 -2.57,9.07 -1.57,2.73 -2.64,5.64 -4.07,8.17 -1.71,2.9 -5.25,4.93 -6.74,7.31 -3.03,4.9 -4.84,8.3 -6.74,7.84z"/>
  <path class="fil0" d="M1561.02 527.32c1.23,3.7 -1.5,8.16 -5.93,12.08 -2.74,2.27 -5.06,4.17 -7.38,6.08 -2.31,1.8 -5.71,2.51 -8.25,4.6 -2.4,2.04 -4.54,4.4 -6.85,6.52 -2.38,2.25 -4.07,5 -6.2,7.17 -2.08,1.97 -4.95,4.64 -7.28,6.8 -4.31,4.31 -7.9,7.3 -10.54,6.31 -2.54,-0.93 -1.93,-5.31 0.21,-11.88 1.07,-3.17 2.72,-6.74 5,-10.28 1.91,-3.11 4.7,-5.84 7.34,-8.74 2.54,-2.76 3.83,-7.08 6.93,-9.47 3.23,-2.4 6.22,-5.01 9.57,-6.68 3.84,-2.03 8.58,-1.5 11.75,-2.34 6.63,-1.69 11.04,-1.93 11.64,-0.17z"/>
  <path class="fil0" d="M1620.32 435.52c-1.46,-3.6 1.74,-8.48 7.37,-13.02 2.7,-2.23 5.95,-4.5 9.39,-7.03 2.98,-2.1 7.05,-3.03 10.34,-5.37 3.04,-2.4 6,-4.73 9.14,-7.22 3.2,-2.46 5.77,-5.47 8.67,-7.8 2.93,-2.11 6.68,-4.83 9.75,-7.04 5.86,-4.38 10.48,-7.05 12.81,-5.48 2.24,1.51 0.23,6.15 -3.73,12.91 -1.94,3.27 -4.53,6.88 -7.72,10.47 -2.7,3.14 -6.18,5.84 -9.55,8.78 -3.23,2.8 -5.31,7.31 -8.98,9.74 -3.78,2.47 -7.34,5.17 -11.14,6.98 -4.38,2.16 -9.57,1.86 -13.18,2.91 -7.47,2.17 -12.45,2.91 -13.17,1.17z"/>
  <path class="fil0" d="M1621.95 317.55c-0.06,-3.87 2.8,-7.37 6.56,-9.57 1.84,-1.1 3.97,-2.03 6.2,-3.04 1.93,-0.83 4.51,-0.17 6.69,-1.06 2,-0.99 3.86,-1.9 6.07,-2.97 2.15,-0.96 3.8,-2.57 5.78,-3.47 2.36,-1 4.84,-1.7 6.93,-2.51 4.25,-1.64 7.95,-2.53 10.15,-0.8 2.15,1.69 0.86,4.81 -2,9.25 -1.42,2.14 -3.39,4.43 -5.81,6.52 -2.07,1.85 -4.78,3.11 -7.34,4.61 -2.47,1.4 -4.15,4.74 -7.01,5.74 -2.91,0.97 -5.68,2.24 -8.52,2.61 -3.31,0.5 -6.75,-1.56 -9.25,-1.83 -5.2,-0.57 -8.41,-1.61 -8.44,-3.5z"/>
  <path class="fil0" d="M1572.8 434.27c-1.57,3.4 -8.91,3.74 -18.21,-0.47 -4.44,-2.04 -9.39,-4.91 -14.32,-8.59 -4.32,-3.13 -7.44,-8.08 -11.46,-12.09 -3.86,-3.9 -7.77,-7.94 -11.04,-12.36 -3.37,-4.61 -7.1,-8.84 -9.54,-13.54 -2.91,-5.38 -4.67,-10.86 -6.1,-15.46 -2.93,-9.55 -2.78,-16.28 -0.29,-17.25 2.64,-1.04 5.46,4.31 10.68,11.82 2.8,3.97 5.63,8.01 8.68,12.35 2.74,3.88 5.47,8.17 8.68,12.22 3.17,3.89 8.2,6.14 11.49,9.74 3.48,3.74 7.32,6.97 10.74,10.21 3.85,3.84 6.42,8.92 9.75,11.95 6.82,6.12 11.81,9.67 10.92,11.48z"/>
  <path class="fil0" d="M1596.36 223.19c-3,-2.3 -3.67,-7.3 -0.67,-12.41 1.44,-2.41 3.53,-4.94 6.17,-7.22 2.25,-2.04 5.78,-2.41 8.55,-3.95 2.68,-1.46 5.46,-2.98 8.41,-3.89 3.07,-0.9 5.93,-2.34 8.92,-2.54 3.44,-0.31 6.72,0.33 9.41,0.87 5.6,1.17 8.84,3.78 8.75,6.5 -0.06,2.8 -3.1,3.47 -7.39,5.17 -2.57,0.93 -4.76,1.71 -7.03,2.53 -2.19,0.74 -4.64,1.17 -7.01,2.06 -2.3,0.9 -3.56,3.97 -5.67,4.91 -2.21,1.01 -4.12,2.49 -6.15,3.5 -2.36,1.13 -5.9,0.7 -7.97,1.74 -4.15,2.13 -6.78,3.97 -8.32,2.74z"/>
  <path class="fil0" d="M629.94 1341.56c3.81,-0.79 8.21,4.89 11.95,13.84 1.84,4.33 3.65,9.41 5.67,14.85 1.68,4.7 1.95,10.21 3.82,15.35 1.95,4.87 3.89,9.71 5.88,14.68 1.98,5.08 4.67,9.72 6.55,14.4 1.74,4.84 3.76,10.47 5.44,15.15 3.38,9.12 5.04,15.68 2.73,17.28 -2.23,1.54 -6.65,-3.27 -12.81,-11.28 -2.98,-3.9 -6.15,-8.65 -9.16,-14.05 -2.66,-4.63 -4.73,-9.94 -7.07,-15.21 -2.21,-5.07 -6.42,-9.51 -8.18,-14.85 -1.8,-5.53 -3.89,-10.87 -5.03,-16.12 -1.4,-6.08 -0.2,-12.3 -0.7,-17.15 -0.96,-10 -0.94,-16.52 0.9,-16.89z"/>
  <path class="fil0" d="M625.86 1291.64c0.74,3.86 -5.57,8.33 -8.77,17.32 -1.7,4.35 -2.71,9.59 -2.01,15.12 0.51,4.48 0.9,9.54 4.17,12.04 3.5,2.5 6.84,2.63 9.5,1 3.08,-1.66 5.25,-7.05 6.82,-12.21 1.87,-6.17 3.44,-12.69 3.1,-17.26 -0.38,-10.05 -8.07,-14.05 -7.88,-16.52 0.06,-1.28 2.88,-2.24 7.28,-0.47 4.27,1.73 9.54,6.57 11.98,14.12 2.36,7.38 2.14,15.11 0.67,23.52 -1.51,7.16 -4.65,15.69 -13.25,21.8 -7.92,6.08 -21.28,6.65 -28.97,0.11 -8.54,-6.81 -11.84,-16.7 -12,-24.9 -0.17,-9.77 5.16,-17.61 9.21,-23.05 8.82,-12.14 20.23,-12.47 20.15,-10.62z"/>
  <path class="fil0" d="M1114.29 1229.95c-1.9,3.51 -11.31,1.53 -24.45,-2.19 -6.37,-1.73 -13.69,-3.85 -21.78,-5.41 -6.87,-1.53 -14.06,-4.24 -21.79,-5.16 -7.41,-0.8 -15.01,-0.85 -22.45,-0.87 -7.75,0.08 -15.28,1.2 -22.39,2.03 -8.25,0.73 -15.96,1.73 -22.58,2.93 -13.52,2.61 -22.66,4.9 -23.99,2.3 -1.2,-2.3 6.72,-7.67 20.35,-13.45 6.63,-2.71 14.64,-5.38 23.54,-7.07 7.68,-1.66 16.05,-2.01 24.52,-2.37 8.09,-0.24 16.56,-2.18 24.8,-1.13 8.5,1.21 16.88,2.31 24.45,4.71 8.84,2.57 15.9,7.98 22.22,11.22 12.98,6.84 20.36,12.88 19.53,14.45z"/>
  <path class="fil0" d="M1628.79 675.53c-2.68,3.15 -14.78,-4.95 -33.33,-15.76 -9.04,-5.08 -19.57,-10.94 -31.67,-15.75 -10.22,-4.5 -21.09,-9.68 -32.93,-12.92 -5.68,-1.54 -11.57,-2.47 -17.35,-3.74 -5.9,-0.71 -11.75,-1.76 -17.6,-2.36 -12.18,-1.17 -24.22,-1 -35.47,-0.41 -13.08,0.23 -25.22,1.6 -35.57,3.31 -21.26,3.8 -35.03,8.39 -36.34,5.63 -1.11,-2.19 11.59,-9.95 33.37,-16.98 10.57,-3.27 23.29,-6.31 37.27,-7.44 12.05,-1.37 24.97,-0.7 38.02,0.32 6.28,0.5 12.62,1.04 19.06,1.32 6.34,0.84 12.79,1.44 18.92,3.17 12.69,3.67 25.16,7.54 36.08,13.07 12.85,5.99 22.67,15.12 31.42,21.75 17.92,13.94 27.13,25.57 26.1,26.81z"/>
  <path class="fil0" d="M1394.23 628.48c-0.7,3.99 -9.38,4.28 -17.62,6.27 -3.95,1 -6.68,3.04 -8.34,5.95 -0.94,2.19 -2.61,2.87 -0.47,5.7 2.19,2.36 7.17,4.2 11.75,5.2 4.87,0.84 5.69,-0.24 7.98,-2.37 2.4,-2.74 3.68,-6.33 2.37,-9.92 -2.83,-7.77 -10.67,-10.58 -10.38,-13.25 0.04,-1.32 2.23,-2.34 6.17,-1.78 3.81,0.56 9.5,2.76 14.11,8.75 4.73,5.64 6.07,16.55 0.72,24.73 -2.26,3.58 -5.81,6.84 -10.44,8.5 -4.65,1.68 -9.21,1.41 -13.05,0.79 -6.86,-1.33 -15.06,-1.42 -21.9,-8.27 -3.38,-3.48 -6.13,-8.67 -6.5,-14.16 -0.39,-5.59 1.53,-10.68 4.2,-14.27 6.33,-8.55 16.8,-9.2 22.75,-8.75 13,1.01 18.93,5.4 18.66,6.9z"/>
  <path class="fil0" d="M1471.73 620.72c-0.67,-0.57 -1.73,-1.23 -1.1,-2.53 0.96,-1.47 3.68,-1.1 5.04,-0.31 1.5,0.5 3.19,2.75 3.76,4.68 0.66,1.08 1.26,2.33 1.7,3.7 0.84,2.67 1.41,5.83 1.63,9.25 0.21,2.97 -1.49,6 -1.77,9.14 -0.27,3.04 -0.4,6.17 -1.12,9.15 -0.68,3.1 -0.8,6.26 -1.87,9.01 -1.27,3.2 -3.08,5.97 -4.63,8.29 -3.12,4.8 -6.58,7.27 -9.17,6.39 -2.66,-0.89 -2.33,-4.3 -2.17,-9.47 0.1,-2.5 0.37,-5.35 0.77,-8.39 0.31,-2.63 1.2,-5.31 1.6,-8.17 0.44,-2.73 -1.5,-5.78 -1.06,-8.46 0.44,-2.8 0.37,-5.58 0.81,-8.16 0.55,-2.99 3.16,-5.78 3.76,-8.29l0.81 -3.45 0.1 -0.37 0.03 -0.1 0 -0.03 0.01 0 0 -0.01 1.84 -0.07 -0.1 0 -0.37 0.03 -1.06 0.24 0.37 -0.3c1.3,-0.76 2,-2.49 1.77,-2.25l0.4 0.49z"/>
  <path class="fil0" d="M1466.37 670.26c-0.74,3.78 -5.5,6.54 -8.4,11.04 -1.55,2.04 -2.67,4.73 -2.7,6.81l-0.66 0.67 0.19 0.6c2.6,0.98 7.46,1.51 8.28,1.34l0.64 -0.36c0.17,-0.34 0.23,-0.28 0.57,-1.93 0.6,-2.93 0.53,-6.58 -0.6,-9.58 -2.17,-6.27 -6.5,-10.05 -5.63,-12.71 0.59,-2.51 7.97,-1.93 15.18,5.91 3.41,3.74 6.33,9.47 6.58,16.48 0.17,3.12 -0.71,8.24 -3.91,11.95 -2.17,2.56 -5.4,4.56 -8.98,5.38 -7.61,1.46 -12.71,2.03 -18.79,-0.06 -3.34,-1.21 -6.28,-3.1 -8.24,-5.52 -3.76,-4.5 -4.08,-10.81 -2.91,-15.74 2.17,-8.02 8.82,-11.54 13.11,-13.85 9.51,-5.23 16.82,-2.11 16.26,-0.44z"/>
  <path class="fil0" d="M663.88 1436.63c2.81,-2.61 8.5,-1.5 14.41,2.76 2.85,2.04 5.88,4.7 8.99,7.71 2.66,2.59 4.11,6.51 6.76,9.43 2.57,2.7 5.08,5.32 7.75,8.14 2.56,2.89 5.61,5 7.94,7.54 2.7,2.94 4.99,6.01 7.27,8.38 4.56,4.94 7.9,8.64 6.9,11.28 -0.94,2.51 -5.94,1.71 -13.05,-1.29 -3.47,-1.41 -7.21,-3.64 -10.95,-6.35 -3.23,-2.36 -6.08,-5.47 -9.07,-8.42 -2.87,-2.84 -7.34,-4.27 -9.91,-7.37 -2.63,-3.2 -5.48,-6.04 -7.65,-9.08 -2.5,-3.53 -3.13,-8.25 -4.9,-11.24 -3.61,-6.11 -5.91,-10.17 -4.48,-11.48z"/>
  <path class="fil0" d="M674.26 1447.77c-2.08,3.2 -6.86,4.24 -12.07,2.53 -2.51,-0.83 -5.21,-2.14 -7.95,-3.8 -2.38,-1.43 -3.76,-4.41 -6.08,-6.27 -2.23,-1.78 -4.61,-3.47 -6.64,-5.51 -2.1,-2.11 -4.61,-3.67 -6.32,-5.88 -1.99,-2.53 -3.34,-5.37 -4.57,-7.69 -2.51,-4.83 -3.13,-8.9 -1.17,-10.82 1.95,-1.99 4.82,-0.24 9.22,2.3 2.17,1.23 4.47,2.85 6.9,4.67 2.08,1.59 3.93,3.7 6.08,5.54 2.08,1.77 5.67,1.78 7.65,3.63 2.07,1.91 4.41,3.41 6.25,5.28 2.11,2.16 2.77,5.93 4.37,7.86 3.24,3.95 5.41,6.55 4.33,8.18z"/>
  <path class="fil0" d="M607.22 1402.89c3.76,1.24 4.51,7.55 4.95,13.25 0.25,2.78 0.97,4.82 2.08,6.35l0.8 2.24 0.41 0.36 2.95 -1.49c0.67,-0.53 0.46,-2.13 0.21,-3.71 -0.21,-1.87 -0.77,-3.86 -2.84,-5.28 -4.17,-2.9 -9.55,-2.36 -11.08,-4.59 -1.68,-1.87 3.04,-7.63 13.68,-6.85 4.95,0.33 11.54,4.11 14.44,10.42 2.61,5.27 2.64,12.58 -1.39,18.65 -3.57,5.43 -9.04,10.97 -16.99,10.52 -2.31,-0.17 -4.7,-0.79 -6.74,-1.68 -5.3,-2.4 -8.68,-6.65 -10.25,-10.61 -2.71,-6.8 0.33,-13.09 1.74,-16.78 3.15,-8.03 6.35,-11.35 8.01,-10.81z"/>
  <path class="fil0" d="M1292.69 1117.26c-3.94,0.31 -7.41,-6.35 -12.28,-14.97 -2.36,-4.2 -5.21,-8.95 -8.82,-13.79 -3.06,-4.13 -5.4,-9.47 -9.48,-13.66 -3.87,-4.02 -8.37,-7.56 -12.79,-11.17 -4.61,-3.77 -9.82,-6.58 -14.38,-9.85 -4.71,-3.54 -10.01,-7.5 -14.45,-10.81 -8.9,-6.48 -14.36,-11.71 -13.14,-14.22 1.2,-2.47 7.98,-0.2 18.46,3.76 5.08,1.94 10.91,4.57 17.03,7.9 5.29,2.89 10.51,6.71 15.81,10.69 5.07,3.77 11.64,6.38 16.13,11.34 4.64,5.06 9.14,10.21 12.34,15.79 3.8,6.51 4.36,13.92 5.68,19.48 2.77,11.61 1.64,19.39 -0.11,19.52z"/>
  <path class="fil0" d="M1203.09 1017.55c-0.98,2.06 -2.03,1.8 -3.44,3.01 -1.4,1 -1.96,2.61 -2.03,3.91 -0.41,1.41 -2.2,5.13 -2.46,7.27l-1.11 2.83 -0.07 0.76 0.77 0.59c-0.79,0.94 0.21,3.31 -0.9,0.14 0.14,0.47 4.14,-3.97 5.88,-5.37 2.41,-1.91 3.94,-3.41 4.54,-4.3 0.51,-1.66 0.11,-3.76 -0.59,-5.13 -0.71,-1.55 -2.43,-2.36 -2.88,-3.65 -0.55,-1.13 0.98,-3.21 4.87,-2.88 3.77,0.44 8.02,3.42 10.02,8.99 2.08,6.44 -0.77,12.62 -4,16.86 -3.36,3.74 -4.65,5.81 -11.37,9.7 -7.24,3.78 -17.32,1.17 -20.96,-4.93 -1.49,-2.27 -2.58,-4.9 -3.07,-7.54 -0.83,-4.63 -0.1,-8.78 1.21,-11.95 2.68,-5.97 7.22,-7.94 11.01,-10.96 4.24,-3.34 9.38,-3.33 11.91,-1.77 2.7,1.47 3.08,3.59 2.66,4.43z"/>
  <path class="fil0" d="M1262.37 1062.86c3.07,2.17 3.37,7.87 -0.49,14 -1.85,2.9 -4.47,5.99 -7.74,8.81 -2.8,2.51 -6.97,3.36 -10.38,5.33 -3.31,1.87 -6.76,3.74 -10.4,4.94 -3.78,1.21 -7.35,2.93 -11.05,3.31 -4.24,0.54 -8.3,0 -11.62,-0.46 -6.94,-1.01 -11.04,-3.71 -10.95,-6.39 0.09,-2.83 3.99,-3.43 9.6,-5.26 3.19,-1.03 6.08,-1.95 9.15,-2.94 2.86,-0.91 6.01,-1.6 9.07,-2.78 2.97,-1.19 4.85,-4.59 7.58,-5.9 2.85,-1.41 5.37,-3.3 7.91,-4.78 2.97,-1.61 7.08,-1.77 9.6,-3.31 5.06,-3.13 8.12,-5.76 9.72,-4.57z"/>
  <path class="fil0" d="M1195.28 1086.56c-0.7,1.81 -2.6,2.98 -3.84,4.53 -1.25,1.51 -2.03,3.13 -2.74,4.86 -0.74,1.77 -0.62,3.17 -0.08,3.82 0.34,0.79 -0.14,3.25 1.85,4.9 1.57,1.44 4.99,2.17 4.65,2.17l0.23 0.03c0.62,-0.37 0.34,-0.19 1.14,-1.47 1.06,-1.81 1.84,-4.77 1.44,-7.39 -0.55,-5.47 -3.91,-9.27 -3.04,-11.9 0.59,-2.54 7.91,-1.68 13.55,6.67 2.61,3.91 4.43,9.74 3.11,16.34 -0.8,4.86 -5.07,11.38 -11.14,12.94l-2.9 0.54c-7.52,0.23 -13.29,-0.28 -18.18,-4.12 -4.65,-3.94 -8.71,-9.65 -9.2,-16.35 -0.34,-3.7 1.23,-8.03 3.29,-10.44 2.08,-2.63 4.47,-4.23 6.51,-5.63 4.2,-2.91 8.81,-3.41 11.71,-2.63 2.95,0.83 3.95,2.33 3.63,3.14z"/>
  <path class="fil0" d="M947.56 1214.34c-0.13,3.76 -5.8,7.04 -7.37,10.88 -0.69,1.46 -0.6,3.7 -0.03,3.7 0.06,-0.14 0.04,2.61 3.51,4.4 2.86,1.69 7.83,2.89 7.44,2.77l0.74 -0.36 0.23 -0.43 0.84 -1.83c1.33,-2.81 2.13,-5.67 1.74,-8.02 -0.8,-5.3 -5.8,-7.91 -6.2,-10.44 -0.16,-1.32 1.51,-2.6 4.87,-2.43 3.27,0.23 7.86,2.14 11.42,6.9 3.5,4.68 4.63,11.51 3.21,17.86 -0.32,1.38 -0.74,2.73 -1.32,4.1 -0.7,1.64 -1.73,3.48 -2.98,4.94 -2.53,3.02 -6.3,4.91 -10.31,5.3 -8.5,0.33 -13.09,-0.33 -18.01,-2.71 -4.65,-2.63 -11.42,-7.14 -13.22,-15.44 -1.64,-9.94 5.16,-15.49 9.45,-18.35 9.84,-5.71 16.27,-2.28 15.96,-0.84z"/>
  <path class="fil0" d="M1013.74 1206.37c-3.4,1.81 -7.45,1.69 -10.38,0.27 -1.42,-0.7 -2.78,-1.66 -4.14,-2.74l-2.17 -4.23 -3.4 -3.2 -3.53 -3.08c-1.07,-1.47 -1.83,-3.29 -2.64,-4.76 -1.64,-3 -2.54,-6.04 -1.39,-8.57 1.13,-2.5 3.56,-2.36 7.3,-1.57 1.8,0.38 3.78,1.14 5.74,2.26 1.73,0.94 3.13,2.53 4.73,3.88 1.51,1.29 4.6,1.08 5.94,2.73 1.36,1.7 2.99,3.11 3.94,4.9 1.16,2.08 0.2,5.33 0.63,7.1 0.89,3.67 1.04,6.1 -0.63,7.01z"/>
  <path class="fil0" d="M972.64 1152.5c0.33,1.9 -0.76,3.91 -1.04,5.93 -0.34,2.03 -0.28,4.04 0.1,5.94 0.44,1.94 1.17,2.36 2.78,3.82 1.25,0.96 2.95,3.67 5.82,4.11 2.7,0.41 5.51,-0.27 7.28,-1.08 2,-0.86 2.14,-2.46 2.78,-3.81l0.67 -1.7 -1.57 -3.23c-4.54,-3.76 -10.72,-5.73 -10.41,-8.6 0.16,-2.37 4.91,-4.63 15.26,-2.08 2.78,0.93 6.33,2.84 8.97,6.95 1.55,2.33 2.68,5.9 2.6,9.38 0.01,6.71 -4.59,13.44 -10.47,16.62 -5.4,3.14 -11.52,6.16 -17.8,5.06 -6.35,-1.19 -12.44,-3.88 -16.71,-8.9 -5.21,-5.87 -4.28,-15.05 -2.06,-19.63 1.91,-5.23 5.7,-8.33 8.71,-9.38 3.13,-1.03 4.94,-0.27 5.07,0.6z"/>
  <path class="fil0" d="M1064.29 1207.59c-3.7,-1.14 -5.14,-7.58 -4.37,-16.22 0.36,-4.19 1.07,-8.94 1.86,-14.06 0.72,-4.38 3.11,-8.74 3.94,-13.53 0.69,-4.61 1.37,-9.2 2.07,-13.94 0.8,-4.8 0.8,-9.58 1.55,-14 0.96,-5.13 2.23,-9.9 3.16,-14.04 1.87,-8.51 3.98,-14.25 6.78,-14.36 2.72,-0.11 3.85,5.58 4.94,14.52 0.51,4.33 0.76,9.41 0.62,14.91 -0.07,4.74 -0.93,9.72 -1.53,14.82 -0.58,4.88 0.91,10.22 -0.11,15.11 -1.1,5.06 -1.81,10.08 -3.25,14.65 -1.64,5.3 -5.52,9.52 -7.3,13.49 -3.7,8.14 -6.54,13.21 -8.35,12.66z"/>
  <path class="fil0" d="M1079.42 1079.18c-0.4,1.89 -2.47,3.17 -3.7,5.07 -1.25,1.73 -2.28,4.38 -1.81,5.83 0.36,0.96 1.46,2.85 3.3,3.71 0.84,0.41 3.31,2.49 6.37,1.23 2.61,-1.07 4.74,-3.61 6.44,-6.81 1.91,-3.31 1.64,-8 1.61,-8.38 -0.04,-0.56 0.29,-1.11 -1.24,-2.19 -1.37,-0.97 -3.76,-1.89 -5.57,-2.51 -3.93,-1.27 -6.97,-1.77 -9.31,-1.71 -2.37,0.01 -4.3,0.87 -5.5,0.16 -1.16,-0.57 -1.13,-3.23 1.98,-6.01 3.1,-2.75 8.41,-4.1 13.95,-4.1 2.8,0.03 5.37,0.11 8.97,1.07 3.4,0.82 8.51,3.8 10.69,8.51 3.74,8.73 1.14,15.34 -1.33,21.59 -2.53,5.82 -6.01,13.59 -13.82,16.72 -7.46,3 -17.02,3.08 -24.09,-2.44 -7.81,-6.25 -8.08,-16.71 -4.96,-23.1 3.2,-6.73 8.9,-8.84 12.61,-9.03 3.94,-0.08 5.64,1.57 5.4,2.4z"/>
  <path class="fil0" d="M1268.63 1067.99c-3.81,-0.66 -6.1,-6.64 -6.78,-14.86 -0.36,-3.97 -0.45,-8.54 -0.67,-13.44 -0.13,-4.21 1.33,-8.71 1.14,-13.35 -0.36,-4.41 -0.74,-8.78 -1.11,-13.34 -0.36,-4.61 -1.53,-9 -1.93,-13.25 -0.23,-4.25 -0.53,-9.44 -0.77,-13.72 -0.6,-8.31 -0.38,-14.22 2.24,-15.23 2.51,-1 5.43,3.91 9.03,11.95 1.74,3.9 3.41,8.63 4.71,13.85 1.2,4.51 1.58,9.47 2.24,14.47 0.58,4.77 3.25,9.55 3.28,14.48 0.02,5.1 0.34,10.09 -0.23,14.78 -0.59,5.44 -3.72,10.18 -4.81,14.28 -2.32,8.46 -4.48,13.69 -6.34,13.39z"/>
  <path class="fil0" d="M1265.56 934.28c-1.34,3.67 -5.37,6.21 -9.34,12.35 -2.06,2.81 -3.57,6.34 -3.33,8.62 0.07,1.89 -0.38,4.54 1.01,5.23 1.49,0.85 5.08,0.68 8.05,-0.54 3.28,-1.24 5.57,-4.2 7.24,-6.76 2.07,-2.94 3.28,-6.68 2.83,-9.64 -0.77,-6.47 -7.35,-9 -7.75,-11.43 -0.23,-1.28 1.74,-2.75 5.62,-2.41 3.76,0.33 9.24,2.78 12.79,8.92 3.34,5.82 3.74,13.87 0.59,21.13 -2.71,6.33 -8.22,11.37 -14.78,14.38 -6.05,2.74 -13.96,6.42 -22.73,2.07 -9.17,-5.03 -12.54,-14.92 -11.43,-22.59 1.57,-9.64 8.81,-13.78 13.02,-16.79 4.54,-3.27 9.37,-4.87 12.94,-4.84 3.63,0.03 5.44,1.41 5.25,2.28z"/>
  <path class="fil0" d="M1167.33 1162.13c-3.23,2.08 -7.44,1.78 -10.72,-0.8 -1.6,-1.23 -3.11,-2.88 -4.57,-4.8 -1.25,-1.66 -0.98,-4.31 -2.06,-6.25 -1.03,-1.87 -2.27,-3.67 -3.08,-5.65 -0.84,-2.07 -2.3,-3.77 -2.83,-5.8 -0.62,-2.34 -0.63,-4.77 -0.74,-6.78 -0.23,-4.16 0.81,-7.34 3.31,-8.5 2.51,-1.17 4.41,0.63 7.25,3.38 1.38,1.33 2.73,3.01 4.03,4.88 1.14,1.61 1.78,3.63 2.81,5.48 0.97,1.8 3.95,2.56 4.77,4.43 0.83,1.94 2.06,3.63 2.66,5.52 0.71,2.19 -0.57,5.37 -0.23,7.27 0.66,3.91 1.01,6.55 -0.6,7.61z"/>
  <path class="fil0" d="M866.05 1390.48c-3.16,2.15 -10.68,-3.46 -18.68,-14.48 -3.84,-5.29 -7.95,-11.73 -12.02,-18.89 -3.54,-6.15 -5.55,-13.59 -8.9,-20.5 -3.21,-6.65 -6.57,-13.41 -9.37,-20.26 -2.89,-7.12 -6.3,-13.86 -8.51,-20.62 -2.61,-7.8 -4.28,-15.29 -5.77,-21.66 -3.04,-13.12 -3.48,-22.07 -0.9,-22.96 2.64,-0.91 6.14,6.94 11.88,18.82 2.81,6.12 5.86,12.73 9.14,19.87 2.71,6.47 5.52,13.19 8.42,20.13 2.94,6.63 8.1,12.35 11.04,18.93 3.27,6.8 6.35,13.21 9.45,19.62 3.27,7.33 4.47,15.09 7.01,20.99 5.21,12.08 8.82,19.92 7.2,21.01z"/>
  <path class="fil0" d="M796.98 1231.33c1.8,3.34 1.04,8.07 2,11.15 0.33,1.53 0.96,2.46 1.76,3.53l-0.03 1.74 1.1 -0.33c0.43,-0.21 0.21,-0.54 0.76,-2.2 0.56,-1.47 1.04,-3.29 0.37,-5.29 -1.17,-4 -4.63,-6.78 -4.48,-9.51 -0.07,-2.59 5.95,-3.9 12.97,1.4 3.28,2.46 6.38,7.41 6.67,13.09 0.44,4.46 -1.74,10.79 -5.88,14.98 -1.46,1.19 -3.91,3.17 -6.73,5.48 -2.7,1.31 -5.93,1.66 -8.84,0.63 -5.95,-1.91 -11.43,-7.7 -13.02,-12.75 -2.06,-5.86 0.93,-11.68 2.85,-15 4.1,-7.42 9.8,-8.51 10.51,-6.94z"/>
  <path class="fil0" d="M829.45 1301.75c-2.46,-2.97 -1.76,-7.94 1.1,-12.62 1.36,-2.27 3.11,-4.63 4.93,-7.05 1.55,-2.07 4.47,-3.14 6.11,-5.38 1.6,-2.16 2.8,-4.47 4.11,-6.61 1.41,-2.25 1.9,-4.81 3,-6.95 1.28,-2.47 2.75,-4.84 3.7,-7.08 1.97,-4.54 3.3,-8.46 6.01,-9.2 2.6,-0.72 4.74,3.04 5.71,9.61 0.48,3.16 0.37,6.94 -0.46,10.82 -0.72,3.37 -2.37,6.61 -4,9.85 -1.54,3.08 -1.59,7.35 -3.83,10.08 -2.31,2.81 -4.41,5.64 -6.91,7.72 -2.91,2.43 -7.17,2.74 -9.67,4.1 -5.14,2.77 -8.58,4.2 -9.81,2.71z"/>
 </g>
</svg>
