<?xml version="1.0" encoding="UTF-8"?>
<!DOCTYPE svg PUBLIC "-//W3C//DTD SVG 1.1//EN" "http://www.w3.org/Graphics/SVG/1.1/DTD/svg11.dtd">
<!-- Creator: CorelDRAW 2019 (64-Bit) -->
<svg xmlns="http://www.w3.org/2000/svg" xml:space="preserve" width="12.8847in" height="2.23933in" version="1.1" style="shape-rendering:geometricPrecision; text-rendering:geometricPrecision; image-rendering:optimizeQuality; fill-rule:evenodd; clip-rule:evenodd"
viewBox="0 0 3442.62 598.32"
 xmlns:xlink="http://www.w3.org/1999/xlink"
 xmlns:xodm="http://www.corel.com/coreldraw/odm/2003">
 <defs>
  <style type="text/css">
   <![CDATA[
    .fil0 {fill:#373435;fill-rule:nonzero}
   ]]>
  </style>
 </defs>
 <g id="Layer_x0020_1">
  <metadata id="CorelCorpID_0Corel-Layer"/>
  <path class="fil0" d="M1208.26 355.8c0.8,-0.88 2.18,-1.36 4.3,-1.26 2.11,0.1 5.08,0.66 9.17,1.25 4.1,0.54 9.4,0.98 16.26,-0.1 6.79,-1.1 15.41,-3.93 24.34,-10.25 4.42,-3.16 8.86,-7.22 12.54,-12.22 3.72,-4.95 6.56,-10.88 7.59,-17.14 1.16,-7 1.06,-15.06 -1.34,-23.49 -2.37,-8.42 -6.54,-17.48 -13.32,-26.01 -6.58,-8.61 -15.53,-16.72 -26.19,-23.05 -10.77,-6.01 -23.76,-10.78 -38.23,-12.59 -3.58,-0.71 -7.36,-0.59 -11.11,-0.9 -3.78,-0.22 -7.66,0.17 -11.56,0.16 -7.8,0.81 -15.89,1.8 -23.89,4.2 -8.12,2 -16,5.47 -23.86,9.3 -3.72,2.26 -7.76,4.19 -11.29,6.91 -1.78,1.32 -3.77,2.43 -5.45,3.91 -1.72,1.44 -3.45,2.89 -5.19,4.35 -13.46,12.08 -23.72,27.84 -29.17,46.58 -5.57,18.58 -6.25,39.54 -1.86,59.6 2.33,9.99 5.77,19.76 10.51,28.89 4.93,9.01 10.98,17.26 18.19,24.56 3.92,3.44 7.55,7.27 11.98,10.18l3.18 2.36c1.05,0.8 2.1,1.61 3.28,2.23l6.87 4.07c9.45,4.98 19.5,9.33 30.31,11.91 21.39,5.87 44.7,6.47 67.54,4.01 22.9,-2.64 45.42,-9.06 66.38,-18.04 21.2,-9.47 41.34,-21.14 60.4,-33.97 19.06,-12.87 37.15,-26.68 54.63,-40.41 34.91,-27.51 67.74,-54.46 100.24,-74.83 32.35,-20.43 63.56,-34.9 90.85,-42.61 1.7,-0.5 3.37,-1 5.03,-1.5 1.68,-0.4 3.33,-0.81 4.97,-1.2 3.27,-0.77 6.45,-1.52 9.53,-2.24 3.12,-0.55 6.15,-1.08 9.09,-1.6 1.47,-0.26 2.91,-0.51 4.32,-0.76 1.43,-0.16 2.84,-0.32 4.22,-0.47 5.53,-0.61 10.63,-1.25 15.38,-1.3 4.73,-0.18 9.02,-0.45 12.89,-0.2 3.86,0.15 7.28,0.2 10.23,0.38 2.94,0.32 5.42,0.6 7.42,0.82 3.99,0.44 6.08,0.67 6.08,0.67 0,0 -2.1,-0.05 -6.11,-0.14 -2,-0.05 -4.48,-0.11 -7.42,-0.18 -2.94,0.07 -6.33,0.3 -10.15,0.47 -3.82,0.06 -8.05,0.68 -12.67,1.25 -4.64,0.42 -9.61,1.47 -14.95,2.5 -1.34,0.26 -2.69,0.52 -4.07,0.79 -1.37,0.35 -2.75,0.71 -4.16,1.08 -2.82,0.73 -5.72,1.48 -8.72,2.26 -2.95,0.95 -5.98,1.92 -9.1,2.92 -1.55,0.51 -3.13,1.02 -4.72,1.55 -1.57,0.61 -3.16,1.22 -4.77,1.84 -25.85,9.56 -54.91,25.85 -84.79,47.92 -29.97,21.97 -60.17,50.49 -93.52,80.54 -16.72,15 -34.34,30.34 -53.48,45.05 -19.16,14.68 -40.05,28.56 -62.87,40.33 -23.3,11.6 -48.53,20.3 -75.03,24.75 -26.47,4.23 -54.32,5 -81.82,-1.16 -13.77,-2.72 -27.28,-7.69 -40.2,-13.92l-9.51 -5.14c-1.61,-0.81 -3.11,-1.83 -4.6,-2.85l-4.49 -3.05c-6.16,-3.84 -11.5,-8.78 -17.04,-13.46 -10.74,-10.02 -19.9,-21.68 -27.19,-34.17 -7.1,-12.61 -12.29,-26.03 -15.84,-39.73 -6.79,-27.46 -6.56,-56.15 0.93,-82.81 3.48,-13.39 9.41,-26.07 16.5,-37.8 1.89,-2.88 3.77,-5.75 5.64,-8.6 2.14,-2.66 4.27,-5.32 6.39,-7.97 2.07,-2.71 4.45,-5.08 6.81,-7.47 2.4,-2.33 4.6,-4.89 7.18,-6.96 2.54,-2.12 5.05,-4.23 7.56,-6.32 2.49,-2.11 5.25,-3.78 7.84,-5.65 5.16,-3.82 10.77,-6.65 16.13,-9.74 11.06,-5.44 22.16,-10.04 33.43,-12.78 11.16,-3.14 22.38,-4.49 33.26,-5.33 5.48,-0.01 10.86,-0.33 16.17,0.05 5.31,0.47 10.55,0.57 15.66,1.6 20.55,3.1 39.11,10.35 55.02,20.19 15.72,10.16 28.05,22.56 37.24,35.97 9.32,13.3 15.21,27.91 17.98,42.25 0.41,1.77 0.67,3.57 0.84,5.38 0.19,1.79 0.39,3.57 0.58,5.33 0.22,3.54 0.18,7.07 0.16,10.48 -0.33,3.44 -0.53,6.8 -1.08,10.06 -0.69,3.28 -1.2,6.35 -2.12,9.57 -3.78,13.12 -10.77,23.26 -18.16,30.74 -7.42,7.55 -15.36,12.7 -22.95,16.32 -15.27,7.17 -29.21,8.3 -39.85,6.76 -10.73,-1.59 -18.02,-5.67 -22.45,-9.31 -4.45,-3.73 -6.38,-6.92 -7.13,-9.19 -0.73,-2.29 -0.4,-3.61 0.38,-4.46z"/>
  <path class="fil0" d="M1044.72 510.97c1.24,-2.03 4.02,-3.52 9.88,-3.31 2.95,0.06 6.52,0.81 11.4,1.35 2.4,0.34 5.04,0.81 7.95,1.41 2.98,0.41 6.29,0.8 9.85,1.4 7.19,1.03 15.82,1.87 26.11,2.27 10.35,0.04 22.34,0.11 36.34,-2 13.96,-1.95 29.85,-5.35 47.49,-11.33 17.64,-6.01 36.91,-14.34 57.19,-26.85 20.6,-12.41 41.56,-27.9 62.71,-45.18 21.17,-17.28 42.52,-36.38 64.5,-55.44 10.97,-9.53 22.13,-19.04 33.5,-28.27 11.35,-9.23 22.63,-18.06 34.2,-26.67 23.05,-17.16 46.72,-32.63 70.36,-44.66 23.58,-12.12 46.87,-21.08 68.3,-26.99 10.81,-2.65 20.92,-5.34 30.58,-6.73 4.81,-0.75 9.37,-1.76 13.84,-2.18 4.45,-0.46 8.72,-0.89 12.78,-1.31 2.02,-0.2 4,-0.4 5.91,-0.6 1.93,-0.07 3.81,-0.14 5.64,-0.21 3.64,-0.12 7.06,-0.23 10.26,-0.33 6.37,-0.36 11.85,-0.02 16.29,0.15 8.86,0.35 13.7,0.54 13.7,0.54 0,0 -4.81,0.52 -13.62,1.47 -4.39,0.48 -9.78,0.91 -15.99,2.15 -3.1,0.54 -6.43,1.12 -9.96,1.73 -1.76,0.31 -3.57,0.63 -5.44,0.96 -1.84,0.44 -3.73,0.9 -5.67,1.38 -3.87,0.94 -7.92,1.92 -12.16,2.94 -4.24,0.98 -8.52,2.56 -13.03,3.89 -9.05,2.54 -18.4,6.4 -28.3,10.19 -19.62,8.2 -40.45,19.3 -61.24,33.19 -20.87,13.81 -41.48,30.68 -61.88,49.22 -10.17,9.24 -20.52,19.02 -30.65,28.86 -10.14,9.82 -20.22,19.95 -30.36,30.21 -20.26,20.46 -40.77,41.32 -62.33,60.63 -21.53,19.29 -44.14,37.05 -67.58,51.19 -23.51,14.48 -46.71,24.07 -67.82,30.3 -21.2,6.25 -40.61,9.1 -57.72,9.84 -17.12,0.91 -32,-1.04 -44.42,-3.35 -12.45,-2.68 -22.52,-6.15 -30.5,-9.88 -3.97,-1.95 -7.5,-3.7 -10.56,-5.48 -2.99,-1.97 -5.57,-3.78 -7.8,-5.46 -4.52,-3.2 -7.3,-6.52 -9.23,-9.03 -3.8,-5.11 -3.73,-8.06 -2.53,-10.02z"/>
  <path class="fil0" d="M1487.67 483.23c-0.72,1.41 -2.02,2.71 -4.89,3.1 -2.86,0.4 -7.4,-0.1 -13.85,-3.46 -6.4,-3.33 -14.8,-9.76 -22.71,-21.63 -7.55,-11.87 -14.8,-29.41 -14.32,-52.96 0.36,-11.85 3.04,-23.75 7.54,-35.27 4.57,-11.46 10.94,-22.28 18.47,-31.91 7.48,-9.68 16.1,-18.18 25.03,-25.54 8.98,-7.32 18.17,-13.46 27.07,-18.63 17.8,-10.35 34.08,-17.2 45.68,-22.02 11.62,-4.77 18.67,-7.43 18.67,-7.43 0,0 -6.13,4.4 -16.29,11.7 -10.11,7.33 -24.32,17.56 -38.91,30.44 -14.64,12.82 -29.19,28.65 -39.46,46.39 -5.19,8.81 -9.25,18 -12.05,27.04 -2.72,8.99 -4.25,18.08 -4.47,26.12 -0.33,16.45 3.78,29.15 7.63,38.34 4.13,9.14 8.19,15.23 11.18,19.78 3,4.57 4.94,7.71 5.79,10.19 0.85,2.51 0.6,4.37 -0.1,5.73z"/>
  <path class="fil0" d="M1529.83 542.89c1.46,0.62 2.73,2.06 2.77,6 0,0.98 -0.03,2.14 -0.25,3.44 -0.28,1.26 -0.68,2.7 -1.22,4.34 -0.29,0.83 -0.6,1.7 -0.92,2.61 -0.39,0.89 -0.88,1.78 -1.38,2.76 -1.05,1.9 -2.16,4.16 -3.84,6.26 -1.61,2.18 -3.44,4.62 -5.82,6.89 -2.25,2.46 -5.03,4.72 -8.16,7.15 -6.34,4.62 -14.47,9.14 -24.74,12.25 -10.24,3.07 -22.67,4.79 -36.92,2.99 -1.77,-0.25 -3.57,-0.63 -5.39,-0.97 -1.83,-0.34 -3.68,-0.71 -5.52,-1.31 -1.85,-0.56 -3.73,-1.13 -5.63,-1.7 -1.8,-0.73 -3.63,-1.47 -5.48,-2.22 -7.31,-3.21 -14.71,-7.4 -21.61,-12.92 -13.79,-11.01 -25.21,-26.06 -32.51,-43.21 -3.66,-8.58 -6.36,-17.66 -7.98,-27 -1.63,-9.39 -2.06,-18.86 -1.56,-28.16 0.97,-18.65 5.89,-36.54 12.85,-52.51 6.96,-16.01 15.91,-30.29 25.54,-42.52 19.26,-24.48 39.96,-41.46 54.65,-53.25 7.41,-5.86 13.44,-10.38 17.6,-13.47 4.17,-3.07 6.45,-4.74 6.45,-4.74 0,0 -1.97,2.03 -5.57,5.75 -3.59,3.73 -8.81,9.15 -15.17,16.04 -12.6,13.8 -30.21,33.45 -45.07,58.51 -7.42,12.46 -13.87,26.39 -18.4,41.14 -4.55,14.72 -7.05,30.3 -6.49,45.45 0.45,15.22 4.08,29.5 10.38,42.3 6.24,12.77 15.08,23.41 24.69,31.12 4.83,3.87 9.85,6.72 14.72,9.02 1.23,0.54 2.45,1.07 3.65,1.6 1.2,0.39 2.38,0.78 3.54,1.17 1.14,0.45 2.33,0.72 3.51,0.97 1.18,0.26 2.32,0.59 3.47,0.81 9.3,1.6 17.97,1.17 25.34,-0.19 7.41,-1.36 13.54,-3.63 18.64,-5.93 2.49,-1.25 4.85,-2.34 6.82,-3.63 2.13,-1.12 3.84,-2.4 5.51,-3.51 1.75,-1.04 3.03,-2.26 4.4,-3.22 0.67,-0.49 1.31,-0.96 1.93,-1.41 0.56,-0.48 1.1,-0.93 1.61,-1.36 1.05,-0.85 2.03,-1.58 2.95,-2.2 0.86,-0.66 1.59,-1.24 2.31,-1.7 2.85,-1.86 4.88,-2.04 6.29,-1.44z"/>
  <path class="fil0" d="M1407.87 222.98c1.81,-2.6 5.67,-4.76 14.82,-2.53 9.38,1.82 23.86,8.36 50.93,16.31 13.61,3.71 29.17,7.33 45.23,9.38 16.04,2.11 32.51,2.61 47.32,1.69 14.82,-0.85 27.78,-3.5 37.12,-5.53 4.64,-1.11 8.28,-2.27 10.86,-2.94 2.57,-0.7 3.97,-1.09 3.97,-1.09 0,0 -1.2,0.82 -3.39,2.3 -2.23,1.44 -5.4,3.74 -9.59,6.25 -8.44,4.83 -20.69,11.43 -35.91,16.35 -15.15,4.98 -33.09,8.61 -51.38,9.35 -18.27,0.82 -36.77,-1.27 -52.59,-5.61 -3.92,-1.2 -7.61,-2.39 -11.09,-3.54 -3.5,-1.08 -6.61,-2.62 -9.61,-3.85 -6.02,-2.44 -10.97,-5.32 -15.25,-7.85 -4.34,-2.42 -7.69,-5.18 -10.55,-7.47 -2.84,-2.35 -5.13,-4.36 -6.76,-6.46 -6.68,-8.09 -5.87,-12.24 -4.13,-14.76z"/>
  <path class="fil0" d="M1159.05 273.79c0,0 -0.51,0.62 -1.46,1.76 -0.92,1.19 -2.43,2.67 -4.02,4.93 -3.37,4.26 -7.6,10.79 -11.41,18.97 -7.76,16.24 -12.51,40.34 -7.17,63.28 5.38,22.93 20.32,42.43 34.47,53.54 7.04,5.64 13.72,9.62 18.63,11.95 2.43,1.32 4.44,1.97 5.79,2.64 1.36,0.6 2.09,0.93 2.09,0.93 0,0 -0.78,0.14 -2.23,0.4 -1.47,0.19 -3.7,0.74 -6.55,0.83 -5.76,0.49 -14.33,0.16 -24.7,-2.74 -5.19,-1.43 -10.69,-3.69 -16.4,-6.69 -5.57,-3.17 -11.44,-7 -16.84,-12.05 -10.9,-9.88 -20.54,-24.28 -24.73,-41.69 -3.96,-17.46 -1.7,-34.64 3.69,-48.33 2.6,-6.92 6.16,-12.96 9.75,-18.27 3.8,-5.22 7.72,-9.68 11.74,-13.26 8,-7.2 15.55,-11.29 20.93,-13.41 2.6,-1.19 4.85,-1.68 6.24,-2.16 1.42,-0.41 2.18,-0.63 2.18,-0.63z"/>
  <path class="fil0" d="M1241.57 280.75c0,0 -0.54,0.15 -1.55,0.42 -1,0.31 -2.44,0.56 -4.24,1.17 -3.59,1.03 -8.54,2.89 -13.85,5.58 -10.77,5.33 -22.46,14.86 -30.8,26.24 -8.39,11.35 -14.01,25.34 -15.9,37.21 -1,5.87 -1.3,11.15 -1.21,14.88 -0.05,1.9 0.14,3.35 0.15,4.4 0.04,1.04 0.06,1.6 0.06,1.6 0,0 -0.44,-0.35 -1.25,-0.98 -0.78,-0.68 -2.08,-1.62 -3.44,-3.07 -2.88,-2.82 -6.61,-7.48 -9.75,-14.3 -3.14,-6.78 -5.42,-15.81 -5.01,-26.17 0.38,-10.29 3.74,-21.95 11.14,-32.12 7.51,-10.08 17.64,-16.77 27.35,-20.19 9.77,-3.48 19.07,-3.98 26.48,-3 7.45,0.97 13.01,3.15 16.56,5.05 1.79,0.86 3.08,1.83 3.95,2.37 0.85,0.58 1.31,0.9 1.31,0.9z"/>
  <path class="fil0" d="M1349.25 370.54c0,0 1.22,-2.92 3.76,-8.1 0.65,-1.3 1.37,-2.74 2.16,-4.3 0.83,-1.54 1.82,-3.15 2.86,-4.92 2.13,-3.49 4.5,-7.58 7.62,-11.68 1.56,-2.09 3.18,-4.27 4.86,-6.53 1.73,-2.25 3.71,-4.41 5.71,-6.72 3.96,-4.69 8.67,-9.19 13.71,-13.91 10.28,-9.14 22.69,-18.1 36.9,-25.34 14.27,-7.12 28.85,-11.77 42.3,-14.62 6.79,-1.25 13.21,-2.36 19.33,-2.76 3.05,-0.23 5.96,-0.54 8.8,-0.6 2.81,-0.01 5.53,-0.02 8.14,-0.03 5.15,-0.07 9.85,0.46 13.92,0.81 2.04,0.21 3.92,0.37 5.66,0.62 1.72,0.3 3.31,0.58 4.74,0.83 5.67,1.04 8.75,1.79 8.75,1.79 0,0 -3.01,1.21 -8.34,3.09 -1.33,0.46 -2.81,0.97 -4.41,1.52 -1.6,0.62 -3.33,1.28 -5.18,1.99 -3.69,1.44 -7.89,2.82 -12.41,4.77 -2.27,0.9 -4.63,1.83 -7.08,2.8 -2.45,0.96 -4.95,2.14 -7.55,3.21 -5.23,2.06 -10.63,4.68 -16.36,7.13 -11.34,5.25 -23.53,11.07 -36.22,17.4 -12.63,6.45 -24.56,12.79 -35.52,18.79 -5.37,3.15 -10.69,5.94 -15.45,8.92 -2.41,1.46 -4.84,2.76 -7.07,4.16 -2.23,1.4 -4.39,2.74 -6.46,4.03 -4.25,2.48 -7.85,5.03 -11.21,7.14 -1.67,1.07 -3.23,2.06 -4.68,2.98 -1.4,0.96 -2.68,1.85 -3.85,2.64 -4.68,3.17 -7.44,4.88 -7.44,4.88z"/>
  <path class="fil0" d="M1518.38 418.91c0,0 2.89,-3.19 8.13,-8.31 5.19,-5.05 12.6,-12.25 21.55,-20.95 4.42,-4.23 9.22,-8.81 14.33,-13.7 5.16,-4.7 10.42,-9.96 16.12,-15.03 11.21,-10.47 23.45,-21.34 36.77,-32.1 13.22,-10.88 26.33,-20.68 38.84,-29.56 6.11,-4.56 12.32,-8.66 17.96,-12.77 5.82,-4.02 11.27,-7.8 16.31,-11.28 10.32,-7.02 18.87,-12.83 24.86,-16.9 6.07,-4.1 9.78,-6.3 9.78,-6.3 0,0 -0.33,4.17 -1.55,11.58 -0.33,1.86 -0.7,3.92 -1.1,6.16 -0.46,2.23 -1.08,4.59 -1.73,7.15 -1.35,5.09 -2.89,10.99 -5.26,17.14 -1.14,3.11 -2.39,6.35 -3.75,9.72 -1.38,3.35 -3.04,6.68 -4.73,10.19 -3.33,7.07 -7.6,14.14 -12.31,21.5 -9.69,14.45 -22.24,29.14 -37.75,41.88 -15.59,12.63 -32.51,21.96 -48.61,28.56 -8.16,3.14 -15.95,5.89 -23.54,7.73 -3.77,0.95 -7.37,1.91 -10.94,2.59 -3.57,0.66 -7,1.23 -10.27,1.72 -6.5,1.09 -12.58,1.4 -17.85,1.71 -2.64,0.13 -5.08,0.25 -7.35,0.25 -2.28,-0.06 -4.37,-0.11 -6.25,-0.16 -7.5,-0.3 -11.65,-0.82 -11.65,-0.82z"/>
  <path class="fil0" d="M1598.47 520.11c0,0 7.72,-52.77 41.12,-101.5 33.4,-48.73 79.83,-74.96 79.83,-74.96 0,0 -7.71,52.77 -41.11,101.5 -33.4,48.73 -79.84,74.96 -79.84,74.96z"/>
  <path class="fil0" d="M1619.71 426.78c0.35,0 0.7,0 1.05,0 4.1,0 8.03,-3.61 7.84,-7.84 -0.19,-4.25 -3.45,-7.84 -7.84,-7.84 -0.35,0 -0.7,0 -1.05,0 -4.1,0 -8.03,3.6 -7.84,7.84 0.19,4.25 3.44,7.84 7.84,7.84l0 0z"/>
  <path class="fil0" d="M1597.76 423.65c-10.09,0 -10.1,15.68 0,15.68 10.09,0 10.1,-15.68 0,-15.68l0 0z"/>
  <path class="fil0" d="M1569.54 430.96c-10.09,0 -10.1,15.68 0,15.68 10.09,0 10.11,-15.68 0,-15.68l0 0z"/>
  <path class="fil0" d="M1542.36 428.87c-10.09,0 -10.1,15.68 0,15.68 10.09,0 10.11,-15.68 0,-15.68l0 0z"/>
  <path class="fil0" d="M1492.19 540.72c-0.35,0 -0.7,0 -1.05,0 -4.1,0 -8.03,3.6 -7.84,7.84 0.19,4.25 3.44,7.84 7.84,7.84 0.35,0 0.7,0 1.05,0 4.1,0 8.03,-3.61 7.84,-7.84 -0.19,-4.25 -3.44,-7.84 -7.84,-7.84l0 0z"/>
  <path class="fil0" d="M1468.15 544.89c-10.09,0 -10.1,15.68 0,15.68 10.09,0 10.11,-15.68 0,-15.68l0 0z"/>
  <path class="fil0" d="M1443.06 537.58c-10.09,0 -10.1,15.68 0,15.68 10.09,0 10.1,-15.68 0,-15.68l0 0z"/>
  <path class="fil0" d="M1424.25 511.45c-10.09,0 -10.1,15.68 0,15.68 10.09,0 10.1,-15.68 0,-15.68l0 0z"/>
  <path class="fil0" d="M1087.23 528.9c0,0 0.79,0.4 2.31,1.15 1.56,0.7 3.63,2.04 6.63,3.24 5.78,2.72 14.54,5.94 25.77,8.45 11.22,2.56 25.12,3.9 40.65,3.21 15.52,-0.72 32.65,-3.73 49.85,-9.27 34.92,-11.51 64.58,-30.68 85.44,-45.78 10.45,-7.57 18.8,-14.09 24.53,-18.69 5.75,-4.61 8.92,-7.17 8.92,-7.17 0,0 -2.72,3.05 -7.81,8.39 -5.08,5.34 -12.58,12.89 -22.33,21.6 -9.74,8.71 -21.81,18.47 -36.13,27.74 -14.29,9.28 -30.95,17.87 -49.33,23.97 -18.26,5.89 -36.59,8.4 -53,8.14 -16.43,-0.29 -30.89,-3.08 -42.21,-7.04 -11.35,-3.92 -19.76,-8.46 -25.14,-12.1 -2.8,-1.65 -4.67,-3.36 -6.07,-4.3 -1.36,-1.01 -2.07,-1.54 -2.07,-1.54z"/>
  <path class="fil0" d="M1090.75 556.94c0,0 0.88,0.33 2.58,0.92 1.7,0.57 4.16,1.51 7.37,2.55 6.48,1.93 15.89,4.51 27.72,6.1 23.58,3.29 56.89,1.92 91.05,-9.32 34.2,-11.26 62.54,-28.46 82.37,-41.67 9.92,-6.66 17.74,-12.41 23.17,-16.36 5.39,-4.02 8.37,-6.23 8.37,-6.23 0,0 -2.6,2.67 -7.3,7.49 -4.8,4.72 -11.82,11.52 -21.06,19.33 -9.25,7.8 -20.77,16.61 -34.54,25.08 -13.72,8.52 -29.84,16.48 -47.72,22.43 -18.01,5.77 -35.95,8.7 -52.31,8.98 -16.36,0.39 -31.07,-1.54 -43.02,-4.52 -11.98,-2.96 -21.16,-6.89 -27.35,-9.76 -3.07,-1.52 -5.37,-2.84 -6.95,-3.67 -1.58,-0.85 -2.39,-1.33 -2.39,-1.33z"/>
  <path class="fil0" d="M1118.42 587.54c0,0 0.78,0.12 2.26,0.36 1.48,0.27 3.67,0.54 6.49,0.82 2.82,0.28 6.25,0.76 10.24,0.91 1.99,0.12 4.12,0.24 6.37,0.37 2.25,0.03 4.62,0.05 7.12,0.08 9.95,-0 21.73,-0.58 34.55,-2.52 12.81,-1.93 26.67,-5.06 40.82,-9.67 28.04,-9.21 51.44,-21.65 67.7,-31.29 8.18,-4.79 14.58,-8.95 19.01,-11.8 2.23,-1.42 3.93,-2.55 5.08,-3.33 1.15,-0.76 1.76,-1.17 1.76,-1.17 0,0 -0.55,0.49 -1.58,1.41 -1.03,0.93 -2.56,2.29 -4.6,3.97 -4.05,3.4 -9.96,8.29 -17.74,13.88 -15.4,11.2 -38.51,25.55 -67.43,35.06 -14.61,4.77 -29.04,7.56 -42.29,8.87 -13.26,1.33 -25.35,1.02 -35.44,0.13 -2.52,-0.26 -4.92,-0.51 -7.19,-0.75 -2.26,-0.36 -4.4,-0.7 -6.39,-1.01 -3.99,-0.56 -7.39,-1.44 -10.16,-2.05 -2.78,-0.61 -4.92,-1.15 -6.36,-1.61 -1.44,-0.43 -2.2,-0.65 -2.2,-0.65z"/>
  <path class="fil0" d="M1546.2 329.41c0,0 23.43,-29.32 61.02,-48.24 37.59,-18.92 75.09,-20.28 75.09,-20.28 0,0 -23.43,29.32 -61.02,48.24 -37.59,18.92 -75.09,20.28 -75.09,20.28z"/>
  <path class="fil0" d="M1605.28 75.42c-0.57,2.19 2.73,4.45 6.25,8.93 0.43,0.56 0.88,1.14 1.35,1.75 0.4,0.67 0.82,1.38 1.25,2.11 0.48,0.66 0.84,1.49 1.21,2.33 0.36,0.85 0.86,1.6 1.11,2.58 1.42,3.6 2.32,8.06 2.27,12.89 -0.03,4.8 -1.01,10.08 -3.5,14.48 -0.66,1.06 -1.2,2.23 -2.06,3.12 -0.4,0.47 -0.74,1 -1.15,1.45 -0.47,0.4 -0.92,0.81 -1.36,1.24 -0.76,0.92 -2.12,1.56 -3.13,2.41 -1.22,0.63 -2.37,1.4 -3.7,1.9 -10.21,4.71 -26.09,2.35 -36.61,-6.51 -1.39,-1.01 -2.45,-2.32 -3.67,-3.49 -1.01,-1.33 -2.12,-2.53 -3.02,-4.11 -1.91,-2.98 -3.48,-6.26 -4.52,-9.81 -2.23,-7.04 -2.62,-15 -1.45,-22.79 1.19,-7.81 4.03,-15.43 8.12,-22.04 2.15,-3.36 4.58,-6.56 7.24,-9.56 2.72,-2.96 5.66,-5.72 8.76,-8.28 12.5,-10.15 27.83,-16.67 41.83,-20.28 14.02,-3.41 27.55,-3.51 38.65,-2.15 11.41,1.33 22.64,4.32 33.04,8.96 10.42,4.57 19.99,10.88 27.78,18.75 7.82,7.83 13.7,17.34 16.59,27.79 1.47,5.21 2.27,10.64 2.27,16.1 0.12,1.36 0.04,2.73 -0.1,4.09l-0.3 4.09c-0.4,2.71 -0.9,5.42 -1.5,8.1 -5.55,21.48 -21.25,40.47 -40.9,52.65 -9.87,6.2 -20.53,10.67 -32.04,13.47 -11.49,2.78 -23.43,4.02 -35.51,4.12 -30.39,0.13 -60.85,-6.87 -91.21,-14.92 -30.4,-7.98 -60.57,-17.42 -90.82,-27.02 -60.5,-19.23 -121.46,-39.86 -185.58,-52.77 -32.03,-6.46 -64.76,-10.75 -97.89,-12.12 -33.13,-1.16 -66.76,0.49 -99.96,6.96 -8.32,1.41 -16.53,3.58 -24.77,5.55 -4.12,1.03 -8.16,2.36 -12.24,3.54 -4.07,1.21 -8.16,2.39 -12.15,3.91l-12.03 4.33c-3.97,1.56 -7.87,3.3 -11.81,4.96l-5.89 2.52c-1.95,0.88 -3.87,1.91 -5.81,2.87l-11.57 5.86c-3.75,2.14 -7.44,4.38 -11.15,6.58l-5.55 3.33 -5.34 3.65 -10.62 7.37 -10.12 8.04 -5.04 4.04 -4.78 4.35 -9.51 8.74 -8.91 9.35 -4.43 4.69 -4.13 4.98c-15.98,18.85 -29.04,40 -37.94,60.89 -9.11,20.82 -13.3,41.53 -14.66,58.38 -0.25,4.09 -0.42,7.91 -0.52,11.47 -0.02,3.57 0.39,6.94 0.62,10.01 0.29,3.08 0.61,5.89 0.97,8.45 0.32,2.55 1.12,4.86 1.67,6.9 2.43,8.16 4.97,12.19 7.4,12.44 2.43,0.26 4.79,-3.24 6.89,-10.1 1.05,-3.43 1.89,-7.7 3.47,-12.78 1.44,-5.07 2.54,-10.99 4.78,-17.58 0.86,-2.86 1.71,-5.84 2.56,-8.92 1.11,-3.02 2.25,-6.15 3.44,-9.37 2,-6.51 5.39,-13.04 8.19,-20.01 6.67,-13.61 14.74,-27.96 24.84,-41.84 10.25,-13.76 22.16,-27.1 35.24,-39.23 13.07,-12.15 27.59,-22.62 42.09,-31.6l9.7 -5.76 10.02 -5.09 5.01 -2.55 5.22 -2.26c3.48,-1.49 6.94,-3.06 10.44,-4.51 7.15,-2.55 14.14,-5.51 21.46,-7.61 3.64,-1.1 7.21,-2.38 10.89,-3.36l11.04 -2.9c14.8,-3.58 29.8,-6.51 45.03,-8.28 15.18,-2.02 30.55,-2.94 45.95,-3.37 61.78,-1.58 123.7,8.49 185.11,22.81 61.5,14.29 122.74,32.7 185.8,47.38 31.4,7.2 63.63,14.58 97.35,15.27 16.79,0.28 33.93,-1.22 50.56,-5.74 16.75,-4.4 32.75,-12.5 46.31,-23.53 5.82,-4.52 12.12,-10.68 18.42,-18.42 6.22,-7.78 12.29,-17.47 16.31,-29.26 4.03,-11.73 5.78,-25.68 3.34,-40 -2.39,-14.34 -9.46,-28.76 -20.04,-40.41 -10.54,-11.73 -24.17,-20.89 -39.14,-27.27 -15,-6.37 -31.42,-10.06 -48.28,-10.68 -8.43,-0.3 -16.97,0.18 -25.46,1.61 -4.22,0.73 -8.5,1.67 -12.61,2.82 -4.08,1.12 -8.1,2.47 -12.09,3.95 -15.88,5.99 -31.12,15.06 -43.27,27.84 -6.01,6.38 -11.23,13.67 -15.13,21.75 -3.83,8.03 -6.25,16.55 -7.33,25.18 -2.17,17.16 1.7,35.47 12.21,49.31 5.4,7.1 12.24,12.43 19.46,16.12 7.24,3.7 14.92,5.82 22.57,6.46 7.64,0.63 15.3,-0.26 22.32,-2.74 7.04,-2.5 13.23,-6.51 18.09,-11.72 4.93,-5.3 8.07,-11.5 9.53,-17.43 1.47,-5.94 1.88,-11.63 1.24,-16.8 -1.08,-10.36 -5.45,-18.65 -10.39,-24.08 -5.03,-5.5 -10.62,-7.84 -14.33,-8.5 -3.87,-0.43 -5.89,0.28 -6.2,1.55z"/>
  <path class="fil0" d="M1508.91 129.93c-10.09,0 -10.1,15.68 0,15.68 10.09,0 10.11,-15.68 0,-15.68l0 0z"/>
  <path class="fil0" d="M1480.69 118.43c-10.09,0 -10.1,15.68 0,15.68 10.09,0 10.11,-15.68 0,-15.68l0 0z"/>
  <path class="fil0" d="M1453.52 109.02c-10.09,0 -10.1,15.68 0,15.68 10.09,0 10.11,-15.68 0,-15.68l0 0z"/>
  <path class="fil0" d="M1418.5 106.41c0,0.35 0,0.7 0,1.05 0,4.1 3.61,8.03 7.84,7.84 4.24,-0.19 7.84,-3.44 7.84,-7.84 0,-0.35 0,-0.7 0,-1.05 0,-4.1 -3.61,-8.03 -7.84,-7.84 -4.25,0.19 -7.84,3.44 -7.84,7.84l0 0z"/>
  <path class="fil0" d="M1397.07 95.44c-10.09,0 -10.1,15.68 0,15.68 10.09,0 10.1,-15.68 0,-15.68l0 0z"/>
  <path class="fil0" d="M915.45 446.31c-2.24,0.79 -4.91,1.17 -8.08,0.01 -3.15,-1.17 -6.95,-3.83 -10.82,-9.39 -3.93,-5.53 -8.06,-13.97 -11.06,-26.54 -2.98,-12.53 -4.78,-29.32 -2.15,-50.54 2.69,-21.16 10.78,-44.43 23.66,-64.55 12.74,-20.19 29.81,-36.73 46.46,-48.36 16.67,-11.75 32.94,-18.54 44.56,-22.34 5.86,-1.85 10.55,-3.12 13.83,-3.78 3.24,-0.7 5.02,-1.08 5.02,-1.08 0,0 -1.48,1.04 -4.2,2.93 -2.73,1.82 -6.56,4.72 -11.16,8.39 -9.14,7.44 -21.1,18.61 -31.94,32.96 -10.89,14.29 -20.72,31.53 -27.31,49.36 -6.67,17.79 -10.22,36.09 -12.33,52.42 -2.02,16.37 -2.23,29.3 -2.48,39.54 -0.24,10.25 -0.57,17.88 -1.43,23.65 -0.94,5.8 -2.3,9.71 -4.21,12.4 -1.88,2.7 -4.16,4.13 -6.33,4.9z"/>
  <path class="fil0" d="M685.19 144.67c0.98,-0.66 2.29,-1.01 3.99,-0.9 0.85,0.06 1.79,0.23 2.82,0.52 1.1,0.24 2.32,0.59 3.63,1.08 2.77,0.82 6.06,2.11 10.42,3.14 4.33,0.98 9.77,1.87 15.99,1.3 3.09,-0.27 6.36,-0.9 9.48,-2.15 3.15,-1.23 5.98,-2.96 8.74,-5.56 2.7,-2.6 5.41,-5.92 7.24,-10.14 1.91,-4.13 3.03,-9.01 2.79,-13.67 -0.09,-2.37 -0.47,-4.48 -1.39,-6.71 -0.22,-0.56 -0.42,-1.13 -0.59,-1.71l-0.9 -1.62c-0.44,-1.15 -1.35,-2.13 -2.04,-3.22 -3.07,-4.24 -8.42,-8.24 -15.32,-11.21 -3.53,-1.36 -7.37,-2.54 -11.5,-3.2 -4.11,-0.54 -8.44,-0.96 -12.72,-0.5 -1.1,-0.02 -2.12,0.28 -3.18,0.39 -1.07,0.13 -2.14,0.27 -3.14,0.58 -1.04,0.29 -2.02,0.41 -3.14,0.78 -1.12,0.37 -2.25,0.74 -3.39,1.11 -4.51,1.7 -9.03,3.98 -13.38,6.89 -8.7,5.8 -16.59,14 -21.96,23.71 -5.43,9.74 -8.28,20.45 -7.96,32.07 0.28,11.56 3.72,23.64 9.97,34.02 3.12,5.19 6.92,9.95 11.28,14.04l1.63 1.54 1.81 1.41c1.22,0.92 2.38,1.94 3.64,2.83 2.63,1.63 5.15,3.47 8.03,4.79 2.71,1.6 5.77,2.64 8.71,3.94 3.11,0.94 6.13,2.16 9.41,2.79 6.41,1.68 13.21,2.44 20.08,2.78 6.89,0.42 13.91,-0.15 20.9,-0.85 6.98,-0.94 13.96,-2.21 20.78,-4.09 6.85,-1.89 13.44,-4.06 20.05,-6.88 6.64,-2.69 13.11,-5.84 19.48,-9.14 12.72,-6.68 24.92,-14.22 36.72,-21.95 23.58,-15.46 45.75,-31.2 67.39,-43.11 21.54,-11.98 42.22,-19.99 59.98,-24.16 8.87,-2.17 17.05,-3.13 24.15,-3.77 7.14,-0.42 13.25,-0.36 18.19,0 2.46,0.23 4.64,0.43 6.54,0.61 1.87,0.3 3.44,0.56 4.72,0.77 2.53,0.42 3.86,0.65 3.86,0.65 0,0 -1.34,-0.04 -3.91,-0.12 -1.28,-0.04 -2.86,-0.08 -4.73,-0.13 -1.87,0.07 -4.04,0.16 -6.48,0.25 -4.87,0.28 -10.8,1 -17.6,2.28 -6.77,1.5 -14.44,3.39 -22.62,6.5 -16.41,6.06 -35.01,15.97 -54.19,29.71 -19.23,13.64 -39.02,31.23 -61.45,49.49 -11.22,9.13 -23.24,18.35 -36.43,26.99 -6.62,4.28 -13.49,8.47 -20.77,12.25 -7.2,3.89 -15.08,7.35 -23.05,10.31 -8.01,2.98 -16.36,5.3 -24.91,7.18 -8.61,1.64 -17.41,3.04 -26.48,3.27 -9.04,0.3 -18.28,-0.02 -27.56,-1.66 -4.65,-0.6 -9.26,-1.93 -13.89,-3.05 -4.56,-1.53 -9.19,-2.87 -13.63,-4.96 -17.95,-7.44 -34.28,-20.9 -45.34,-37.24 -11.15,-16.31 -17.76,-35.34 -19.14,-54.91 -0.69,-9.77 -0.02,-19.72 2.06,-29.35 2.07,-9.63 5.5,-18.76 9.92,-27.16 8.85,-16.83 21.74,-30.66 36.71,-40.68 7.49,-5.01 15.43,-9 23.58,-11.95 2.07,-0.66 4.13,-1.32 6.16,-1.97 2.05,-0.63 4.33,-1.06 6.47,-1.57 2.17,-0.54 4.32,-0.84 6.46,-1.1 2.14,-0.24 4.27,-0.63 6.36,-0.65 16.84,-1.04 32.34,2.29 46.03,8.45 13.56,6.36 25.58,15.89 33.45,28.26 1.89,3.14 3.79,6.18 5.08,9.54 0.7,1.64 1.4,3.27 2.01,4.9 0.48,1.68 0.95,3.35 1.41,5.01 1.85,6.61 2.4,13.57 1.97,19.82 -0.79,12.67 -4.96,23.49 -10.51,32.25 -5.49,8.82 -12.69,15.56 -20.25,20.41 -7.57,4.86 -15.79,7.58 -23.09,8.55 -7.34,1.03 -13.91,0.51 -19.58,-0.64 -11.37,-2.34 -19.21,-7.18 -24.57,-11.66 -5.36,-4.59 -8.18,-9.09 -9.79,-12.49 -0.74,-1.79 -1.21,-3.28 -1.46,-4.56 -0.19,-1.34 -0.19,-2.42 -0.06,-3.32 0.26,-1.79 1.04,-2.8 1.99,-3.44z"/>
  <path class="fil0" d="M2238.13 355.8c-0.8,-0.88 -2.18,-1.36 -4.3,-1.26 -2.11,0.1 -5.08,0.66 -9.17,1.25 -4.1,0.54 -9.4,0.98 -16.26,-0.1 -6.79,-1.1 -15.41,-3.93 -24.34,-10.25 -4.42,-3.16 -8.85,-7.22 -12.54,-12.22 -3.72,-4.95 -6.56,-10.88 -7.6,-17.14 -1.16,-7 -1.06,-15.06 1.34,-23.49 2.37,-8.42 6.54,-17.48 13.32,-26.01 6.58,-8.61 15.53,-16.72 26.19,-23.05 10.77,-6.01 23.76,-10.78 38.23,-12.59 3.58,-0.71 7.36,-0.59 11.11,-0.9 3.78,-0.22 7.66,0.17 11.56,0.16 7.8,0.81 15.89,1.8 23.9,4.2 8.12,2 16,5.47 23.86,9.3 3.73,2.26 7.76,4.19 11.29,6.91 1.78,1.32 3.77,2.43 5.45,3.91 1.72,1.44 3.45,2.89 5.19,4.35 13.46,12.08 23.72,27.84 29.17,46.58 5.57,18.58 6.25,39.54 1.86,59.6 -2.33,9.99 -5.78,19.76 -10.51,28.89 -4.93,9.01 -10.98,17.26 -18.19,24.56 -3.92,3.44 -7.55,7.27 -11.98,10.18l-3.18 2.36c-1.05,0.8 -2.1,1.61 -3.28,2.23l-6.87 4.07c-9.45,4.98 -19.5,9.33 -30.31,11.91 -21.39,5.87 -44.7,6.47 -67.54,4.01 -22.9,-2.64 -45.42,-9.06 -66.38,-18.04 -21.2,-9.47 -41.34,-21.14 -60.4,-33.97 -19.06,-12.87 -37.15,-26.68 -54.63,-40.41 -34.91,-27.51 -67.74,-54.46 -100.24,-74.83 -32.35,-20.43 -63.56,-34.9 -90.85,-42.61 -1.7,-0.5 -3.37,-1 -5.02,-1.5 -1.68,-0.4 -3.33,-0.81 -4.97,-1.2 -3.27,-0.77 -6.45,-1.52 -9.53,-2.24 -3.12,-0.55 -6.15,-1.08 -9.09,-1.6 -1.47,-0.26 -2.91,-0.51 -4.32,-0.76 -1.43,-0.16 -2.84,-0.32 -4.22,-0.47 -5.53,-0.61 -10.64,-1.25 -15.38,-1.3 -4.73,-0.18 -9.02,-0.45 -12.89,-0.2 -3.86,0.15 -7.28,0.2 -10.23,0.38 -2.94,0.32 -5.42,0.6 -7.42,0.82 -3.99,0.44 -6.08,0.67 -6.08,0.67 0,0 2.1,-0.05 6.12,-0.14 2,-0.05 4.48,-0.11 7.42,-0.18 2.94,0.07 6.33,0.3 10.14,0.47 3.82,0.06 8.05,0.68 12.67,1.25 4.64,0.42 9.61,1.47 14.95,2.5 1.34,0.26 2.69,0.52 4.08,0.79 1.37,0.35 2.75,0.71 4.16,1.08 2.82,0.73 5.72,1.48 8.72,2.26 2.95,0.95 5.98,1.92 9.1,2.92 1.55,0.51 3.12,1.02 4.72,1.55 1.57,0.61 3.16,1.22 4.77,1.84 25.85,9.56 54.91,25.85 84.79,47.92 29.97,21.97 60.17,50.49 93.52,80.54 16.72,15 34.34,30.34 53.48,45.05 19.16,14.68 40.05,28.56 62.87,40.33 23.31,11.6 48.53,20.3 75.03,24.75 26.47,4.23 54.32,5 81.83,-1.16 13.77,-2.72 27.28,-7.69 40.19,-13.92l9.51 -5.14c1.61,-0.81 3.11,-1.83 4.6,-2.85l4.49 -3.05c6.16,-3.84 11.5,-8.78 17.04,-13.46 10.74,-10.02 19.9,-21.68 27.19,-34.17 7.1,-12.61 12.29,-26.03 15.84,-39.73 6.79,-27.46 6.56,-56.15 -0.93,-82.81 -3.49,-13.39 -9.41,-26.07 -16.5,-37.8 -1.89,-2.88 -3.77,-5.75 -5.64,-8.6 -2.14,-2.66 -4.27,-5.32 -6.39,-7.97 -2.07,-2.71 -4.45,-5.08 -6.81,-7.47 -2.4,-2.33 -4.6,-4.89 -7.18,-6.96 -2.53,-2.12 -5.05,-4.23 -7.56,-6.32 -2.49,-2.11 -5.25,-3.78 -7.85,-5.65 -5.16,-3.82 -10.77,-6.65 -16.13,-9.74 -11.06,-5.44 -22.17,-10.04 -33.43,-12.78 -11.16,-3.14 -22.38,-4.49 -33.26,-5.33 -5.48,-0.01 -10.86,-0.33 -16.17,0.05 -5.31,0.47 -10.55,0.57 -15.66,1.6 -20.56,3.1 -39.11,10.35 -55.02,20.19 -15.71,10.16 -28.05,22.56 -37.24,35.97 -9.32,13.3 -15.21,27.91 -17.98,42.25 -0.41,1.77 -0.67,3.57 -0.84,5.38 -0.19,1.79 -0.39,3.57 -0.58,5.33 -0.22,3.54 -0.18,7.07 -0.16,10.48 0.33,3.44 0.53,6.8 1.08,10.06 0.69,3.28 1.2,6.35 2.12,9.57 3.78,13.12 10.77,23.26 18.16,30.74 7.42,7.55 15.36,12.7 22.95,16.32 15.27,7.17 29.21,8.3 39.85,6.76 10.72,-1.59 18.01,-5.67 22.44,-9.31 4.45,-3.73 6.38,-6.92 7.13,-9.19 0.74,-2.29 0.4,-3.61 -0.38,-4.46z"/>
  <path class="fil0" d="M2401.67 510.97c-1.24,-2.03 -4.02,-3.52 -9.88,-3.31 -2.95,0.06 -6.52,0.81 -11.4,1.35 -2.4,0.34 -5.04,0.81 -7.94,1.41 -2.98,0.41 -6.29,0.8 -9.86,1.4 -7.19,1.03 -15.82,1.87 -26.11,2.27 -10.35,0.04 -22.34,0.11 -36.34,-2 -13.96,-1.95 -29.85,-5.35 -47.48,-11.33 -17.64,-6.01 -36.91,-14.34 -57.19,-26.85 -20.6,-12.41 -41.56,-27.9 -62.71,-45.18 -21.17,-17.28 -42.52,-36.38 -64.5,-55.44 -10.97,-9.53 -22.13,-19.04 -33.5,-28.27 -11.35,-9.23 -22.63,-18.06 -34.2,-26.67 -23.05,-17.16 -46.72,-32.63 -70.36,-44.66 -23.58,-12.12 -46.87,-21.08 -68.3,-26.99 -10.81,-2.65 -20.92,-5.34 -30.58,-6.73 -4.81,-0.75 -9.37,-1.76 -13.84,-2.18 -4.45,-0.46 -8.72,-0.89 -12.78,-1.31 -2.02,-0.2 -4,-0.4 -5.91,-0.6 -1.93,-0.07 -3.81,-0.14 -5.64,-0.21 -3.64,-0.12 -7.06,-0.23 -10.26,-0.33 -6.37,-0.36 -11.85,-0.02 -16.29,0.15 -8.86,0.35 -13.7,0.54 -13.7,0.54 0,0 4.81,0.52 13.62,1.47 4.39,0.48 9.79,0.91 15.99,2.15 3.1,0.54 6.43,1.12 9.96,1.73 1.76,0.31 3.57,0.63 5.44,0.96 1.84,0.44 3.73,0.9 5.67,1.38 3.87,0.94 7.92,1.92 12.16,2.94 4.24,0.98 8.52,2.56 13.03,3.89 9.05,2.54 18.4,6.4 28.3,10.19 19.62,8.2 40.45,19.3 61.25,33.19 20.87,13.81 41.48,30.68 61.88,49.22 10.17,9.24 20.52,19.02 30.65,28.86 10.14,9.82 20.22,19.95 30.36,30.21 20.26,20.46 40.77,41.32 62.33,60.63 21.53,19.29 44.14,37.05 67.58,51.19 23.51,14.48 46.71,24.07 67.82,30.3 21.2,6.25 40.61,9.1 57.72,9.84 17.12,0.91 32,-1.04 44.42,-3.35 12.45,-2.68 22.53,-6.15 30.5,-9.88 3.97,-1.95 7.5,-3.7 10.56,-5.48 2.99,-1.97 5.57,-3.78 7.8,-5.46 4.52,-3.2 7.3,-6.52 9.23,-9.03 3.8,-5.11 3.73,-8.06 2.53,-10.02z"/>
  <path class="fil0" d="M1958.72 483.23c0.72,1.41 2.02,2.71 4.89,3.1 2.87,0.4 7.4,-0.1 13.85,-3.46 6.4,-3.33 14.8,-9.76 22.72,-21.63 7.55,-11.87 14.8,-29.41 14.32,-52.96 -0.36,-11.85 -3.04,-23.75 -7.54,-35.27 -4.57,-11.46 -10.94,-22.28 -18.47,-31.91 -7.49,-9.68 -16.1,-18.18 -25.03,-25.54 -8.98,-7.32 -18.17,-13.46 -27.07,-18.63 -17.8,-10.35 -34.08,-17.2 -45.68,-22.02 -11.62,-4.77 -18.66,-7.43 -18.66,-7.43 0,0 6.13,4.4 16.28,11.7 10.11,7.33 24.32,17.56 38.91,30.44 14.64,12.82 29.19,28.65 39.46,46.39 5.19,8.81 9.25,18 12.05,27.04 2.72,8.99 4.25,18.08 4.47,26.12 0.33,16.45 -3.78,29.15 -7.63,38.34 -4.13,9.14 -8.19,15.23 -11.18,19.78 -3,4.57 -4.94,7.71 -5.79,10.19 -0.85,2.51 -0.6,4.37 0.1,5.73z"/>
  <path class="fil0" d="M1916.56 542.89c-1.46,0.62 -2.73,2.06 -2.78,6 0,0.98 0.03,2.14 0.25,3.44 0.28,1.26 0.68,2.7 1.22,4.34 0.29,0.83 0.6,1.7 0.92,2.61 0.39,0.89 0.88,1.78 1.38,2.76 1.05,1.9 2.16,4.16 3.84,6.26 1.61,2.18 3.44,4.62 5.82,6.89 2.25,2.46 5.03,4.72 8.16,7.15 6.34,4.62 14.47,9.14 24.74,12.25 10.24,3.07 22.67,4.79 36.92,2.99 1.77,-0.25 3.57,-0.63 5.39,-0.97 1.83,-0.34 3.68,-0.71 5.52,-1.31 1.85,-0.56 3.72,-1.13 5.63,-1.7 1.8,-0.73 3.63,-1.47 5.48,-2.22 7.31,-3.21 14.71,-7.4 21.61,-12.92 13.79,-11.01 25.21,-26.06 32.51,-43.21 3.66,-8.58 6.36,-17.66 7.97,-27 1.63,-9.39 2.06,-18.86 1.56,-28.16 -0.97,-18.65 -5.89,-36.54 -12.85,-52.51 -6.96,-16.01 -15.91,-30.29 -25.53,-42.52 -19.26,-24.48 -39.96,-41.46 -54.66,-53.25 -7.41,-5.86 -13.44,-10.38 -17.6,-13.47 -4.17,-3.07 -6.45,-4.74 -6.45,-4.74 0,0 1.97,2.03 5.57,5.75 3.59,3.73 8.81,9.15 15.17,16.04 12.6,13.8 30.21,33.45 45.07,58.51 7.42,12.46 13.87,26.39 18.4,41.14 4.55,14.72 7.05,30.3 6.49,45.45 -0.45,15.22 -4.08,29.5 -10.38,42.3 -6.24,12.77 -15.08,23.41 -24.69,31.12 -4.82,3.87 -9.84,6.72 -14.72,9.02 -1.24,0.54 -2.45,1.07 -3.65,1.6 -1.2,0.39 -2.38,0.78 -3.54,1.17 -1.14,0.45 -2.33,0.72 -3.51,0.97 -1.18,0.26 -2.32,0.59 -3.47,0.81 -9.3,1.6 -17.97,1.17 -25.35,-0.19 -7.41,-1.36 -13.54,-3.63 -18.64,-5.93 -2.49,-1.25 -4.85,-2.34 -6.82,-3.63 -2.13,-1.12 -3.84,-2.4 -5.51,-3.51 -1.75,-1.04 -3.03,-2.26 -4.4,-3.22 -0.67,-0.49 -1.31,-0.96 -1.93,-1.41 -0.56,-0.48 -1.1,-0.93 -1.61,-1.36 -1.05,-0.85 -2.03,-1.58 -2.95,-2.2 -0.86,-0.66 -1.58,-1.24 -2.3,-1.7 -2.86,-1.86 -4.89,-2.04 -6.3,-1.44z"/>
  <path class="fil0" d="M2038.52 222.98c-1.81,-2.6 -5.67,-4.76 -14.82,-2.53 -9.38,1.82 -23.86,8.36 -50.93,16.31 -13.61,3.71 -29.17,7.33 -45.23,9.38 -16.04,2.11 -32.51,2.61 -47.31,1.69 -14.82,-0.85 -27.78,-3.5 -37.12,-5.53 -4.64,-1.11 -8.28,-2.27 -10.86,-2.94 -2.57,-0.7 -3.97,-1.09 -3.97,-1.09 0,0 1.2,0.82 3.39,2.3 2.23,1.44 5.4,3.74 9.59,6.25 8.44,4.83 20.69,11.43 35.91,16.35 15.15,4.98 33.09,8.61 51.38,9.35 18.27,0.82 36.77,-1.27 52.59,-5.61 3.92,-1.2 7.61,-2.39 11.08,-3.54 3.5,-1.08 6.61,-2.62 9.61,-3.85 6.02,-2.44 10.97,-5.32 15.25,-7.85 4.34,-2.42 7.69,-5.18 10.55,-7.47 2.84,-2.35 5.13,-4.36 6.76,-6.46 6.68,-8.09 5.87,-12.24 4.13,-14.76z"/>
  <path class="fil0" d="M2287.34 273.79c0,0 0.51,0.62 1.46,1.76 0.92,1.19 2.44,2.67 4.02,4.93 3.37,4.26 7.6,10.79 11.41,18.97 7.76,16.24 12.51,40.34 7.17,63.28 -5.38,22.93 -20.32,42.43 -34.47,53.54 -7.04,5.64 -13.72,9.62 -18.63,11.95 -2.43,1.32 -4.44,1.97 -5.79,2.64 -1.36,0.6 -2.09,0.93 -2.09,0.93 0,0 0.78,0.14 2.23,0.4 1.47,0.19 3.7,0.74 6.55,0.83 5.76,0.49 14.33,0.16 24.7,-2.74 5.19,-1.43 10.69,-3.69 16.4,-6.69 5.57,-3.17 11.44,-7 16.84,-12.05 10.9,-9.88 20.54,-24.28 24.73,-41.69 3.96,-17.46 1.7,-34.64 -3.69,-48.33 -2.6,-6.92 -6.16,-12.96 -9.75,-18.27 -3.79,-5.22 -7.72,-9.68 -11.74,-13.26 -8.01,-7.2 -15.55,-11.29 -20.92,-13.41 -2.61,-1.19 -4.85,-1.68 -6.25,-2.16 -1.42,-0.41 -2.18,-0.63 -2.18,-0.63z"/>
  <path class="fil0" d="M2204.81 280.75c0,0 0.55,0.15 1.55,0.42 1.01,0.31 2.44,0.56 4.24,1.17 3.59,1.03 8.54,2.89 13.85,5.58 10.77,5.33 22.46,14.86 30.8,26.24 8.39,11.35 14.01,25.34 15.9,37.21 1,5.87 1.3,11.15 1.21,14.88 0.05,1.9 -0.14,3.35 -0.14,4.4 -0.04,1.04 -0.06,1.6 -0.06,1.6 0,0 0.44,-0.35 1.25,-0.98 0.78,-0.68 2.08,-1.62 3.44,-3.07 2.88,-2.82 6.6,-7.48 9.75,-14.3 3.14,-6.78 5.42,-15.81 5.01,-26.17 -0.37,-10.29 -3.74,-21.95 -11.14,-32.12 -7.51,-10.08 -17.64,-16.77 -27.35,-20.19 -9.77,-3.48 -19.07,-3.98 -26.48,-3 -7.45,0.97 -13.01,3.15 -16.55,5.05 -1.79,0.86 -3.08,1.83 -3.95,2.37 -0.85,0.58 -1.31,0.9 -1.31,0.9z"/>
  <path class="fil0" d="M2097.14 370.54c0,0 -1.22,-2.92 -3.76,-8.1 -0.65,-1.3 -1.37,-2.74 -2.16,-4.3 -0.83,-1.54 -1.82,-3.15 -2.87,-4.92 -2.13,-3.49 -4.5,-7.58 -7.62,-11.68 -1.56,-2.09 -3.18,-4.27 -4.86,-6.53 -1.73,-2.25 -3.71,-4.41 -5.71,-6.72 -3.96,-4.69 -8.67,-9.19 -13.71,-13.91 -10.28,-9.14 -22.69,-18.1 -36.89,-25.34 -14.27,-7.12 -28.85,-11.77 -42.31,-14.62 -6.79,-1.25 -13.21,-2.36 -19.33,-2.76 -3.05,-0.23 -5.96,-0.54 -8.8,-0.6 -2.81,-0.01 -5.53,-0.02 -8.14,-0.03 -5.15,-0.07 -9.85,0.46 -13.92,0.81 -2.04,0.21 -3.92,0.37 -5.66,0.62 -1.72,0.3 -3.31,0.58 -4.74,0.83 -5.67,1.04 -8.75,1.79 -8.75,1.79 0,0 3.01,1.21 8.34,3.09 1.33,0.46 2.81,0.97 4.41,1.52 1.6,0.62 3.33,1.28 5.18,1.99 3.69,1.44 7.89,2.82 12.41,4.77 2.27,0.9 4.64,1.83 7.08,2.8 2.45,0.96 4.95,2.14 7.55,3.21 5.23,2.06 10.64,4.68 16.36,7.13 11.34,5.25 23.53,11.07 36.22,17.4 12.63,6.45 24.55,12.79 35.52,18.79 5.37,3.15 10.69,5.94 15.45,8.92 2.41,1.46 4.84,2.76 7.07,4.16 2.23,1.4 4.39,2.74 6.46,4.03 4.25,2.48 7.85,5.03 11.21,7.14 1.67,1.07 3.23,2.06 4.68,2.98 1.4,0.96 2.69,1.85 3.85,2.64 4.68,3.17 7.44,4.88 7.44,4.88z"/>
  <path class="fil0" d="M1928.01 418.91c0,0 -2.89,-3.19 -8.13,-8.31 -5.19,-5.05 -12.6,-12.25 -21.55,-20.95 -4.42,-4.23 -9.22,-8.81 -14.33,-13.7 -5.16,-4.7 -10.42,-9.96 -16.12,-15.03 -11.21,-10.47 -23.45,-21.34 -36.77,-32.1 -13.22,-10.88 -26.33,-20.68 -38.84,-29.56 -6.11,-4.56 -12.32,-8.66 -17.96,-12.77 -5.82,-4.02 -11.27,-7.8 -16.31,-11.28 -10.32,-7.02 -18.87,-12.83 -24.86,-16.9 -6.07,-4.1 -9.78,-6.3 -9.78,-6.3 0,0 0.33,4.17 1.55,11.58 0.33,1.86 0.7,3.92 1.1,6.16 0.46,2.23 1.08,4.59 1.73,7.15 1.35,5.09 2.89,10.99 5.26,17.14 1.14,3.11 2.39,6.35 3.75,9.72 1.38,3.35 3.04,6.68 4.74,10.19 3.33,7.07 7.6,14.14 12.31,21.5 9.69,14.45 22.24,29.14 37.75,41.88 15.59,12.63 32.51,21.96 48.61,28.56 8.16,3.14 15.95,5.89 23.54,7.73 3.77,0.95 7.37,1.91 10.94,2.59 3.57,0.66 7,1.23 10.27,1.72 6.5,1.09 12.58,1.4 17.85,1.71 2.64,0.13 5.08,0.25 7.35,0.25 2.28,-0.06 4.37,-0.11 6.25,-0.16 7.5,-0.3 11.65,-0.82 11.65,-0.82z"/>
  <path class="fil0" d="M1847.91 520.11c0,0 -7.71,-52.77 -41.12,-101.5 -33.4,-48.73 -79.83,-74.96 -79.83,-74.96 0,0 7.72,52.77 41.11,101.5 33.4,48.73 79.84,74.96 79.84,74.96z"/>
  <path class="fil0" d="M1723.19 574.44c22.15,-32.24 15.95,-54.34 15.95,-54.34 0,0 5.86,13.85 29.31,13.85 23.45,0 34.2,-30.51 34.2,-30.51 -57.64,-17.21 -79.46,-71.58 -79.46,-71.58 0,0 -21.81,54.37 -79.45,71.58 0,0 10.75,30.51 34.2,30.51 23.45,0 29.31,-13.85 29.31,-13.85 0,0 -6.2,22.1 15.95,54.34z"/>
  <path class="fil0" d="M1826.67 426.78c-0.35,0 -0.7,0 -1.05,0 -4.1,0 -8.03,-3.61 -7.84,-7.84 0.19,-4.25 3.44,-7.84 7.84,-7.84 0.35,0 0.7,0 1.05,0 4.1,0 8.03,3.6 7.84,7.84 -0.19,4.25 -3.44,7.84 -7.84,7.84l0 0z"/>
  <path class="fil0" d="M1848.62 423.65c10.09,0 10.11,15.68 0,15.68 -10.09,0 -10.1,-15.68 0,-15.68l0 0z"/>
  <path class="fil0" d="M1876.85 430.96c10.09,0 10.1,15.68 0,15.68 -10.09,0 -10.1,-15.68 0,-15.68l0 0z"/>
  <path class="fil0" d="M1904.02 428.87c10.09,0 10.1,15.68 0,15.68 -10.09,0 -10.1,-15.68 0,-15.68l0 0z"/>
  <path class="fil0" d="M1954.19 540.72c0.35,0 0.7,0 1.05,0 4.1,0 8.03,3.6 7.84,7.84 -0.19,4.25 -3.45,7.84 -7.84,7.84 -0.35,0 -0.7,0 -1.05,0 -4.1,0 -8.03,-3.61 -7.84,-7.84 0.19,-4.25 3.44,-7.84 7.84,-7.84l0 0z"/>
  <path class="fil0" d="M1978.24 544.89c10.09,0 10.1,15.68 0,15.68 -10.09,0 -10.1,-15.68 0,-15.68l0 0z"/>
  <path class="fil0" d="M2003.32 537.58c10.09,0 10.1,15.68 0,15.68 -10.09,0 -10.1,-15.68 0,-15.68l0 0z"/>
  <path class="fil0" d="M2022.14 511.45c10.09,0 10.1,15.68 0,15.68 -10.09,0 -10.1,-15.68 0,-15.68l0 0z"/>
  <path class="fil0" d="M2359.16 528.9c0,0 -0.8,0.4 -2.32,1.15 -1.55,0.7 -3.63,2.04 -6.63,3.24 -5.78,2.72 -14.54,5.94 -25.77,8.45 -11.22,2.56 -25.12,3.9 -40.65,3.21 -15.52,-0.72 -32.65,-3.73 -49.85,-9.27 -34.92,-11.51 -64.58,-30.68 -85.44,-45.78 -10.45,-7.57 -18.8,-14.09 -24.53,-18.69 -5.75,-4.61 -8.93,-7.17 -8.93,-7.17 0,0 2.72,3.05 7.81,8.39 5.08,5.34 12.59,12.89 22.33,21.6 9.74,8.71 21.81,18.47 36.13,27.74 14.29,9.28 30.95,17.87 49.33,23.97 18.26,5.89 36.59,8.4 53,8.14 16.43,-0.29 30.89,-3.08 42.21,-7.04 11.35,-3.92 19.76,-8.46 25.14,-12.1 2.8,-1.65 4.67,-3.36 6.07,-4.3 1.36,-1.01 2.07,-1.54 2.07,-1.54z"/>
  <path class="fil0" d="M2355.64 556.94c0,0 -0.88,0.33 -2.58,0.92 -1.7,0.57 -4.16,1.51 -7.37,2.55 -6.48,1.93 -15.89,4.51 -27.72,6.1 -23.58,3.29 -56.89,1.92 -91.05,-9.32 -34.2,-11.26 -62.54,-28.46 -82.37,-41.67 -9.92,-6.66 -17.74,-12.41 -23.17,-16.36 -5.39,-4.02 -8.37,-6.23 -8.37,-6.23 0,0 2.6,2.67 7.3,7.49 4.81,4.72 11.82,11.52 21.06,19.33 9.25,7.8 20.77,16.61 34.54,25.08 13.71,8.52 29.84,16.48 47.72,22.43 18.01,5.77 35.95,8.7 52.31,8.98 16.36,0.39 31.07,-1.54 43.02,-4.52 11.98,-2.96 21.16,-6.89 27.35,-9.76 3.07,-1.52 5.37,-2.84 6.95,-3.67 1.58,-0.85 2.39,-1.33 2.39,-1.33z"/>
  <path class="fil0" d="M2327.97 587.54c0,0 -0.78,0.12 -2.26,0.36 -1.48,0.27 -3.67,0.54 -6.49,0.82 -2.82,0.28 -6.25,0.76 -10.24,0.91 -1.99,0.12 -4.12,0.24 -6.37,0.37 -2.25,0.03 -4.62,0.05 -7.12,0.08 -9.95,-0 -21.73,-0.58 -34.55,-2.52 -12.81,-1.93 -26.67,-5.06 -40.82,-9.67 -28.04,-9.21 -51.44,-21.65 -67.7,-31.29 -8.18,-4.79 -14.58,-8.95 -19.02,-11.8 -2.23,-1.42 -3.93,-2.55 -5.08,-3.33 -1.15,-0.76 -1.76,-1.17 -1.76,-1.17 0,0 0.54,0.49 1.58,1.41 1.03,0.93 2.56,2.29 4.6,3.97 4.05,3.4 9.96,8.29 17.74,13.88 15.4,11.2 38.51,25.55 67.44,35.06 14.61,4.77 29.04,7.56 42.29,8.87 13.26,1.33 25.35,1.02 35.44,0.13 2.52,-0.26 4.92,-0.51 7.19,-0.75 2.26,-0.36 4.4,-0.7 6.39,-1.01 3.99,-0.56 7.39,-1.44 10.16,-2.05 2.78,-0.61 4.92,-1.15 6.36,-1.61 1.44,-0.43 2.2,-0.65 2.2,-0.65z"/>
  <path class="fil0" d="M1900.18 329.41c0,0 -23.43,-29.32 -61.02,-48.24 -37.59,-18.92 -75.09,-20.28 -75.09,-20.28 0,0 23.43,29.32 61.02,48.24 37.59,18.92 75.09,20.28 75.09,20.28z"/>
  <path class="fil0" d="M1841.1 75.42c0.57,2.19 -2.73,4.45 -6.25,8.93 -0.43,0.56 -0.88,1.14 -1.35,1.75 -0.4,0.67 -0.82,1.38 -1.25,2.11 -0.48,0.66 -0.83,1.49 -1.21,2.33 -0.36,0.85 -0.86,1.6 -1.11,2.58 -1.42,3.6 -2.32,8.06 -2.27,12.89 0.03,4.8 1.01,10.08 3.5,14.48 0.66,1.06 1.2,2.23 2.06,3.12 0.4,0.47 0.74,1 1.15,1.45 0.47,0.4 0.92,0.81 1.36,1.24 0.76,0.92 2.12,1.56 3.13,2.41 1.22,0.63 2.37,1.4 3.7,1.9 10.21,4.71 26.09,2.35 36.61,-6.51 1.39,-1.01 2.45,-2.32 3.67,-3.49 1.01,-1.33 2.12,-2.53 3.02,-4.11 1.92,-2.98 3.49,-6.26 4.52,-9.81 2.23,-7.04 2.62,-15 1.45,-22.79 -1.19,-7.81 -4.03,-15.43 -8.12,-22.04 -2.15,-3.36 -4.58,-6.56 -7.24,-9.56 -2.72,-2.96 -5.66,-5.72 -8.76,-8.28 -12.5,-10.15 -27.83,-16.67 -41.83,-20.28 -14.02,-3.41 -27.55,-3.51 -38.65,-2.15 -11.41,1.33 -22.64,4.32 -33.04,8.96 -10.42,4.57 -19.99,10.88 -27.78,18.75 -7.81,7.83 -13.7,17.34 -16.59,27.79 -1.47,5.21 -2.27,10.64 -2.27,16.1 -0.12,1.36 -0.04,2.73 0.1,4.09l0.3 4.09c0.4,2.71 0.9,5.42 1.5,8.1 5.55,21.48 21.25,40.47 40.9,52.65 9.88,6.2 20.53,10.67 32.04,13.47 11.49,2.78 23.43,4.02 35.51,4.12 30.39,0.13 60.85,-6.87 91.21,-14.92 30.4,-7.98 60.57,-17.42 90.83,-27.02 60.49,-19.23 121.46,-39.86 185.58,-52.77 32.03,-6.46 64.76,-10.75 97.89,-12.12 33.13,-1.16 66.76,0.49 99.96,6.96 8.32,1.41 16.53,3.58 24.77,5.55 4.12,1.03 8.16,2.36 12.24,3.54 4.08,1.21 8.16,2.39 12.15,3.91l12.03 4.33c3.97,1.56 7.87,3.3 11.81,4.96l5.89 2.52c1.96,0.88 3.87,1.91 5.81,2.87l11.58 5.86c3.75,2.14 7.44,4.38 11.15,6.58l5.56 3.33 5.34 3.65 10.62 7.37 10.12 8.04 5.04 4.04 4.78 4.35 9.51 8.74 8.91 9.35 4.43 4.69 4.13 4.98c15.98,18.85 29.04,40 37.94,60.89 9.11,20.82 13.3,41.53 14.66,58.38 0.25,4.09 0.42,7.91 0.52,11.47 0.02,3.57 -0.39,6.94 -0.62,10.01 -0.29,3.08 -0.61,5.89 -0.97,8.45 -0.32,2.55 -1.12,4.86 -1.67,6.9 -2.43,8.16 -4.97,12.19 -7.4,12.44 -2.43,0.26 -4.79,-3.24 -6.9,-10.1 -1.05,-3.43 -1.89,-7.7 -3.47,-12.78 -1.44,-5.07 -2.53,-10.99 -4.78,-17.58 -0.86,-2.86 -1.71,-5.84 -2.56,-8.92 -1.11,-3.02 -2.25,-6.15 -3.44,-9.37 -2,-6.51 -5.39,-13.04 -8.19,-20.01 -6.67,-13.61 -14.74,-27.96 -24.84,-41.84 -10.25,-13.76 -22.16,-27.1 -35.24,-39.23 -13.07,-12.15 -27.59,-22.62 -42.09,-31.6l-9.7 -5.76 -10.02 -5.09 -5.01 -2.55 -5.22 -2.26c-3.49,-1.49 -6.94,-3.06 -10.44,-4.51 -7.15,-2.55 -14.14,-5.51 -21.46,-7.61 -3.64,-1.1 -7.21,-2.38 -10.89,-3.36l-11.04 -2.9c-14.8,-3.58 -29.8,-6.51 -45.03,-8.28 -15.18,-2.02 -30.55,-2.94 -45.95,-3.37 -61.78,-1.58 -123.7,8.49 -185.11,22.81 -61.5,14.29 -122.74,32.7 -185.8,47.38 -31.4,7.2 -63.63,14.58 -97.35,15.27 -16.8,0.28 -33.93,-1.22 -50.56,-5.74 -16.75,-4.4 -32.75,-12.5 -46.31,-23.53 -5.82,-4.52 -12.12,-10.68 -18.42,-18.42 -6.23,-7.78 -12.29,-17.47 -16.31,-29.26 -4.03,-11.73 -5.78,-25.68 -3.34,-40 2.39,-14.34 9.46,-28.76 20.04,-40.41 10.54,-11.73 24.17,-20.89 39.14,-27.27 15,-6.37 31.43,-10.06 48.28,-10.68 8.43,-0.3 16.97,0.18 25.46,1.61 4.22,0.73 8.51,1.67 12.61,2.82 4.08,1.12 8.11,2.47 12.09,3.95 15.88,5.99 31.12,15.06 43.27,27.84 6.01,6.38 11.23,13.67 15.13,21.75 3.83,8.03 6.25,16.55 7.33,25.18 2.17,17.16 -1.7,35.47 -12.21,49.31 -5.4,7.1 -12.24,12.43 -19.46,16.12 -7.24,3.7 -14.92,5.82 -22.57,6.46 -7.64,0.63 -15.3,-0.26 -22.32,-2.74 -7.04,-2.5 -13.23,-6.51 -18.09,-11.72 -4.93,-5.3 -8.07,-11.5 -9.53,-17.43 -1.47,-5.94 -1.88,-11.63 -1.24,-16.8 1.08,-10.36 5.45,-18.65 10.39,-24.08 5.03,-5.5 10.62,-7.84 14.33,-8.5 3.87,-0.43 5.89,0.28 6.21,1.55z"/>
  <path class="fil0" d="M1937.47 129.93c10.09,0 10.1,15.68 0,15.68 -10.09,0 -10.11,-15.68 0,-15.68l0 0z"/>
  <path class="fil0" d="M1965.69 118.43c10.09,0 10.1,15.68 0,15.68 -10.09,0 -10.1,-15.68 0,-15.68l0 0z"/>
  <path class="fil0" d="M1992.87 109.02c10.09,0 10.1,15.68 0,15.68 -10.09,0 -10.1,-15.68 0,-15.68l0 0z"/>
  <path class="fil0" d="M2027.88 106.41c0,0.35 0,0.7 0,1.05 0,4.1 -3.61,8.03 -7.84,7.84 -4.25,-0.19 -7.84,-3.44 -7.84,-7.84 0,-0.35 0,-0.7 0,-1.05 0,-4.1 3.61,-8.03 7.84,-7.84 4.25,0.19 7.84,3.44 7.84,7.84l0 0z"/>
  <path class="fil0" d="M2049.31 95.44c10.09,0 10.1,15.68 0,15.68 -10.09,0 -10.1,-15.68 0,-15.68l0 0z"/>
  <path class="fil0" d="M2530.94 446.31c2.24,0.79 4.91,1.17 8.08,0.01 3.15,-1.17 6.95,-3.83 10.82,-9.39 3.93,-5.53 8.06,-13.97 11.07,-26.54 2.98,-12.53 4.77,-29.32 2.15,-50.54 -2.69,-21.16 -10.78,-44.43 -23.66,-64.55 -12.74,-20.19 -29.81,-36.73 -46.46,-48.36 -16.67,-11.75 -32.93,-18.54 -44.56,-22.34 -5.86,-1.85 -10.55,-3.12 -13.83,-3.78 -3.24,-0.7 -5.02,-1.08 -5.02,-1.08 0,0 1.48,1.04 4.2,2.93 2.73,1.82 6.56,4.72 11.16,8.39 9.14,7.44 21.1,18.61 31.94,32.96 10.9,14.29 20.73,31.53 27.31,49.36 6.67,17.79 10.22,36.09 12.33,52.42 2.02,16.37 2.23,29.3 2.48,39.54 0.25,10.25 0.58,17.88 1.43,23.65 0.94,5.8 2.3,9.71 4.21,12.4 1.88,2.7 4.16,4.13 6.33,4.9z"/>
  <path class="fil0" d="M2761.19 144.67c-0.98,-0.66 -2.29,-1.01 -3.99,-0.9 -0.85,0.06 -1.79,0.23 -2.82,0.52 -1.1,0.24 -2.32,0.59 -3.63,1.08 -2.77,0.82 -6.06,2.11 -10.42,3.14 -4.33,0.98 -9.77,1.87 -15.99,1.3 -3.09,-0.27 -6.36,-0.9 -9.48,-2.15 -3.15,-1.23 -5.98,-2.96 -8.74,-5.56 -2.7,-2.6 -5.41,-5.92 -7.24,-10.14 -1.92,-4.13 -3.03,-9.01 -2.79,-13.67 0.09,-2.37 0.47,-4.48 1.39,-6.71 0.22,-0.56 0.42,-1.13 0.59,-1.71l0.89 -1.62c0.44,-1.15 1.35,-2.13 2.04,-3.22 3.07,-4.24 8.42,-8.24 15.32,-11.21 3.53,-1.36 7.37,-2.54 11.5,-3.2 4.11,-0.54 8.44,-0.96 12.72,-0.5 1.1,-0.02 2.12,0.28 3.18,0.39 1.07,0.13 2.14,0.27 3.14,0.58 1.04,0.29 2.02,0.41 3.14,0.78 1.12,0.37 2.25,0.74 3.39,1.11 4.51,1.7 9.03,3.98 13.38,6.89 8.7,5.8 16.58,14 21.95,23.71 5.43,9.74 8.27,20.45 7.96,32.07 -0.28,11.56 -3.72,23.64 -9.97,34.02 -3.12,5.19 -6.92,9.95 -11.28,14.04l-1.63 1.54 -1.81 1.41c-1.22,0.92 -2.38,1.94 -3.64,2.83 -2.63,1.63 -5.15,3.47 -8.03,4.79 -2.71,1.6 -5.77,2.64 -8.71,3.94 -3.11,0.94 -6.13,2.16 -9.41,2.79 -6.41,1.68 -13.21,2.44 -20.08,2.78 -6.89,0.42 -13.91,-0.15 -20.9,-0.85 -6.98,-0.94 -13.96,-2.21 -20.78,-4.09 -6.85,-1.89 -13.44,-4.06 -20.05,-6.88 -6.64,-2.69 -13.11,-5.84 -19.48,-9.14 -12.72,-6.68 -24.93,-14.22 -36.72,-21.95 -23.58,-15.46 -45.75,-31.2 -67.39,-43.11 -21.54,-11.98 -42.22,-19.99 -59.98,-24.16 -8.87,-2.17 -17.05,-3.13 -24.15,-3.77 -7.14,-0.42 -13.25,-0.36 -18.19,0 -2.46,0.23 -4.64,0.43 -6.53,0.61 -1.87,0.3 -3.45,0.56 -4.72,0.77 -2.54,0.42 -3.86,0.65 -3.86,0.65 0,0 1.34,-0.04 3.91,-0.12 1.28,-0.04 2.86,-0.08 4.73,-0.13 1.87,0.07 4.04,0.16 6.48,0.25 4.86,0.28 10.8,1 17.6,2.28 6.77,1.5 14.44,3.39 22.62,6.5 16.41,6.06 35.01,15.97 54.19,29.71 19.23,13.64 39.02,31.23 61.45,49.49 11.22,9.13 23.24,18.35 36.43,26.99 6.62,4.28 13.49,8.47 20.77,12.25 7.2,3.89 15.08,7.35 23.04,10.31 8.01,2.98 16.36,5.3 24.92,7.18 8.61,1.64 17.41,3.04 26.48,3.27 9.04,0.3 18.28,-0.02 27.56,-1.66 4.65,-0.6 9.26,-1.93 13.89,-3.05 4.56,-1.53 9.19,-2.87 13.63,-4.96 17.95,-7.44 34.28,-20.9 45.34,-37.24 11.15,-16.31 17.76,-35.34 19.14,-54.91 0.69,-9.77 0.02,-19.72 -2.06,-29.35 -2.08,-9.63 -5.5,-18.76 -9.92,-27.16 -8.85,-16.83 -21.73,-30.66 -36.7,-40.68 -7.49,-5.01 -15.43,-9 -23.58,-11.95 -2.07,-0.66 -4.13,-1.32 -6.16,-1.97 -2.05,-0.63 -4.33,-1.06 -6.47,-1.57 -2.17,-0.54 -4.32,-0.84 -6.46,-1.1 -2.13,-0.24 -4.27,-0.63 -6.37,-0.65 -16.84,-1.04 -32.34,2.29 -46.03,8.45 -13.56,6.36 -25.58,15.89 -33.45,28.26 -1.89,3.14 -3.79,6.18 -5.08,9.54 -0.7,1.64 -1.4,3.27 -2.01,4.9 -0.47,1.68 -0.95,3.35 -1.41,5.01 -1.85,6.61 -2.4,13.57 -1.97,19.82 0.8,12.67 4.96,23.49 10.51,32.25 5.49,8.82 12.7,15.56 20.25,20.41 7.57,4.86 15.79,7.58 23.09,8.55 7.34,1.03 13.91,0.51 19.58,-0.64 11.37,-2.34 19.22,-7.18 24.57,-11.66 5.36,-4.59 8.17,-9.09 9.78,-12.49 0.74,-1.79 1.21,-3.28 1.46,-4.56 0.19,-1.34 0.19,-2.42 0.06,-3.32 -0.26,-1.79 -1.04,-2.8 -1.99,-3.44z"/>
  <polygon class="fil0" points="50.6,113.1 3396.53,113.1 3396.53,102.94 50.6,102.94 "/>
  <path class="fil0" d="M3380.98 189.97c0,0 -1.34,-1.12 -3.53,-3.17 -2.11,-2.03 -5.2,-4.92 -8.87,-8.42 -1.78,-1.73 -3.75,-3.6 -5.83,-5.6 -1.97,-2.02 -4.19,-4.07 -6.38,-6.31 -4.42,-4.38 -9.05,-9.18 -13.66,-14.41 -4.64,-5.2 -8.87,-10.36 -12.65,-15.3 -1.97,-2.41 -3.75,-4.87 -5.53,-7.09 -1.71,-2.29 -3.34,-4.45 -4.86,-6.44 -3.01,-4.08 -5.53,-7.46 -7.27,-9.83 -1.78,-2.4 -2.72,-3.87 -2.72,-3.87 0,0 1.69,0.06 4.73,0.43 0.78,0.1 1.6,0.22 2.52,0.34 0.93,0.15 1.89,0.36 2.93,0.58 2.12,0.47 4.53,0.99 7.09,1.86 1.26,0.41 2.6,0.86 4.01,1.36 1.37,0.5 2.75,1.12 4.23,1.76 2.89,1.24 5.86,2.85 8.94,4.65 6.05,3.7 12.21,8.56 17.66,14.65 5.38,6.13 9.46,12.86 12.43,19.29 1.41,3.27 2.64,6.39 3.53,9.44 0.44,1.52 0.89,2.97 1.22,4.41 0.33,1.44 0.63,2.83 0.89,4.15 0.56,2.62 0.78,5.1 1,7.23 0.07,1.07 0.19,2.06 0.22,2.99 0,0.93 0.04,1.78 0.04,2.55 0,3.06 -0.15,4.75 -0.15,4.75z"/>
  <path class="fil0" d="M3420.5 158.79c0,0 -21.49,-3.14 -41.34,-16.74 -19.82,-13.59 -30.5,-32.5 -30.5,-32.5 0,0 21.49,3.14 41.3,16.74 19.85,13.6 30.54,32.5 30.54,32.5z"/>
  <path class="fil0" d="M3382.5 150.14c0,-0.14 0,-0.29 0,-0.43 0,-1.67 -1.48,-3.27 -3.19,-3.19 -1.74,0.08 -3.19,1.4 -3.19,3.19 0,0.14 0,0.28 0,0.43 0,1.67 1.48,3.27 3.19,3.19 1.74,-0.08 3.19,-1.4 3.19,-3.19l0 0z"/>
  <path class="fil0" d="M3381.24 159.08c0,4.11 6.38,4.12 6.38,0 0,-4.1 -6.38,-4.11 -6.38,0l0 0z"/>
  <path class="fil0" d="M3384.21 170.57c0,4.11 6.38,4.11 6.38,0 0,-4.11 -6.38,-4.11 -6.38,0l0 0z"/>
  <path class="fil0" d="M3383.36 181.63c0,4.11 6.38,4.11 6.38,0 0,-4.11 -6.38,-4.11 -6.38,0l0 0z"/>
  <path class="fil0" d="M3342.87 180.07c0,0 -11.95,-9.54 -19.63,-24.84 -7.72,-15.3 -8.28,-30.57 -8.28,-30.57 0,0 11.95,9.54 19.63,24.84 7.72,15.3 8.27,30.57 8.27,30.57z"/>
  <path class="fil0" d="M3379.31 24.65c0,0 -1.3,1.18 -3.38,3.31 -2.08,2.11 -5.01,5.13 -8.54,8.77 -1.74,1.8 -3.6,3.76 -5.6,5.83 -1.89,2.1 -4.04,4.24 -6.09,6.56 -4.27,4.57 -8.68,9.55 -13.06,14.97 -4.45,5.38 -8.42,10.72 -12.06,15.81 -1.86,2.49 -3.53,5.02 -5.2,7.31 -1.63,2.36 -3.15,4.59 -4.6,6.64 -2.86,4.2 -5.2,7.68 -6.86,10.12 -1.67,2.47 -2.56,3.98 -2.56,3.98 0,0 1.71,-0.13 4.71,-0.63 0.74,-0.13 1.6,-0.28 2.52,-0.44 0.89,-0.19 1.86,-0.44 2.89,-0.7 2.08,-0.55 4.49,-1.18 6.98,-2.14 1.26,-0.46 2.6,-0.97 3.97,-1.53 1.34,-0.56 2.71,-1.24 4.12,-1.93 2.89,-1.35 5.75,-3.09 8.76,-5.01 5.9,-3.95 11.88,-9.05 17.07,-15.37 5.12,-6.35 8.94,-13.23 11.62,-19.79 1.26,-3.32 2.37,-6.49 3.15,-9.58 0.37,-1.54 0.78,-3 1.04,-4.45 0.26,-1.45 0.48,-2.85 0.7,-4.18 0.45,-2.65 0.56,-5.12 0.7,-7.27 0.04,-1.08 0.07,-2.07 0.07,-2.99 0,-0.93 -0.04,-1.78 -0.04,-2.55 -0.15,-3.05 -0.33,-4.74 -0.33,-4.74z"/>
  <path class="fil0" d="M3420.5 57.26c0,0 -21.49,3.14 -41.34,16.73 -19.82,13.6 -30.5,32.5 -30.5,32.5 0,0 21.49,-3.14 41.3,-16.74 19.85,-13.6 30.54,-32.5 30.54,-32.5z"/>
  <path class="fil0" d="M3442.62 108.02c-13.14,-9.02 -22.12,-6.49 -22.12,-6.49 0,0 5.64,-2.39 5.64,-11.93 0,-9.54 -12.43,-13.92 -12.43,-13.92 -7.01,23.46 -29.13,32.34 -29.13,32.34 0,0 22.12,8.88 29.13,32.34 0,0 12.43,-4.37 12.43,-13.92 0,-9.54 -5.64,-11.93 -5.64,-11.93 0,0 8.98,2.52 22.12,-6.49z"/>
  <path class="fil0" d="M3382.5 65.9c0,0.14 0,0.29 0,0.43 0,1.67 -1.48,3.27 -3.19,3.19 -1.74,-0.08 -3.19,-1.4 -3.19,-3.19 0,-0.14 0,-0.29 0,-0.43 0,-1.67 1.48,-3.27 3.19,-3.19 1.74,0.08 3.19,1.4 3.19,3.19l0 0z"/>
  <path class="fil0" d="M3381.24 56.96c0,-4.1 6.38,-4.11 6.38,0 0,4.11 -6.38,4.12 -6.38,0l0 0z"/>
  <path class="fil0" d="M3384.21 45.48c0,-4.11 6.38,-4.12 6.38,0 0,4.1 -6.38,4.11 -6.38,0l0 0z"/>
  <path class="fil0" d="M3383.36 34.41c0,-4.11 6.38,-4.12 6.38,0 0,4.1 -6.38,4.11 -6.38,0l0 0z"/>
  <path class="fil0" d="M3342.87 35.98c0,0 -11.95,9.54 -19.63,24.84 -7.72,15.3 -8.28,30.57 -8.28,30.57 0,0 11.95,-9.54 19.63,-24.84 7.72,-15.3 8.27,-30.57 8.27,-30.57z"/>
  <path class="fil0" d="M61.62 189.97c0,0 1.35,-1.12 3.52,-3.17 2.14,-2.03 5.19,-4.92 8.88,-8.42 1.79,-1.73 3.74,-3.6 5.81,-5.6 2,-2.02 4.23,-4.07 6.38,-6.31 4.45,-4.38 9.07,-9.18 13.67,-14.41 4.65,-5.2 8.86,-10.36 12.67,-15.3 1.96,-2.41 3.73,-4.87 5.5,-7.09 1.73,-2.29 3.36,-4.45 4.86,-6.44 3.03,-4.08 5.54,-7.46 7.29,-9.83 1.77,-2.4 2.72,-3.87 2.72,-3.87 0,0 -1.7,0.06 -4.73,0.43 -0.76,0.1 -1.6,0.22 -2.52,0.34 -0.91,0.15 -1.89,0.36 -2.94,0.58 -2.09,0.47 -4.52,0.99 -7.06,1.86 -1.28,0.41 -2.62,0.86 -4.02,1.36 -1.39,0.5 -2.77,1.12 -4.23,1.76 -2.93,1.24 -5.88,2.85 -8.95,4.65 -6.04,3.7 -12.22,8.56 -17.66,14.65 -5.4,6.13 -9.48,12.86 -12.43,19.29 -1.41,3.27 -2.66,6.39 -3.54,9.44 -0.45,1.52 -0.91,2.97 -1.24,4.41 -0.33,1.44 -0.62,2.83 -0.87,4.15 -0.55,2.62 -0.78,5.1 -0.99,7.23 -0.1,1.07 -0.19,2.06 -0.23,2.99 -0.01,0.93 -0.03,1.78 -0.04,2.55 -0,3.06 0.14,4.75 0.14,4.75z"/>
  <path class="fil0" d="M22.12 158.79c0,0 21.48,-3.14 41.32,-16.74 19.83,-13.59 30.51,-32.5 30.51,-32.5 0,0 -21.48,3.14 -41.31,16.74 -19.83,13.6 -30.52,32.5 -30.52,32.5z"/>
  <path class="fil0" d="M60.11 150.14c0,-0.14 0,-0.29 0,-0.43 0,-1.67 1.47,-3.27 3.19,-3.19 1.73,0.08 3.19,1.4 3.19,3.19 0,0.14 0,0.28 0,0.43 0,1.67 -1.47,3.27 -3.19,3.19 -1.73,-0.08 -3.19,-1.4 -3.19,-3.19l0 0z"/>
  <path class="fil0" d="M61.38 159.08c0,4.11 -6.38,4.12 -6.38,0 0,-4.1 6.38,-4.11 6.38,0l0 0z"/>
  <path class="fil0" d="M58.4 170.57c0,4.11 -6.38,4.11 -6.38,0 0,-4.11 6.38,-4.11 6.38,0l0 0z"/>
  <path class="fil0" d="M59.25 181.63c0,4.11 -6.38,4.11 -6.38,0 0,-4.11 6.38,-4.11 6.38,0l0 0z"/>
  <path class="fil0" d="M99.74 180.07c0,0 11.93,-9.54 19.63,-24.84 7.7,-15.3 8.26,-30.57 8.26,-30.57 0,0 -11.94,9.54 -19.64,24.84 -7.7,15.3 -8.26,30.57 -8.26,30.57z"/>
  <path class="fil0" d="M63.31 24.65c0,0 1.3,1.18 3.38,3.31 2.06,2.11 4.99,5.13 8.53,8.77 1.72,1.8 3.59,3.76 5.58,5.83 1.91,2.1 4.05,4.24 6.11,6.56 4.26,4.57 8.69,9.55 13.07,14.97 4.43,5.38 8.42,10.72 12.03,15.81 1.86,2.49 3.53,5.02 5.2,7.31 1.64,2.36 3.17,4.59 4.59,6.64 2.86,4.2 5.22,7.68 6.88,10.12 1.67,2.47 2.56,3.98 2.56,3.98 0,0 -1.7,-0.13 -4.71,-0.63 -0.76,-0.13 -1.59,-0.28 -2.5,-0.44 -0.91,-0.19 -1.87,-0.44 -2.91,-0.7 -2.07,-0.55 -4.47,-1.18 -6.98,-2.14 -1.26,-0.46 -2.58,-0.97 -3.95,-1.53 -1.37,-0.56 -2.72,-1.24 -4.15,-1.93 -2.88,-1.35 -5.76,-3.09 -8.75,-5.01 -5.88,-3.95 -11.86,-9.05 -17.04,-15.37 -5.14,-6.35 -8.94,-13.23 -11.62,-19.79 -1.28,-3.32 -2.4,-6.49 -3.15,-9.58 -0.39,-1.54 -0.78,-3 -1.05,-4.45 -0.27,-1.45 -0.5,-2.85 -0.7,-4.18 -0.44,-2.65 -0.57,-5.12 -0.7,-7.27 -0.05,-1.08 -0.1,-2.07 -0.1,-2.99 0.02,-0.93 0.05,-1.78 0.06,-2.55 0.12,-3.05 0.33,-4.74 0.33,-4.74z"/>
  <path class="fil0" d="M22.12 57.26c0,0 21.48,3.14 41.32,16.73 19.83,13.6 30.51,32.5 30.51,32.5 0,0 -21.48,-3.14 -41.31,-16.74 -19.83,-13.6 -30.52,-32.5 -30.52,-32.5z"/>
  <path class="fil0" d="M-0 108.02c13.12,-9.02 22.12,-6.49 22.12,-6.49 0,0 -5.64,-2.39 -5.64,-11.93 0,-9.54 12.42,-13.92 12.42,-13.92 7.01,23.46 29.13,32.34 29.13,32.34 0,0 -22.13,8.88 -29.13,32.34 0,0 -12.42,-4.37 -12.42,-13.92 0,-9.54 5.64,-11.93 5.64,-11.93 0,0 -8.99,2.52 -22.12,-6.49z"/>
  <path class="fil0" d="M60.11 65.9c0,0.14 0,0.29 0,0.43 0,1.67 1.47,3.27 3.19,3.19 1.73,-0.08 3.19,-1.4 3.19,-3.19 0,-0.14 0,-0.29 0,-0.43 0,-1.67 -1.47,-3.27 -3.19,-3.19 -1.73,0.08 -3.19,1.4 -3.19,3.19l0 0z"/>
  <path class="fil0" d="M61.38 56.96c0,-4.1 -6.38,-4.11 -6.38,0 0,4.11 6.38,4.12 6.38,0l0 0z"/>
  <path class="fil0" d="M58.4 45.48c0,-4.11 -6.38,-4.12 -6.38,0 0,4.1 6.38,4.11 6.38,0l0 0z"/>
  <path class="fil0" d="M59.25 34.41c0,-4.11 -6.38,-4.12 -6.38,0 0,4.1 6.38,4.11 6.38,0l0 0z"/>
  <path class="fil0" d="M99.74 35.98c0,0 11.93,9.54 19.63,24.84 7.7,15.3 8.26,30.57 8.26,30.57 0,0 -11.94,-9.54 -19.64,-24.84 -7.7,-15.3 -8.26,-30.57 -8.26,-30.57z"/>
 </g>
</svg>
