<?xml version="1.0" encoding="UTF-8"?>
<!DOCTYPE svg PUBLIC "-//W3C//DTD SVG 1.1//EN" "http://www.w3.org/Graphics/SVG/1.1/DTD/svg11.dtd">
<!-- Creator: CorelDRAW 2019 (64-Bit) -->
<svg xmlns="http://www.w3.org/2000/svg" xml:space="preserve" width="2.44354in" height="2.60094in" version="1.1" style="shape-rendering:geometricPrecision; text-rendering:geometricPrecision; image-rendering:optimizeQuality; fill-rule:evenodd; clip-rule:evenodd"
viewBox="0 0 3915.68 4167.91"
 xmlns:xlink="http://www.w3.org/1999/xlink"
 xmlns:xodm="http://www.corel.com/coreldraw/odm/2003">
 <defs>
  <style type="text/css">
   <![CDATA[
    .fil1 {fill:#FEFEFE;fill-rule:nonzero}
    .fil0 {fill:#4A494B;fill-rule:nonzero}
   ]]>
  </style>
 </defs>
 <g id="Layer_x0020_1">
  <metadata id="CorelCorpID_0Corel-Layer"/>
  <g id="_2518061663792">
   <path class="fil0" d="M3545.73 1843.01c38.66,101.31 66.59,205.45 84.31,310.23 -88.87,-47.9 -209.05,38.5 -237.54,148.83 106.27,73.11 224.95,-2.33 245.29,-98.13 1.65,11.86 3.29,23.73 4.69,35.61 7.37,63.28 9.95,126.84 9.99,189.89 -169.37,-21.59 -246.09,89.08 -264.67,195.24 105.14,61.32 241.71,-18.23 264.38,-155.77 -0.82,57.85 -3.44,115.24 -5.96,172.4 -1.18,26.55 -1.96,53.11 -2.69,79.66 -150.72,-21.9 -264.05,73.54 -330.13,213.15 120.58,24.79 275.33,18.83 329.1,-170.95 -1.38,56.71 -2.76,113.55 -5.85,170.17 -3.87,70.6 -10.15,142.85 -20.63,215.71 -143.87,-12.13 -261.2,81.97 -310.3,227.44 113.11,21.01 255.71,-36.57 304,-186.53 -20.05,121.89 -52.93,245.04 -103.55,360.75 -93.64,-67.86 -262.56,-29.27 -401.46,109.59 135.52,74.63 323.92,29.78 396.32,-97.88 -67.06,149.8 -165.41,286.06 -292.47,382.43 -132.63,-29.63 -358.48,47.9 -451.74,183.86 97.11,53.88 291.74,75.65 457.05,-166.64 63.19,-47.54 119.85,-104.87 169.15,-168.79 -53.77,105.2 -110.17,314.37 -21.52,374.64 149.83,-152.13 156.04,-349.36 50.04,-413.35 63.27,-90.48 112.54,-191.92 148.87,-296.95 -18.88,157.07 107.81,254.48 193.07,326.17 56.22,-186.33 2.45,-453.25 -184.64,-351.14 49.08,-150.43 72.07,-306.36 81.73,-454.39 1.29,-19.9 2.54,-39.82 3.51,-59.71 27.29,100.27 140.62,168.39 230.51,193.39 -0.42,-176.81 -98.26,-358.71 -227.22,-273.84 1.89,-56.82 2.97,-113.51 4.59,-170.35 1.82,-63.94 4.98,-128.33 6.23,-193.27 39.01,95.43 141.04,163.9 247.49,149.77 -25.04,-173.34 -148.27,-307.86 -246.98,-193.12 0.25,-57.89 -1.6,-116.15 -7.56,-173.96 -4.72,-45.83 -11.46,-91.61 -20.01,-137.26 54.24,104.67 190.18,148.59 264.45,83.75 -28.09,-147.14 -215.75,-252.68 -271.66,-119.78 -21.23,-101.18 -52.26,-201.4 -93.34,-298.55 86.44,120.68 200.12,98.68 290.37,73.69 -83.46,-165.67 -262.56,-252.32 -303.1,-103 -52.02,-116.51 -118.67,-228.35 -199.93,-331.15 -9.15,-11.51 -22.97,-2.16 -13.82,9.35 98.02,123.77 174.51,260.65 229.51,403.2 -137.41,-82.39 -242.97,91.94 -245.84,223.5 86.6,-32.54 199.77,-28.16 247.98,-217.89z"/>
   <path class="fil0" d="M3032.52 839.11c0.07,0 0.13,0 0.2,-0.02 -0.18,-0.16 -0.38,-0.33 -0.54,-0.49 -0.13,-0.16 -0.29,-0.18 -0.42,-0.29 -0.54,-0.44 -1.09,-0.78 -1.72,-1.07 -0.2,-0.11 -0.4,-0.27 -0.6,-0.33 -2.71,-1.07 -5.77,-0.74 -7.48,1.71 -2.65,2.36 -3.61,6.23 -0.33,9.39 0.18,0.18 0.35,0.33 0.51,0.51 3.45,3.29 10.73,3.19 12,-2.45 0.02,-0.15 0.06,-0.31 0.11,-0.47 0.6,-2.67 -0.26,-4.85 -1.73,-6.5z"/>
   <path class="fil0" d="M3030.72 831.68c0,0.2 -0.02,0.4 -0.02,0.62 -0.51,9.1 13.62,9.9 14.13,0.8 0,-0.2 0.02,-0.42 0.02,-0.65 0.52,-9.1 -13.6,-9.9 -14.13,-0.78z"/>
   <path class="fil0" d="M3444.78 743.32c-16.16,-50.59 -54.44,-97.55 -105.94,-107.36 -3.2,-28.71 -12.8,-57.05 -26.98,-79.93 103.58,-19.58 190.23,98 132.92,187.29z"/>
   <path class="fil0" d="M2758.34 816.67c-19.9,-51.08 -7.97,-109.9 35.06,-147.34 53.68,-46.67 152.63,-27.44 171.7,43.78 0.09,0.33 0.29,0.54 0.42,0.85 -0.06,0.04 -0.13,0.09 -0.2,0.14 -20.77,-10.91 -44.69,-14.14 -65.46,-4.12 -25.99,12.55 -42.82,41.88 -46.18,71.8 -38.39,-2.97 -68.19,21.81 -85.88,54.34 -2.21,-3.76 -4.16,-7.59 -5.97,-11.48 0.91,-3.29 -0.18,-6.92 -3.5,-7.97z"/>
   <path class="fil0" d="M3027.76 815.16c-0.35,1.54 -0.11,2.9 0.31,4.12 -3.34,-4.65 -12.44,-3.83 -12.86,3.5 0,0.22 -0.02,0.42 -0.02,0.64 -0.13,2.11 0.6,3.76 1.71,4.97 -4.25,-1.27 -10.39,2 -9.88,8.06 0.03,0.2 0.03,0.38 0.04,0.56 0.04,0.4 0.2,0.8 0.36,1.2 -1.14,-1.27 -2.67,-2.22 -4.52,-2.49 -5.66,-0.85 -13.4,-3.02 -15.29,-9.28 -1.96,-6.47 10.04,-3.16 12.35,-2.4 0.33,0.09 0.6,0.03 0.86,0.09 0.36,0.07 0.62,0.23 1,0.27 1.72,0.09 3.38,0.18 5.1,0.26 4.9,0.29 7.85,-4.05 7.3,-8.55 -2.18,-17.4 17.96,-19.74 13.53,-0.93z"/>
   <path class="fil0" d="M3029.01 821.19c3.07,4.18 10.32,4.92 12.2,-1.51 2.27,-7.9 6.79,-12.28 14.51,-7.48 7.75,4.78 6.01,10.59 -1.51,13.8 -5.48,2.32 -4.94,11.6 0.96,13.02 7.85,1.91 6.16,7.01 1.15,11.89 -7.12,6.94 -17.12,5.76 -25.35,1.91 -3.2,-1.49 -8.23,0.93 -8.97,4.45 -1.98,9.5 -6.3,16.11 -15.75,9.77 -7.61,-5.12 -9.42,-13.71 -0.54,-17.98 3.89,-1.85 4.47,-5.56 3.14,-8.64 0.85,0.89 1.89,1.6 2.9,1.8 0.18,0.04 0.35,0.07 0.54,0.11 7.34,1.51 11.66,-7.48 7.79,-11.58 -0.13,-0.25 -0.31,-0.38 -0.47,-0.58 -0.02,-0.02 -0.02,-0.04 -0.04,-0.06 4.05,1.51 9.44,-0.32 9.77,-5.9 0,-0.22 0.03,-0.42 0.04,-0.64 0.04,-0.91 -0.16,-1.65 -0.35,-2.38z"/>
   <path class="fil0" d="M3003.85 881.66c12.06,5.12 23.95,-0.64 29.38,-13.02 11.6,3.07 23.53,0.52 32.45,-7.43 9.86,13 23.24,22.23 37.73,27.11 0.76,38.75 -25.53,67.06 -65.35,65.95 -14.95,-0.42 -31,-6.57 -39.57,-19.36 -3.87,-5.79 -5.27,-12.11 -5.32,-18.54 0.31,-1.14 0.26,-2.2 -0.04,-3.2 0.73,-10.93 5.45,-22.01 10.73,-31.49z"/>
   <path class="fil0" d="M3066.1 802.39c-8.66,-7.23 -18.25,-7.7 -25.9,-3.51 -2.65,-6.37 -7.97,-11.13 -16.84,-11.89 -2.78,-0.26 -5.21,0.13 -7.48,0.83 -0.44,-25.46 -16.09,-49.95 -37.79,-65.81 33.45,-24.91 84.53,-24.17 108.46,14.8 14.84,24.15 8.44,60.14 -12.09,79.37 -0.82,-4.88 -3.5,-9.7 -8.35,-13.78z"/>
   <path class="fil0" d="M3096.53 726.09c-25.51,-41.53 -80.97,-43.38 -119.16,-20.59 -11.68,-37.13 -39.57,-60.09 -72.8,-69.49 48.23,-46.82 104.41,-61.2 170.17,-45.8 76.65,17.89 101.36,93.66 77.03,161.44 -13.78,-7.52 -30.23,-11.5 -48.19,-10.46 -1.8,-5.32 -4.14,-10.42 -7.05,-15.11z"/>
   <path class="fil0" d="M3001.49 795.17c-0.25,2.2 0.42,3.9 1.54,5.12 -0.76,1.8 -1.38,3.69 -1.85,5.7 -38.35,-20.23 -92.9,-6.66 -119.85,27.51 -27.42,-30.98 -12.04,-81.04 17.31,-105.92 18.28,-15.49 42,-12.44 62.12,-0.33 1.03,1.25 2.36,2.09 3.85,2.5 22.61,15.29 39.61,41.8 36.88,65.43z"/>
   <path class="fil0" d="M2880.78 865.44c8.01,-40.33 59.76,-61.76 98.37,-52.77 -3.02,2.27 -5.25,5.56 -5.7,10.49 -1.09,11.13 6.23,18.43 15.27,22.66 -4.98,8.37 -3.36,19.03 3.81,27.42 -6.66,12.24 -10.62,24.88 -11.46,36.9 -0.32,0.29 -0.67,0.45 -0.93,0.8 -8.55,10.49 -14.16,20.63 -17.7,30.4 -0.73,0.07 -1.47,0.16 -2.23,0.49 -16.65,7.34 -35.32,5.79 -52.1,-0.16 -31.23,-11.08 -32.74,-48.99 -27.33,-76.23z"/>
   <path class="fil0" d="M2919.17 959.74c13.08,2.32 27.04,1.46 39.42,-2.34 -5.88,50.55 50.35,86.94 109.61,90.94 8.08,0.53 15.58,0.15 22.79,-0.65 13.27,14.36 29.38,25.49 46.99,33.18 -30.38,62.14 -101.45,68.82 -161.63,46.5 -28.55,-10.59 -57.8,-30.76 -73.62,-57.13 -20.01,-33.36 -14.16,-86.02 16.45,-110.5z"/>
   <path class="fil0" d="M3069 1034.21c-26.15,-0.47 -52.43,-9.93 -73.89,-24.48 -31.05,-21.05 -28.64,-51.73 -11.96,-78.7 5.23,17.63 19.59,31.51 45.27,36.43 48.94,9.32 88.69,-28.71 89.18,-75.76 15.84,2.09 31.87,-1.14 45.05,-10.3 23.41,72.13 -6.52,154.39 -93.66,152.81z"/>
   <path class="fil0" d="M3075.99 851.84c-0.65,-0.91 -1.38,-1.63 -2.21,-2.16 1.65,-4.94 1.18,-9.9 -1.04,-14.13 27.6,-15.12 39.08,-49.44 34.23,-80.28 46,-0.54 80.41,33.9 68.95,81.88 -11.92,49.85 -73.27,53.59 -99.93,14.69z"/>
   <path class="fil0" d="M3185.53 852.11c15,-36.72 3.77,-71.73 -21.56,-92.29 11,-28.51 14.4,-61.79 7.97,-92.08 59.49,5.79 126.62,28.69 141.28,93.48 7.19,31.85 1.34,63.43 -13.35,89.42 -0.27,0.38 -0.49,0.71 -0.71,1.16 -22.84,39.35 -66.28,65.25 -116.45,58.55 -1.36,-13.35 -4.18,-26.59 -8.66,-39.26 4.52,-5.29 8.46,-11.55 11.48,-18.98z"/>
   <path class="fil0" d="M3309.28 720.55c-29.13,-43.27 -84.17,-62.61 -141.19,-67.35 -8.28,-24.78 -24.19,-46.29 -48.99,-60 0.83,-29.34 -5.43,-55.85 -17.49,-78.23 60.25,-23.24 132.52,-17.78 181.66,26.86 41.87,38.1 56.98,128.42 26.02,178.72z"/>
   <path class="fil0" d="M3104.94 586.41c-74.2,-31.54 -151.9,-17.19 -209.83,39.08 -2.49,2.4 -2.64,5.43 -1.55,7.91 -0.76,-0.16 -1.56,-0.25 -2.34,-0.38 -20.28,-42.11 -51.01,-64.59 -85.66,-72.38 11.53,-59.27 98.06,-94.82 149.98,-103.34 84.04,-13.75 148.1,49.46 149.41,129.11z"/>
   <path class="fil0" d="M2853.16 795.91c0.64,18.81 7.03,36.72 20.27,49.76 -3.98,7.59 -6.85,15.87 -7.97,24.84 -3.91,32.14 1.41,63.83 31.03,81.23 2.25,1.31 4.59,2.4 6.97,3.43 -19.61,19.54 -26.46,46.57 -25.19,73.83 -53.33,-12.35 -96.82,-40.37 -111.04,-96.32 -13.75,-54.06 18.43,-141.99 85.93,-136.76z"/>
   <path class="fil0" d="M2791.42 1001.63c0.13,-0.07 0.18,-0.18 0.26,-0.25 23.12,21.37 53.97,35.5 88.02,42.53 0.45,2.87 0.78,5.76 1.38,8.61 6.59,32.09 32.74,57.2 60.87,73.67 0.09,0.64 0.09,1.27 0.36,1.91 10.13,26.35 27.71,46.63 49.32,61.18 -48.36,30.27 -111.14,20.77 -160.04,-4.98 -29.2,-15.36 -48.16,-42.07 -58.71,-72.89 -9.75,-28.57 -11.17,-89.93 18.54,-109.79z"/>
   <path class="fil0" d="M2961.88 1136.32c69.17,30.33 153.81,22.46 189.22,-50.39 24.35,7.99 50.64,9.84 75.76,5.03 -7.28,130.58 -207.34,148.85 -264.99,45.36z"/>
   <path class="fil0" d="M3107.68 1044.49c52.12,-14.42 76.83,-66.01 75.87,-119.83 49.63,6.01 95.86,-18.23 122.73,-56.73 38.26,56.48 23.43,132.31 -23.42,180.14 -46.18,47.17 -128.95,38.91 -175.18,-3.58z"/>
   <path class="fil0" d="M3314.29 855.02c12.06,-22.16 18.16,-47.83 15.67,-74.58 -1.67,-17.52 -6.14,-32.81 -12.75,-46.25 16.98,-22.83 23.72,-52.86 22.7,-83.66 49.79,10.73 82.39,60.25 94.26,110.19 0.07,0.32 0.13,0.62 0.23,0.89 3.36,14.54 5.09,29.07 4.9,42.62 -1.07,63.94 -42.47,107.83 -97.44,132.47 -1.14,-29.24 -10.2,-57.91 -27.55,-81.68z"/>
   <path class="fil0" d="M3382.82 548.69c-24.31,-9.32 -51.52,-11.99 -79.66,-5.3 -2.98,-3.89 -6.08,-7.58 -9.35,-10.97 -7.94,-8.16 -16.8,-14.98 -26.24,-20.81 -1.47,-20.99 -9.51,-40.31 -21.97,-56.89 60.25,3.79 120.85,33.18 137.21,93.96z"/>
   <path class="fil0" d="M3057.87 421.13c26.6,-8.67 59.16,-10.42 77.5,-10.28 50.39,0.28 108.17,40.93 117.16,92.58 -48.65,-22.7 -109.61,-19.83 -158.35,-0.69 -17.45,-25.49 -43.27,-44.31 -75.14,-53.86 5.36,-10.84 16.23,-18.7 29.65,-24.31 3.47,1.65 7.48,-0.31 9.19,-3.45z"/>
   <path class="fil0" d="M3037.28 414.1c-14.89,7.59 -26.51,17.91 -32.14,31.29 -8.93,-1.83 -18.16,-3.1 -27.84,-3.52 -21.61,-0.91 -47.81,3.94 -73.69,13.31 -22.52,-12.44 -46.96,-19.01 -71.51,-20.25 49.97,-48.79 150.57,-68.04 205.18,-20.83z"/>
   <path class="fil0" d="M2886.27 462.24c-45.32,20.25 -85.89,54.26 -94.5,96.08 -41.22,-4.66 -86.4,9.55 -125.26,34.89 -2.49,-109.77 125.66,-173.65 219.76,-130.98z"/>
   <path class="fil0" d="M2649.15 623.71c67.26,-62.07 175.72,-79.99 224.88,7.59 -25.37,-1.07 -51.73,4.56 -74.85,16.96 -59.8,32.05 -76.25,108.95 -55.28,169.44 -36.77,5.46 -65.15,24.37 -85.31,50.75 -38.06,-11.55 -58.47,-65.19 -63.52,-103.98 0.24,-0.29 0.42,-0.56 0.62,-0.83 2.96,-3.54 1.41,-7.23 -1.6,-9.17 -0.06,-0.67 -0.13,-1.4 -0.18,-2.07 -2.52,-50.59 18.81,-95.1 55.24,-128.69z"/>
   <path class="fil0" d="M2583.28 781.04c8.21,38.72 30.36,85.93 66.97,99.53 -13.22,21.24 -21.97,46.03 -26.04,72 -62.14,-39.29 -78.79,-110.77 -40.93,-171.53z"/>
   <path class="fil0" d="M2645.08 1082.37c-55.24,-31.45 -90.02,-92.3 -69.17,-154.42 11.8,15.58 27.46,29.18 46.52,40.06 -2.47,31.42 7.48,60.85 25.04,85.78 -2.36,9.68 -3.09,19.23 -2.38,28.58z"/>
   <path class="fil0" d="M2636.2 975.52c-0.03,-3.29 0.13,-6.59 0.33,-9.89 0.42,-1.2 0.49,-2.42 0.15,-3.63 4.9,-62.72 46.52,-123.32 112.6,-130.84 2.12,4.65 4.45,9.19 7.1,13.55 1.38,2.29 3.45,3.25 5.56,3.41 -8.93,20.72 -13.33,43.35 -12.09,63.4 1.98,32.52 13.75,59.11 32.12,79.97 -33.72,25.35 -36.52,75.58 -23.22,119.6 -63.52,-12.95 -122.1,-69.04 -122.56,-135.58z"/>
   <path class="fil0" d="M2659.17 1068.44c27.13,30.4 65.79,51.75 104.89,57.89 8.86,22.13 21.63,41.46 36.17,53.51 5.58,4.61 11.55,8.77 17.76,12.71 -66.86,9.19 -166.13,-51.46 -158.82,-124.1z"/>
   <path class="fil0" d="M2799.07 1207.7c10.68,0.35 21.05,-0.56 30.83,-2.97 1.98,-0.49 3.29,-1.62 4.16,-3 36.57,18.38 79.95,25.35 119.53,17.12 9.55,21.56 25.42,36.52 44.52,46.47 -74.05,26.28 -157.77,15.94 -199.04,-57.62z"/>
   <path class="fil0" d="M3084.73 1268.35c-45.09,2.33 -96.12,-10.37 -117.2,-53.1 13.22,-4.1 25.8,-10.09 37.37,-18.03 38.72,20.57 87.11,25.04 130.09,14.04 0.02,0 0.04,0.03 0.04,0.04 18.02,9.61 36.55,15.56 55.22,18.67 -23.01,29.18 -71.31,36.61 -105.52,38.37z"/>
   <path class="fil0" d="M3316.07 1185.91c-42.58,38.84 -110.79,41 -161.65,19.12 47.65,-18.34 84.68,-57.28 86.77,-115.77 0.03,-0.67 -0.18,-1.16 -0.26,-1.73 10.06,-3.03 19.81,-7.15 29.02,-12.47 0.32,0.18 0.51,0.42 0.85,0.54 32.05,12.57 62.07,14.49 89.36,7.17 -3.25,39.64 -13.82,75.51 -44.09,103.16z"/>
   <path class="fil0" d="M3454.79 936.46c-1.8,26.88 -9.84,53.54 -21.28,73.33 -32.6,56.42 -91.05,74.31 -148.92,55.62 0.15,-0.11 0.31,-0.23 0.49,-0.32 35.05,-27.24 54.33,-69.93 56.64,-113.28 0.61,-0.11 1.21,-0.11 1.83,-0.38 44.36,-18.72 78.14,-48.61 95.86,-87.89 12.06,19.03 16.61,43.15 15.73,67.52 -1.02,1.91 -1.02,3.76 -0.35,5.39z"/>
   <path class="fil0" d="M3468.7 911.35c-2.45,-23.99 -9.97,-46.62 -23.25,-63.56 5.94,-18.37 8.73,-38.41 7.68,-60.22 -0.45,-8.71 -1.67,-17.63 -3.58,-26.53 8.97,-11.37 15.62,-23.24 20.19,-35.39 24.72,31.34 33.45,75.61 30.96,114.56 -1.65,26.06 -16.81,49.47 -31.99,71.15z"/>
   <path class="fil0" d="M2680.33 2612.7c87.05,5.01 179.77,-50.99 242.82,-105.4 42.24,-36.46 80.32,-76.05 116.25,-118.63 31.23,-37.06 68.91,-72.91 93.06,-115.69 4.85,22.81 11.13,45.45 17.36,68.39 -0.33,0.25 -0.69,0.31 -1,0.62 -54.95,51.06 -70.45,119.21 -83.11,190.52 -14.58,82.1 -17.89,170.17 2.58,251.49 1.73,6.79 9.46,11.11 15.96,7.57 54.41,-29.71 98.68,-77.21 130.22,-133.16 -5.3,74.96 -12.44,149.72 -20.64,224.37 -16.02,15.29 -32.56,30.18 -49.25,44.89 -1.8,-0.64 -3.82,-0.93 -6.27,-0.2 -24.84,7.36 -51.23,8.67 -77.15,11.84 -0.71,-2.62 -1.67,-5.16 -2.96,-7.61 -15.18,-28.24 -70.35,-34.36 -88.44,-7.57 -2.43,3.63 -4.61,7.39 -6.5,11.29 -14.33,29.58 -11.53,65.37 20.81,83.06 27.22,14.91 52.97,-3.43 66.88,-27.31 4.92,-8.44 9.17,-18.88 10.97,-29.49 16.87,-2.23 33.97,-3.72 50.81,-6.21 -54.31,46.92 -109.03,93.57 -156.4,147 -7.92,-3.98 -17.25,-6.27 -27.64,-5.92 -9.73,0.31 -20.37,1.07 -29.25,4.76 -6.79,2.85 -12.57,7.39 -16.07,14.82 -8.19,17.3 -3.54,49.19 10.33,62.55 17.49,16.91 50.52,15.53 68.98,1.09 24.42,-19.16 24.57,-45.47 10.75,-63.39 28.22,-32.01 59.22,-61.49 91.34,-90 -11.75,23.9 -22.68,48.12 -31.92,73.25 -9.28,1.14 -18.05,4.3 -24.64,10.35 -3.23,2.96 -5.97,6.57 -8.04,10.84 -16.02,33.14 9.37,74.79 46.65,70.87 33.74,-2.14 58.07,-42.07 38.88,-71.02 -6.34,-9.61 -17.47,-16.18 -29.71,-19.41 14.6,-38.35 33.27,-74.58 51.66,-111.46 0.2,-0.38 0.15,-0.71 0.31,-1.09 27.65,-23.75 55.28,-47.47 81.99,-71.93 -10.28,91.11 -21.63,182.14 -32.54,273.24 -75.16,58.65 -110.7,142.6 -125.37,235.08 -16.14,101.55 49.03,201.13 94.46,285.93 4.67,8.7 17,7.46 20.47,-1.51 34.12,-88.22 77.54,-172.22 88.51,-267.39 9.9,-86.07 -16.98,-179.72 -53.26,-256.88 -0.44,-0.93 -1.07,-1.5 -1.62,-2.18 19.14,-158.93 39.48,-317.74 52.41,-477.29 10.73,59.07 33.54,115.62 64.21,169.06 46.28,80.68 108.41,164.59 194.77,204.56 6.95,3.22 13.93,-3.39 14.67,-9.9 13.6,-120.77 -25.13,-253.04 -87.69,-355.83 -32.34,-53.04 -92.23,-154.97 -163.65,-157.24 19.19,-76.38 16.49,-157.82 -13.43,-228.15 -0.09,-0.33 -0.04,-0.67 -0.2,-1.03 -0.38,-0.85 -0.76,-1.69 -1.14,-2.54 -0.96,-2.2 -2.4,-3.54 -3.99,-4.54 7.21,-9.67 14.38,-19.37 21.68,-29.05 14.84,-19.65 30.6,-38.24 45.83,-57.22 11.19,15.24 23.08,30 35.41,44.42 -0.74,1.73 -1.18,3.63 -0.91,5.88 5.34,42.53 -10.49,84.77 -10.46,127.33 0,0.07 0.02,0.09 0,0.13 -0.4,0.11 -0.85,0.11 -1.25,0.22 -25.24,6.68 -46.69,33.59 -30.33,57.05 13.84,19.81 41.24,24.42 62.43,12.13 19.05,-11.04 18.34,-46.31 4.14,-60.94 -3.7,-3.79 -8.13,-6.08 -12.76,-7.63 0.03,-36.59 10.28,-72.36 11.04,-108.7 8.77,10.13 17.43,20.37 25.95,30.71 -15.78,26.13 -9.72,66.28 32.79,55.06 41.59,-11 46.31,-80.94 -3.05,-75.69 -3,0.33 -5.87,1 -8.57,2.05 -1.91,0.71 -3.69,1.69 -5.45,2.69 -28.35,-34.26 -59,-66.95 -85.02,-103.01 10.68,-14.04 20.94,-28.4 29.89,-43.95 17.34,-30.16 29.33,-63.57 38.23,-98.24 21.08,53.42 42.87,96.41 85.22,142.97 44.78,49.21 105.19,100.47 174.25,105.3 7.63,0.54 12.51,-6.45 11.53,-13.46 -10.53,-75.36 -38.79,-156.66 -77.3,-221.92 -38.73,-65.7 -91.43,-136.99 -168.95,-155.75 1.22,-9.12 2.45,-18.23 3.67,-27.11 29.36,-208.32 26.58,-419.49 41.51,-628.94 1.02,-14.33 -21.19,-15.58 -22.24,-1.27 -13.06,183.64 -14.02,367.87 -32.27,551.16 -1.02,10.33 -2.09,20.72 -3.18,31.09 -28.93,-1.91 -60.32,13.55 -85.82,24.37 -55.87,23.73 -102.47,61.11 -133.94,113.19 -31.87,52.68 -45.6,121.57 -52.68,182.04 -1.67,13.96 -1.72,27.44 -1.11,40.77 -203.58,51.21 -349.63,205.6 -453.19,379.63 -4.25,7.15 -0.06,16.76 8.66,17.25z"/>
   <path class="fil1" d="M3211.12 3459.54c-8.83,76.85 -46.49,149.12 -76.14,220.43 -40.4,-74.14 -82.15,-148.97 -82.1,-235.81 0.04,-81.39 41.17,-165.63 100.58,-221.14 -13.27,112.3 -25.37,224.74 -32.88,337.63 -0.95,14.31 21.28,15.58 22.21,1.25 7.5,-112.49 19.52,-224.5 32.76,-336.43 29.87,73.98 44.71,154.57 35.56,234.07z"/>
   <path class="fil1" d="M3357.19 2663.49c24.02,30.77 45.42,63.94 63.5,98.55 44.62,85.57 71.64,191.27 64.87,288.84 -73.89,-40.08 -126.5,-116 -168.52,-186.19 -49.43,-82.55 -76.51,-175.85 -66.59,-272.36 0.04,-0.38 -0.09,-0.62 -0.09,-0.95 35.61,59.22 70.73,116.29 97.24,181.05 26.86,65.52 65.63,126 91.83,191.34 5.34,13.31 25.11,3.12 19.81,-10.14 -26.08,-65.06 -63.41,-126.84 -91.81,-191.32 -28.35,-64.39 -62.41,-122.32 -97.97,-182.08 36.03,10.73 68.06,58.09 87.73,83.26z"/>
   <path class="fil1" d="M3086.69 2763.93c-12.54,-59.6 -11.33,-120.41 -5.5,-180.94 7.32,-75.59 20.99,-159.85 75.16,-216.45 1.4,5.54 2.83,11.06 4.09,16.69 1.78,7.85 12.2,11.97 18.31,5.96 2.94,-2.91 5.61,-6.05 8.44,-9.03 10.62,99.57 -27.6,202.4 -55.62,296.32 -4.07,13.75 17,20.88 21.12,7.12 30.14,-101.14 70.39,-211.75 55.11,-318.8 -0.32,-2.16 -1.18,-3.74 -2.27,-5.08 5.74,-6.81 11.35,-13.68 16.8,-20.74 60.96,144.91 -4.2,343.28 -135.65,424.94z"/>
   <path class="fil1" d="M3569.65 2112.67c30.31,51.43 52.69,122.59 63.16,184.46 -62.28,-10.91 -114.58,-62.34 -155.24,-107.01 -43.73,-48.12 -60.72,-96.77 -82.7,-155.79 1.69,-8.68 3.34,-17.41 4.78,-26.15 42.69,51.34 82.75,104.69 119.16,160.69 7.72,11.89 27.64,1.94 19.81,-10.13 -40.42,-62.14 -84.82,-121.36 -132.7,-177.94 -0.56,-0.66 -1.2,-0.95 -1.8,-1.42 1.27,-8.93 2.54,-17.78 3.74,-26.62 75.85,20.68 123.86,95.62 161.78,159.92z"/>
   <path class="fil1" d="M3175.81 2057.36c19.41,-57.6 50.39,-99.82 100.91,-133.89 23.97,-16.16 73.92,-44.14 109.3,-46.45 -76.99,86.89 -127.67,191.92 -162.9,302.18 -4.38,13.69 16.74,20.79 21.1,7.12 32.81,-102.76 79.01,-201.51 148.9,-283.9 -9.32,76.47 -22.81,153.19 -49.37,224.83 -17.43,47.01 -49.05,84.97 -80.72,122.9 -29.53,35.36 -54.97,74.2 -86.04,108.19 -9.28,-34.54 -21.19,-68.31 -27.62,-103.62 -0.8,-4.5 -1.18,-9.06 -1.73,-13.6 0.4,-1.31 0.47,-2.62 0.22,-3.94 0,-0.38 -0.16,-0.69 -0.22,-1.05 -0.16,-0.49 -0.23,-0.98 -0.45,-1.44 -0.2,-0.6 -0.29,-1.27 -0.58,-1.8 -5.16,-59.11 10.66,-120.52 29.2,-175.51z"/>
   <path class="fil1" d="M3113.44 2242.06c-97.97,74.94 -191.9,155.66 -293.81,225.28 -11.71,7.99 -1.73,27.94 10.1,19.83 94.61,-64.63 182.59,-138.39 273,-208.74 -17.16,24.57 -38.68,46.34 -58.04,69.31 -35.19,41.73 -69.98,82.68 -110.37,119.52 -61.2,55.82 -145.51,119.34 -233.51,123.28 96.95,-157.39 229.73,-296.5 412.63,-348.47z"/>
   <path class="fil0" d="M2720.15 717.28c1.33,-5.58 3.65,-10.95 7.03,-16 -81.03,-74.23 -169.06,-138.93 -261.62,-193.57 152.95,-23.41 87.11,-211.12 -68.08,-312.76 -35.03,86.84 -69.75,197.3 40.4,296.81 -91.88,-51.77 -187.95,-93.92 -286.11,-126.46 138.39,-40.55 54.75,-238.94 -88.29,-283.48 -72.8,66.48 -44.56,206.5 53.32,272.24 -44.38,-13.65 -89.11,-25.53 -134.1,-35.41 -56.75,-12.47 -114.44,-20.88 -171.99,-27.17 125.14,-85.09 5.43,-222.74 -163.97,-267.21 -26.08,104.16 30.4,213.26 120.83,262.83 -64.7,-6.13 -129.02,-10.22 -192.76,-15.65 -56.67,-4.83 -113.09,-10.18 -169.75,-14.71 98.89,-118.56 -70.77,-236.32 -246.42,-256.73 14.67,92.16 69.55,212.46 166.1,250.92 -19.9,-1.29 -39.82,-2.32 -59.76,-3.27 -148.13,-7.12 -305.67,-1.89 -460.68,29.87 122.61,-174.38 -136.54,-257.98 -328.04,-223.16 61.61,92.83 144.06,229.68 302.28,228.7 -108.48,24.21 -214.84,61.72 -311.87,114.36 -51.59,-112.58 -248.27,-128.69 -416.38,3 49.88,94.85 264.07,62.48 374.69,20.95 -69.06,41.75 -132.47,91.58 -186.82,149 -259.44,136.85 -259.78,332.71 -217.25,435.29 145.65,-77.32 248.2,-292.96 233.76,-428.08 110.12,-115.35 256.59,-197.68 413.03,-247.38 -135.03,57.51 -200.89,239.63 -142.04,382.72 153.66,-122.3 211.1,-285.8 154.23,-386.48 120.7,-37.24 246.78,-55.98 370.15,-62.12 -154.44,31.02 -227.78,166.19 -219.67,280.94 150.05,-32.32 256.84,-138.28 261.02,-282.59 73.61,-2.16 146.11,-0.25 216.67,3.89 56.62,3.32 113.26,8.37 169.77,13.42 -194.65,31.94 -218.09,185.04 -207.07,307.65 146.2,-49.86 253.81,-151.68 249.07,-303.94 26.51,2.3 52.97,4.52 79.5,6.37 57.05,3.94 114.38,7.84 171.96,13.53 -139.24,7.01 -233.69,133.72 -184.69,245.09 107.59,-6.45 226.24,-70.2 223.9,-240.91 62.65,7.17 125.52,16.94 187.55,31.43 11.64,2.71 23.26,5.7 34.86,8.66 -97.49,9.39 -185.84,118.76 -125.21,232.62 112.83,-15.84 212.24,-125.48 174.71,-219.2 102.13,29.44 202.44,68.98 298.75,118.85 -193.99,26.44 -202.45,139.36 -244.55,221.74 131.04,12.04 316.17,-73.16 249.87,-219.01 119.14,62.26 232.05,140.62 333.67,234.41z"/>
   <path class="fil0" d="M2782.2 624.51c-158.49,-10.99 -316.98,-25.17 -475.89,-20.92 -8.97,0.22 -18.16,0.4 -27.36,0.6 -9.85,-79.16 -74.78,-139.57 -135.67,-185.51 -60.49,-45.6 -138.08,-82.88 -211.75,-101.86 -6.88,-1.76 -14.36,2.29 -14.69,9.92 -3.01,69.2 41.08,135.01 84.93,185.04 41.48,47.36 81.74,73.85 132.42,100.84 -35.47,4.92 -70.02,13.07 -101.93,26.89 -16.45,7.14 -31.9,15.72 -47.03,24.71 -32.91,-29.94 -61.93,-64.08 -92.74,-96.1 1.18,-1.63 2.36,-3.27 3.29,-5.1 1.31,-2.56 2.34,-5.32 2.98,-8.28 10.79,-48.48 -59.22,-51.7 -74.85,-11.6 -15.96,40.95 23.24,51.54 51.01,38.79 9.3,9.63 18.49,19.41 27.58,29.27 -36.19,-3.39 -72.91,2.78 -109.26,-1.32 -1.02,-4.78 -2.81,-9.43 -6.16,-13.55 -12.91,-15.78 -47.85,-20.43 -60.99,-2.78 -14.62,19.68 -13.15,47.41 4.99,63.43 21.45,18.9 50.58,0.62 60.11,-23.7 0.16,-0.4 0.2,-0.82 0.33,-1.24 0.04,0.02 0.09,0.06 0.13,0.06 42.31,4.83 86.07,-6.14 127.71,3.96 2.18,0.54 4.14,0.29 5.94,-0.22 12.93,13.87 26.26,27.36 40.15,40.19 -20.61,12.98 -40.84,26.55 -62.05,39.06 -10.43,6.16 -20.9,12.18 -31.29,18.25 -0.82,-1.67 -1.98,-3.27 -4.07,-4.47 -0.8,-0.47 -1.6,-0.93 -2.38,-1.4 -0.35,-0.2 -0.69,-0.2 -1,-0.33 -66.52,-37.66 -147.11,-49.54 -225.19,-39.1 5.81,-71.25 -88.67,-142.27 -137.72,-180.35 -95.1,-73.83 -222.12,-127.24 -343.63,-127.4 -6.55,0 -13.94,6.19 -11.51,13.46 29.95,90.32 106.29,161.56 181.21,216.65 49.65,36.52 103.27,65.56 160.74,82.91 -160.01,-5.19 -320.09,-2.92 -480.16,-1.87 -0.62,-0.62 -1.09,-1.33 -1.98,-1.85 -72.55,-44.76 -162.58,-82.05 -249.2,-81.97 -95.79,0.13 -184.18,33.78 -275.69,57.73 -9.3,2.42 -11.93,14.53 -3.83,20.16 79.13,54.73 170.71,130.71 273.42,126.17 93.57,-4.12 180.99,-29.96 247.76,-97.97 91.72,-0.56 183.44,-1.54 275.16,-1.47 -27.3,23.77 -53.99,48.54 -80.72,73.33 -0.4,0.11 -0.73,0.02 -1.11,0.18 -38.73,14.11 -76.83,28.55 -116.6,38.72 -1.83,-12.5 -7.1,-24.3 -15.92,-31.71 -26.62,-22.32 -69.04,-2.69 -74.98,30.6 -8.1,36.61 30.4,66.55 65.15,54.35 4.47,-1.54 8.37,-3.87 11.68,-6.74 6.74,-5.87 10.88,-14.22 13.07,-23.31 26.02,-6.34 51.3,-14.47 76.38,-23.41 -31.94,28.67 -64.77,56.16 -99.75,80.57 -16.25,-15.76 -42.4,-18.59 -64.19,3.51 -16.45,16.69 -21.57,49.37 -6.74,68.66 11.73,15.27 42.89,23.51 60.98,17.32 7.79,-2.65 12.97,-7.86 16.58,-14.27 4.65,-8.44 6.61,-18.9 8.03,-28.55 1.51,-10.28 0.29,-19.78 -2.78,-28.13 58.46,-41.01 110.99,-90.12 163.72,-138.76 -4.37,16.45 -7.77,33.25 -11.89,49.78 -10.75,0.56 -21.61,3.63 -30.56,7.57 -25.28,11.1 -46.43,34.63 -34.67,63.39 13.93,34.09 49.18,40.93 80.19,30.04 4.07,-1.43 8.03,-3.16 11.93,-5.19 28.66,-14.98 28.82,-70.46 2.49,-88.71 -2.3,-1.58 -4.72,-2.83 -7.26,-3.85 6.09,-25.35 10.35,-51.43 20.5,-75.29 0.98,-2.32 0.93,-4.38 0.51,-6.26 16.49,-14.93 33.16,-29.66 50.19,-43.87 75.09,0.29 150.16,1.67 225.23,4.88 -59.16,25.01 -111.35,63.63 -147.02,114.36 -4.25,6.05 -0.83,14.22 5.72,16.69 78.48,29.56 166.39,36.19 249.61,30.98 72.27,-4.5 141.73,-12.22 198.71,-61.01 0.32,-0.28 0.42,-0.62 0.71,-0.95 22.08,8.79 43.87,17.58 65.99,24.97 -45.22,19.19 -85.11,52.57 -125.46,79.41 -46.38,30.87 -90.03,64.23 -131.02,102.07 -61.18,56.51 -127.28,142.31 -132.18,229.35 -0.49,8.75 8.62,13.98 16.18,10.55 184.6,-83.21 354.52,-210.88 428.39,-407.36 13.17,2.09 26.59,3.56 40.66,3.52 60.87,-0.2 130.87,-6.08 186.82,-31.76 55.31,-25.4 97.71,-67.51 127.62,-120.32 13.62,-24.1 32.52,-53.52 33.9,-82.5 10.46,0.09 20.88,0.18 31.27,0.33 132.49,1.89 264.49,12.66 396.61,21.48 -1.78,-7.61 -1.12,-15.44 2.2,-22.39z"/>
   <path class="fil1" d="M965.68 691.66c-112.66,0.49 -225.35,-0.2 -337.96,-5.48 -14.33,-0.69 -15.6,21.52 -1.25,22.21 113,5.3 226.08,5.99 339.17,5.5 -61.85,52.75 -150.21,84.09 -231.09,74.94 -86.31,-9.77 -155.93,-59.71 -225.01,-108.21 74.21,-21.41 150.28,-50.65 227.59,-50.75 80.03,-0.11 158.44,23.75 228.55,61.79z"/>
   <path class="fil1" d="M1617.41 671.3c-55.35,-42.11 -109.06,-82.46 -169.84,-117.94 -60.85,-35.5 -118,-79.57 -179.72,-112.86 -12.55,-6.74 -24.93,11.75 -12.31,18.56 61.96,33.42 117.67,78.81 179.72,112.86 61.37,33.68 114.11,75.01 168.93,117.09 -0.33,-0.04 -0.6,-0.2 -0.93,-0.2 -97.04,-1.05 -186.66,-38.5 -263.11,-96.95 -64.99,-49.7 -134.47,-110.54 -165.94,-188.49 97.71,4.3 199.68,43.12 279.67,97.13 32.34,21.84 62.87,46.85 90.73,74.23 22.79,22.39 66.22,59.56 72.8,96.57z"/>
   <path class="fil1" d="M1851.77 745.39c-7.61,4.61 -15.09,9.43 -22.5,14.33 -1.21,-1.22 -2.67,-2.25 -4.81,-2.83 -104.61,-27.29 -219.07,0.23 -322.97,18.72 -14.13,2.54 -9.44,24.28 4.67,21.79 96.48,-17.2 202.98,-43.58 300.73,-21.77 -3.29,2.49 -6.72,4.78 -9.92,7.39 -6.66,5.39 -3.76,16.2 3.83,18.85 5.48,1.89 10.79,3.94 16.16,5.97 -62.38,47.41 -147.65,51.47 -223.57,50.21 -60.81,-1.05 -121.36,-6.74 -179.16,-25.9 95.99,-121.39 300.44,-163.7 437.54,-86.75z"/>
   <path class="fil1" d="M2256.52 604.68c-8.92,0.2 -17.87,0.47 -26.88,0.73 -0.42,-0.66 -0.6,-1.33 -1.22,-1.96 -50.79,-53.99 -104.61,-104.8 -161.79,-151.97 -11.08,-9.12 -23.25,9.53 -12.3,18.54 51.54,42.51 100,88.34 146.18,136.56 -8.83,0.47 -17.67,1.12 -26.53,1.8 -56.13,-28.53 -102.56,-50.9 -145.43,-99.79 -39.77,-45.45 -84.97,-103.23 -88.78,-166.35 60.29,17.43 128.46,47.67 176.14,83.62 59.58,44.96 128.64,101.13 140.61,178.81z"/>
   <path class="fil1" d="M1948.66 832.63c-0.49,-0.35 -1.16,-0.51 -1.72,-0.78 -0.47,-0.29 -0.91,-0.42 -1.4,-0.62 -0.33,-0.11 -0.64,-0.29 -1.02,-0.33 -1.27,-0.38 -2.59,-0.47 -3.92,-0.22 -4.45,-1.05 -8.95,-1.96 -13.31,-3.27 -34.38,-10.37 -66.57,-26.02 -99.86,-39.15 37.32,-27.02 78.77,-47.9 117.23,-73.25 41.26,-27.2 82.55,-54.33 131.27,-66.33 74.18,-18.27 151.9,-23.01 228.95,-23.66 -89.76,60.16 -193.12,94.9 -298.93,115.87 -14.06,2.8 -9.41,24.57 4.7,21.79 113.55,-22.55 223.63,-61.03 318.66,-127.71 -6.3,34.88 -39.75,81.37 -58.51,103.34 -39.58,46.36 -85.02,72.36 -144.47,85.15 -56.71,12.2 -119.52,20.96 -177.67,9.17z"/>
   <path class="fil1" d="M1542.92 1235.12c13.85,-86.98 86.47,-163.54 148.88,-218.05 41.17,-35.99 85.78,-65.92 131.22,-96.17 25.02,-16.65 49.08,-35.57 75.41,-49.83 -80.1,81.86 -163.36,160.93 -238.26,247.65 -9.39,10.86 9.3,22.99 18.54,12.28 80.7,-93.39 171.55,-177.58 257.09,-266.48 -72.34,175.85 -225.52,292.05 -392.87,370.59z"/>
   <path class="fil0" d="M3738.62 1020.36c8.95,3.63 17.72,7.7 26.26,12.29 31.83,15.94 43.69,55.26 4.63,70.53 -104.94,41.13 -176.67,-24.08 -241.37,-94.5 45.16,-14.78 92.03,-14.73 139.33,-7.99 24.43,3.51 48.12,10.97 71.15,19.67z"/>
   <path class="fil0" d="M3752.96 817.1c12.24,50.59 -86.42,99.57 -119.87,118.2 -23.06,12.82 -46.83,24.35 -70.67,35.61 -22.5,10.64 -26.18,15.15 -44.47,8.66 -7.61,-90.61 205.85,-283.08 235.01,-162.47z"/>
   <path class="fil0" d="M2817.19 175.29c5.54,-7.95 11.46,-15.58 17.82,-22.86 22.64,-27.51 63.61,-30.31 69.82,11.17 16.69,111.47 -62.83,166.88 -145.89,214.26 -4.34,-47.32 6.12,-92.99 23.24,-137.58 8.86,-23.08 21.41,-44.49 35.01,-64.99z"/>
   <path class="fil0" d="M2622.25 116.05c52.01,-0.67 77.83,106.41 88.51,143.17 7.37,25.35 13.33,51.08 19.01,76.83 5.34,24.28 8.92,28.89 -1.47,45.27 -90.03,-12.75 -230.16,-263.69 -106.05,-265.27z"/>
   <path class="fil0" d="M3693.02 1598.99c49.72,-27.29 12.4,-76.21 -28.71,-109.01 -41.4,-33.05 -90,-58.11 -141.26,-71.06 80.28,-31.25 171.26,-115.16 166.28,-199.71 -0.33,-5.38 -4.14,-9.12 -9.72,-8.3 -15.69,2.31 -28.98,8.63 -43.34,14.11 3.16,-25.37 6.28,-61.54 -19.77,-70.64 -22.63,-7.88 -69.59,22.68 -88.05,32.09 -46.8,23.77 -96.12,64.99 -129.95,113.24 15.07,-90.49 -7.21,-180.74 -69.62,-251.72 -23.06,-26.17 -53.71,-51.59 -90.16,-51.37 -28.04,0.18 -33.27,21.21 -29.27,41.98 -54.73,-21.57 -67.01,43.33 -64.48,95.37 3.85,78.9 30.2,158 82.02,217.05 -29.87,-19.07 -60.32,-37.66 -92.03,-50.65 -68.72,-28.18 -180.63,-43.54 -239.25,13.44 -2.85,2.73 -4.08,8.37 -0.65,11.32 12.26,10.71 26.11,17.09 39.95,24.71 -19.59,12.73 -47.74,32.43 -43.13,53.88 4.27,19.96 33.49,29.84 49.37,37.48 65.03,31.27 137.03,44.02 208.58,37.46 -48.92,32.49 -87.98,74.94 -109.95,138.1 -14.54,41.8 -21.32,92.19 -2.34,133.47 12.18,26.48 41.69,14.29 63.41,6.01 0.11,15.63 0.89,31.16 2.18,46.79 0.4,4.65 5.65,6.67 9.55,6.16 75.49,-9.6 121.28,-63.61 150.56,-130.18 13.6,65.72 51.48,134.65 106.34,170.73 5.56,3.67 11.39,-0.44 12.44,-6.21 -0.47,-23.32 13.29,-31.38 41.27,-24.17 2.32,2.78 6.45,3.38 9.61,1.82 67.52,-33.29 54.64,-137.48 35.12,-204.4 37.81,26.64 81.44,44.69 130.31,50.35 31.05,3.58 75.62,1.18 100.84,-19.23 25.26,-20.45 14.35,-38.26 -6.16,-48.9z"/>
   <path class="fil1" d="M3503.35 1221.18c20.61,-15.6 43.82,-26.59 67.42,-36.92 11.89,-5.23 24.08,-9.84 36.59,-13.33 21.84,-6.12 12.31,57.06 11.37,65.47 -0.54,4.92 4.85,9.84 9.73,8.33 15.14,-4.72 29.4,-11.84 44.62,-15.85 -3.7,84.06 -107.12,166.21 -182.9,183.46 -34.79,-5.03 -70.29,-4.14 -105.28,3.89 -1.71,-9.03 -5.36,-17.65 -10.55,-25.17 0.16,-0.45 0.42,-0.8 0.51,-1.29 12.73,-70.15 74.05,-127.4 128.49,-168.59z"/>
   <path class="fil1" d="M3165.28 1174.74c-6.25,-40.09 -19.12,-159.49 53.33,-113.64 6.88,4.37 15,-3.05 11.57,-10.35 -27.87,-59.16 41.84,-31.58 64.79,-13.31 22.1,17.61 39.68,41.4 54.33,65.26 42.38,69.23 47.32,151.61 25.9,228.55 -0.71,2.52 -0.25,4.76 0.89,6.5 -6.32,13.11 -11.31,26.47 -14.69,40 -1.27,-0.96 -2.36,-2.11 -3.7,-2.94 -0.35,-0.22 -0.71,-0.25 -1.04,-0.4 -0.32,-0.16 -0.49,-0.4 -0.83,-0.54 -21.84,-8.74 -51.82,-6.81 -71.95,7.39 -0.09,-0.09 -0.13,-0.2 -0.25,-0.29 -68.04,-48.16 -105.72,-125.26 -118.36,-206.23z"/>
   <path class="fil1" d="M3358.71 1456.99c-12.04,13.09 -32.36,15.25 -48.89,13.22 -29.74,-3.7 -38.44,-32.65 -30.21,-58.31 8.73,-27.22 46.76,-31.83 69.93,-23.15 22.32,14.42 27.44,48.28 9.17,68.24z"/>
   <path class="fil1" d="M2996.86 1447.33c-22.63,-6.67 -44.6,-18.09 -65.32,-29.07 -40.19,-21.25 -3.94,-43.67 22.42,-61.72 4.69,-3.22 6.41,-10.3 0.78,-13.84 -7.43,-4.67 -14.31,-8.5 -22.23,-12.31 -27.53,-13.2 -23.3,-10.28 -3.54,-21.41 21.39,-12.07 48.19,-14.8 72.2,-15.92 46.36,-2.07 93.86,8.21 136.59,25.73 45.67,18.74 89.32,51.99 131.78,78.19 -0.95,1.6 -2.16,3.03 -2.93,4.79 -3.12,7.01 -4.92,14.18 -5.79,21.23 -26.86,10.78 -52.61,22.21 -76.69,35.17 -0.61,0 -1.14,-0.15 -1.76,-0.04 -61.49,11.37 -125.59,6.9 -185.49,-10.79z"/>
   <path class="fil1" d="M3118.36 1791.97c-1.16,-15.6 -1.89,-30.85 -1.54,-46.6 0.13,-4.79 -4.52,-9.97 -9.68,-8.3 -10.95,3.51 -21.66,7.63 -32.52,11.37 -34.48,11.84 -32.63,-50.81 -31.83,-67.19 2.11,-42.09 19.05,-84.22 40.24,-120.03 23.03,-38.91 60.81,-65.99 101.76,-87.25 0.31,-0.07 0.6,-0.07 0.91,-0.11 2.04,-0.4 3.38,-1.4 4.38,-2.65 23.48,-11.82 47.78,-21.78 70.86,-31.05 2.69,17.99 13.37,33.74 32.89,42.22 1.05,0.45 2.18,0.69 3.23,1.07 -17.7,110.9 -48.5,284.41 -178.72,308.52z"/>
   <path class="fil1" d="M3449.85 1786.12c-17.69,30.98 -27.86,-1.15 -53.23,2.2 -16.38,2.18 -23.97,23.97 -27.91,41.02 -53.06,-40.64 -86.78,-115 -93.83,-179.63 19.43,-54.41 29.95,-113.69 37.82,-162.65 13.82,1.38 28.31,-1.36 40.75,-7.52 0.11,0.93 0.31,1.87 0.8,2.87 23.32,44.98 54.22,85.44 91.72,117.16 0.07,0.27 0.03,0.51 0.11,0.78 19.63,54.55 33.94,132.98 3.78,185.77z"/>
   <path class="fil1" d="M3661.44 1647c-10.02,2.74 -21.21,4.21 -31.56,4.94 -26.58,1.82 -53.37,-3.34 -78.72,-10.91 -34.63,-10.32 -65.32,-27.95 -92.23,-50.32 -0.45,-0.54 -0.96,-0.91 -1.5,-1.22 -36.92,-31.12 -66.57,-71.31 -88.89,-114.37 -0.78,-1.51 -1.87,-2.43 -3.02,-3.12 2.4,-1.94 4.71,-3.96 6.79,-6.19 8.57,-9.34 12.71,-21.19 13.48,-33.34 33.68,-8.06 67.62,-9.13 100.82,-4.43 1.16,0.53 2.49,0.76 4.01,0.6 43.6,6.74 85.82,23.25 124.19,46.63 34.39,20.94 137.3,90.6 55.22,116.31 -6.92,2.16 -9.26,13.24 -0.89,15.47 13.77,0.75 22.01,8.95 24.68,24.55 -7.59,8.48 -22.17,12.62 -32.38,15.4z"/>
   <path class="fil0" d="M3288.56 1366.79c3.89,9.6 18.18,2.23 14.31,-7.3 -12.42,-30.52 -23.64,-61.52 -39.08,-90.65 -4.83,-9.12 -19.16,-1.87 -14.31,7.31 15.47,29.15 26.69,60.14 39.08,90.65z"/>
   <path class="fil0" d="M3405.14 1390.62c24.06,-27.44 50.17,-53.12 80.59,-73.49 8.48,-5.7 1.29,-20.06 -7.32,-14.29 -31.65,21.19 -58.91,47.2 -83.95,75.8 -6.73,7.7 3.89,19.77 10.68,11.97z"/>
   <path class="fil0" d="M3462.67 1379.54c17.27,-6.74 34.68,-13.02 52.44,-18.32 9.84,-2.93 6.54,-18.67 -3.38,-15.71 -19.1,5.72 -37.82,12.46 -56.36,19.72 -9.61,3.79 -2.25,18.05 7.3,14.31z"/>
   <path class="fil0" d="M3532.73 1497.05c-40.91,-23.59 -84.35,-41.53 -128.69,-57.53 -9.77,-3.51 -14.84,11.73 -5.14,15.24 43.05,15.51 85.22,32.76 124.93,55.69 8.96,5.14 17.87,-8.21 8.9,-13.4z"/>
   <path class="fil0" d="M3417.31 1468.41c-8.39,-6.12 -17.2,7.3 -8.86,13.36 17.25,12.57 34.32,25.39 49.39,40.59 7.26,7.3 19.27,-3.34 11.97,-10.71 -16.02,-16.16 -34.12,-29.89 -52.5,-43.24z"/>
   <path class="fil0" d="M3332.31 1501.73c-0.06,-10.3 -16.11,-11.29 -16.04,-0.89 0.38,61.87 -3.36,124.03 18.02,183.19 3.5,9.73 17.78,2.34 14.29,-7.3 -20.28,-56.13 -15.94,-116.34 -16.27,-175z"/>
   <path class="fil0" d="M3364.1 1541.1c-4.08,-9.53 -18.37,-2.21 -14.31,7.27 13.58,31.78 25.44,64.04 33.97,97.53 2.54,9.99 18.27,6.67 15.71,-3.38 -8.9,-34.83 -21.27,-68.42 -35.36,-101.42z"/>
   <path class="fil0" d="M3249.41 1488.79c-38.57,23.35 -74.96,49.82 -106.41,82.33 -7.15,7.41 3.5,19.43 10.71,11.97 30.51,-31.54 65.54,-57.31 103.02,-80.02 8.79,-5.32 1.58,-19.67 -7.32,-14.29z"/>
   <path class="fil0" d="M3244.04 1541.39c-11.99,27.97 -23.92,55.84 -40.22,81.63 -5.54,8.75 7.84,17.63 13.37,8.86 17.05,-26.93 29.54,-56.11 42.07,-85.36 4.08,-9.52 -11.17,-14.57 -15.22,-5.14z"/>
   <path class="fil0" d="M3224.61 1409.83c-40.31,8.55 -80.81,8.03 -121.72,5.83 -10.33,-0.54 -11.24,15.47 -0.91,16.02 42.38,2.32 84.33,2.69 126.01,-6.12 10.13,-2.14 6.77,-17.87 -3.38,-15.73z"/>
   <path class="fil0" d="M3193.12 1375.56c-31.29,-8.14 -62.51,-16.58 -93.43,-26.08 -9.89,-3.05 -15.05,12.17 -5.14,15.22 30.91,9.52 62.12,17.94 93.45,26.11 9.97,2.58 15.14,-12.62 5.12,-15.25z"/>
   <path class="fil0" d="M3319.96 1337.97c0.58,10.21 16.61,11.24 16.05,0.89 -3.19,-56.82 -5.77,-113.33 -23.95,-167.75 -3.25,-9.7 -19.01,-6.45 -15.69,3.36 17.73,53.08 20.52,108.03 23.59,163.5z"/>
   <path class="fil0" d="M3315.24 1426.12c0.83,-8.26 -9.26,-10.35 -13.82,-5.56 -4.14,2.91 -5.81,9.66 -0.29,13.31 0.35,0.25 0.71,0.47 1.07,0.69 3.56,2.36 8.86,1.51 11.13,-2.23 1.25,-2.03 1.72,-3.85 1.91,-6.21z"/>
   <path class="fil0" d="M3329.98 1414.48c10.35,0.6 11.26,-15.44 0.93,-16.02 -10.35,-0.58 -11.26,15.44 -0.93,16.02z"/>
   <path class="fil0" d="M3328.17 1435.4c-0.49,-0.56 -0.98,-1.11 -1.49,-1.67 -1.22,-1.31 -2.56,-1.96 -3.96,-2.3 0.53,0.03 1.04,0.07 1.58,0.09 10.33,0.61 11.24,-15.44 0.89,-16.04 -0.53,0 -1.05,-0.04 -1.58,-0.09 -10.33,-0.58 -11.24,15.43 -0.93,16.04 -6.59,-1.58 -13.71,6.66 -7.97,13 0.47,0.53 1,1.11 1.47,1.65 6.97,7.7 18.94,-2.98 11.99,-10.69z"/>
   <path class="fil0" d="M3350.92 1424.08c-6.88,-7.77 -18.85,2.93 -11.97,10.68 0.49,0.56 1,1.11 1.47,1.67 6.9,7.74 18.88,-2.97 11.97,-10.69 -0.47,-0.57 -0.98,-1.11 -1.47,-1.67z"/>
   <path class="fil0" d="M3316.49 1404.11c0.04,-0.53 0.06,-1.05 0.11,-1.58 0.57,-10.35 -15.45,-11.26 -16.05,-0.91 -0.03,0.54 -0.07,1.05 -0.09,1.58 -0.58,10.32 15.47,11.24 16.02,0.91z"/>
   <path class="fil0" d="M3299.97 1442.51c-0.53,-0.04 -1.07,-0.07 -1.58,-0.09 -10.33,-0.58 -11.24,15.44 -0.89,16.02 0.51,0.04 1.02,0.06 1.56,0.09 10.35,0.6 11.26,-15.45 0.91,-16.02z"/>
   <path class="fil0" d="M3341.33 1407.09c-0.04,0.51 -0.07,1.05 -0.11,1.58 -0.57,10.33 15.47,11.24 16.05,0.9 0.02,-0.52 0.06,-1.05 0.09,-1.56 0.58,-10.35 -15.44,-11.26 -16.02,-0.91z"/>
   <path class="fil0" d="M3336.19 1444.55c-0.54,-0.02 -1.05,-0.06 -1.56,-0.09 -10.35,-0.58 -11.26,15.44 -0.93,16.05 0.54,0.02 1.05,0.04 1.58,0.09 10.35,0.57 11.26,-15.45 0.91,-16.05z"/>
   <path class="fil0" d="M2960.3 1626.5c-8.61,-6.86 -17.56,-13.24 -26.71,-19.41 -5.1,-3.41 -0.6,-11.84 4.5,-8.42 9.84,6.59 19.47,13.46 28.76,20.86 4.83,3.85 -1.76,10.77 -6.55,6.97zm-51.66 -43.73c-6.12,-0.71 -3.8,-9.97 2.23,-9.31 22.46,2.54 44.45,7.03 65.54,15.29 5.75,2.27 1.16,10.66 -4.52,8.44 -20.27,-7.95 -41.68,-12 -63.25,-14.42zm147.05 59.6c-2.38,-1.87 -1.8,-6.16 0.76,-7.56 4.45,-2.4 38.55,-19.19 28.16,-27.78 -5.94,-4.92 -12.35,-9.32 -18.92,-13.37 -13.04,-7.99 -26.3,-15.63 -40.93,-20.41 -38.62,-12.62 -87.36,-23.15 -125.97,-5.59 -0.27,0.14 -0.54,0.14 -0.8,0.2 -1.94,5.07 -4.88,9.79 -8.73,13.71 15.8,14.36 28.26,31.41 37.61,50.1 34.14,31.18 109.36,53.86 151.72,27.13 -7.14,-6.08 -15.44,-10.62 -22.9,-16.43z"/>
   <path class="fil0" d="M2890.37 1681.4c-2.29,-27.18 -8.17,-53.66 -15.18,-79.95 -1.58,-5.94 7.59,-8.64 9.17,-2.67 7.23,27.08 13.22,54.41 15.55,82.41 0.52,6.12 -9.03,6.32 -9.55,0.2zm-28.22 -28.22c2.32,-12.51 2.78,-25.2 3.07,-37.9 0.13,-6.12 9.68,-6.37 9.55,-0.2 -0.29,13.51 -0.86,27.02 -3.32,40.33 -1.13,6.08 -10.42,3.81 -9.3,-2.22zm30.29 132c-1.76,-4.85 4.47,-7.48 7.88,-4.83 40.4,31.41 39.53,-42.53 38.11,-66.43 -1.6,-26.69 -7.86,-52.93 -19.34,-76.52 -0.62,-0.66 -0.93,-1.4 -1.07,-2.16 -9,-17.8 -21.03,-34.03 -36.37,-47.76 -6.21,3.73 -13.42,5.74 -20.9,4.71 -1.79,-0.24 -3.56,-0.69 -5.3,-1.2 0.04,0.78 -0.04,1.65 -0.49,2.54 -13.48,25.51 -23.05,53.64 -25.75,82.24 0.02,0.38 0,0.74 -0.07,1.14 -1.82,20.74 -0.02,41.73 6.67,62.14 4.9,14.95 11.46,29.8 21.37,42.18 3.87,4.81 8.39,9.79 13.14,13.75 4.83,4.03 11.79,9.75 18.49,10.59 6.74,-6.61 7.95,-13.39 3.63,-20.38z"/>
   <path class="fil0" d="M2776.64 1658.9c13.49,-15.53 25.2,-32.3 36.12,-49.68 3.27,-5.2 11.7,-0.71 8.41,4.5 -11.35,18.09 -23.54,35.54 -37.54,51.7 -4.05,4.65 -11,-1.89 -6.99,-6.52zm-35.41 -11.24c21.66,-30.52 53.29,-49.79 83.4,-70.96 5.07,-3.56 10.04,4.61 5.01,8.13 -28.54,20.07 -59.45,38.39 -79.99,67.35 -3.51,4.97 -11.97,0.49 -8.42,-4.52zm78.81 26.24c0.11,-0.13 0.25,-0.2 0.36,-0.33 2.78,-29.09 12.06,-57.89 26.13,-84.55 0.32,-0.58 0.71,-1 1.14,-1.36 -7.26,-4.01 -13.51,-10.15 -17.51,-17.38 -26.6,12.78 -59.13,27.75 -92.3,36.7 -29.18,25.39 -54.11,67.08 -55.95,106.78 9.66,-3.85 22.9,-7.52 29.54,-0.26 10.21,11.26 -2.01,27.13 19.12,25.26 36.04,-3.16 69.51,-36.77 89.49,-64.86z"/>
   <path class="fil0" d="M2782.96 1564.36c-18.54,3.79 -37.03,7.59 -55.97,8.39 -6.17,0.27 -6.37,-9.26 -0.2,-9.53 18.12,-0.8 35.79,-4.43 53.52,-8.03 5.99,-1.25 8.71,7.92 2.65,9.17zm-53.68 -39.17c-6.08,-1 -3.83,-10.28 2.23,-9.3 26.55,4.34 51.83,13.15 76.34,24.06 5.63,2.54 1.07,10.93 -4.52,8.44 -23.79,-10.61 -48.29,-18.98 -74.05,-23.19zm96.77 34.32c-2.47,-12.42 1.6,-22.99 9.48,-30.4 -12.38,-8.14 -25.51,-16.65 -39.22,-24.08 -0.96,-0.09 -1.92,-0.4 -2.78,-1.27 -0.13,-0.11 -0.25,-0.26 -0.38,-0.4 -24.26,-12.8 -50.33,-22.08 -77.15,-20.13 -24.7,1.8 -51.01,7.82 -72.29,21.06 -8.32,5.16 -39.55,25.53 -22.07,38.33 5.52,4.07 11.15,7.9 16.6,12.04 2.59,1.96 1.63,6.01 -0.78,7.57 -7.81,5.16 -15.02,10.68 -22.26,16.55 55.98,55.44 151.21,11.64 211.42,-17.34 -0.2,-0.64 -0.45,-1.29 -0.58,-1.94z"/>
   <path class="fil0" d="M2831.48 1508.02c-18.45,-17.36 -32.52,-38.01 -45.76,-59.47 -3.22,-5.25 4.9,-10.26 8.15,-5.01 12.79,20.74 26.28,40.69 44.13,57.51 4.47,4.23 -2.04,11.2 -6.52,6.97zm-15.54 -85.86c-1.87,-5.85 7.3,-8.5 9.17,-2.65 5.85,18.34 12.33,36.46 18.94,54.51 2.13,5.79 -7.06,8.41 -9.17,2.67 -6.63,-18.05 -13.08,-36.16 -18.94,-54.53zm37.08 5.56c-5.96,-26.82 -17.02,-53.52 -33.78,-75.49 -8.66,-11.35 -19.1,-23.53 -32.24,-29.87 -12.16,-5.88 -12.16,-8.95 -9.29,8.99 0.85,5.16 1.32,9.82 1.54,15.05 0.18,3.94 -3.85,5.52 -7.01,4.3 -17.78,-6.74 -41.02,-16.85 -37.77,9.99 1.67,13.84 3.54,28.44 7.94,41.77 11.68,35.28 31.25,68.13 57.64,94.3 0.29,0.29 0.4,0.61 0.58,0.89 14.54,7.37 28.84,16.08 43.22,25.53 3.74,-1.94 7.84,-3.5 12.31,-4.37 1.14,-0.22 2.25,-0.11 3.36,-0.2 -1.6,-29.63 -0.18,-62.26 -6.5,-90.9z"/>
   <path class="fil0" d="M2905.48 1523.25c26.06,-20.31 51.95,-40.33 71.87,-66.99 3.69,-4.94 10.61,1.65 6.97,6.52 -20.41,27.36 -47.14,47.81 -73.83,68.62 -4.87,3.78 -9.82,-4.38 -5.01,-8.15zm-24.72 -5.56c10.66,-16.4 22.01,-32.4 31,-49.83 2.85,-5.5 11.24,-0.96 8.44,4.49 -8.99,17.45 -20.34,33.43 -31.02,49.86 -3.36,5.12 -11.78,0.64 -8.42,-4.52zm46.76 30.27c44.84,-15.62 83.44,-45.98 102.89,-90.18 6.67,-15.25 12.33,-31.92 13.44,-48.7 1.15,-17.41 -9.02,-60.82 -28.49,-27.13 -2.4,4.16 -8.77,2.69 -8.99,-2.16 -2.16,-50.94 -56.13,-4.14 -73.61,12.51 -35.27,33.65 -60.18,78.21 -60.62,127.82 -0.03,0.07 -0.04,0.13 -0.04,0.2 13.75,5.03 24.86,19 28,32.65 0.04,0.22 0,0.38 0.02,0.58 0.04,0.22 0.16,0.4 0.18,0.64 0.05,0.96 -0.15,1.87 -0.2,2.83 7.77,-2.96 15.98,-5.05 24.55,-6.41 0.44,-1.14 1.38,-2.11 2.87,-2.65z"/>
   <path class="fil0" d="M2883.14 1565.78c-5.26,3.23 -10.26,-4.92 -4.99,-8.14 0.25,-0.18 0.51,-0.33 0.8,-0.49 5.23,-3.22 10.24,4.92 4.99,8.13 -0.27,0.18 -0.54,0.35 -0.8,0.51zm-18.83 0.89c0.11,-0.44 0.2,-0.86 0.31,-1.31 1.45,-5.96 10.75,-3.76 9.29,2.25 -0.11,0.42 -0.18,0.85 -0.29,1.29 -1.47,5.99 -10.78,3.76 -9.31,-2.23zm-13.55 5.68c-0.18,-0.27 -0.32,-0.56 -0.49,-0.8 -3.23,-5.26 4.92,-10.24 8.14,-5.01 0.16,0.29 0.33,0.54 0.49,0.8 3.2,5.26 -4.92,10.26 -8.14,5.01zm0.62 -14.25c0.09,-0.42 0.18,-0.87 0.29,-1.29 1.16,-4.94 7.59,-4.25 9.06,-0.51 -3.18,-5.25 4.92,-10.24 8.14,-4.98 0.18,0.26 0.32,0.54 0.49,0.8 3.22,5.26 -4.92,10.24 -8.14,4.98 -0.16,-0.25 -0.33,-0.51 -0.47,-0.78 0.28,0.8 0.44,1.67 0.2,2.71 -0.11,0.42 -0.2,0.85 -0.29,1.29 -1.42,5.99 -10.7,3.76 -9.28,-2.23zm0.87 -10.75c0,-0.25 0,-0.51 -0.03,-0.76 -0.09,-3.94 3.79,-5.41 6.64,-4.36 3.85,0.6 6.25,6.21 1.94,8.63 -1.22,0.69 -2.25,1.09 -3.67,1.18 -2.61,0.14 -4.81,-2.16 -4.88,-4.69zm-12.79 6.59c-0.14,-0.26 -0.32,-0.53 -0.47,-0.8 -3.22,-5.25 4.92,-10.24 8.13,-4.98 0.18,0.26 0.36,0.54 0.51,0.78 3.2,5.26 -4.91,10.26 -8.16,5.01zm28.33 -18.58c5.26,-3.2 10.26,4.91 5.01,8.16 -0.26,0.16 -0.54,0.32 -0.82,0.49 -5.23,3.2 -10.24,-4.94 -4.97,-8.14 0.25,-0.18 0.51,-0.33 0.78,-0.51zm11.84 13.75c3.23,5.25 -4.91,10.26 -8.12,4.98 -3.26,-5.23 4.91,-10.24 8.12,-4.98zm11.08 5.83c-3.63,-14.26 -18.78,-31.29 -35.05,-26.33 -15.31,4.69 -26.51,18.78 -18.23,34.56 4.61,8.77 12.55,17.96 23.04,19.39 15.96,2.18 30.78,-11.82 30.24,-27.62z"/>
   <path class="fil0" d="M2532.35 1104.18c-0.76,-4.01 3.67,-7.79 7.53,-6.9 6.54,1.56 55.64,15.18 52.88,-2.69 -1.56,-10.23 -4.03,-20.31 -7.02,-30.24 -5.94,-19.63 -12.4,-39.06 -22.74,-56.89 -27.37,-47.03 -66.75,-101.02 -121.03,-117.87 -0.38,-0.11 -0.64,-0.35 -0.98,-0.54 -6.45,3.39 -13.62,5.46 -20.95,5.94 2.98,28.45 0.26,56.62 -7.05,83.66 6.37,61.63 61.42,151.37 127.6,162.36 -1.72,-12.44 -5.97,-24.39 -8.24,-36.83z"/>
   <path class="fil1" d="M2438.36 913.47c-5.5,-6.12 5.08,-13.37 10.53,-7.3 20.21,22.55 38.17,46.63 51.9,73.71 3.74,7.37 -8.33,11.67 -12.02,4.41 -13.18,-26.02 -31,-49.17 -50.41,-70.82z"/>
   <path class="fil1" d="M2451.05 1003.29c-2.47,-14.55 -5.76,-28.93 -9.44,-43.24 -2.03,-7.92 9.97,-12.4 12.02,-4.4 3.96,15.36 7.48,30.82 10.2,46.47 1.38,8.16 -11.37,9.24 -12.78,1.17z"/>
   <path class="fil0" d="M2241.73 1101.53c2.56,-6.41 11.1,-3.5 12.17,2.18 12.42,67.44 77.45,-7.3 97.35,-32.5 22.19,-28.11 39.3,-59.93 48.83,-93.76 0,-1.22 0.31,-2.25 0.85,-3.12 6.9,-25.82 9.32,-52.79 6.21,-80.19 -9.55,-1.8 -18.52,-6.23 -25.08,-13.91 -1.58,-1.84 -2.96,-3.87 -4.25,-5.96 -0.64,0.87 -1.49,1.65 -2.76,2.11 -36.23,13.53 -70.87,33.12 -99.04,59.34 -0.31,0.4 -0.64,0.76 -1.11,1.07 -20.3,19.12 -37.22,41.73 -48.67,68.13 -8.44,19.32 -15.12,40.02 -16.23,61.25 -0.4,8.24 -0.31,17.25 0.86,25.44 1.25,8.35 3.1,20.28 9.08,27.08 12.62,-0.6 19.87,-6.34 21.79,-17.16z"/>
   <path class="fil1" d="M2329.08 942.49c13.44,-10.46 25.26,-22.72 36.84,-35.19 5.61,-6.01 15.37,2.27 9.75,8.33 -12.33,13.24 -24.97,26.24 -39.29,37.37 -6.52,5.07 -13.8,-5.48 -7.3,-10.5z"/>
   <path class="fil1" d="M2332.16 995.86c21.94,-29.2 39.66,-60.94 56.06,-93.5 3.72,-7.37 15.29,-1.87 11.58,5.52 -16.91,33.54 -35.3,66.21 -57.91,96.31 -4.97,6.59 -14.67,-1.76 -9.73,-8.33z"/>
   <path class="fil0" d="M2268.5 925.69c0.23,-0.06 0.4,0 0.62,-0.02 28.71,-26.64 63.7,-47.17 101.54,-61.3 0.82,-0.31 1.58,-0.38 2.32,-0.38 -3.67,-10.43 -4.45,-22.17 -2.01,-32.96 -37.99,-10.93 -83.88,-24.95 -125.06,-45.56 -51.83,-0.62 -113.91,18.88 -151.17,56.96 13.11,4.76 29.63,12.88 29.76,26.02 0.25,20.41 -26.18,25.39 -3.36,42.35 38.86,28.96 102.31,25.17 147.36,14.89z"/>
   <path class="fil1" d="M2213.02 829.19c48.88,-11.24 97.71,-2.32 146.71,3.36 8.21,0.96 5.87,13.53 -2.27,12.6 -46.45,-5.36 -93.67,-14.6 -140.04,-3.94 -7.94,1.82 -12.42,-10.18 -4.4,-12.02z"/>
   <path class="fil1" d="M2238.46 871.99c27.31,-3.54 53.95,-9.82 80.41,-17.49 7.88,-2.3 12.33,9.7 4.4,12.02 -27.49,7.99 -55.26,14.55 -83.68,18.2 -8.19,1.09 -9.31,-11.68 -1.14,-12.73z"/>
   <path class="fil0" d="M2376.47 816.59c8.57,-14.62 22.07,-21.56 36.59,-21.97 -5.12,-19.16 -10.68,-39.35 -17.78,-59.05 -0.89,-0.93 -1.56,-2.09 -1.65,-3.74 -0.03,-0.25 0,-0.49 -0.03,-0.73 -12.86,-34.45 -30.67,-66.95 -59.22,-88.92 -26.33,-20.21 -58,-37.66 -91.12,-43.35 -12.89,-2.23 -62.28,-9.7 -56.22,18.7 1.91,8.96 4.14,17.82 5.87,26.81 0.83,4.25 -3.74,7.44 -7.52,6.88 -12.42,-1.8 -24.57,-2.69 -36.99,-3.3 6.54,105.38 140.86,146.43 226.9,171.11 0.42,-0.8 0.69,-1.67 1.16,-2.45z"/>
   <path class="fil1" d="M2310.26 696c-5.21,-6.43 5.34,-13.68 10.5,-7.3 22.7,28 40.15,59.34 54.93,92.12 3.41,7.52 -8.66,11.86 -12.02,4.38 -14.35,-31.83 -31.4,-62.03 -53.41,-89.21z"/>
   <path class="fil1" d="M2329.04 783.05c-21.92,-12.73 -43.82,-25.42 -63.5,-41.49 -6.41,-5.23 1.92,-14.96 8.3,-9.75 18.85,15.37 39.75,27.51 60.72,39.68 7.08,4.11 1.62,15.69 -5.52,11.55z"/>
   <path class="fil0" d="M2520.91 708.77c17.98,-32.11 30.69,-68.7 33.49,-105.58 1.45,-19.12 1.85,-40.6 -5.63,-58.67 -6.92,-16.69 -4.21,-19.76 -17.29,0.74 -3.77,5.92 -7.46,11 -11.89,16.42 -3.32,4.12 -8.77,2.07 -10.86,-1.96 -11.75,-22.57 -25.99,-53.42 -46.69,-23.66 -10.66,15.36 -21.81,31.63 -29.29,48.88 -19.74,45.69 -29.42,95.99 -26.37,145.71 0.03,0.54 -0.11,0.96 -0.2,1.43 7.95,20.3 14.51,41.78 20.45,64.05 5.5,1.38 11,3.47 16.23,6.63 1.34,0.78 2.36,1.85 3.51,2.78 24.82,-31.07 55.35,-62.43 74.54,-96.77z"/>
   <path class="fil1" d="M2488.77 670.21c3.34,-7.55 14.91,-2.03 11.53,5.52 -10.5,23.54 -20.16,47.45 -29.62,71.42 -3.03,7.68 -14.55,2.11 -11.55,-5.52 9.46,-23.99 19.14,-47.89 29.65,-71.42z"/>
   <path class="fil1" d="M2427.77 769.94c-2.96,-33.83 1.38,-67.01 7.26,-100.31 1.43,-8.13 14.02,-5.85 12.6,2.27 -5.68,32.16 -9.97,64.16 -7.08,96.88 0.71,8.21 -12.04,9.37 -12.78,1.16z"/>
   <path class="fil0" d="M2488.24 895.49c58.82,24.33 124.48,28.35 183.32,1.47 20.3,-9.28 40.8,-20.9 56.87,-36.71 16.65,-16.4 45.18,-68.91 -4.3,-52.52 -6.12,2 -11.19,-5.14 -7.1,-10.17 43.27,-52.93 -52.44,-54.22 -84.78,-53.13 -65.3,2.23 -129.91,24.62 -174.57,73.83 -0.07,0.09 -0.16,0.09 -0.23,0.18 9.28,17.29 7.95,41.2 -1.07,57.62 -0.16,0.27 -0.36,0.38 -0.51,0.6 -0.18,0.27 -0.22,0.54 -0.4,0.8 -0.8,0.98 -1.85,1.72 -2.71,2.63 10.39,3.98 20.47,9.19 30.27,15.49 1.47,-0.73 3.27,-0.91 5.2,-0.09z"/>
   <path class="fil1" d="M2468.48 823.51c25.28,-6.9 50.9,-12.78 75.45,-22.19 7.72,-2.98 12.08,9.06 4.38,12.02 -24.53,9.41 -50.14,15.29 -75.45,22.19 -7.92,2.16 -12.37,-9.86 -4.38,-12.02z"/>
   <path class="fil1" d="M2488.24 851.13c44.2,2.9 87.91,5.99 131.62,-2.96 8.11,-1.65 9.15,11.1 1.16,12.75 -44.82,9.17 -89.78,5.77 -135.03,2.81 -8.23,-0.54 -5.9,-13.14 2.25,-12.6z"/>
   <path class="fil0" d="M2427.97 873.76c-8.1,-1.44 -5.85,-14.07 2.27,-12.6 0.42,0.07 0.82,0.13 1.24,0.2 8.13,1.47 5.85,14.06 -2.25,12.62 -0.45,-0.09 -0.82,-0.16 -1.27,-0.22zm-19.63 -15.92c0.52,-0.33 0.98,-0.66 1.5,-1 6.76,-4.7 14.11,5.8 7.3,10.48 -0.51,0.36 -0.98,0.69 -1.47,1.03 -6.76,4.69 -14.09,-5.81 -7.32,-10.51zm-18.6 -6.41c0.07,-0.4 0.13,-0.82 0.23,-1.22 1.46,-8.12 14.06,-5.87 12.59,2.25 -0.06,0.42 -0.13,0.82 -0.22,1.24 -1.47,8.13 -14.07,5.88 -12.6,-2.27zm13.31 -13.71c0.49,-0.31 0.98,-0.66 1.44,-1 5.56,-3.92 11.37,2.51 9.51,7.56 1.51,-8.1 14.06,-5.83 12.62,2.27 -0.09,0.42 -0.16,0.82 -0.23,1.24 -1.46,8.13 -14.06,5.85 -12.62,-2.26 0.07,-0.4 0.16,-0.83 0.23,-1.22 -0.4,1.07 -1.03,2.09 -2.18,2.91 -0.49,0.33 -0.98,0.69 -1.47,1.02 -6.76,4.76 -14.07,-5.77 -7.3,-10.53zm10.46 -9.92c0.22,-0.29 0.42,-0.54 0.67,-0.8 3.38,-4.03 8.59,-2.05 10.5,1.53 3.31,4.05 0.71,11.82 -5.77,10.4 -1.82,-0.42 -3.22,-0.96 -4.72,-2.11 -2.71,-2.18 -2.89,-6.45 -0.69,-9.02zm-18.65 -4.81c0.06,-0.4 0.13,-0.83 0.22,-1.25 1.44,-8.12 14.04,-5.85 12.57,2.27 -0.06,0.4 -0.13,0.83 -0.22,1.22 -1.44,8.14 -14.07,5.88 -12.57,-2.25zm44.87 6.66c8.14,1.44 5.87,14.06 -2.25,12.59 -0.42,-0.06 -0.82,-0.15 -1.24,-0.22 -8.13,-1.44 -5.85,-14.04 2.27,-12.6 0.4,0.07 0.82,0.16 1.22,0.23zm-0.4 24.3c-1.44,8.14 -14.06,5.87 -12.6,-2.25 1.45,-8.14 14.04,-5.88 12.6,2.25zm5.9 15.72c9.08,-17.52 9.1,-48.05 -11.62,-57.6 -19.49,-8.97 -43.24,-4.85 -49.03,18.31 -3.2,12.89 -3.43,29.18 5.76,39.95 14.02,16.38 41.31,15.6 54.89,-0.67z"/>
  </g>
 </g>
</svg>
