<?xml version="1.0" encoding="UTF-8"?>
<!DOCTYPE svg PUBLIC "-//W3C//DTD SVG 1.1//EN" "http://www.w3.org/Graphics/SVG/1.1/DTD/svg11.dtd">
<!-- Creator: CorelDRAW 2019 (64-Bit) -->
<svg xmlns="http://www.w3.org/2000/svg" xml:space="preserve" width="1.71913in" height="1.71518in" version="1.1" style="shape-rendering:geometricPrecision; text-rendering:geometricPrecision; image-rendering:optimizeQuality; fill-rule:evenodd; clip-rule:evenodd"
viewBox="0 0 533.07 531.85"
 xmlns:xlink="http://www.w3.org/1999/xlink"
 xmlns:xodm="http://www.corel.com/coreldraw/odm/2003">
 <defs>
  <style type="text/css">
   <![CDATA[
    .fil0 {fill:#3C3F40;fill-rule:nonzero}
   ]]>
  </style>
 </defs>
 <g id="Layer_x0020_1">
  <metadata id="CorelCorpID_0Corel-Layer"/>
  <path class="fil0" d="M155.63 403.42c-0.27,-0.61 1.58,-1.34 3.95,-3.49 2.34,-2.06 5.28,-5.86 6.02,-11.08 0.79,-4.88 -1.35,-11.02 -6.23,-15.19 -4.04,-3.61 -9.97,-5.83 -16.19,-4.96 -5.87,0.78 -11.68,3.86 -15.29,8.35 -3.96,4.68 -3.77,10.93 -1.01,15.78 3.07,5.72 8.62,9.63 13.74,10.75 5.35,1.17 10.18,-0.14 13.44,-0.87 3.3,-0.81 5.23,-1.25 5.38,-0.84 0.15,0.37 -1.5,1.41 -4.7,2.78 -3.16,1.26 -8.16,3.29 -14.72,2.43 -6.26,-0.9 -13.09,-4.94 -17.2,-11.89 -1.76,-2.98 -2.89,-6.62 -2.73,-10.44 0.14,-3.83 1.7,-7.58 4.03,-10.53 4.45,-5.68 11.02,-9.82 18.25,-10.79 7.41,-1.09 15.44,1.08 20.64,5.97 6.15,5.57 8,13.89 6.53,20.03 -1.38,6.4 -5.38,10.44 -8.47,12.29 -3.17,1.91 -5.38,1.92 -5.45,1.71z"/>
  <path class="fil0" d="M157.43 402.72c0.08,-1.03 10.12,1.43 22.18,11.6 5.66,4.79 11.89,12.29 13.94,22.24 0.88,4.27 0.83,8.93 -0.61,13.45 -1.41,4.5 -4.11,8.54 -7.66,11.76 -3.39,3.1 -7.87,5.32 -12.71,5.68 -4.89,0.36 -9.14,-1.09 -12.98,-1.74 -4.07,-0.77 -7.41,-0.45 -10.35,1.78 -3.02,2.11 -5.74,5.49 -9.68,7.79 -9.1,5.16 -19.69,3.43 -25.93,-1.37 -6.61,-4.99 -8.62,-11.88 -8.93,-16.22 -0.26,-4.5 0.87,-6.85 1.2,-6.76 0.48,0.07 0.06,2.46 0.84,6.46 0.78,3.87 3.11,9.78 8.9,13.62 5.38,3.7 14.35,4.6 21.47,0.29 3,-1.78 5.57,-4.94 9.34,-7.65 1.86,-1.35 4.25,-2.46 6.73,-2.81 2.47,-0.41 4.87,-0.14 7.11,0.21 4.27,0.73 8.29,1.8 11.82,1.34 3.53,-0.39 6.82,-2.13 9.52,-4.53 2.83,-2.47 4.94,-5.81 5.97,-9.31 1.07,-3.46 1.09,-7.27 0.47,-10.8 -1.43,-8.3 -5.89,-15.45 -11.03,-20.39 -10.62,-10.16 -19.87,-13.97 -19.61,-14.65z"/>
  <path class="fil0" d="M141.71 405.33c1.09,0.28 -1.3,7.81 -8.12,17.71 -3.25,4.76 -7.42,10.07 -12.42,15.4 -4.31,4.61 -9.56,8.86 -15.17,12.94 -5.33,3.79 -11.93,7.65 -19.56,7.02 -3.9,-0.31 -7.6,-2.04 -10.4,-4.44 -2.79,-2.45 -4.87,-5.48 -6.05,-8.72 -1.43,-3.73 -1.74,-7.7 -1.12,-11.27 0.66,-3.52 2.01,-6.63 3.68,-9.15 3.43,-5.23 7.73,-8.12 10.76,-9.69 3.1,-1.52 5.05,-1.81 5.2,-1.46 0.18,0.41 -1.47,1.31 -4.08,3.19 -2.56,1.91 -6.19,4.96 -8.82,9.74 -2.58,4.58 -3.86,10.89 -1.28,16.86 2,5.08 6.64,9.8 12.45,10.23 5.71,0.47 11.1,-3.13 16.06,-6.62 5.25,-3.73 9.95,-8.17 14.23,-12.45 4.96,-4.95 9.74,-9.47 13.26,-13.86 7.25,-8.96 10.79,-15.64 11.39,-15.43z"/>
  <path class="fil0" d="M75.04 423.83c-0.13,0.56 -2.11,0.34 -5.46,-0.78 -3.33,-1.14 -8.06,-3.13 -13.32,-6.68 -2.52,-1.72 -5.14,-3.84 -7.58,-6.59 -2.45,-2.78 -4.47,-6.24 -5.73,-10.12 -2.2,-6.61 -1.75,-15.06 3.03,-21.57 4.57,-6.27 12.02,-9.17 18.75,-10.43 7.11,-1.3 14.14,-1.62 20.67,-1.06 7.56,0.67 14.39,2.27 20.08,4.06 11.76,3.66 18.36,8.34 17.98,8.97 -0.41,0.83 -7.29,-2.87 -18.87,-5.55 -5.6,-1.31 -12.24,-2.4 -19.45,-2.81 -6.21,-0.34 -12.88,-0.27 -19.42,0.99 -6.27,1.21 -12.08,4.4 -15.37,8.9 -3.57,4.67 -3.67,11.27 -2.06,16.71 1.72,6.44 5.74,11.62 10.24,15.2 9.3,7.15 16.76,10.04 16.51,10.74z"/>
  <path class="fil0" d="M92.15 369.11c-0.07,0.58 -3.17,-0.16 -8.23,-2.78 -4.95,-2.74 -12.22,-6.84 -18.9,-14.99 -3.22,-4.11 -5.27,-9.81 -4.99,-15.95 0.14,-3.07 0.99,-6.31 2.8,-9.23 1.73,-2.95 4.88,-5.34 7.98,-6.55 5.42,-2.14 10.26,-2.56 12.97,-6.13 3.02,-3.46 4.54,-9.22 8.27,-14.15 6.81,-9.42 18.19,-15.36 29.77,-15.65 6.01,-0.13 12.06,1.14 17.25,4.05 5.19,2.8 9.59,7.61 11.21,13.24 1.92,6.46 1.09,12.6 0.45,18 -0.65,5.41 -1.25,10.52 -1.82,15.23 -2.3,19.38 -4.18,31.93 -5.01,31.85 -0.83,-0.09 0.08,-12.74 1.49,-32.2 0.37,-4.73 0.76,-9.85 1.18,-15.27 0.46,-5.34 0.93,-11.01 -0.73,-16.13 -2.67,-8.88 -13.42,-14.49 -23.77,-14.06 -10.15,0.29 -19.86,6.09 -25.61,13.96 -3.17,3.89 -4.36,9.37 -8.26,14.46 -1.91,2.54 -4.94,4.51 -7.67,5.48 -2.75,1.05 -5.3,1.61 -7.44,2.45 -2.49,0.93 -4.3,2.23 -5.7,4.14 -1.35,1.9 -2.18,4.23 -2.5,6.63 -0.58,4.83 0.69,9.72 3.2,13.29 5.47,7.51 12.27,12.16 16.71,15.36 4.58,3.15 7.4,4.63 7.34,4.96z"/>
  <path class="fil0" d="M152.54 367.16c-0.36,-0.48 2.15,-2.05 6.86,-4.52 4.74,-2.42 11.62,-5.88 20.65,-8.96 8.75,-2.98 19.89,-4.55 31.69,-2.42 10.16,1.81 20.58,7.97 26.83,17.55 3.03,4.54 5.16,9.93 5.51,15.59 0.37,5.65 -0.81,10.84 -0.97,15.61 -0.09,2.49 0.11,4.84 0.79,7.02 0.69,2.22 1.87,4.48 2.93,6.96 1.06,2.46 2.04,5.3 2.01,8.37 -0.02,3.05 -1.01,5.86 -2.3,8.23 -1.5,2.79 -3.39,5.03 -5.54,7.16 -2.22,1.92 -4.5,3.6 -6.86,4.88 -4.69,2.67 -9.38,4.43 -13.76,5.78 -9.03,2.75 -16.82,3.51 -22.21,3.39 -5.41,-0.12 -8.34,-1.13 -8.26,-1.49 0.08,-0.47 2.99,-0.13 8.17,-0.57 5.16,-0.42 12.64,-1.63 21.16,-4.68 4.12,-1.49 8.5,-3.38 12.7,-5.98 4.24,-2.58 8.06,-5.95 10.44,-10.62 1,-1.94 1.68,-4.02 1.7,-6.07 0.03,-2.04 -0.62,-4.19 -1.59,-6.45 -0.94,-2.27 -2.19,-4.64 -3.06,-7.4 -0.88,-2.8 -1.12,-5.75 -1.04,-8.55 0.17,-5.37 1.1,-10.46 0.63,-15.13 -0.43,-4.65 -2.29,-9.06 -4.83,-12.96 -5.34,-8.3 -14.4,-13.24 -23.39,-15.08 -10.47,-2.17 -20.96,-1.79 -29.38,0.63 -8.72,2.48 -15.77,5.38 -20.78,7.19 -5,1.87 -7.93,2.78 -8.11,2.54z"/>
  <path class="fil0" d="M144.98 467.81c0.37,0.32 0.36,1.47 -1.29,2.43 -1.74,0.97 -4.52,0.46 -6.76,-0.41 -2.23,-0.83 -4.63,-1.75 -6.04,-1.27 -2.71,0.63 -5.79,0.51 -8.96,-0.03 -3.02,-0.49 -6.47,-2.17 -8.25,-5.23 -1.85,-3.23 -2.04,-6.31 -2.03,-9.01 0.14,-3.15 0.77,-5.94 1.46,-8.28 1.34,-4.87 3.66,-7.51 4.36,-7.02 0.72,0.41 -0.47,2.99 -0.87,7.63 -0.22,2.22 -0.36,4.83 -0.26,7.58 0.13,2.33 0.26,4.91 1.32,6.56 1.09,1.73 3.21,2.1 5.2,2.5 2.17,0.44 4.59,0.15 6.86,-0.19 2.13,-0.4 4.1,0.29 5.43,1 1.38,0.74 2.42,1.55 3.43,2.12 2.04,1.23 3.55,1.85 4.54,1.79 0.99,-0.01 1.65,-0.44 1.87,-0.19z"/>
  <path class="fil0" d="M240.29 391.94c-0.96,0.79 -4.26,-2.73 -9.71,-7.32 -2.63,-2.2 -5.82,-4.63 -9.51,-6.83 -3.17,-1.89 -6.51,-4.09 -10.3,-5.5 -3.64,-1.36 -7.49,-2.28 -11.33,-2.89 -3.99,-0.64 -7.98,-0.62 -11.7,-0.53 -4.32,0.1 -8.35,0.54 -11.76,1.21 -7.03,1.4 -11.5,3.23 -11.92,2.42 -0.37,-0.66 3.75,-3.43 10.97,-5.82 3.5,-1.15 7.73,-2.1 12.39,-2.48 4.02,-0.32 8.33,-0.08 12.66,0.53 4.14,0.57 8.53,0.97 12.51,2.53 4.12,1.59 8.04,3.48 11.43,5.75 3.93,2.63 6.77,6.02 9.27,8.69 5.14,5.52 7.39,9.93 7.01,10.24z"/>
  <path class="fil0" d="M114.71 287.11c0.28,1.15 -4.03,2.67 -6.06,8.77 -1.12,2.87 -1.54,6.31 -1.75,10.61 -0.25,3.66 -0.94,7.85 -2.58,12.1 -1.55,4.15 -4.74,7.75 -8.42,9.93 -3.85,2.32 -7.89,3.73 -12.07,4.06 -4.97,0.09 -8.5,-1.18 -11.59,-0.85 -3.13,0.17 -5.46,1.59 -7.07,2.68 -1.62,1.11 -2.55,1.89 -2.92,1.62 -0.3,-0.22 0.08,-1.39 1.47,-3.08 1.34,-1.63 4,-3.96 7.96,-4.72 3.76,-0.86 8.1,0.01 11.74,-0.32 3.2,-0.42 6.91,-1.43 9.94,-3.36 3.02,-1.89 4.81,-4.92 5.98,-7.88 1.32,-3.17 1.53,-6.93 1.97,-10.62 0.43,-4.26 1.93,-8.6 3.7,-11.77 1.71,-3.37 4.2,-5.64 6.25,-6.59 2.07,-0.94 3.4,-0.82 3.46,-0.59z"/>
  <path class="fil0" d="M191.59 353.86c-0.47,-0.37 0.42,-1.9 1.79,-4.69 1.42,-2.78 3.35,-6.84 6.02,-11.8 0.66,-1.19 1.35,-2.43 2.2,-3.74 0.78,-1.19 1.48,-2.35 2.09,-3.61 1.23,-2.47 2.02,-5.25 1.38,-7.4 -0.53,-1.88 -1.87,-3.45 -4.26,-4.65 -2.36,-1.22 -5.36,-2.02 -8.5,-3.01 -3.07,-0.91 -6.3,-2.51 -8.91,-4.53 -2.66,-2.02 -4.94,-4.36 -6.95,-6.8 -4.19,-5.08 -7.62,-10.19 -11.34,-14.31 -2.14,-2.4 -4.38,-4.44 -6.76,-5.97 -1.93,-1.2 -4.74,-1.4 -7.19,-1.13 -5.16,0.55 -9.36,2.33 -12.12,3.66 -2.8,1.36 -4.2,2.54 -4.55,2.24 -0.73,-0.46 4.49,-6.99 16.14,-9.41 2.8,-0.47 6.18,-0.78 9.76,0.99 2.94,1.61 5.66,3.84 8.11,6.38 4.25,4.4 7.56,9.79 11.51,14.45 3.84,4.57 8.61,7.78 13.85,9.3 2.84,0.95 6.01,1.62 9.21,3.08 3.18,1.33 6.55,4.35 7.42,8.2 1.06,4.52 -0.74,8.3 -2.42,11.07 -0.88,1.42 -1.85,2.69 -2.79,3.85 -0.87,1.05 -1.66,2.18 -2.39,3.29 -2.96,4.56 -5.44,8.46 -7.48,10.99 -2.02,2.56 -3.6,3.73 -3.82,3.55z"/>
  <path class="fil0" d="M157.05 395.38c-0.55,1.01 -1.41,1.78 -2.27,1.73 -0.4,-0.02 -0.81,-0.17 -1.17,-0.42l-0.39 -1.12 -0.51 -0.97 -0.28 -1.06c0.06,-0.43 0.36,-0.85 0.59,-1.15 0.49,-0.65 1.27,-0.88 2.09,-0.79 0.83,0.08 1.06,0.3 1.44,0.51l0.43 0.31 0.07 0.35 0.71 -0 0.1 0.27 -0.53 1.02c-0.05,0.46 0,0.81 -0.29,1.32z"/>
  <path class="fil0" d="M151 396.2c-0.75,0.87 -1.7,1.49 -2.47,1.4l-1.01 -0.42 -0.22 -0.99 -0.42 -0.84 -0.24 -0.91 0.54 -1.05c0.44,-0.61 1.17,-0.93 1.99,-0.97 0.84,-0.05 1.09,0.15 1.5,0.35l0.46 0.34 0.1 0.41 0.74 0.08 0.12 0.34 -0.6 1.01c-0.09,0.47 -0.11,0.83 -0.5,1.27z"/>
  <path class="fil0" d="M137.62 396.23c-1.01,0.56 -2.13,0.76 -2.85,0.4l-0.87 -0.77 0.02 -1.09 -0.24 -0.99 -0.08 -1.02c0.12,-0.4 0.45,-0.76 0.69,-1.05 0.51,-0.6 1.26,-0.91 2.09,-0.88 0.84,0.04 1.07,0.34 1.45,0.74l0.42 0.65 0.06 0.66 0.76 0.48 0.11 0.62 -0.78 1.03c-0.18,0.54 -0.28,0.94 -0.79,1.22z"/>
  <path class="fil0" d="M144.54 390.84c-1.09,0.4 -2.2,0.47 -2.83,0.21l-0.75 -0.55 0.07 -0.84 -0.26 -0.71 -0.18 -0.74 0.48 -0.98c0.35,-0.61 0.94,-1.13 1.73,-1.41 0.78,-0.28 1.12,-0.08 1.61,0.23l0.6 0.59 0.21 0.73 0.85 0.51 0.18 0.74 -0.79 1.09c-0.21,0.56 -0.38,0.93 -0.92,1.12z"/>
  <path class="fil0" d="M151.34 388.01c-1.06,0.46 -2.14,0.66 -2.75,0.52l-0.72 -0.35 0.09 -0.68 -0.24 -0.55 -0.16 -0.58 0.48 -0.85c0.35,-0.54 0.94,-1.04 1.7,-1.36 0.77,-0.33 1.09,-0.21 1.56,-0.02l0.57 0.4 0.19 0.57 0.82 0.3 0.16 0.58 -0.79 0.98c-0.21,0.48 -0.38,0.8 -0.92,1.03z"/>
  <path class="fil0" d="M160.48 386.61c-0.98,0.62 -2.09,0.87 -2.82,0.56l-0.92 -0.68 -0.07 -1.07 -0.33 -0.96 -0.19 -0.99c0.08,-0.4 0.35,-0.8 0.56,-1.12 0.43,-0.67 1.12,-1.09 1.94,-1.18 0.84,-0.09 1.11,0.18 1.54,0.56l0.52 0.63 0.15 0.7 0.83 0.46 0.19 0.66 -0.68 1.13c-0.13,0.57 -0.21,0.99 -0.7,1.29z"/>
  <path class="fil0" d="M151.97 379.7c-1.15,0.16 -2.25,0.02 -2.8,-0.32l-0.6 -0.61 0.26 -0.72 -0.09 -0.68 -0.01 -0.68 0.68 -0.78c0.48,-0.47 1.17,-0.83 1.99,-0.93 0.83,-0.1 1.11,0.13 1.52,0.49l0.45 0.63 0.04 0.68 0.71 0.59 0.01 0.69 -1.01 0.81c-0.33,0.45 -0.58,0.75 -1.15,0.83z"/>
  <path class="fil0" d="M144.94 381.13c-0.68,0.93 -1.65,1.56 -2.51,1.41 -0.41,-0.07 -0.8,-0.26 -1.15,-0.56l-0.33 -1.17 -0.48 -1.03c-0.07,-0.39 -0.33,-0.72 -0.27,-1.11 0.07,-0.45 0.36,-0.88 0.59,-1.2 0.47,-0.68 1.24,-0.99 2.07,-0.94 0.84,0.05 1.06,0.31 1.45,0.6l0.45 0.46 0.11 0.5 0.77 0.17 0.17 0.4 -0.52 1.1c-0.03,0.51 0.01,0.9 -0.34,1.36z"/>
  <path class="fil0" d="M135.81 384.24c-1.12,0.31 -2.23,0.29 -2.84,-0.03l-0.7 -0.6 0.14 -0.83 -0.2 -0.74 -0.12 -0.75 0.55 -0.94c0.4,-0.58 1.03,-1.05 1.83,-1.27 0.81,-0.21 1.12,0.01 1.59,0.36l0.55 0.64 0.16 0.75 0.81 0.57 0.12 0.76 -0.87 1.02c-0.25,0.54 -0.45,0.9 -1.01,1.05z"/>
  <path class="fil0" d="M130.98 387.68c-0.87,0.76 -1.84,1.28 -2.47,1.33l-0.8 -0.12 -0.14 -0.69 -0.41 -0.46 -0.34 -0.51 0.18 -0.97c0.16,-0.62 0.56,-1.28 1.19,-1.83 0.63,-0.55 0.98,-0.53 1.49,-0.48l0.68 0.22 0.37 0.49 0.88 0.05 0.34 0.52 -0.44 1.18c-0.05,0.53 -0.11,0.9 -0.55,1.27z"/>
  <path class="fil0" d="M145.2 400.97c-0.75,0.88 -1.62,1.55 -2.22,1.71l-0.78 0.02 -0.22 -0.65 -0.45 -0.37 -0.4 -0.44 0.06 -0.97c0.08,-0.63 0.38,-1.34 0.92,-1.97 0.54,-0.63 0.88,-0.67 1.38,-0.72l0.69 0.1 0.42 0.41 0.86 -0.1 0.39 0.44 -0.28 1.22c0.02,0.52 0.01,0.88 -0.37,1.32z"/>
  <path class="fil0" d="M148.4 372.63c-1.03,0.52 -2.12,0.74 -2.78,0.56l-0.81 -0.44 -0.03 -0.83 -0.34 -0.68 -0.27 -0.71 0.35 -1.02c0.28,-0.65 0.8,-1.24 1.54,-1.61 0.75,-0.37 1.1,-0.22 1.62,0.03l0.67 0.51 0.3 0.69 0.91 0.39 0.27 0.71 -0.65 1.17c-0.14,0.57 -0.26,0.96 -0.78,1.23z"/>
  <path class="fil0" d="M139.53 366.23c-1.15,0.06 -2.25,-1.2 -2.79,-3.16 -0.26,-0.95 -0.45,-2.05 -0.58,-3.25 -0.11,-1.03 0.32,-2.14 0.29,-3.26 -0.02,-1.08 -0.11,-2.18 -0.06,-3.26 0.05,-1.12 -0.11,-2.22 0.02,-3.26 0.15,-1.2 0.48,-2.31 0.72,-3.27 0.5,-1.96 1.21,-3.24 2.04,-3.26 0.83,-0.02 1.1,1.25 1.49,3.19 0.19,0.94 0.33,2.05 0.43,3.25 0.08,1.03 -0.01,2.13 0.01,3.25 0.02,1.08 0.73,2.16 0.69,3.24 -0.04,1.12 0.06,2.22 -0.03,3.26 -0.1,1.2 -0.88,2.32 -1.05,3.27 -0.35,1.95 -0.61,3.23 -1.19,3.25z"/>
  <path class="fil0" d="M132.73 368.15c-0.9,0.73 -2.09,0.95 -3.03,0.58 -0.45,-0.18 -0.89,-0.46 -1.3,-0.81l-0.62 -1.35c-0.3,-0.37 -0.66,-0.71 -0.9,-1.13 -0.25,-0.44 -0.67,-0.73 -0.84,-1.18 -0.19,-0.52 -0.23,-1.12 -0.28,-1.61 -0.11,-1.01 0.11,-1.9 0.76,-2.42 0.66,-0.52 1.2,-0.22 2.02,0.23 0.4,0.22 0.79,0.53 1.18,0.9l0.86 1.16c0.3,0.37 1.14,0.33 1.39,0.74 0.26,0.42 0.63,0.75 0.83,1.18 0.23,0.5 -0.09,1.37 0.02,1.81 0.23,0.92 0.36,1.53 -0.09,1.9z"/>
  <path class="fil0" d="M126.8 375.09c-0.61,0.98 -2.18,1.23 -3.96,0.65 -0.86,-0.28 -1.79,-0.7 -2.77,-1.21 -0.84,-0.44 -1.43,-1.38 -2.29,-1.94 -0.82,-0.54 -1.7,-1.03 -2.48,-1.64 -0.81,-0.63 -1.73,-1.06 -2.44,-1.71 -0.81,-0.75 -1.47,-1.59 -2.05,-2.29 -1.19,-1.43 -1.75,-2.69 -1.29,-3.38 0.46,-0.69 1.56,-0.25 3.25,0.43 0.82,0.34 1.73,0.8 2.68,1.33 0.82,0.47 1.6,1.12 2.45,1.68 0.82,0.54 2.04,0.53 2.83,1.12 0.82,0.61 1.71,1.1 2.43,1.71 0.84,0.71 1.25,1.93 1.86,2.57 1.27,1.31 2.08,2.18 1.77,2.67z"/>
  <path class="fil0" d="M155.99 401.96c1.06,-0.48 2.49,0.16 3.65,1.61 0.56,0.7 1.1,1.55 1.62,2.51 0.45,0.82 0.42,1.92 0.82,2.85 0.38,0.89 0.83,1.78 1.14,2.71 0.32,0.96 0.84,1.82 1.07,2.74 0.26,1.06 0.33,2.12 0.42,3.01 0.19,1.83 -0.04,3.17 -0.81,3.5 -0.77,0.32 -1.44,-0.64 -2.46,-2.12 -0.49,-0.72 -0.99,-1.6 -1.48,-2.56 -0.42,-0.84 -0.7,-1.79 -1.1,-2.73 -0.38,-0.9 -1.39,-1.55 -1.72,-2.46 -0.34,-0.95 -0.8,-1.83 -1.06,-2.73 -0.3,-1.04 0.04,-2.27 -0.12,-3.14 -0.33,-1.77 -0.51,-2.93 0.02,-3.17z"/>
  <path class="fil0" d="M151.53 405.35c1.12,-0.26 2.37,0.44 3.11,1.83 0.36,0.67 0.64,1.47 0.86,2.36 0.19,0.77 -0.18,1.64 -0.11,2.48 0.07,0.81 0.19,1.64 0.14,2.46 -0.05,0.84 0.11,1.67 -0.04,2.46 -0.17,0.9 -0.55,1.72 -0.84,2.41 -0.61,1.43 -1.43,2.28 -2.25,2.21 -0.84,-0.08 -0.99,-0.99 -1.28,-2.38 -0.14,-0.67 -0.23,-1.44 -0.31,-2.27 -0.06,-0.72 0.04,-1.48 0.01,-2.26 -0.03,-0.75 -0.75,-1.47 -0.75,-2.21 -0.01,-0.77 -0.16,-1.52 -0.14,-2.23 0.03,-0.83 0.7,-1.7 0.78,-2.39 0.16,-1.41 0.25,-2.35 0.82,-2.48z"/>
  <path class="fil0" d="M142.76 406.08c1.14,0.09 2.12,1.19 2.35,2.82 0.11,0.78 0.1,1.69 -0.02,2.65 -0.1,0.83 -0.77,1.56 -1.02,2.41 -0.25,0.82 -0.46,1.67 -0.83,2.46 -0.38,0.81 -0.58,1.67 -1.05,2.36 -0.54,0.8 -1.24,1.43 -1.81,1.97 -1.18,1.1 -2.32,1.53 -3.02,1.1 -0.72,-0.44 -0.44,-1.35 -0.11,-2.75 0.16,-0.68 0.4,-1.43 0.67,-2.24 0.24,-0.69 0.63,-1.36 0.91,-2.11 0.27,-0.72 -0.13,-1.67 0.14,-2.36 0.27,-0.73 0.4,-1.49 0.67,-2.16 0.32,-0.77 1.25,-1.38 1.56,-2.02 0.62,-1.3 0.99,-2.2 1.58,-2.14z"/>
  <path class="fil0" d="M168.43 389.28c0.33,-1.1 2.28,-1.58 4.93,-1.12 1.27,0.23 2.72,0.61 4.26,1.13 1.32,0.44 2.5,1.45 3.88,2.06 1.32,0.59 2.68,1.16 3.96,1.86 1.32,0.73 2.7,1.27 3.86,2.05 1.34,0.9 2.47,1.92 3.45,2.77 2,1.75 3.04,3.27 2.61,3.97 -0.44,0.72 -1.98,0.05 -4.36,-0.9 -1.16,-0.46 -2.47,-1.05 -3.88,-1.71 -1.21,-0.57 -2.43,-1.31 -3.74,-1.95 -1.26,-0.62 -2.83,-0.6 -4.08,-1.22 -1.33,-0.61 -2.52,-1.15 -3.82,-1.74 -1.37,-0.71 -2.42,-1.97 -3.51,-2.59 -2.23,-1.25 -3.72,-2.05 -3.55,-2.61z"/>
  <path class="fil0" d="M166.36 395.2c0.47,-1.06 1.3,-1.86 2.1,-2.05 0.38,-0.09 0.78,-0.09 1.19,-0.03l0.83 0.76 0.97 0.44 0.94 0.52 0.65 1.15c0.36,0.75 0.43,1.59 0.09,2.35 -0.35,0.76 -0.83,0.81 -1.56,0.87 -0.36,0.03 -0.73,-0.01 -1.12,-0.11l-0.95 -0.48 -1.24 0.13 -0.94 -0.52 -0.51 -1.45c-0.42,-0.61 -0.68,-1.04 -0.44,-1.57z"/>
  <path class="fil0" d="M167.23 382.16c-0.15,-1.15 0.42,-2.29 1.42,-2.92 0.48,-0.3 1.07,-0.54 1.7,-0.72 0.55,-0.16 1.19,0.22 1.8,0.15 0.58,-0.07 1.17,-0.21 1.76,-0.21 0.61,0 1.19,-0.21 1.77,-0.12 0.67,0.09 1.3,0.37 1.85,0.56 1.12,0.41 1.89,1.06 1.98,1.89 0.09,0.83 -0.56,1.15 -1.58,1.63 -0.49,0.23 -1.08,0.42 -1.72,0.57 -0.55,0.13 -1.15,0.09 -1.76,0.16 -0.58,0.06 -1.1,0.81 -1.69,0.83 -0.61,0.02 -1.2,0.17 -1.77,0.12 -0.66,-0.05 -1.35,-0.77 -1.88,-0.9 -1.1,-0.26 -1.81,-0.47 -1.89,-1.04z"/>
  <path class="fil0" d="M155.47 364.59c-0.9,-0.74 -0.34,-2.93 1.2,-5.62 0.74,-1.3 1.68,-2.74 2.68,-4.31 0.88,-1.33 2.22,-2.47 3.19,-3.92 0.89,-1.42 1.78,-2.83 2.69,-4.27 0.95,-1.46 1.68,-3.02 2.55,-4.36 1.04,-1.55 2.1,-2.95 2.98,-4.17 1.79,-2.53 3.22,-4.11 3.99,-3.79 0.76,0.31 0.23,2.3 -0.8,5.31 -0.5,1.46 -1.19,3.12 -2.04,4.87 -0.73,1.51 -1.71,3 -2.63,4.56 -0.89,1.49 -1.27,3.37 -2.29,4.81 -1.06,1.49 -2.02,3.01 -3.11,4.29 -1.25,1.5 -3,2.42 -4.1,3.49 -2.28,2.18 -3.87,3.49 -4.32,3.13z"/>
  <path class="fil0" d="M151.14 363.92c-0.95,-0.68 -1.21,-2.1 -0.81,-3.62 0.19,-0.74 0.5,-1.53 0.85,-2.36 0.31,-0.71 1.1,-1.22 1.48,-1.98 0.37,-0.73 0.66,-1.51 1.06,-2.22 0.41,-0.75 0.59,-1.57 1.01,-2.24 0.49,-0.78 1.08,-1.47 1.55,-2.09 0.97,-1.27 1.91,-2.06 2.72,-1.85 0.8,0.2 0.79,1.27 0.65,2.93 -0.07,0.8 -0.26,1.71 -0.55,2.67 -0.24,0.83 -0.7,1.64 -1.07,2.49 -0.36,0.82 -0.14,1.95 -0.61,2.74 -0.48,0.81 -0.85,1.67 -1.39,2.37 -0.61,0.81 -1.78,1.18 -2.37,1.72 -1.2,1.13 -2.06,1.78 -2.53,1.45z"/>
  <path class="fil0" d="M153.78 365.52c-0.92,-0.7 -1.55,-1.64 -1.62,-2.38l0.14 -1.04 0.83 -0.51 0.55 -0.73 0.62 -0.68 1.17 -0.25c0.76,-0.11 1.55,0.06 2.21,0.56 0.66,0.51 0.64,0.94 0.59,1.6l-0.26 0.95 -0.59 0.69 -0.05 1.11 -0.62 0.67 -1.43 0.05c-0.64,0.2 -1.07,0.31 -1.54,-0.04z"/>
  <path class="fil0" d="M131.32 401.08c0.57,1.02 -0.27,2.64 -2.02,4.21 -0.84,0.76 -1.87,1.55 -2.99,2.37 -0.97,0.7 -2.28,1.01 -3.37,1.74 -1.04,0.7 -2.05,1.49 -3.11,2.16 -1.1,0.71 -2.04,1.58 -3.08,2.21 -1.21,0.72 -2.42,1.27 -3.44,1.78 -2.09,1.06 -3.69,1.53 -4.25,0.91 -0.56,-0.62 0.4,-1.83 1.98,-3.63 0.77,-0.87 1.73,-1.81 2.84,-2.76 0.95,-0.83 2.09,-1.53 3.19,-2.33 1.06,-0.77 1.77,-2.09 2.9,-2.78 1.17,-0.71 2.25,-1.51 3.39,-2.08 1.31,-0.66 2.87,-0.65 3.96,-1.05 2.24,-0.82 3.72,-1.26 4.01,-0.76z"/>
  <path class="fil0" d="M128.66 400.38c0.15,1.15 -0.8,2.32 -2.3,3.08 -0.72,0.37 -1.57,0.7 -2.49,1.03 -0.79,0.28 -1.76,0.07 -2.64,0.33 -0.84,0.25 -1.67,0.59 -2.51,0.82 -0.88,0.25 -1.66,0.7 -2.49,0.9 -0.97,0.22 -1.93,0.3 -2.75,0.42 -1.68,0.24 -2.97,0.16 -3.4,-0.56 -0.41,-0.71 0.42,-1.5 1.82,-2.61 0.68,-0.53 1.53,-1.07 2.49,-1.56 0.83,-0.43 1.79,-0.68 2.73,-1.03 0.91,-0.33 1.64,-1.28 2.6,-1.51 0.99,-0.23 1.94,-0.57 2.88,-0.67 1.09,-0.13 2.22,0.47 3.08,0.52 1.77,0.1 2.9,0.28 2.97,0.85z"/>
  <path class="fil0" d="M125.58 398.24c-0.3,1.13 -1.67,1.83 -3.4,1.99 -0.84,0.08 -1.78,0.08 -2.79,0.08 -0.86,-0.02 -1.75,-0.53 -2.7,-0.57 -0.91,0 -1.78,0 -2.75,0 -0.95,-0.03 -1.87,0.18 -2.75,0.14 -1.02,-0.06 -2.01,-0.23 -2.87,-0.32 -1.75,-0.19 -3.05,-0.56 -3.28,-1.37 -0.23,-0.79 0.83,-1.38 2.58,-2.11 0.85,-0.35 1.88,-0.65 3.01,-0.86 0.98,-0.19 2.04,-0.16 3.11,-0.21 1.02,-0.04 2.09,-0.72 3.14,-0.63 1.09,0.1 2.16,0.1 3.15,0.33 1.15,0.26 2.07,1.23 2.9,1.58 1.73,0.74 2.77,1.37 2.63,1.92z"/>
  <path class="fil0" d="M126.05 399.91c-0.92,0.7 -1.85,1.25 -2.39,1.39l-0.63 0.04 0.06 -0.49 -0.22 -0.27 -0.15 -0.33 0.4 -0.75c0.3,-0.49 0.8,-1.04 1.46,-1.55 0.66,-0.5 0.94,-0.55 1.36,-0.6l0.51 0.05 0.18 0.31 0.72 -0.11 0.15 0.33 -0.67 0.95c-0.17,0.4 -0.32,0.68 -0.78,1.03z"/>
  <path class="fil0" d="M120.64 385.8c-0.14,1.15 -1.57,2.02 -3.59,2.21 -0.98,0.09 -2.1,0.09 -3.3,0.02 -1.03,-0.06 -2.05,-0.68 -3.16,-0.84 -1.07,-0.16 -2.16,-0.26 -3.22,-0.49 -1.1,-0.25 -2.21,-0.27 -3.2,-0.57 -1.16,-0.35 -2.2,-0.86 -3.1,-1.27 -1.85,-0.83 -2.99,-1.74 -2.86,-2.57 0.13,-0.82 1.42,-0.87 3.4,-0.93 0.96,-0.03 2.08,0.03 3.27,0.13 1.03,0.09 2.1,0.37 3.21,0.54 1.06,0.16 2.25,-0.34 3.31,-0.12 1.1,0.23 2.19,0.31 3.2,0.58 1.16,0.31 2.13,1.26 3.04,1.59 1.86,0.68 3.07,1.15 3,1.73z"/>
  <path class="fil0" d="M156.59 404.4c0.6,0.98 0.39,2.36 -0.65,3.43 -0.49,0.51 -1.14,1 -1.89,1.43 -0.65,0.37 -1.55,0.22 -2.29,0.49 -0.72,0.25 -1.45,0.55 -2.2,0.68 -0.78,0.13 -1.51,0.46 -2.26,0.46 -0.86,0.01 -1.69,-0.21 -2.38,-0.37 -1.42,-0.34 -2.32,-1.02 -2.38,-1.85 -0.06,-0.84 0.73,-1.13 1.89,-1.66 0.56,-0.26 1.22,-0.48 1.92,-0.71 0.61,-0.19 1.29,-0.25 1.96,-0.43 0.65,-0.18 1.09,-1.03 1.72,-1.19 0.66,-0.17 1.25,-0.48 1.87,-0.62 0.72,-0.16 1.66,0.28 2.28,0.19 1.27,-0.19 2.11,-0.37 2.41,0.14z"/>
  <path class="fil0" d="M82.46 316.74c0.1,0.54 -1.81,1.19 -5.31,0.68 -3.48,-0.47 -8.27,-2.49 -13.28,-5.59 -4.87,-2.91 -10.11,-6.45 -16.49,-7.56 -5.43,-1.04 -11.7,-1.12 -17.38,1.27 -2.72,1.13 -5.28,2.71 -7.57,4.62l-0.76 0.65 -0.24 0.22 -0.2 0.2 -0.41 0.48 0.07 0.03 0.44 -0.16c0.24,-0.02 0.04,-0.06 0.68,0 1.21,0.09 2.38,0.33 3.49,0.68 2.27,0.7 4.19,1.86 5.85,3.14 6.11,4.99 9.05,10.98 12.97,14.59 3.84,3.94 8.28,5.26 11.44,5.13 3.16,-0.11 4.84,-1.32 5.12,-0.94 0.27,0.2 -1.1,2.17 -4.83,2.97 -1.82,0.35 -4.13,0.35 -6.62,-0.36 -2.51,-0.68 -5.09,-2.19 -7.44,-4.16 -4.67,-3.78 -8.24,-9.63 -13.4,-13.47 -1.39,-1.01 -2.89,-1.87 -4.47,-2.36 -0.8,-0.25 -1.64,-0.43 -2.49,-0.5 -0.1,-0.04 -0.75,-0.01 -1.16,-0.01 -0.43,-0.04 -0.96,0.07 -1.52,0.2l-0.81 0.18 -0.1 0.02 -0.35 0.28 -0.71 0.57 -1.41 1.14 -2.83 2.27 -0.71 0.57 -1.95 1.7 -5.35 4.71c3.1,-5.17 3.92,-6.63 4.46,-7.66 0.49,-0.94 0.59,-1.23 0.55,-1.28l-0.45 0.44 -0.11 0.12 0.38 -0.61 0.76 -1.23c1.27,-2 2.27,-3.79 3.74,-5.83 0.72,-1.02 1.64,-2.07 2.57,-3.14l1.43 -1.46c0.52,-0.53 0.69,-0.65 1.06,-1.01 2.55,-2.35 5.5,-4.34 8.72,-5.65 6.7,-2.78 14.06,-3.34 20.54,-1.9 3.75,0.81 7.19,2.44 10.02,4.28 2.85,1.83 5.25,3.78 7.53,5.4 4.63,3.36 8.62,5.63 11.64,6.71 2.99,1.12 4.85,1.27 4.88,1.61z"/>
  <path class="fil0" d="M50.81 336.32c0.32,1.26 -6.63,2.38 -15.84,7.08 -4.41,2.27 -9.3,5.47 -13.71,9.82 -3.8,3.71 -7.68,8.02 -10.37,13.25 -1.29,2.5 -2.37,5.14 -3.23,7.84l-0.71 2.42 -0.14 0.56 -0.07 0.43 0.23 -0.32 0.28 -0.3 0.15 -0.12 0.07 -0.05 0.33 -0.22c1.82,-1.19 3.75,-2.09 5.74,-2.7 3.46,-1.09 7.11,-1.22 10.3,-0.66 3.19,0.56 5.91,1.57 8.36,2.43 4.99,1.89 9.03,2.92 12.03,2.99 2.96,0.12 4.7,-0.42 4.88,0 0.18,0.31 -1.4,1.57 -4.72,2.05 -3.28,0.55 -8.07,-0.18 -13.19,-1.65 -5.01,-1.35 -10.56,-2.82 -16.15,-0.72 -1.58,0.55 -3.14,1.29 -4.61,2.24l-0.28 0.18 -0.58 0.42 -1.07 0.9c-0.69,0.47 -1.47,1.45 -2.26,2.43 -0.68,0.72 -1.82,2.48 -2.81,3.89 -1.14,1.66 -2.28,3.33 -3.44,5.01l0.05 -1.17 0.02 -0.9c0,-0.52 -0.04,-0.47 -0.06,-0.73 0.18,-1.58 0.36,-3.2 0.54,-4.82 0.26,-2.26 0.48,-4.5 0.91,-6.99 0.26,-1.24 0.5,-2.64 0.78,-3.82l0.55 -2.27c0.8,-3.01 1.86,-5.97 3.3,-8.72 2.99,-5.7 6.82,-10.85 11.22,-14.87 5.1,-4.69 10.97,-7.36 15.88,-9.39 10.2,-4.18 17.54,-3.95 17.62,-3.51z"/>
  <path class="fil0" d="M44.28 390.58c0.43,1.3 -7.48,2.35 -16.39,9.31 -4.21,3.33 -8.52,8.12 -11.21,14.22 -2.32,5.2 -3.9,11.37 -3.35,17.73 0.52,6.08 2.64,12.1 5.99,17.13l0.57 0.87 -4.32 2.4c-1.5,-3.71 -1.11,-7.78 0.17,-11.06 1.29,-3.33 3.37,-6.1 5.85,-8.26 6.21,-5.13 12.95,-6.79 18.01,-9.13 5.27,-2.26 9.14,-4.97 11.36,-7.37 2.26,-2.38 3.09,-4.2 3.53,-4.04 0.35,0.09 0.15,2.25 -1.9,5.29 -2,3.06 -6.04,6.49 -11.42,9.29 -5.12,2.79 -11.53,5.02 -16.43,9.42 -3.79,3.42 -6.77,9.25 -4.81,14.09l7.85 19.41 -11.7 -17.27 -0.63 -0.94c-3.89,-5.65 -6.89,-12.31 -7.45,-19.29 -0.59,-7.2 0.6,-14.45 3.51,-20.53 3.4,-7.08 9.03,-11.81 13.91,-15.12 5.07,-3.44 9.92,-5.07 13.32,-5.8 3.44,-0.7 5.45,-0.6 5.53,-0.37z"/>
  <path class="fil0" d="M37.69 425.94c1.23,0.41 -1.56,7.05 -3.31,17.64 -0.84,5.09 -1.3,11.12 -0.88,17.59 0.35,5.56 0.87,11.55 2.69,17.38 0.34,1.23 0.85,2.41 1.27,3.63l0.33 0.9 0.12 0.28 0.17 0.38 0.25 0.52 0.11 -0.08 0.07 -0.24 0.12 -0.26 0.43 -0.85 0.65 -1.13c0.9,-1.47 1.91,-2.82 3,-4.08 2.03,-2.48 5.05,-4.76 7.73,-6 3.14,-1.57 5.89,-2.73 7.98,-4.46 2.29,-1.9 4.33,-3.82 6.02,-5.75 7,-8.03 8.67,-15.33 9.63,-15.02 0.38,0.09 0.28,1.94 -0.63,5.08 -0.92,3.11 -2.79,7.53 -6.22,12.14 -1.66,2.23 -3.68,4.46 -5.98,6.64 -2.52,2.39 -5.73,3.93 -8.54,5.48 -2.53,1.36 -4.45,2.75 -6.38,4.99 -0.94,1.05 -1.81,2.18 -2.55,3.38l-0.53 0.91 -0.24 0.47 -0.12 0.23 -0.22 0.49c-0.54,1.39 -1.01,2.5 -1.14,4.95 -0.13,2.94 -0.27,5.88 -0.41,8.89 -0.48,-0.81 -0.56,-0.87 -0.82,-1.27 -0.29,-0.44 -0.31,-0.39 -0.43,-0.52 -0.03,0.06 -0.35,-0.55 -0.61,-1.03l-0.8 -1.46c-1.06,-1.95 -2.25,-4.01 -3.22,-6.02l-1.56 -3.13 -0.77 -1.56 -0.39 -0.96c-0.49,-1.29 -1.05,-2.56 -1.41,-3.88 -1.9,-6.27 -3.04,-12.65 -3.21,-18.68 -0.22,-7.01 1.25,-13.36 2.56,-18.64 2.71,-10.91 6.81,-17.11 7.23,-16.96z"/>
  <path class="fil0" d="M59.42 468.95c1.02,-0.76 4.05,3.45 10.32,7.11 3.03,1.77 6.77,3.2 11.13,3.69 4.07,0.48 8.47,0.99 12.86,1.51 2.13,0.3 4.31,0.75 6.45,1.52 3,1.19 2,0.87 2.47,1.15l0.07 0.06 0.04 -0.4 -0.1 -1.45c-0.18,-2.02 -0.5,-3.99 -0.92,-5.88 -0.9,-4.4 -2.42,-8.36 -4.15,-11.56 -3.58,-6.61 -7.48,-10 -6.88,-10.74 0.38,-0.59 5.12,2.12 9.86,8.82 2.27,3.24 4.42,7.43 5.71,12.31 0.58,2.09 0.93,4.32 1.11,6.61l0.11 1.95 -0.08 2.85c-0.03,1.89 -0.21,3.79 -0.32,5.71 -0.04,0.41 -0.12,0.61 -0.17,0.94 -1.59,-1.35 -3.41,-2.94 -5.05,-4.08 -2.01,-1.23 -2.55,-1.2 -3.44,-1.5 -1.74,-0.48 -3.58,-0.74 -5.43,-1.03 -4.1,-0.64 -8.56,-0.5 -12.89,-1.25 -5.14,-0.81 -9.41,-3.53 -12.54,-5.89 -6.62,-5 -8.59,-10.27 -8.18,-10.47z"/>
  <path class="fil0" d="M63.77 496.67c0.16,-1.17 1.83,-1.91 3.97,-2.52 1.04,-0.3 2.22,-0.61 3.45,-1.04 1.04,-0.36 2.33,-0.34 3.45,-0.89 1.07,-0.52 2.05,-1.21 3.02,-1.88 1.02,-0.7 1.79,-1.65 2.65,-2.42 0.99,-0.89 1.97,-1.74 2.73,-2.57 1.56,-1.7 2.65,-3.02 3.47,-2.77 0.77,0.23 0.6,1.97 -0.38,4.49 -0.48,1.22 -1.23,2.58 -2.26,3.9 -0.89,1.14 -2.07,2.13 -3.31,3.1 -1.16,0.91 -2.14,2.33 -3.58,2.96 -1.47,0.65 -2.93,1.26 -4.39,1.52 -1.7,0.31 -3.35,-0.29 -4.63,-0.42 -2.67,-0.26 -4.27,-0.91 -4.19,-1.46z"/>
  <path class="fil0" d="M64.75 497.24c1.01,-0.67 3.7,2.89 9.55,4.84 2.77,0.98 6.2,1.43 10.05,1.25 3.29,-0.16 7,-0.27 10.72,-1.05 3.55,-0.76 7.06,-1.82 10.34,-3.14 3.43,-1.36 6.42,-3.33 9.02,-5.37 3.12,-2.44 5.76,-4.91 7.38,-7.48 3.38,-5.3 2.4,-10.06 3.35,-10.18 0.37,-0.09 0.98,0.96 1.3,3.07 0.29,2.09 0.08,5.33 -1.51,8.74 -1.51,3.32 -4.22,6.54 -7.46,9.4 -2.87,2.56 -6.47,4.57 -10.21,6.15 -3.59,1.53 -7.24,3.26 -11.05,4.02 -3.92,0.77 -7.84,1.48 -11.71,1.45 -4.48,-0.02 -8.61,-1.56 -11.74,-3.17 -6.69,-3.31 -8.55,-8.38 -8.04,-8.52z"/>
  <path class="fil0" d="M141.16 471.77c0.52,0.37 -0.63,1.98 -1.74,5.01 -1.14,3.03 -2,7.59 -1.94,13.38 -0.14,5.57 0.89,12.54 -1.44,20.44 -0.58,1.86 -1.4,3.7 -2.54,5.45l-0.43 0.65 -0.07 0.07 -0.07 0.03 -0.23 0.13c-0.62,0.25 -0.26,0.3 0.13,0.26l2.83 -0.43c1.56,-0.27 3.11,-0.62 4.63,-1.03 3.04,-0.82 5.99,-1.92 8.72,-3.32 5.7,-2.91 10.3,-7.46 13.02,-12.48 3.22,-5.81 3.76,-12.47 3.38,-18 -0.44,-5.75 -1.6,-10.51 -2.24,-13.87 -0.67,-3.36 -0.92,-5.32 -0.52,-5.44 0.39,-0.12 1.27,1.61 2.49,4.83 1.19,3.23 2.84,7.95 3.79,14.05 0.84,5.86 0.88,13.36 -2.71,20.54 -3.06,6.14 -8.58,11.16 -14.95,14.51 -3.07,1.63 -6.27,3.01 -9.59,4.07 -1.66,0.53 -3.34,0.98 -5.03,1.33 -0.84,0.18 -1.69,0.33 -2.54,0.46l-2.16 0.27 -2.41 0.21c-3,0.2 -5.76,0.25 -8.56,0.35 -2.55,0.08 -5.05,0.16 -7.44,0.24 2.4,-1.34 4.79,-2.67 7.15,-4l2.59 -1.47c0.76,-0.45 1.83,-0.98 2.08,-1.3 0.84,-0.73 1.78,-1.46 2.24,-2.17l0.79 -1 0.31 -0.48c0.82,-1.29 1.46,-2.69 1.97,-4.13 2.14,-6.09 2.31,-12.98 2.81,-18.81 0.37,-6.06 1.88,-11.12 3.77,-14.22 1.89,-3.13 3.73,-4.29 3.91,-4.15z"/>
  <path class="fil0" d="M168.79 489.64c0.59,-0.85 6.39,3.53 10.05,13.76 1.71,4.86 2.77,10.95 2.32,17.55l-0.04 0.53 0 0.03 -0.02 0.02 0.01 0.06 0.17 0.01 0.78 -0.11c2.11,-0.39 4.19,-1.68 5.94,-3.6 3.36,-3.8 5.9,-8.72 7.44,-13.68 1.64,-5.22 1.87,-10.67 1.37,-15.64 -0.57,-5.78 -2.36,-11.04 -4.61,-15.18 -4.68,-8.6 -10.26,-12.51 -9.66,-13.29 0.29,-0.61 6.74,2.57 12.68,11.43 2.83,4.26 5.31,9.91 6.23,16.41 0.8,5.6 0.28,11.7 -1.47,17.55 -1.67,5.61 -3.85,11.32 -7.98,15.95 -2.18,2.37 -5.07,4.55 -8.52,5.4 -0.87,0.19 -1.57,0.38 -3.17,0.39 -1.38,0.01 -2.62,-0.27 -3.81,-0.59l-0.91 -0.23 -0.42 -0.15 0.02 -0.47 0.09 -1.86 0.1 -1.85 0.13 -1.03 0.05 -0.52c0.64,-5.72 0.68,-11.3 -0.5,-15.9 -2.42,-9.48 -6.8,-14.55 -6.27,-15.01z"/>
  <path class="fil0" d="M198.63 501.85c0.01,-1.23 4.22,-1.56 9.62,-4.13 2.6,-1.23 5.47,-3.02 8.11,-5.47 2.26,-2.1 4.79,-4.39 6.53,-7.38 1.67,-2.85 2.85,-6.04 3.63,-9.24 0.82,-3.35 0.81,-6.73 0.6,-9.88 -0.23,-3.66 -0.94,-7.08 -1.93,-9.91 -2.06,-5.83 -4.65,-9.23 -3.98,-9.84 0.51,-0.54 4.03,2.31 7.21,8.38 1.52,2.93 2.82,6.65 3.36,10.83 0.48,3.61 0.21,7.55 -0.65,11.39 -0.8,3.67 -1.59,7.6 -3.61,10.92 -2.05,3.43 -4.56,6.53 -7.42,8.9 -3.35,2.76 -7.24,4.01 -10.38,4.99 -6.59,2.04 -11.15,0.91 -11.09,0.42z"/>
  <path class="fil0" d="M157.38 281.68c-0.46,-0.28 -0.2,-1.7 1.52,-3.46 1.67,-1.76 4.94,-3.57 9.15,-4.18 4.09,-0.66 8.81,-0.05 13.45,0.8 4.02,0.72 7.97,2.04 12.01,1.9 1.54,-0.04 3.05,-0.25 4.48,-0.64l1.05 -0.32c0.43,-0.18 1.31,-0.53 1.99,-0.89l4.59 -2.85c0.21,1.35 0.37,3.11 0.51,4.62 0.47,4.78 0.29,6.11 0.2,8.57 -0.15,2.25 -0.46,4.45 -0.99,6.53 -1.2,4.83 -3.26,8.96 -5.36,12.24 -2.17,3.42 -4.9,5.74 -7.13,6.61 -2.24,0.88 -3.61,0.54 -3.65,0.17 -0.08,-0.44 1.04,-0.78 2.6,-1.94 1.56,-1.14 3.51,-3.31 5.09,-6.56 1.54,-3.18 3.03,-7.1 3.87,-11.47 0.38,-1.89 0.66,-3.85 0.83,-5.87 0.18,-1.79 0.13,-4.87 0.1,-4.65l-0.18 -0.35 -0.44 0.41 -0.37 0.24c-0.45,0.18 -0.91,0.37 -1.37,0.51 -1.84,0.62 -3.74,0.95 -5.59,0.99 -4.87,0.11 -9.38,-0.84 -13.28,-1.73 -4.52,-1.06 -8.45,-2.49 -11.96,-2.35 -7.34,0.14 -10.7,4.08 -11.12,3.68z"/>
  <path class="fil0" d="M66.06 310.66c-1.19,0.07 -1.54,-6.08 -7.4,-13.15 -2.65,-3.5 -6.47,-7.07 -10.48,-11.59 -1.71,-1.95 -3.33,-4.19 -4.72,-6.7l-0.5 -0.96c-0.16,-0.32 -0.31,-0.57 -0.6,-1.26 -0.53,-1.16 -1.02,-2.31 -1.34,-3.42 -0.41,-1.14 -0.63,-2.18 -0.96,-3.28l-0.48 -1.7 -0.12 -0.43 -0.06 -0.22 0.2 0.03 0.82 0.13 3.17 0.51 3.57 0.85 4.62 1.12c2.57,0.64 5.14,1.28 7.69,1.91 5.28,1.37 10.51,2.51 15.36,3.86 5.62,1.51 11.11,3.45 15.1,6.45 4.16,3.07 6.28,6.99 6.85,9.82 0.59,2.87 -0.05,4.45 -0.41,4.42 -0.46,0 -0.54,-1.48 -1.53,-3.74 -0.97,-2.23 -3.13,-5.29 -6.85,-7.54 -3.63,-2.23 -8.59,-3.6 -14.25,-4.86 -4.88,-1.21 -10.06,-2.5 -15.35,-3.81 -2.55,-0.62 -5.15,-1.09 -7.76,-1.56l-1.96 -0.36 -0.97 -0.19 -0.2 0 0 0.08 -0.02 -0 0.69 1.23c1.25,2.08 2.72,4.03 4.25,5.92 3.52,4.35 6.9,8.84 9.44,12.9 2.69,4.11 4.12,8.09 4.5,10.97 0.37,2.89 -0.05,4.54 -0.3,4.56z"/>
  <path class="fil0" d="M87.79 236.21c1.21,0.03 1.87,2.72 3.65,5.91 0.85,1.54 2.01,3.22 3.58,4.63 1.31,1.2 2.69,2.66 4.65,3.36 1.84,0.68 3.87,0.9 5.81,0.84 2.06,-0.05 3.92,-0.77 5.61,-1.53 1.99,-0.88 3.76,-2.08 5.07,-3.38 2.73,-2.67 3.82,-5.25 4.69,-5.06 0.74,0.11 0.66,3.26 -1.87,7.21 -1.22,1.89 -3.1,3.86 -5.62,5.33 -2.18,1.28 -4.87,1.99 -7.56,2.14 -2.56,0.18 -5.38,0.48 -7.93,-0.51 -2.61,-0.98 -5.05,-2.49 -6.8,-4.41 -2.06,-2.24 -2.72,-5.04 -3.33,-7.14 -1.27,-4.44 -0.45,-7.42 0.05,-7.38z"/>
  <path class="fil0" d="M97.91 253.04c1.16,0 2.1,2.39 2.52,6 0.21,1.74 0.35,3.78 0.46,5.97 0.09,1.89 -0.33,3.91 -0.28,5.97 0.07,1.98 0.13,3.96 0.2,5.97 0.02,2.05 0.27,4.06 0.24,5.96 -0.03,2.2 -0.22,4.26 -0.32,6.01 -0.22,3.62 -0.66,6.03 -1.49,6.12 -0.82,0.1 -1.35,-2.22 -2.03,-5.81 -0.33,-1.74 -0.61,-3.79 -0.83,-6.01 -0.19,-1.92 -0.19,-3.97 -0.28,-6.06 -0.09,-2 -0.84,-4.03 -0.83,-6.05 0.01,-2.09 -0.1,-4.15 0.01,-6.08 0.12,-2.24 0.94,-4.29 1.17,-6.05 0.46,-3.61 0.88,-5.96 1.46,-5.96z"/>
  <path class="fil0" d="M106.12 253.35c1.16,0.03 2.08,2.21 2.42,5.51 0.17,1.58 0.26,3.43 0.32,5.42 0.04,1.71 -0.43,3.53 -0.44,5.4 -0,1.79 0.07,3.62 0.03,5.41 -0.04,1.86 0.14,3.69 0.06,5.41 -0.1,1.99 -0.36,3.85 -0.52,5.45 -0.35,3.27 -0.9,5.45 -1.74,5.52 -0.83,0.06 -1.25,-2.04 -1.8,-5.32 -0.26,-1.59 -0.47,-3.45 -0.62,-5.47 -0.13,-1.74 -0.06,-3.6 -0.1,-5.49 -0.03,-1.82 -0.72,-3.68 -0.66,-5.5 0.07,-1.9 0.01,-3.76 0.17,-5.51 0.18,-2.02 1.05,-3.86 1.31,-5.45 0.54,-3.26 0.98,-5.37 1.56,-5.36z"/>
  <path class="fil0" d="M87.29 233.99c-0.92,0.53 -4.51,-6.18 -5.7,-17.72 -0.57,-5.52 -0.53,-12.08 0.52,-19.06 0.43,-3 1.24,-6.1 2.16,-9.1 0.46,-1.49 0.91,-2.95 1.3,-4.42 0.19,-0.73 0.36,-1.46 0.5,-2.18 0.24,-1.47 0.43,-2.93 0.3,-4.83l-0.06 -0.77 -0.31 -1.26 -0.63 -2.52c-0.76,-2.74 -1.53,-5.5 -2.3,-8.27l1.81 1.83 0.93 0.89c0.42,0.39 0.6,0.51 0.6,0.45l0.03 -0 0.54 0.57 1.08 1.16 1.95 2.12c1.25,1.33 2.54,2.87 3.79,4.79 0.59,0.99 1.26,2.08 1.74,3.09 0.5,1.04 1.01,2.1 1.19,2.62 2.51,6.32 3.57,12.83 4.02,18.75 0.49,6.87 0.6,13.07 1.51,18.26 0.87,5.25 2.66,9.47 3.77,12.45 1.16,2.97 1.78,4.71 1.41,4.93 -0.35,0.21 -1.54,-1.2 -3.24,-3.97 -1.64,-2.79 -3.96,-6.94 -5.4,-12.63 -1.4,-5.41 -1.98,-11.83 -2.71,-18.51 -0.64,-5.76 -1.41,-11.81 -3.7,-17.41 -1.32,-3.08 -1.34,-1.18 -1.04,-0.81l0.01 0.03 -0.01 -0.01 -0.5 2.4c-0.4,1.55 -0.8,3.1 -1.2,4.64 -0.81,2.95 -1.46,5.75 -1.98,8.56 -1.22,6.44 -2.22,12.57 -2.11,17.88 0.22,10.88 2.38,17.82 1.73,18.08z"/>
  <path class="fil0" d="M108.18 235.73c-1.09,-0.39 1.69,-7.71 7.27,-18.59 1.4,-2.62 3.05,-5.47 5.21,-8.3 2.15,-2.83 4.72,-5.51 7.46,-8.09 4.74,-4.47 10.34,-8.24 14.8,-13.16 2.43,-2.67 4.57,-5.59 6.12,-8.73l4.55 2.21c-1.15,2.45 -2.04,5.04 -2.8,7.7 -1.82,6.4 -2.48,13.17 -4.1,19.5 -1.77,7.37 -5.09,14.02 -8.99,18.65 -3.93,4.88 -8.16,7.9 -11.24,9.6 -3.11,1.68 -5.07,2.14 -5.25,1.79 -0.55,-0.85 6.92,-3.95 13.63,-13.48 3.27,-4.57 5.8,-10.54 7.27,-17.57 1.35,-6.05 2.25,-12.78 4.1,-19.66 0.78,-2.88 1.64,-5.8 2.83,-8.68l4.48 2.18c-1.64,3.73 -3.94,7.14 -6.6,10.02 -4.91,5.32 -10.3,9.58 -14.94,13.69 -5.49,4.66 -10,9.21 -13.03,14.21 -6.19,10.16 -10.22,16.93 -10.78,16.72z"/>
  <path class="fil0" d="M85.72 228.92c-0.03,1.18 -1.53,2.14 -2.81,3.73 -0.65,0.76 -1.35,1.72 -1.87,2.85 -0.22,0.47 -0.56,0.99 -0.87,1.53l-0.45 0.87 -0.22 0.55 -0.09 0.56 0.22 -0.08 0.11 0.02 0.19 0.11c0.31,0 0.93,0.01 1.35,0.07 0.92,0.1 1.69,0.31 2.38,0.52 2.77,0.92 4.22,1.9 4.2,2.71 -0.05,0.87 -2.05,0.8 -4.58,0.81 -0.6,0.02 -1.24,0.05 -1.83,0.14 -0.33,0.05 -0.51,0.08 -0.97,0.19l-1.06 0.37 -0.58 0.37 -0.78 0.92c-1.57,1.98 -3.11,3.92 -4.84,6.1 0.25,-2.74 0.27,-3.44 0.25,-3.82l-0.06 -0.16 0.2 -1.51c0.32,-2.39 -0.22,-4.59 0.48,-7.66l0.29 -1.11 0.19 -0.65 0.42 -1.26c0.32,-0.84 0.68,-1.63 1.18,-2.39 1.17,-1.77 3.08,-2.58 4.43,-3.3 2.9,-1.58 5.19,-1.03 5.13,-0.49z"/>
  <path class="fil0" d="M125.85 235.87c0.2,-0.53 0.74,-0.96 1.65,-0.92 0.89,0.03 2.12,0.6 3.05,1.76 0.9,1.1 1.57,2.65 1.75,4.42 0.08,0.73 -0.05,1.48 -0.23,2.18l-0.31 1.04c-0.13,0.48 -0.25,0.9 -0.36,1.3 -0.54,2.04 -1.29,4.44 -1.95,6.08l-0.3 0.67c-1.09,-1.03 -2.23,-2.11 -3.13,-2.89 -1.17,-0.79 -1.27,-0.57 -1.52,-0.72 -0.7,-0.26 -1.35,-0.34 -2.76,-0.13 -1.36,0.23 -2.98,-0.37 -3.37,-1.21 -0.51,-0.87 -0.06,-1.42 0.32,-1.46 0.42,-0.06 0.7,-0.07 0.9,-0.2 0.32,-0.1 0.43,-0.11 1.12,-0.51 0.54,-0.35 2.32,-1.3 4.21,-1.15 1.93,0.23 1.3,0.28 1.71,0.47l0.08 0.07 -0.34 -0.89 0.02 -0.03 0.08 -0.37 0.11 -0.71c0.04,-0.44 0.08,-0.83 0.12,-1.29 0.11,-0.82 0.62,-1.89 0.39,-2.7 -0.44,-1.62 -1.44,-2.24 -1.23,-2.8z"/>
  <path class="fil0" d="M87.99 173.73c-1.01,-0.58 1.13,-5.28 5.38,-11.9 1.02,-1.57 2.14,-3.37 3.73,-5.21 1.54,-1.81 3.8,-3.75 6.68,-4.7 2.42,-0.81 4.77,-0.84 6.88,-0.94 2.17,-0.1 4.39,-0.18 6.61,-0.38 2.08,-0.14 4.83,-0.62 7.78,0.88 2.94,1.62 4.06,4.46 4.82,6.46 0.8,2.23 1.47,3.82 2.62,5.39 1.1,1.53 2.43,2.84 3.84,3.94 1.54,1.27 3.67,2.15 5.71,3.78 1,0.8 1.96,1.87 2.54,3.11 0.58,1.25 0.74,2.52 0.73,3.62 -0.05,2.27 -0.61,4.01 -0.9,5.47 -0.3,1.43 -0.38,2.69 -0.26,3.7 0.18,2.05 1.28,3 1.03,3.38 -0.08,0.38 -2.03,-0.16 -3.01,-2.8 -0.48,-1.26 -0.68,-2.82 -0.58,-4.55 0.08,-1.67 0.36,-3.41 0.19,-5 -0.18,-1.57 -0.71,-2.56 -2.18,-3.54 -1.43,-1 -3.68,-1.76 -5.95,-3.33 -1.9,-1.31 -3.61,-3.01 -5,-4.99 -1.42,-1.93 -2.41,-4.42 -3.14,-6.4 -0.73,-1.94 -1.77,-3.41 -2.84,-3.74 -1.02,-0.42 -2.72,-0.23 -4.86,-0.04 -2.22,0.19 -4.42,0.38 -6.58,0.57 -2.2,0.19 -4.15,0.33 -5.69,0.77 -3.37,0.8 -6.51,3.93 -8.9,6.86 -4.91,6 -8.13,9.91 -8.64,9.62z"/>
  <path class="fil0" d="M99.03 159.85c-0.56,0.14 -1.28,-0.71 -1.98,-2.44 -0.63,-1.72 -1.51,-4.45 -0.66,-8.21 0.47,-1.8 1.4,-3.66 3.05,-5.26 1.55,-1.6 4.37,-2.82 7.1,-2.46 4.64,0.75 6.8,3.6 9.43,3.46 2.7,0.19 6.12,-1.25 10.31,-0.84 2.07,0.22 4.45,0.86 6.28,2.66 1.88,1.87 2.32,4.16 2.66,5.65 0.41,1.92 0.58,2.73 1.57,3.93 0.95,1.14 2.4,2.7 3.06,4.32 1.48,3.31 1.07,6.32 0.38,8.08 -0.71,1.8 -1.64,2.46 -1.97,2.28 -0.4,-0.2 -0.13,-1.11 -0.05,-2.67 0.09,-1.52 -0.08,-3.84 -1.46,-5.98 -0.64,-1.06 -1.54,-1.78 -2.96,-3.12 -0.67,-0.65 -1.47,-1.55 -2,-2.63 -0.53,-1.05 -0.83,-2.09 -1.09,-3.01 -0.44,-1.61 -0.8,-2.83 -1.47,-3.48 -0.66,-0.72 -1.88,-1.21 -3.33,-1.33 -2.77,-0.34 -5.84,1.63 -10.09,1.48 -2.23,-0.04 -4.54,-0.93 -6.07,-1.68 -1.61,-0.76 -2.9,-1.37 -3.87,-1.55 -1.06,-0.21 -2.01,-0.13 -3.15,0.5 -1.08,0.63 -2.03,1.69 -2.51,2.82 -0.96,2.4 -0.87,4.92 -0.87,6.62 0.02,1.74 -0.01,2.78 -0.3,2.85z"/>
  <path class="fil0" d="M67.56 137.34c1.07,-0.56 2.88,1.21 5.74,2.71 1.36,0.75 3.04,1.41 4.86,1.68 1.53,0.25 3.24,0.63 5,0.14 1.65,-0.49 3.2,-1.4 4.53,-2.5 1.41,-1.16 2.28,-2.65 3.01,-4.15 0.88,-1.73 1.49,-3.62 1.83,-5.34 0.64,-3.55 0.89,-6.13 1.75,-6.23 0.78,-0.09 1.53,2.3 1.78,6.37 0.09,1.98 -0.09,4.4 -1.01,6.93 -0.77,2.19 -2.35,4.29 -4.22,5.93 -1.77,1.59 -3.69,3.43 -6.17,4.11 -2.52,0.67 -5.23,0.86 -7.59,0.24 -2.77,-0.7 -4.66,-2.61 -6.15,-3.98 -3.15,-2.9 -3.82,-5.71 -3.36,-5.91z"/>
  <path class="fil0" d="M82.54 144.93c1.13,0.22 2.18,0.47 2.67,0.62l0.49 0.19 -0.36 0.02 -0.01 0.09 -0.09 0.07 -0.78 -0.06c-0.53,-0.05 -1.26,-0.16 -2.07,-0.32 -0.82,-0.17 -1.05,-0.25 -1.4,-0.37l-0.35 -0.16 0.06 -0.08 -0.61 -0.21 0.1 -0.07 1.1 0.13c0.39,0.02 0.67,0.05 1.24,0.16z"/>
  <path class="fil0" d="M81.86 145.05c1.02,-0.52 2.69,0.47 4.1,2.61 0.68,1.03 1.35,2.3 1.95,3.71 0.54,1.22 0.53,2.71 0.95,4.07 0.4,1.32 0.83,2.66 1.09,4.01 0.27,1.4 0.71,2.75 0.81,4.07 0.13,1.53 0.01,2.98 -0.07,4.2 -0.18,2.52 -0.78,4.17 -1.6,4.25 -0.84,0.08 -1.21,-1.45 -1.9,-3.74 -0.34,-1.11 -0.66,-2.41 -1.02,-3.81 -0.26,-1.26 -0.52,-2.52 -0.79,-3.84 -0.31,-1.27 -1.32,-2.36 -1.63,-3.61 -0.39,-1.31 -0.73,-2.46 -1.12,-3.73 -0.35,-1.4 -0.09,-2.92 -0.35,-4.06 -0.53,-2.33 -0.95,-3.86 -0.42,-4.13z"/>
  <path class="fil0" d="M88.07 142.99c0.96,-0.63 2.48,-0.25 3.78,1.08 0.62,0.64 1.24,1.45 1.8,2.39 0.5,0.81 0.49,1.91 0.89,2.84 0.38,0.9 0.81,1.8 1.07,2.74 0.27,0.98 0.72,1.88 0.85,2.82 0.15,1.08 0.07,2.14 0.02,3.02 -0.1,1.83 -0.63,3.05 -1.44,3.2 -0.83,0.16 -1.25,-0.86 -1.99,-2.36 -0.36,-0.73 -0.71,-1.58 -1.07,-2.51 -0.31,-0.8 -0.49,-1.7 -0.8,-2.58 -0.3,-0.85 -1.27,-1.44 -1.56,-2.27 -0.31,-0.87 -0.75,-1.66 -1.02,-2.47 -0.3,-0.94 -0.02,-2.11 -0.24,-2.91 -0.44,-1.62 -0.78,-2.68 -0.29,-3z"/>
  <path class="fil0" d="M27.98 90.91c0.52,-0.98 4.31,0.06 8.68,4.02 2.07,1.9 4.26,4.42 6.16,7.47 1.65,2.62 2.61,5.87 3.63,8.94 1.02,2.96 1.9,5.92 2.76,8.73 0.89,2.92 2.13,5.55 3.36,7.87 1.43,2.71 3.11,4.94 5.02,6.43 3.93,3.16 7.68,3.16 7.77,4.01 0.27,0.75 -4.15,2.02 -9.65,-1.01 -2.62,-1.41 -5.21,-3.91 -7.14,-6.99 -1.69,-2.66 -2.82,-5.74 -3.83,-8.8 -0.98,-2.94 -2.45,-5.72 -3.34,-8.48 -0.91,-2.89 -2.13,-5.43 -3.41,-7.83 -1.45,-2.76 -2.62,-5.57 -4.22,-7.6 -3.28,-4.12 -6.13,-6.23 -5.8,-6.77z"/>
  <path class="fil0" d="M29.3 91.21c-0.02,-1.09 4.12,-1.9 9.73,0.54 2.66,1.14 5.55,2.92 8.34,5.17 2.43,1.94 4.39,4.57 6.59,6.92 2.08,2.26 4.18,4.54 6.27,6.8 2.1,2.34 4.35,4.37 6.41,6.27 2.38,2.22 4.69,4.15 6.86,5.54 4.45,2.9 7.99,3.81 7.89,4.7 -0.04,0.76 -4.04,0.84 -9.48,-1.53 -2.62,-1.14 -5.49,-2.87 -8.26,-5.1 -2.41,-1.91 -4.62,-4.27 -6.83,-6.61 -2.13,-2.26 -4.72,-4.15 -6.74,-6.39 -2.1,-2.33 -4.29,-4.42 -6.33,-6.31 -2.35,-2.2 -4.35,-4.53 -6.54,-5.92 -4.46,-2.86 -7.98,-3.45 -7.92,-4.08z"/>
  <path class="fil0" d="M85.98 62.81c1.12,0.48 0.27,4.07 -0.42,9.44 -0.36,2.59 -0.62,5.65 -0.76,9 -0.13,2.88 -0.65,5.99 -0.67,9.22 -0.01,3.1 0.05,6.29 -0.03,9.4 -0.08,3.24 0.05,6.43 -0.1,9.41 -0.15,3.45 -0.68,6.72 -0.99,9.47 -0.7,5.68 -1.55,9.29 -2.37,9.21 -0.83,-0.07 -0.97,-3.74 -1.16,-9.34 -0.05,-2.81 -0.1,-5.94 -0.16,-9.33 -0.06,-2.98 0.06,-6.16 0.07,-9.4 0.01,-3.12 -0.67,-6.28 -0.6,-9.42 0.08,-3.26 0.07,-6.51 0.41,-9.58 0.4,-3.56 1.64,-6.75 2.46,-9.46 1.66,-5.62 3.84,-8.83 4.32,-8.62z"/>
  <path class="fil0" d="M86.36 63.8c1.17,0.19 1.34,3.67 3.12,8.49 0.75,2.3 2.3,5.16 3.57,8.23 1.13,2.63 1.93,5.63 2.89,8.85 0.93,3.03 1.7,6.17 2.1,9.32 0.41,3.26 0.8,6.48 0.65,9.51 -0.15,3.51 -0.78,6.71 -1.42,9.4 -1.32,5.55 -3.24,8.76 -3.98,8.53 -0.85,-0.25 0.1,-3.67 0.48,-9.02 0.19,-2.59 0.34,-5.62 0.24,-8.87 -0.06,-2.81 -0.17,-5.8 -0.63,-8.82 -0.44,-2.92 -1.76,-5.67 -2.54,-8.45 -0.77,-2.85 -2.08,-5.7 -3.06,-8.51 -1.08,-3.26 -1.69,-6.28 -2.15,-9.14 -1.1,-5.76 0.18,-9.66 0.73,-9.52z"/>
  <path class="fil0" d="M107.53 273.09c-0.55,0.03 -0.96,-1.93 -0.27,-5.4 0.68,-3.44 2.64,-8.35 6.61,-13.18 3.8,-4.68 9.35,-9.12 15.82,-12.73 5.57,-3.12 11.98,-5.5 18.74,-7.32 3.25,-0.86 6.62,-1.52 10.07,-1.77 1.8,-0.1 3.27,-0.17 5.37,-0.05 3.17,0.17 5.75,0.77 8.66,1.25 0.62,0.12 1.36,0.22 1.82,0.34 -2.11,2.14 -4.2,4.27 -6.27,6.38 -1.22,1.3 -2.44,2.59 -3.64,3.87 -2.04,2.24 -3.96,4.47 -5.72,6.68 -4.35,5.41 -7.5,10.99 -8.99,16.25 -1.39,5.47 -2.58,10.6 -4.77,13.45 -2.07,2.93 -4.09,3.61 -4.27,3.3 -0.28,-0.37 1.13,-1.5 2.47,-4.31 1.48,-2.79 2.09,-7.25 3.13,-13.24 1.17,-5.88 4.25,-12.34 8.68,-18.25 1.8,-2.43 3.82,-4.78 5.96,-7.08 0.94,-0.98 1.88,-1.98 2.84,-2.98l0.76 -0.75 -0.15 -0.06 -1.07 -0.02c-1.08,0 -2.94,0.11 -4.37,0.29 -3.06,0.37 -6.06,1.09 -9.04,1.85 -6.21,1.6 -12.07,4.29 -17.41,7.05 -6.14,3.17 -11.74,6.41 -15.53,10.4 -7.89,8.23 -8.77,16.17 -9.42,16.04z"/>
  <path class="fil0" d="M37.56 239.79c0.15,-0.54 1.31,-0.75 3.22,-0.21 1.89,0.55 4.45,1.98 6.9,4.34 2.39,2.25 4.65,5.29 6.86,8.42 1.92,2.71 3.45,5.79 5.77,8.21 2.24,2.34 4.9,4.34 7.68,6 2.9,1.75 6.06,2.81 9.04,3.65 3.46,0.99 6.83,1.51 9.77,1.59 6.05,0.16 10.09,-0.84 10.4,-0 0.3,0.7 -3.57,2.75 -10.18,3.54 -3.19,0.37 -7.02,0.3 -11.03,-0.56 -3.47,-0.74 -6.99,-2.2 -10.31,-4.1 -3.17,-1.81 -6.62,-3.62 -9.19,-6.39 -2.68,-2.87 -4.82,-5.94 -6.58,-8.77 -2.03,-3.29 -3.29,-6.56 -5.13,-8.86 -3.69,-4.78 -7.4,-6.28 -7.22,-6.86z"/>
  <path class="fil0" d="M40.16 240.1c-0.03,-1.19 2.41,-2.11 5.59,-4 1.57,-0.89 3.34,-2.04 5.28,-3.44 1.68,-1.2 3.8,-2.15 5.82,-3.46 1.93,-1.26 4.06,-2.55 6.35,-3.41 2.35,-0.9 4.71,-1.7 7.03,-1.95 2.67,-0.29 5.16,-0.05 7.22,0.31 4.27,0.74 6.64,2.35 6.42,3.09 -0.23,0.85 -2.74,0.25 -6.57,0.44 -1.86,0.09 -4,0.29 -6.26,0.77 -1.94,0.4 -4.03,0.85 -6.02,1.68 -1.93,0.79 -3.42,2.42 -5.25,3.53 -1.91,1.16 -3.73,2.56 -5.66,3.67 -2.24,1.32 -4.8,1.81 -6.8,2.42 -4.17,1.32 -7.15,0.87 -7.14,0.33z"/>
  <path class="fil0" d="M10.98 161.11c0.58,-0.97 5.23,1.09 11.56,5.71 3.03,2.25 6.46,5.1 9.83,8.61 2.91,3.04 5.34,6.88 7.68,10.82 2.26,3.79 4.16,7.99 5.18,12.37 1.04,4.55 1.55,8.8 2.38,12.49 0.86,4.26 2.64,7.79 4.9,10.48 4.67,5.52 9.69,7.08 9.39,7.97 -0.05,0.7 -5.78,0.16 -11.92,-5.5 -2.92,-2.68 -5.65,-6.89 -6.89,-11.75 -1.15,-4.14 -1.42,-8.49 -2.42,-12.51 -0.97,-3.89 -3.21,-7.36 -5.18,-10.79 -2.06,-3.6 -4.66,-6.81 -7.19,-9.74 -2.94,-3.4 -5.56,-6.83 -8.24,-9.35 -5.53,-5.12 -9.39,-8.29 -9.06,-8.81z"/>
  <path class="fil0" d="M14.14 161.24c0.01,0.41 -0.7,0.72 -2.03,0.94l-0.2 0.03 -0.38 -0.43 -0.84 -0.98 -1.28 -1.49 2.43 -0.02c2.57,-0.02 6.51,0.34 11.35,1.05 4.24,0.63 9.19,1.48 14.51,2.46 4.53,0.87 9.69,2.18 14.64,4.88 4.75,2.61 8.49,6.51 11.58,10.41 3.21,4.08 6.24,8.22 8.51,12.44 2.67,4.87 4.49,9.69 5.85,13.84 2.78,8.57 3.05,14.46 2.31,14.6 -0.88,0.2 -2.1,-5.37 -5.6,-13.3 -1.71,-3.84 -3.85,-8.24 -6.6,-12.76 -2.33,-3.91 -5,-7.97 -8.11,-11.81 -3,-3.71 -6.78,-6.63 -10.48,-8.71 -3.87,-2.22 -8.62,-3.02 -13.17,-4.08 -5.26,-1.21 -9.99,-3 -14.16,-4.05 -4.79,-1.21 -8.64,-2.19 -11.08,-2.92l1.14 -1.49c0.17,0.43 0.32,0.81 0.45,1.17l-0.72 -0.5c1.19,0.28 1.83,0.51 1.84,0.71z"/>
  <path class="fil0" d="M69.12 188.25c-1.11,-0.46 -0.02,-4.43 -1.34,-10.25 -0.57,-2.82 -1.72,-6.02 -3.19,-9.62 -1.25,-3.11 -2.26,-6.72 -3.22,-10.55 -0.23,-0.92 -0.44,-1.85 -0.6,-2.81l-0.22 -1.45c-0.05,-0.48 -0.11,-0.89 -0.16,-1.87 -0.24,-3.53 0.54,-6.13 1.11,-8.98 0.23,-1.2 0.31,-1.01 0.55,-1.97 1.29,1.51 2.56,3.01 3.81,4.49 0.58,0.56 1.16,1.24 1.74,1.63 0.52,0.43 1.32,1 1.47,1.09 1.15,0.76 2.39,1.45 3.61,2.17 3.4,1.99 6.51,3.95 9.16,5.85 2.71,1.92 4.75,3.97 5.73,5.74 1.01,1.79 0.79,3.03 0.42,3.08 -0.45,0.1 -0.82,-0.67 -2.01,-1.78 -1.19,-1.12 -3.21,-2.58 -5.97,-4.01 -2.66,-1.39 -5.97,-2.95 -9.51,-4.72 -1.32,-0.67 -2.69,-1.42 -4.06,-2.34 -0.47,-0.32 -0.35,-0.25 -0.45,-0.32l-0.19 -0.16 -0.38 -0.38 -0.2 -0.13c-0.09,0.41 0.08,1.05 0.27,1.23 0.37,1.52 0.71,2.95 1.04,4.32 0.77,3.33 2.19,6.59 3.29,9.87 1.3,3.8 1.7,7.77 1.9,11.07 0.55,6.93 -2.14,11.12 -2.61,10.82z"/>
  <path class="fil0" d="M95.77 124.7c-0.52,-0.11 -0.46,-2.1 1.28,-5.14 1.71,-2.95 5.42,-7.06 11.61,-8.99 2.93,-0.91 6.33,-1.31 9.89,-0.85 3.61,0.38 7.19,2.01 10.26,3.48 2.39,1.11 4.58,2.2 6.82,2.61 1.13,0.21 2.27,0.29 3.33,0.14l0.77 -0.14c0.26,-0.09 0.4,-0.08 1.01,-0.4 0.98,-0.48 2.42,-1.75 3.52,-2.59 0.65,0.98 1.41,2.44 2.09,3.61l0.9 1.99c0.25,0.73 0.35,0.93 0.49,1.44 0.26,0.87 0.46,1.75 0.6,2.65 0.29,1.79 0.32,3.63 0.1,5.44 -0.4,3.63 -1.96,7.18 -4.32,9.91 -2.44,2.85 -5.59,5.01 -9.09,6.14 -3.54,1.15 -7.13,1.1 -10.28,0.64 -3.68,-0.53 -6.94,-1.49 -9.94,-2.09 -3,-0.61 -5.83,-0.89 -8.33,-0.58 -5.25,0.5 -8.42,4.03 -10.12,6.68 -1.73,2.69 -2.45,4.48 -2.88,4.36 -0.36,-0.09 -0.31,-2.06 1.05,-5.29 0.71,-1.59 1.79,-3.52 3.64,-5.33 1.83,-1.82 4.59,-3.3 7.69,-3.9 6.1,-1.36 12.92,0.69 19.41,1.5 2.82,0.31 5.66,0.32 8.27,-0.5 2.62,-0.8 5.09,-2.43 6.94,-4.61 1.78,-2.11 2.77,-4.77 2.93,-7.48 0.09,-1.35 0,-2.71 -0.26,-4.02 -0.13,-0.65 -0.28,-1.31 -0.49,-1.93l-0.28 -0.82 0 -0.01 0 -0.02 -0.13 0.06c0,0 -0.56,0.2 -0.99,0.34 -0.44,0.11 -0.89,0.24 -1.33,0.3 -1.77,0.31 -3.47,0.25 -5.09,0.02 -3.27,-0.5 -6.02,-1.85 -8.37,-3.03 -3.17,-1.64 -5.72,-3.11 -8.52,-3.74 -2.78,-0.68 -5.62,-0.72 -8.11,-0.16 -5.17,1.14 -8.75,4.13 -10.81,6.42 -2.1,2.33 -2.92,4 -3.24,3.9z"/>
  <path class="fil0" d="M97.53 102.81c-0.56,0.05 -0.91,-2.26 -0.3,-6.38 0.63,-4.08 2.3,-10.03 6.21,-16.36 3.71,-6.2 9.76,-11.97 15.44,-18.15 2.44,-2.7 4.85,-5.43 6.86,-8.52 1.01,-1.54 1.91,-3.15 2.64,-4.84 0.36,-0.85 0.69,-1.71 0.96,-2.58 0.3,-1.14 0.84,-3.16 0.83,-5.53 0.16,-0.81 -0.15,-2.99 -0.28,-4.66 -0.19,-1.97 -0.38,-3.94 -0.57,-5.93l0.83 0.88 0.41 0.39 0.67 0.63 0.35 0.27 1.24 1.44c1.55,1.88 2.93,3.28 4.34,5.66 0.69,1.18 1.33,2.56 1.91,4.02 0.25,0.74 0.55,1.53 0.76,2.25l0.37 1.33c0.47,1.77 0.76,3.54 1,5.31 1.13,8.42 0.32,16.89 -2.15,24.28 -2.88,8.57 -7.75,15.59 -12.81,20.51 -2.57,2.6 -5.17,4.54 -7.3,6.36 -2.11,1.75 -3.9,3.56 -5.52,4.8 -3.16,2.38 -3.48,4.97 -3.99,4.82 -0.19,-0.04 -0.3,-0.65 -0.06,-1.83 0.19,-1.17 1.13,-2.95 2.6,-4.45 0.68,-0.74 1.42,-1.55 2.23,-2.43 0.82,-0.95 1.76,-1.96 2.78,-2.97 2.03,-2.05 4.45,-4.16 6.67,-6.7 4.4,-4.87 8.49,-11.55 10.91,-19.48 2.08,-6.81 3.05,-14.51 1.97,-22.17 -0.23,-1.62 -0.53,-3.23 -1,-4.78l-0.36 -1.15 -0.13 -0.25 -0.2 -0.23 -0.19 0.52 0 0.03c-0.03,0.04 0.04,-0.14 -0.15,0.47 -0.32,1.06 -0.69,2.09 -1.09,3.1 -0.81,2.02 -1.81,3.91 -2.9,5.69 -2.18,3.58 -4.81,6.71 -7.43,9.46 -6.15,6.33 -12.45,11.01 -16.23,16.5 -7.86,11.26 -8.58,20.79 -9.33,20.68z"/>
  <path class="fil0" d="M33.39 91.48c-0.93,0.53 -4.2,-4.46 -4.95,-13.46 -0.12,-2.13 -0.24,-4.15 0.08,-6.84 0.23,-1.37 0.62,-3.02 2.01,-4.55 0.67,-0.71 1.48,-1.31 2.51,-1.71 1.03,-0.42 2.38,-0.53 3.55,-0.2l1.08 0.42c1.63,0.94 2.52,1.83 2.35,1.66l0.3 -0.08c0.64,-0.34 0.95,-2.7 1.03,-5.25 0.13,-2.41 0.67,-5.83 3.41,-8.13 1.34,-1.18 3.43,-1.8 5.26,-1.49 1.85,0.28 3.23,1.2 4.34,2.11 2.32,2 3.53,4.26 4.91,5.48 1.45,1.3 2.18,1.47 4,1.13 2.08,-0.37 4.55,-1.88 8.02,-1.47 1.7,0.27 3.27,1.32 4.1,2.58 0.86,1.24 1.22,2.52 1.42,3.69 0.36,2.49 0.01,4.36 0.07,5.93 0.01,1.58 0.31,2.77 0.89,3.71 1.11,1.93 2.77,2.05 2.79,2.48 0.02,0.19 -0.38,0.46 -1.23,0.43 -0.85,-0.02 -2.08,-0.5 -3.13,-1.58 -1.07,-1.02 -1.89,-2.86 -2.15,-4.72 -0.31,-1.85 -0.25,-3.86 -0.69,-5.49 -0.46,-1.68 -1.38,-2.86 -2.59,-2.9 -1.32,-0.16 -3.47,0.99 -6.33,1.86 -1.25,0.35 -2.86,0.55 -4.49,0.14 -1.62,-0.42 -2.96,-1.37 -3.95,-2.34 -2.03,-1.99 -3.13,-4.11 -4.62,-5.27 -1.54,-1.27 -2.74,-1.16 -3.37,-0.37 -0.86,0.92 -1.19,2.41 -1.32,4.53 -0.1,1.11 -0.11,2.33 -0.27,3.75 -0.19,1.41 -0.53,3.17 -1.89,4.79 -1.2,1.51 -3.82,2.69 -6,1.95 -2.43,-0.92 -3,-2.02 -3.42,-2.14l-0.04 -0.04c0.05,-0.06 -0.22,-0.16 -0.71,0.17 -0.36,0.19 -0.81,0.89 -1.06,1.73 -0.52,1.78 -0.79,4.03 -0.86,5.85 -0.21,8.16 1.58,13.39 0.97,13.64z"/>
  <path class="fil0" d="M30.36 76.54c-1.1,0.28 -3.12,-4.2 -5.02,-12.04 -0.36,-2.01 -0.54,-5.16 1.89,-7.8 1.26,-1.37 3.23,-1.94 4.52,-2.08 1.35,-0.18 2.36,-0.24 2.89,-0.46 0.89,-0.29 2,-1.29 3.31,-2.96 1.24,-1.56 2.97,-3.81 5.27,-5.22 4.22,-2.87 10.33,-3.17 14.75,-0.47 2.27,1.27 4.29,3.41 5.45,5.44 1.2,2 1.91,3.08 3.03,3.57 1.42,0.75 3.98,0.9 6.38,2.08 2.32,1.15 3.98,2.86 5.18,4.51 2.48,3.51 3.12,6.83 3.51,9.03 0.34,2.23 0.27,3.54 -0.12,3.65 -0.41,0.12 -0.99,-1.03 -1.84,-3.02 -0.88,-1.96 -1.99,-4.88 -4.28,-7.4 -1.11,-1.21 -2.5,-2.31 -4.09,-2.93 -1.5,-0.68 -3.68,-0.54 -6.56,-1.61 -1.23,-0.47 -2.51,-1.44 -3.32,-2.46 -0.84,-1.02 -1.4,-2.04 -1.93,-2.92 -0.98,-1.71 -2.09,-2.89 -3.71,-3.83 -3.13,-1.8 -6.86,-0.9 -9.52,0.81 -1.46,0.86 -2.38,2.12 -3.71,3.97 -1.25,1.69 -2.98,4.08 -6.01,5.06 -1.74,0.53 -3.08,0.38 -4.01,0.42 -0.95,0.02 -1.37,0.05 -1.76,0.26 -0.94,0.5 -1.55,2.14 -1.39,3.78 0.91,7.36 1.67,12.48 1.07,12.61z"/>
  <path class="fil0" d="M38.46 23.49c0.66,-0.93 3.12,-0.39 6.11,1.6 1.43,0.96 3.02,2.2 4.62,3.66 1.4,1.25 2.43,3.02 3.78,4.52 1.3,1.45 2.63,2.92 3.78,4.49 1.19,1.63 2.51,3.13 3.46,4.74 1.11,1.86 1.91,3.72 2.59,5.29 1.4,3.25 1.8,5.59 1.09,5.98 -0.75,0.41 -1.99,-1.43 -4.08,-4.1 -1.07,-1.4 -2.2,-2.87 -3.41,-4.46 -1.07,-1.42 -2.12,-2.99 -3.32,-4.5 -1.16,-1.46 -2.89,-2.46 -4.08,-3.86 -1.24,-1.46 -2.58,-2.79 -3.76,-4.11 -1.34,-1.54 -2.2,-3.41 -3.3,-4.65 -2.25,-2.52 -3.83,-4.11 -3.48,-4.6z"/>
  <path class="fil0" d="M40.46 24.39c0.18,-1.15 4.9,-0.99 11.92,0.36 3.39,0.68 7.27,1.46 11.6,2.64 3.73,1.04 7.61,2.97 11.27,5.38 3.52,2.29 6.71,5.22 9.19,8.59 2.57,3.48 4.69,7.25 5.85,11.08 1.35,4.42 1.61,8.7 1.5,12.27 -0.28,7.4 -2.42,11.76 -3.13,11.55 -0.89,-0.18 0.21,-4.63 -0.4,-11.4 -0.31,-3.27 -0.98,-7.05 -2.38,-10.88 -1.2,-3.29 -2.84,-6.69 -5.15,-9.73 -2.24,-2.94 -5.42,-5.01 -8.34,-6.98 -3.04,-2.09 -6.55,-3.33 -9.98,-4.5 -3.96,-1.32 -7.72,-3.07 -10.96,-4.16 -6.7,-2.19 -11.07,-3.66 -10.98,-4.23z"/>
  <path class="fil0" d="M88.8 49.44c-0.5,0.15 -1.41,-0.98 -1.4,-3.4 -0.03,-2.41 1.27,-5.8 3.6,-8.95 2.25,-3.07 4.93,-6.14 7.88,-9.62 1.27,-1.48 2.69,-2.92 4.14,-4.38 2.5,-2.61 5.32,-5.58 7.91,-8.45l1.07 -1.17 0.88 -0.88 -0.62 7.24c-0.17,2.16 -0.09,4.16 0.24,5.41 0.4,2 0.85,3.2 1.43,4.84 1.4,3.72 3.64,7.21 5.27,10.91 0.95,2.14 1.74,4.31 2.26,6.46 0.53,2.23 0.67,4.31 0.66,6.21 -0.03,3.9 -0.84,7.08 -1.87,9.08 -1.01,2.03 -2.16,2.76 -2.45,2.53 -0.37,-0.27 0.11,-1.24 0.49,-3.16 0.4,-1.89 0.69,-4.78 0.3,-8.23 -0.3,-3.38 -1.53,-6.89 -3.58,-10.84 -1.7,-3.37 -3.77,-7.04 -5.44,-11.19 -0.66,-1.62 -1.44,-3.67 -1.89,-5.13 -0.25,-0.54 -0.32,-0.17 -0.38,-0.13l-0.02 0.04 -0.12 0.11c-1.39,1.51 -2.75,2.98 -4.08,4.43 -3.08,3.27 -6.6,5.84 -8.95,8.36 -2.42,2.6 -3.86,5.03 -4.45,6.85 -0.63,1.83 -0.56,2.99 -0.89,3.06z"/>
  <path class="fil0" d="M67.38 31.17c-0.99,0.43 -3.4,-3.21 -3.76,-9.73 -0.17,-3.1 0.17,-6.78 1.24,-10.61 0.38,-1.4 0.91,-2.66 1.63,-4.12 1.19,-2.33 2.55,-4.64 3.8,-6.71 0.77,0.88 1.49,1.77 2.32,2.64 0.58,0.6 1.15,1.29 1.74,1.82l1.1 0.82c0.62,0.37 1.23,0.75 1.92,1.08 1.35,0.67 2.81,1.25 4.32,1.83 3.13,1.21 6.58,2.12 9.6,4 1.7,1.02 3.39,2.47 4.49,4.03 1.12,1.52 1.9,3.05 2.51,4.48 2.54,5.94 1.72,10.3 0.89,10.2 -0.84,0.05 -1.03,-3.68 -4.01,-8.53 -0.71,-1.15 -1.56,-2.34 -2.56,-3.41 -0.97,-1.08 -2.1,-1.88 -3.61,-2.68 -2.5,-1.36 -5.58,-2.45 -8.88,-3.63 -1.59,-0.57 -3.29,-1.05 -5.01,-1.73 -0.86,-0.33 -1.72,-0.75 -2.56,-1.21l-0.61 -0.4 -0.36 -0.24 -0.01 0.01 -0 -0.03 -0.02 0.04c-0.43,1 -0.94,2.26 -1.31,3.36 -1.13,3.18 -2.37,6.25 -2.63,9.04 -0.54,5.71 0.4,9.49 -0.22,9.69z"/>
  <path class="fil0" d="M47.92 123.8c-0.59,1 -4.73,-0.7 -10.45,-4.29l-0.99 -0.61 -0.18 -0.03 -0.2 0.03 0.11 0.37 0.01 0.01 0.02 1.11c0.01,0.87 0.03,1.75 0.05,2.66 0.05,1.78 0.17,3.59 0.54,5.34 0.72,3.4 1.99,6.55 3.85,9.27 1.91,2.87 4.64,4.91 7.34,6.06 3.15,1.43 6.52,1.31 9.29,0.33 5.79,-2.1 7.8,-6.45 8.61,-6.04 0.36,0.13 0.28,1.36 -0.73,3.24 -1,1.86 -3.06,4.28 -6.4,6.02 -3.15,1.69 -7.91,2.52 -12.38,0.85 -3.87,-1.36 -7.16,-4.28 -9.56,-7.69 -2.35,-3.24 -4.49,-6.98 -5.24,-10.88 -0.4,-2.02 -0.66,-4.02 -0.83,-5.96 -0.09,-0.97 -0.15,-1.93 -0.18,-2.86 -0.02,-1.4 -0.04,-2.78 -0.06,-4.16 0,-1.99 0.08,-3.86 0.16,-5.55l0.07 -1.25 0.04 -0.6 0.25 -0.17 2.18 1.79c2.4,2.02 4.68,3.93 6.51,5.47 5.13,4.25 8.46,7.05 8.17,7.55z"/>
  <path class="fil0" d="M296.24 452.78c0.24,1.05 -2.74,2.74 -7.51,1.52 -2.23,-0.59 -4.76,-1.82 -6.98,-3.88 -1.95,-1.77 -3.13,-4.41 -4.05,-6.97 -0.92,-2.48 -1.38,-5.19 -1.14,-7.84 0.22,-2.73 0.9,-5.47 2.27,-7.63 1.57,-2.52 3.72,-4.23 5.62,-5.37 4.04,-2.37 7.17,-1.93 7.26,-1.2 0.22,0.87 -2.35,1.44 -5.11,4.01 -1.31,1.23 -2.69,2.83 -3.66,4.8 -0.85,1.68 -1.56,3.58 -1.67,5.66 -0.13,2.03 0.85,3.94 1.45,5.7 0.62,1.9 1.75,3.48 2.96,4.82 1.36,1.56 2.76,3.3 4.42,4.15 3.4,1.71 6.08,1.58 6.13,2.22z"/>
  <path class="fil0" d="M279.42 442.66c0.14,1.15 -2.53,2.37 -6.76,2.94 -2.03,0.28 -4.41,0.45 -6.98,0.55 -2.22,0.08 -4.56,-0.41 -6.96,-0.46 -2.31,-0.05 -4.66,-0.06 -6.96,-0.22 -2.39,-0.17 -4.75,-0.14 -6.95,-0.41 -2.55,-0.32 -4.89,-0.82 -6.9,-1.24 -4.13,-0.86 -6.74,-1.92 -6.64,-2.74 0.1,-0.84 2.78,-0.75 6.92,-0.79 2.01,-0.01 4.35,0.03 6.87,0.1 2.2,0.12 4.5,0.25 6.86,0.38 2.27,0.09 4.62,-0.52 6.89,-0.41 2.38,0.07 4.63,0.13 6.86,0.19 2.52,0.14 4.85,0.93 6.86,1.08 4.11,0.33 6.8,0.46 6.87,1.04z"/>
  <path class="fil0" d="M279.09 434.45c0.14,1.15 -1.92,2.38 -5.22,3.04 -1.59,0.32 -3.46,0.57 -5.49,0.73 -1.75,0.15 -3.62,-0.28 -5.52,-0.25 -1.83,0.02 -3.69,0.08 -5.51,-0.02 -1.89,-0.1 -3.76,0 -5.5,-0.21 -2.02,-0.24 -3.88,-0.68 -5.46,-1.02 -3.26,-0.72 -5.33,-1.62 -5.27,-2.45 0.06,-0.84 2.2,-0.91 5.46,-1.09 1.58,-0.09 3.43,-0.11 5.42,-0.13 1.75,0.06 3.54,0.12 5.4,0.18 1.8,0.02 3.62,-0.65 5.4,-0.61 1.87,-0 3.61,-0.01 5.39,-0.01 1.99,0.07 3.85,0.79 5.44,0.9 3.25,0.23 5.39,0.35 5.46,0.93z"/>
  <path class="fil0" d="M298.29 454.93c0.16,-1.27 7.29,0.15 18.2,0.27 5.25,0.06 11.39,-0.31 17.86,-1.5 2.81,-0.5 5.64,-1.06 8.62,-1.78 1.55,-0.35 3.11,-0.71 4.67,-1.06l2.47 -0.46 0.31 -0.03 0.31 -0.02 0.44 0.06 -0.3 -0.26 -0.38 -0.25 -0.25 -0.14c-0.15,-0.08 -0.28,-0.15 -1.01,-0.45 -5.53,-2.35 -11.58,-3.09 -17.33,-3.81 -6.68,-0.82 -13.11,-1.62 -18.48,-3.11 -5.64,-1.52 -9.69,-3.97 -12.39,-5.73 -2.69,-1.81 -4.02,-3.1 -3.82,-3.45 0.22,-0.37 1.88,0.35 4.76,1.62 2.89,1.22 7,3.15 12.2,4.1 5.14,0.98 11.31,1.32 18.17,1.9 5.9,0.52 12.38,1.55 18.63,4.1l1.05 0.44 1.47 0.68c0.97,0.44 2.02,1.08 3.02,1.62 1.91,1.18 3.57,2.43 5.02,3.7 1.47,1.26 2.95,2.52 4.4,3.78 0.07,0.04 0.35,0.27 0.94,0.78 1.2,1.08 2.39,2.15 3.58,3.22 -3.02,-0.85 -6.01,-1.7 -8.98,-2.54l-2.7 -0.7c-0.83,-0.2 -2.01,-0.59 -2.31,-0.51 -2.06,-0.17 -3.65,-0.02 -5.24,0.22 -0.88,0.15 -1.49,0.28 -2.25,0.45 -1.46,0.34 -2.93,0.74 -4.44,1.15 -3.01,0.84 -6.13,1.55 -9.12,1.98 -6.98,1.05 -13.51,0.47 -18.97,-0.03 -11.28,-1.02 -18.2,-3.79 -18.13,-4.25z"/>
  <path class="fil0" d="M297.18 433.97c-0.78,-0.91 5.62,-5.64 15.84,-12 4.92,-3.04 9.82,-7 14.54,-12.51 4.13,-4.63 8.68,-9.8 13.99,-14.65 2.9,-2.65 6.16,-5.12 9.84,-6.96l2.21 4.55c-2.79,1.32 -5.68,2.3 -8.55,3.05 -6.94,1.8 -13.67,2.74 -19.73,4.01 -7.04,1.37 -13.11,3.69 -17.78,6.92 -9.67,6.58 -13.3,13.95 -14.14,13.42 -0.63,-0.16 2.13,-8.33 12.03,-16.26 4.71,-3.85 11.45,-6.96 18.8,-8.63 6.33,-1.54 13.07,-2.24 19.51,-3.98 2.7,-0.73 5.3,-1.76 7.71,-3.05l2.17 4.48c-3.04,1.72 -5.75,3.99 -8.41,6.36 -4.91,4.38 -8.97,9.73 -13.43,14.45 -2.57,2.74 -5.36,5.19 -8.25,7.21 -2.89,2.03 -5.78,3.54 -8.37,4.96 -10.66,5.6 -17.61,9.08 -17.99,8.64z"/>
  <path class="fil0" d="M302.74 455.68c0.56,-0.03 1.17,0.4 1.48,1.4 0.3,0.97 0.23,2.52 -0.57,4.08 -0.74,1.5 -2.04,2.98 -3.79,4.13 -0.77,0.5 -1.6,0.79 -2.47,1.01 -1.05,0.24 -2.07,0.46 -2.98,0.66 -2.72,0.6 -5.44,0.91 -8.04,1.18 -0.53,0.06 -1.04,0.11 -1.55,0.17l-0.22 -0.03c-0.43,0.02 -1.23,0.08 -4.19,0.36 2.32,-1.81 4.37,-3.41 6.65,-5.19l1.02 -0.83 0.41 -0.6 0.45 -1.09 0.3 -0.97c0.16,-0.59 0.27,-1.25 0.33,-1.86 0.18,-2.6 0.59,-4.62 1.46,-4.65 0.8,-0.03 1.3,1.43 2.05,4.26 0.16,0.7 0.3,1.49 0.33,2.41 0.01,0.42 -0.01,1.03 -0.05,1.34l0 0.25 -0.06 0.19 -0.25 0.31 -0.18 0.15 0.18 -0.01c0.5,-0.06 1.11,-0.9 0.95,-0.81l0.01 0.01 0.47 -0.13 0.9 -0.31c0.57,-0.21 1.13,-0.47 1.61,-0.68 1.11,-0.49 2.55,-0.75 3.35,-1.55 1.62,-1.59 1.77,-3.19 2.37,-3.21z"/>
  <path class="fil0" d="M297.41 415.23c-1.11,0.39 -2.45,-0.18 -3.88,-0.33 -0.71,-0.12 -1.54,-0.2 -2.4,-0.12 -0.4,0.04 -0.82,-0.04 -1.31,-0.08l-0.74 -0.03 -0.49 0.03 -0.37 0.15 0.01 0.04 0.11 0.18 0.02 0.05 0.06 0.28 0.11 1.07c0,0.95 -0.22,1.87 -0.58,2.64 -0.36,0.74 -0.72,1.18 -0.96,1.52 -1.05,1.07 -0.79,2.11 -0.7,2.95 -0.03,0.4 -0.86,0.63 -1.75,-0.17 -0.4,-0.38 -0.74,-0.94 -0.92,-1.62 -0.19,-0.72 -0.13,-1.55 -0.01,-2.18 0.29,-1.41 0.42,-1.93 0.25,-2.71 -0.11,-0.28 0.09,-0.4 -0.63,-1.52 -0.72,-0.87 -1.71,-1.95 -2.63,-2.95l0.59 -0.29c1.43,-0.56 3.17,-1.86 5.49,-2.46 0.47,-0.1 0.93,-0.19 1.39,-0.29l1.07 -0.17c0.72,-0.09 1.47,-0.12 2.2,-0.03 1.8,0.2 3.1,1.46 4.1,2.24 2.21,1.67 2.49,3.68 1.96,3.82z"/>
  <path class="fil0" d="M359.27 454.09c-0.8,-0.84 2.64,-4.71 8.65,-9.78 2.89,-2.45 6.36,-5.01 7.25,-8.4 0.44,-1.52 0.68,-3.45 0.97,-5.65 0.29,-2.15 0.6,-4.34 0.79,-6.57 0.22,-2.13 0.23,-3.97 -0.35,-4.94 -0.49,-0.99 -1.93,-1.81 -3.85,-2.58 -1.95,-0.76 -4.5,-1.77 -6.44,-3.21 -2,-1.41 -3.72,-3.15 -5.01,-5.09 -1.56,-2.32 -2.24,-4.6 -3.18,-6.08 -0.91,-1.52 -1.94,-2.19 -3.55,-2.41 -1.63,-0.21 -3.4,0.01 -5.06,0.02 -1.69,0.02 -3.2,-0.26 -4.33,-0.78 -2.39,-1.09 -2.58,-2.8 -2.23,-2.89 0.4,-0.23 1,0.62 2.79,0.9 0.89,0.16 2.09,0.16 3.48,-0.07 1.43,-0.21 3.2,-0.72 5.51,-0.73 1.12,0.01 2.42,0.21 3.68,0.83 1.25,0.62 2.3,1.61 3.08,2.64 1.57,2.09 2.37,4.23 3.61,5.83 2.22,2.98 5.12,5.25 9.33,6.63 1.97,0.81 4.77,1.67 6.59,4.5 1.7,2.87 1.42,5.76 1.25,7.83 -0.2,2.23 -0.4,4.42 -0.6,6.58 -0.2,2.11 -0.32,4.43 -1.12,6.83 -0.93,2.87 -2.98,5.03 -4.85,6.44 -1.91,1.46 -3.76,2.45 -5.33,3.49 -6.46,4.29 -10.69,7.06 -11.09,6.64z"/>
  <path class="fil0" d="M372.52 443.21c0.03,-0.59 1.1,-0.96 2.86,-1.21 1.73,-0.27 4.25,-0.41 6.48,-1.39 2.11,-0.9 4.05,-3.09 3.53,-5.01 -0.16,-0.94 -0.67,-2.27 -1.34,-3.92 -0.65,-1.58 -1.44,-3.85 -1.47,-6.02 -0.12,-4.13 1.11,-7.43 0.84,-10.08 -0.08,-1.41 -0.55,-2.59 -1.2,-3.21 -0.58,-0.63 -1.74,-1 -3.35,-1.48 -0.92,-0.29 -1.95,-0.61 -3,-1.18 -1.08,-0.57 -1.96,-1.4 -2.58,-2.1 -1.28,-1.48 -1.96,-2.45 -3.04,-3.15 -2.16,-1.49 -4.56,-1.83 -6.22,-1.87 -1.69,-0.04 -2.75,0.17 -2.95,-0.22 -0.19,-0.34 0.63,-1.21 2.57,-1.8 1.89,-0.58 4.98,-0.8 8.3,0.78 1.63,0.72 3.15,2.24 4.23,3.23 1.13,1.05 1.94,1.31 3.85,1.77 1.48,0.37 3.73,0.82 5.53,2.64 1.74,1.77 2.37,4.09 2.56,6.13 0.35,4.05 -0.34,7.71 -0.2,10.27 -0,1.33 0.41,2.36 1.12,3.91 0.67,1.48 1.62,3.23 1.9,5.5 0.38,2.7 -0.97,5.45 -2.61,6.85 -1.65,1.5 -3.47,2.25 -5.15,2.73 -3.49,0.87 -6.18,0.29 -7.95,-0.07 -1.78,-0.41 -2.73,-0.81 -2.72,-1.09z"/>
  <path class="fil0" d="M395.53 473.1c-0.3,1.04 -3.54,1.12 -6.77,-2.17 -1.5,-1.54 -2.87,-3.79 -3.55,-6.53 -0.62,-2.4 -0.06,-5.09 0.62,-7.52 0.69,-2.37 1.85,-4.66 3.55,-6.47 1.72,-1.86 3.84,-3.5 6.09,-4.21 2.6,-0.84 5.05,-0.79 7,-0.62 4.05,0.43 6.35,1.65 6.25,2.43 -0.09,0.87 -2.58,0.64 -6.1,1.1 -1.7,0.25 -3.61,0.63 -5.4,1.43 -1.55,0.67 -3.05,1.58 -4.29,2.97 -1.2,1.36 -1.45,3.27 -1.95,4.81 -0.52,1.67 -0.52,3.34 -0.28,4.91 0.23,1.79 0.34,3.81 1.21,5.24 1.73,2.93 3.9,4.05 3.62,4.62z"/>
  <path class="fil0" d="M387.42 458.04c0.22,1.14 0.4,2.2 0.45,2.71l0.02 0.53 -0.16 -0.32 -0.09 0.02 -0.1 -0.05 -0.24 -0.74c-0.16,-0.51 -0.33,-1.22 -0.5,-2.04 -0.17,-0.82 -0.18,-1.06 -0.2,-1.43l0.01 -0.38 0.09 0.03 -0.04 -0.64 0.1 0.06 0.31 1.07c0.12,0.36 0.21,0.63 0.33,1.2z"/>
  <path class="fil0" d="M387.8 458.79c-0.45,1.07 -2.31,1.38 -4.69,0.96 -1.15,-0.2 -2.45,-0.52 -3.85,-0.89 -1.19,-0.32 -2.31,-1.15 -3.61,-1.53 -1.26,-0.34 -2.49,-0.67 -3.79,-1.02 -1.3,-0.38 -2.62,-0.53 -3.81,-0.9 -1.38,-0.45 -2.65,-0.99 -3.76,-1.42 -2.27,-0.86 -3.76,-1.72 -3.69,-2.55 0.08,-0.83 1.69,-0.94 4.19,-0.95 1.21,0 2.63,0.1 4.13,0.32 1.31,0.18 2.65,0.59 4.04,0.92 1.33,0.32 2.86,0.03 4.17,0.47 1.36,0.47 2.73,0.81 3.94,1.36 1.41,0.62 2.44,1.87 3.48,2.49 2.14,1.28 3.45,2.22 3.23,2.75z"/>
  <path class="fil0" d="M389.96 452.62c-0.59,1 -2.06,1.35 -3.73,1.01 -0.81,-0.16 -1.69,-0.43 -2.63,-0.75 -0.8,-0.28 -1.45,-1.06 -2.3,-1.41 -0.83,-0.34 -1.7,-0.6 -2.51,-0.96 -0.85,-0.38 -1.76,-0.52 -2.54,-0.91 -0.9,-0.46 -1.7,-1.02 -2.41,-1.46 -1.46,-0.9 -2.4,-1.82 -2.24,-2.64 0.16,-0.81 1.31,-0.86 3.09,-0.8 0.86,0.04 1.86,0.17 2.91,0.41 0.91,0.2 1.82,0.62 2.77,0.96 0.91,0.32 2.09,0.04 2.98,0.47 0.92,0.45 1.86,0.78 2.67,1.28 0.93,0.58 1.45,1.75 2.1,2.31 1.34,1.16 2.14,2 1.85,2.5z"/>
  <path class="fil0" d="M442.28 512.95c-0.93,0.76 -3.67,-1.63 -7.84,-4.79 -2.02,-1.52 -4.43,-3.18 -7.2,-4.66 -2.38,-1.29 -4.79,-2.86 -7.69,-3.82 -2.77,-0.94 -5.76,-1.68 -8.69,-2.73 -3.05,-1.08 -6.18,-2.19 -8.81,-3.96 -3.06,-2.02 -5.4,-4.78 -6.71,-7.41 -1.39,-2.7 -1.7,-5.27 -1.51,-6.95 0.22,-1.71 0.78,-2.53 1.17,-2.48 0.88,0.06 0.37,3.52 3.33,7.54 1.39,1.91 3.45,3.76 6.13,5.28 2.3,1.32 4.95,2.54 7.85,3.49 2.8,0.93 5.96,1.08 8.92,2.14 3.07,1.08 6.18,2.36 8.79,4.02 3.05,1.91 5.16,4.56 7.06,6.55 3.92,4.14 5.62,7.44 5.2,7.77z"/>
  <path class="fil0" d="M442.12 511.97c-1.2,0.25 -2.52,-3.09 -5.45,-7.42 -1.4,-2.1 -3.2,-4.45 -5.4,-6.83 -1.87,-2.05 -3.71,-4.5 -6.02,-6.64 -2.21,-2.06 -4.6,-4.09 -6.83,-6.27 -2.31,-2.27 -4.7,-4.47 -6.56,-6.94 -2.16,-2.84 -3.71,-5.83 -4.76,-8.48 -2.21,-5.52 -1.62,-9.47 -0.86,-9.5 0.89,-0.12 1.29,3.37 4.01,7.89 1.31,2.19 3.04,4.63 5.2,7.07 1.84,2.11 3.9,4.34 6.19,6.49 2.2,2.07 4.99,3.63 7.24,5.8 2.33,2.24 4.69,4.47 6.63,6.89 2.25,2.8 3.49,6.01 4.65,8.57 2.45,5.33 2.48,9.28 1.97,9.36z"/>
  <path class="fil0" d="M469.32 454.68c0.63,0.9 -2.25,3.84 -8.02,5.69 -2.75,0.9 -6.06,1.53 -9.61,1.91 -3.08,0.33 -6.34,-0.04 -9.6,-0.01 -3.14,0.03 -6.31,0.1 -9.43,0.04 -3.24,-0.06 -6.43,0.09 -9.41,-0.05 -3.28,-0.2 -6.56,-0.39 -9.35,-0.56 -5.62,-0.37 -9.34,-0.99 -9.41,-1.82 -0.07,-0.83 3.59,-1.19 9.27,-1.72 2.75,-0.23 6.01,-0.53 9.46,-0.59 2.98,-0.08 6.16,0.03 9.4,0.01 3.11,-0.01 6.3,-0.7 9.39,-0.67 3.21,0.03 6.33,-0.12 9.21,-0.24 3.33,-0.13 6.49,0.24 9.13,-0.19 5.39,-0.82 8.66,-2.37 8.98,-1.82z"/>
  <path class="fil0" d="M468.55 454.22c0.47,1.05 -3.37,3.22 -9.44,2.2 -2.95,-0.42 -5.76,-1.62 -9.03,-2.72 -2.8,-0.99 -5.52,-2.64 -8.39,-3.47 -2.8,-0.84 -5.72,-1.43 -8.61,-1.93 -3,-0.53 -5.99,-0.6 -8.79,-0.75 -3.25,-0.18 -6.3,-0.27 -8.92,-0.16 -5.39,0.21 -8.99,0.7 -9.24,-0.15 -0.23,-0.74 3.17,-2.21 8.74,-3.36 2.71,-0.56 5.92,-0.96 9.42,-1.03 3.02,-0.07 6.22,0.28 9.46,0.76 3.1,0.46 6.4,0.49 9.45,1.47 3.22,1.01 6.09,2.14 8.71,3.29 3.06,1.28 5.69,3.42 8.08,4.14 4.97,1.68 8.4,1.09 8.55,1.68z"/>
  <path class="fil0" d="M293.49 503.54c-1.09,0.48 -3.25,-2.86 -8.02,-6.37 -2.27,-1.75 -5.16,-3.52 -8.47,-5.57 -2.83,-1.77 -5.69,-4.21 -8.5,-6.89 -2.71,-2.56 -5.12,-5.53 -6.9,-8.79 -1.86,-3.38 -3.37,-6.91 -4.04,-10.42 -0.78,-4.07 -0.62,-7.9 -0.17,-11.07 0.97,-6.58 3.45,-10.2 4.14,-9.9 0.85,0.29 -0.59,4.09 -0.61,10.1 0,2.9 0.29,6.28 1.19,9.78 0.77,3.01 1.87,6.18 3.56,9.13 1.63,2.86 4.23,5.05 6.48,7.27 2.34,2.33 5.21,4.16 7.9,6.09 3.14,2.22 5.79,4.97 8.02,7.26 4.76,4.68 5.95,9.22 5.41,9.38z"/>
  <path class="fil0" d="M293.24 501.26c-1.11,0.17 -2.41,-2.89 -1.14,-7.34 0.58,-2.09 1.64,-4.38 2.96,-6.62 1.13,-1.93 2.83,-3.54 4.04,-5.44 1.18,-1.83 2.14,-3.69 2.98,-5.56 0.9,-1.96 1.31,-4.03 1.79,-5.95 0.56,-2.23 1,-4.37 1.17,-6.25 0.36,-3.86 0.22,-6.56 1.06,-6.8 0.75,-0.22 1.9,2.34 2.47,6.64 0.28,2.08 0.3,4.56 -0.09,7.19 -0.32,2.28 -1.08,4.63 -2.04,6.94 -0.89,2.21 -1.52,4.71 -2.83,6.65 -1.36,2.01 -2.61,3.91 -3.81,5.58 -1.4,1.92 -3.11,3.41 -3.99,5.06 -1.81,3.35 -1.96,5.86 -2.58,5.89z"/>
  <path class="fil0" d="M372.07 529.91c-0.85,0.84 -4.66,-2.55 -9.91,-8.05 -2.55,-2.63 -5.51,-5.67 -8.91,-8.63 -2.93,-2.54 -5.91,-5.44 -9.53,-7.58 -3.46,-2.04 -7.23,-3.6 -11.05,-4.62 -3.98,-1.06 -8.35,-1.3 -12.5,-2.53 -4.88,-1.34 -8.98,-4.27 -11.56,-7.22 -5.51,-6.27 -5.51,-11.97 -4.81,-12 0.89,-0.32 1.92,4.67 7.27,9.45 2.59,2.28 5.99,4.27 10.26,5.22 3.68,0.91 7.94,1.39 12.44,2.49 4.3,1.05 8.79,2.25 12.61,4.57 3.95,2.39 7.56,5.1 10.59,8.01 3.5,3.38 5.87,7.21 8.15,10.18 4.64,6.14 7.33,10.31 6.94,10.71z"/>
  <path class="fil0" d="M370.43 527.37c0.4,-0.1 0.87,0.52 1.37,1.76l-0.41 -0.58c0.41,0.09 0.82,0.19 1.26,0.3l-1.51 1.15c-1.03,-2.35 -2.27,-6.11 -3.53,-10.83 -1.1,-4.15 -2.28,-9.02 -3.49,-14.3 -1.05,-4.56 -1.47,-9.38 -3.68,-13.38 -2.11,-3.84 -5.57,-7.08 -9.2,-10.11 -3.79,-3.17 -7.87,-5.8 -11.73,-8.2 -4.46,-2.82 -8.78,-5.18 -12.6,-6.97 -7.88,-3.66 -13.4,-5.37 -13.2,-6.25 0.15,-0.74 5.97,0.01 14.49,2.95 4.13,1.44 8.84,3.47 13.65,6.21 4.17,2.33 8.3,5.32 12.33,8.57 3.82,3.11 8.26,6.29 10.91,11.15 2.7,5.05 3.65,10.28 4.51,14.81 0.97,5.31 1.21,10.37 1.89,14.6 0.79,4.88 1.41,8.8 1.71,11.33l0.27 2.28 -1.77 -1.13 -1.05 -0.68 -0.5 -0.32 0 -0.4c0,-1.23 0.09,-1.9 0.28,-1.95z"/>
  <path class="fil0" d="M344.61 473.05c-0.3,-0.47 0.36,-1.5 2.16,-2.48 1.78,-0.98 4.76,-1.73 8.29,-1.54 3.42,0.14 7.26,1.15 11.05,2.46 3.28,1.11 6.4,2.88 9.77,3.71 0.81,0.2 1.62,0.37 2.43,0.49l1.21 0.17 0.8 0.07 0.66 -0.02 -0.02 -0.1 -0.21 -0.22 -0.1 -0.12 -0.28 -0.4c-0.92,-1.38 -1.65,-2.76 -2.3,-4.09 -1.7,-3.59 -3.05,-7 -4.38,-9.72 -1.37,-2.82 -2.71,-4.97 -3.82,-6.34 -1.09,-1.37 -2.05,-1.95 -1.94,-2.38 0.05,-0.38 1.48,-0.4 3.25,0.79 1.75,1.16 3.68,3.33 5.53,6.09 1.83,2.71 3.59,5.91 5.49,9.35 0.69,1.24 1.37,2.49 2.13,3.66 0.09,0.17 0.62,0.91 1.04,1.42 0.37,0.56 1,1.11 1.53,1.66 1.38,1.19 2.77,2.4 4.18,3.61 -0.87,0.23 -0.56,0.37 -1.7,0.56 -2.76,0.52 -4.99,1.37 -8.51,1.35l-1.93 -0.03c-0.49,-0.03 -0.99,-0.05 -1.47,-0.11 -0.97,-0.1 -1.93,-0.28 -2.85,-0.52 -3.85,-1.02 -7.32,-2.36 -10.43,-3.63 -3.57,-1.48 -6.62,-3.24 -9.55,-3.78 -6.01,-1.2 -9.77,0.61 -10.05,0.06z"/>
  <path class="fil0" d="M408.16 446.4c-0.36,-0.52 1.17,-1.65 3.32,-3.92 2.11,-2.26 4.91,-5.88 5.99,-10.94 0.52,-2.42 0.65,-5.14 0.13,-7.9 -0.45,-2.77 -1.75,-5.39 -3.39,-8.57 -1.18,-2.37 -2.5,-5.17 -2.92,-8.47 -0.19,-1.62 -0.21,-3.32 0.14,-5.06 0.07,-0.43 0.21,-0.87 0.33,-1.31 0.14,-0.42 0.34,-0.96 0.37,-0.99l0.22 -0.32 -0.17 -0.16 -0.14 -0.06 -0.81 -0.26c-0.65,-0.19 -1.32,-0.34 -1.99,-0.43 -1.34,-0.21 -2.73,-0.22 -4.07,-0.04 -2.71,0.33 -5.23,1.43 -7.32,3.15 -2.18,1.77 -3.8,4.21 -4.61,6.78 -0.82,2.55 -0.84,5.36 -0.57,8.18 0.71,6.49 2.54,13.41 1.11,19.41 -0.64,3.06 -2.15,5.73 -3.97,7.46 -1.81,1.76 -3.73,2.74 -5.31,3.36 -3.21,1.18 -5.15,1.11 -5.24,0.75 -0.13,-0.44 1.63,-1.03 4.3,-2.58 2.62,-1.54 6.14,-4.44 6.74,-9.59 0.35,-2.46 0.16,-5.28 -0.38,-8.28 -0.52,-3 -1.4,-6.29 -1.89,-9.95 -0.41,-3.14 -0.47,-6.69 0.68,-10.18 1.11,-3.45 3.25,-6.56 6.07,-8.95 2.7,-2.29 6.08,-4.01 9.69,-4.6 1.8,-0.31 3.65,-0.38 5.48,-0.16 0.91,0.11 1.82,0.27 2.71,0.53 0.5,0.12 0.77,0.23 1.43,0.46 0.72,0.28 1.41,0.64 2.12,0.95 1.38,0.79 2.76,1.59 4.01,2.3 -0.9,1.18 -2.3,2.71 -2.83,3.72 -0.34,0.63 -0.34,0.76 -0.43,1l-0.17 0.74c-0.19,1.01 -0.16,2.14 0,3.26 0.32,2.22 1.33,4.43 2.42,6.79 1.46,3.07 2.94,6.69 3.18,10.24 0.32,3.52 -0.19,6.8 -1.03,9.66 -1.76,5.95 -5.47,9.73 -8.25,11.71 -2.84,2.01 -4.81,2.47 -4.94,2.26z"/>
  <path class="fil0" d="M429.81 444.71c-0.52,-1.28 8.88,-2.7 20.05,-10.6 5.36,-3.74 10.5,-9.57 16.85,-15.75 2.76,-2.62 5.94,-5.2 9.56,-7.3 1.8,-1.05 3.71,-1.99 5.73,-2.77 1.01,-0.38 2.03,-0.74 3.09,-1.04l0.39 -0.12 0.09 -0.02 0.18 -0.04 0.24 -0.04 0.36 -0.04c0.72,0.11 0.1,-0.25 -0.25,-0.4l-0.28 -0.1 -1.31 -0.38c-1.54,-0.42 -3.14,-0.69 -4.74,-0.94 -7.62,-1.16 -15.3,-0.16 -22.11,1.83 -7.93,2.31 -14.76,6.21 -19.72,10.59 -2.59,2.19 -4.75,4.58 -6.85,6.56 -2.12,2.04 -4.06,3.48 -5.55,4.86 -1.55,1.4 -3.18,2.15 -4.28,2.27 -1.11,0.17 -1.7,0.02 -1.73,-0.16 -0.09,-0.55 2.15,-0.64 4.54,-3.56 0.65,-0.73 1.4,-1.62 2.31,-2.52 0.84,-0.85 1.71,-1.78 2.63,-2.83 1.86,-2.07 3.85,-4.63 6.49,-7.19 5.01,-5.02 12.14,-9.69 20.69,-12.47 7.37,-2.4 15.79,-3.23 24.15,-2.06 1.77,0.26 3.54,0.51 5.32,0.93l1.33 0.33c0.63,0.16 1.46,0.45 2.18,0.68 1.46,0.53 2.88,1.14 4.1,1.81 2.52,1.37 4.05,2.77 6.09,4.38 1.61,1.32 3.2,2.64 4.78,3.93 -2.11,-0.21 -4.19,-0.41 -6.28,-0.62l-2.81 -0.28 -1.4 -0.14 -0.87 0.03c-2.61,-0.02 -4.76,0.46 -6.08,0.81 -0.87,0.25 -1.72,0.56 -2.57,0.89 -1.68,0.68 -3.31,1.53 -4.87,2.49 -3.13,1.91 -5.93,4.23 -8.64,6.66 -6.19,5.66 -12.36,11.23 -18.41,14.94 -6.13,3.87 -11.85,5.78 -15.88,6.7 -4.05,0.91 -6.43,0.94 -6.53,0.68z"/>
  <path class="fil0" d="M440.77 508.82c0.24,-1.23 5.69,-0.16 13.8,-0.48 1.8,-0.09 4.05,-0.24 5.82,-0.6 0.83,-0.18 1.5,-0.53 1.71,-0.81 0.35,-0.4 0.29,-0.64 0.25,-0.56l-0.03 -0.01c-0.06,-0.12 -0.35,-0.49 -0.78,-1.04 -0.22,-0.29 -0.47,-0.63 -0.73,-1.09 -0.33,-0.57 -0.54,-1.15 -0.68,-1.77 -0.34,-1.59 0.26,-3.42 1.24,-4.57 0.94,-1.17 2.3,-1.9 3.45,-2.21 2.38,-0.65 4.22,-0.44 5.87,-0.59 2.16,-0.1 3.78,-0.65 4.57,-1.64 0.65,-0.81 0.58,-1.68 -0.57,-3.21 -1.09,-1.46 -3.19,-2.58 -5.22,-4.64 -0.99,-1.01 -1.96,-2.37 -2.4,-4.04 -0.42,-1.69 -0.21,-3.34 0.16,-4.6 0.92,-2.89 2.14,-4.96 2.06,-6.31 0.06,-1.25 -1.15,-2.31 -2.88,-2.82 -1.67,-0.5 -3.7,-0.49 -5.49,-0.87 -1.81,-0.32 -3.48,-1.18 -4.36,-2.22 -0.93,-1.02 -1.26,-2.13 -1.19,-2.83 0.06,-0.71 0.34,-1 0.53,-0.98 0.46,0.05 0.42,1.16 2,2.23 0.8,0.55 1.82,0.89 3.35,0.97 1.52,0.13 3.41,-0.17 5.93,0.25 1.19,0.22 2.48,0.63 3.73,1.53 1.27,0.87 2.3,2.5 2.54,4.2 0.33,3.49 -1.24,5.88 -1.66,7.99 -0.41,1.83 -0.22,2.72 1.1,4.19 1.24,1.41 3.48,2.62 5.41,4.91 0.88,1.08 1.79,2.38 2.15,4.15 0.38,1.74 -0.1,3.84 -1.2,5.26 -2.13,2.91 -5.66,3.71 -8.11,3.81 -1.93,0.1 -3.68,0.11 -4.6,0.43 -0.98,0.39 -0.8,0.62 -0.83,0.54 -0.28,-0.28 0.57,0.67 1.54,2.26l0.48 1.19c0.32,1.15 0.2,2.45 -0.22,3.45 -0.4,0.99 -1.01,1.77 -1.71,2.39 -1.51,1.31 -3.11,1.62 -4.45,1.78 -2.64,0.19 -4.64,-0.06 -6.73,-0.15 -8.72,-0.58 -13.95,-3.02 -13.84,-3.5z"/>
  <path class="fil0" d="M455.81 511.87c0.02,-1.19 5.34,-1.21 12.76,-0.41 1.59,0.12 2.98,-0.29 3.49,-0.97 0.19,-0.27 0.3,-0.54 0.38,-1.48 0.1,-0.89 -0,-2.23 0.49,-3.97 0.96,-3.08 3.43,-4.78 5.18,-5.95 1.9,-1.24 3.3,-2.12 4.23,-3.62 1.87,-2.87 1.96,-6.63 0.31,-9.59 -0.88,-1.6 -2.01,-2.7 -3.7,-3.67 -0.87,-0.53 -1.89,-1.1 -2.93,-1.96 -1.03,-0.82 -2.03,-2.14 -2.5,-3.41 -1.05,-2.96 -0.82,-5.12 -1.42,-6.66 -0.54,-1.64 -1.6,-3.1 -2.81,-4.26 -2.5,-2.4 -5.42,-3.67 -7.36,-4.69 -1.98,-0.99 -3.09,-1.7 -2.97,-2.1 0.12,-0.39 1.38,-0.34 3.6,0.14 2.18,0.53 5.49,1.34 8.98,3.93 1.65,1.25 3.31,2.98 4.4,5.34 1.12,2.44 1.18,4.97 1.89,6.46 0.48,1.2 1.61,1.96 3.58,3.15 1.99,1.15 4.1,3.13 5.31,5.37 2.58,4.21 3.13,10.34 0.14,14.79 -1.45,2.35 -3.82,4.06 -5.43,5.21 -1.72,1.22 -2.82,2.26 -3.14,3.19 -0.23,0.5 -0.34,1.52 -0.56,2.82 -0.2,1.26 -0.78,3.1 -2.1,4.27 -2.57,2.23 -5.47,1.93 -7.43,1.63 -7.7,-1.73 -12.37,-2.99 -12.39,-3.56z"/>
  <path class="fil0" d="M509.67 502.42c-0.88,0.77 -3.08,-0.31 -5.71,-2.49 -1.27,-1.05 -2.69,-2.33 -4.23,-3.69 -1.31,-1.18 -2.39,-2.79 -3.82,-4.08 -1.42,-1.19 -2.84,-2.39 -4.29,-3.6 -1.47,-1.25 -3.06,-2.27 -4.43,-3.41 -1.4,-1.23 -2.95,-2.6 -4.25,-3.75 -2.58,-2.24 -4.2,-3.92 -3.8,-4.66 0.4,-0.72 2.51,0.12 5.67,1.66 1.53,0.75 3.27,1.74 5.07,2.93 1.56,1.01 3.07,2.29 4.65,3.54 1.52,1.2 3.47,1.95 4.9,3.29 1.47,1.4 2.98,2.69 4.23,4.09 1.46,1.61 2.23,3.62 3.23,5 2.04,2.85 3.2,4.81 2.77,5.19z"/>
  <path class="fil0" d="M508.93 500.73c-1.08,0.42 -3.31,-3.74 -5.65,-10.5 -1.14,-3.23 -2.29,-7.16 -3.6,-11.13 -1.15,-3.42 -2.05,-7.08 -4.13,-10.22 -1.98,-3.02 -4.6,-5.68 -7.45,-7.94 -2.98,-2.36 -6.38,-3.97 -9.63,-5.24 -3.78,-1.49 -7.53,-2.39 -10.83,-2.78 -6.79,-0.78 -11.43,-0.15 -11.61,-1.03 -0.2,-0.72 4.34,-2.4 11.76,-2.5 3.58,-0.03 7.82,0.46 12.19,1.88 3.78,1.22 7.53,3.29 10.95,5.9 3.27,2.48 6.76,5.14 9.06,8.75 2.41,3.73 4,7.76 5.03,11.47 1.17,4.33 1.34,8.35 2.08,11.73 1.45,6.9 2.37,11.41 1.82,11.62z"/>
  <path class="fil0" d="M482.98 453.45c0,-0.62 1.22,-0.91 2.91,-1.75 1.71,-0.8 3.86,-2.31 6.35,-4.66 2.56,-2.49 5.4,-5.26 8.47,-8.25 1.38,-1.31 2.89,-2.56 4.44,-3.82 1.07,-0.9 0.9,-0.68 1.05,-0.76l0.37 -0.24 0 -0.13 -0.56 -0.01 -0.49 -0.1 -1.2 -0.31c-0.8,-0.22 -1.58,-0.48 -2.33,-0.76 -4.14,-1.55 -7.81,-3.51 -11.06,-5.32 -3.75,-2.12 -7.15,-3.89 -10.32,-4.59 -6.61,-1.63 -10.92,0.83 -11.37,0.12 -0.22,-0.3 0.59,-1.37 2.66,-2.35 2.05,-0.99 5.35,-1.68 9.22,-1.27 3.8,0.34 7.92,1.94 11.92,3.91 3.47,1.69 6.85,3.76 10.49,5.05 0.66,0.23 1.35,0.43 2.03,0.57l1.03 0.19 1.74 0.23c1.48,0.13 3.16,0.04 5.45,-0.24 2.4,-0.27 4.77,-0.53 7.07,-0.79 -0.55,0.53 -1.09,1.05 -1.62,1.56l-2.05 1.86c-2.8,2.52 -5.57,5.01 -8.28,7.45 -1.49,1.32 -2.95,2.61 -4.38,3.88 -3.38,2.84 -6.79,5 -9.72,7.17 -2.98,2.21 -6,3.58 -8.29,3.84 -2.29,0.32 -3.56,-0.24 -3.54,-0.47z"/>
  <path class="fil0" d="M501.13 474.84c0.21,-1.21 4.03,-1.06 9.47,-1.67 2.63,-0.28 5.65,-0.84 8.76,-1.84 1.25,-0.41 2.51,-0.82 3.87,-1.26 0.47,-0.18 0.22,-0.04 0.34,-0.07l0.14 0 0.29 -0.09 -0.06 -0.06 -0.22 -0.21 -0.7 -0.93 -0.72 -1.16c-0.9,-1.56 -1.6,-3.17 -2.17,-4.74 -1.15,-3.26 -2.21,-6.27 -3.29,-8.86 -1.2,-3.03 -2.77,-5.38 -4.77,-7.03 -4.09,-3.41 -8.07,-3.81 -8.01,-4.72 -0.12,-0.72 4.34,-1.51 10,1.8 2.71,1.54 5.37,4.48 7.01,7.93 1.47,2.95 2.32,6.18 3.45,9.17 0.55,1.42 1.32,2.73 2.16,3.88 0.48,0.64 0.75,0.93 1.44,1.73 1.15,1.17 2.64,2.4 3.85,3.51l1.1 0.98c-2.51,1.34 -5.41,3 -7.65,3.97 -1.47,0.65 -2.98,1.13 -4.45,1.53 -3.73,0.93 -7.31,0.59 -10.22,0.44 -6.05,-0.27 -9.72,-1.81 -9.62,-2.3z"/>
  <path class="fil0" d="M408.02 493.98c0.86,-0.78 4.3,2.09 8.7,7.22l0.86 1.02c0.49,0.63 0.99,1.26 1.49,1.9 1.04,1.35 2.11,2.73 3.2,4.15 0.56,0.74 1.12,1.48 1.68,2.23 0.63,0.55 -0.36,0.28 -0.68,0.36l-1.37 0.02c-1.89,0.02 -3.83,0.04 -5.79,0.06l-2.65 -0.04c-0.53,-0.03 -1.06,-0.06 -1.6,-0.09 -0.93,-0.07 -1.89,-0.18 -2.86,-0.31 -1.93,-0.27 -3.9,-0.63 -5.9,-1.05 -3.82,-0.78 -7.84,-2.2 -11.14,-4.65 -3.41,-2.47 -6.4,-5.79 -7.71,-9.73 -1.62,-4.57 -0.53,-9.3 1.21,-12.36 1.8,-3.27 4.31,-5.16 6.16,-5.98 1.88,-0.84 3.08,-0.78 3.21,-0.42 0.44,0.81 -3.88,2.24 -6.15,7.88 -1.03,2.66 -1.4,6 -0.05,9.24 1.1,2.77 3.18,5.52 6.03,7.52 2.76,1.97 6.19,2.53 9.49,3.28 1.73,0.39 3.51,0.62 5.27,0.77 0.89,0.06 1.77,0.12 2.64,0.18l1.17 0.06 0.04 0.03 0.39 0.21 0.43 0.14 0.16 -0.07 0.04 -0.53 -0.14 -0.42 -0.59 -0.97c-3.62,-5.59 -5.97,-9.25 -5.53,-9.65z"/>
  <path class="fil0" d="M242.29 390.11c-0.53,-0.08 -0.66,-1.89 0.65,-4.72 1.27,-2.84 4.22,-6.39 8.21,-9.74 3.85,-3.35 8.29,-6.41 11.66,-11.33 0.48,-0.63 0.89,-1.47 1.28,-2.34l0.61 -1.28 0.51 -2.26 0.52 -2.27 0.68 -3.62c0.5,-2.64 1,-5.3 1.51,-7.99 1.42,6.93 2.92,14.27 4.41,21.57l0.82 4.61c0.22,1.42 0.43,2.86 0.6,4.3 0.34,2.89 0.52,5.81 0.49,8.72 -0.07,6.05 -0.83,12.1 -2.89,17.43 -2.35,6.17 -6.29,11.21 -10.4,14.38 -4.19,3.37 -8.47,4.85 -11.44,5.33 -3.01,0.44 -4.7,0.06 -4.72,-0.32 -0.21,-0.94 6.73,-0.96 13.81,-7.66 3.39,-3.15 6.43,-7.71 8.32,-13.28 1.64,-4.78 2.59,-10.22 2.6,-15.83 0,-2.7 -0.34,-5.43 -0.81,-8.14 -0.5,-2.64 -0.99,-5.23 -1.47,-7.74l0 -0.06 -0.06 0.01 -0.02 0.02 -0.19 0.26 -0.4 0.5 -0.83 0.96c-0.56,0.61 -1.15,1.19 -1.73,1.73 -1.19,1.07 -2.4,2.01 -3.6,2.88 -2.42,1.62 -4.71,3.17 -6.69,4.5 -4.08,2.87 -7.03,5.59 -8.73,7.79 -1.73,2.17 -2.36,3.68 -2.69,3.61z"/>
  <path class="fil0" d="M229.68 467.96c0.34,-0.42 1.62,-0.03 3.17,1.67 1.55,1.68 3.01,4.77 3.81,8.45 0.85,3.53 1.26,7.62 2.51,11.34 1.05,3.17 2.5,6.65 5.09,9.44 1.23,1.33 2.62,2.53 4.11,3.57 0.68,0.47 1.7,1.09 2.15,1.33l0.33 0.19 0.25 -0.01 -0.06 -0.28c-0.01,-0.21 -0.03,0.18 0,-0.97 0.08,-1.64 0.42,-3.18 0.91,-4.6 1.72,-4.7 4.48,-7.87 6.42,-10.75 4.18,-5.89 7.22,-9.51 7.93,-9.08 0.72,0.43 -1.49,4.56 -4.9,10.9 -1.62,3.11 -3.86,6.55 -4.97,10.29 -0.32,1.12 -0.56,2.29 -0.62,3.46 -0.03,0.3 -0.08,1.9 0.41,3.32 0.55,1.52 1.36,3.5 2.11,5.38 -0.99,-0.26 -0.94,-0.07 -2.14,-0.52 -0.95,-0.32 -1.91,-0.65 -2.89,-0.99 -1.51,-0.46 -3.08,-1.16 -4.71,-1.86 -1.35,-0.68 -2.05,-1.03 -3.09,-1.63 -1.88,-1.12 -3.66,-2.47 -5.13,-4.1 -3.06,-3.35 -5.4,-7.29 -6.55,-11.37 -1.3,-4.77 -0.68,-8.95 -1.09,-12.33 -0.47,-7.07 -3.46,-10.4 -3.07,-10.86z"/>
  <path class="fil0" d="M417.79 413.64c-1.05,0.1 -1.9,-5.19 1.88,-12.03 1.77,-3.24 4.53,-6.61 8.02,-9.63 3.04,-2.61 6.89,-4.47 10.66,-6.29 3.64,-1.79 7.45,-3.29 11.24,-4.48 1.95,-0.6 3.87,-1.19 5.76,-1.78 1.69,-0.49 3.36,-0.97 5.01,-1.45 1.62,-0.43 3.64,-1.09 4.59,-1.15l-0.11 0.26c-1.16,2.81 -2.63,5.59 -2.62,7.29 -0.05,0.92 0,1.73 0.12,2.61 0.25,1.75 0.74,3.45 1.29,5.06 1.17,3.33 1.9,6.45 1.71,8.63 -0.16,2.2 -0.93,3.23 -1.29,3.14 -0.43,-0.1 -0.38,-1.17 -0.76,-2.95 -0.35,-1.8 -1.33,-4.28 -2.92,-7.46 -0.76,-1.56 -1.56,-3.39 -2.11,-5.5 -0.27,-1.05 -0.47,-2.24 -0.5,-3.42l0.03 -0.66 0.01 -0.02 -0.35 -0.02 -0.72 0.19c-1.86,0.53 -3.74,1.08 -5.62,1.7 -3.65,1.21 -7.02,3.21 -10.37,4.79 -3.53,1.63 -6.67,3.69 -9.44,5.8 -3.18,2.46 -6.31,4.76 -8.23,7.42 -4.01,5.43 -4.6,10.02 -5.28,9.94z"/>
  <path class="fil0" d="M4.53 381.92c-1.03,-0.43 -0.41,-4.18 2.72,-8.94 1.51,-2.27 3.54,-4.77 6.04,-7.16 2.17,-2.07 4.98,-3.64 7.7,-5.36 2.61,-1.66 5.41,-3.18 8.31,-4.29 3,-1.15 6,-2.22 8.93,-2.73 3.39,-0.59 6.59,-0.62 9.28,-0.5 5.57,0.25 8.97,1.58 8.86,2.35 -0.1,0.87 -3.52,0.55 -8.67,1.18 -2.5,0.31 -5.38,0.77 -8.43,1.53 -2.63,0.66 -5.43,1.4 -8.15,2.52 -2.64,1.07 -4.87,2.99 -7.25,4.44 -2.49,1.5 -4.72,3.3 -6.79,5.01 -2.4,1.96 -4.93,3.58 -6.67,5.43 -3.53,3.81 -5.3,6.78 -5.87,6.51z"/>
  <path class="fil0" d="M18.32 314.03c-0.81,-0.75 0.13,-3.31 3.44,-5.38 1.57,-0.97 3.61,-1.82 5.93,-2.25 2.02,-0.38 4.21,0.05 6.36,0.36 2.08,0.29 4.21,0.87 6.08,1.87 1.93,1.02 3.79,2.14 5.17,3.61 1.61,1.69 2.63,3.61 3.34,5.25 1.46,3.44 1.1,5.91 0.35,6.07 -0.85,0.22 -1.46,-1.79 -3.37,-4.22 -0.92,-1.17 -2.06,-2.46 -3.47,-3.63 -1.21,-1.01 -2.53,-2.07 -4.07,-2.82 -1.51,-0.74 -3.26,-0.57 -4.79,-0.83 -1.62,-0.29 -3.26,-0.2 -4.79,-0.1 -1.76,0.11 -3.61,-0.13 -5.08,0.32 -2.98,0.91 -4.67,2.22 -5.1,1.77z"/>
  <path class="fil0" d="M16.22 445.66c-1.12,0.08 -2.28,-2.17 -2.42,-5.8 -0.05,-1.74 0.06,-3.77 0.44,-5.93 0.29,-1.88 1.28,-3.7 1.9,-5.63 0.61,-1.87 1.28,-3.75 2.16,-5.51 0.93,-1.81 1.71,-3.67 2.81,-5.2 1.24,-1.8 2.68,-3.25 3.9,-4.45 2.54,-2.48 4.65,-3.55 5.23,-3 0.63,0.59 -0.72,2.29 -2.4,5.12 -0.8,1.38 -1.77,2.95 -2.7,4.71 -0.83,1.5 -1.76,3.08 -2.55,4.77 -0.74,1.64 -0.77,3.58 -1.38,5.23 -0.62,1.74 -1.04,3.49 -1.49,5.13 -0.56,1.88 -1.6,3.57 -1.97,5.15 -0.72,3.21 -0.94,5.38 -1.55,5.42z"/>
  <path class="fil0" d="M38.67 487.63c-1.12,0.13 -2.38,-2.65 -2.68,-7.13 -0.13,-2.15 -0.11,-4.67 0.18,-7.38 0.21,-2.35 1.13,-4.72 1.68,-7.19 0.54,-2.37 1.14,-4.79 1.96,-7.09 0.87,-2.38 1.59,-4.77 2.66,-6.86 1.2,-2.43 2.63,-4.51 3.85,-6.27 2.55,-3.6 4.76,-5.51 5.42,-5.06 0.72,0.48 -0.64,2.87 -2.3,6.72 -0.8,1.88 -1.75,4.04 -2.66,6.43 -0.82,2.04 -1.72,4.2 -2.48,6.47 -0.71,2.2 -0.68,4.63 -1.24,6.83 -0.57,2.3 -0.94,4.6 -1.33,6.75 -0.5,2.48 -1.46,4.76 -1.77,6.79 -0.58,4.15 -0.7,6.92 -1.3,6.99z"/>
  <path class="fil0" d="M103.88 485.26c-1.05,0.53 -2.57,-0.25 -4.03,-1.72 -0.71,-0.71 -1.45,-1.57 -2.26,-2.48 -0.68,-0.79 -1.03,-1.94 -1.79,-2.81 -0.77,-0.8 -1.51,-1.58 -2.31,-2.41 -0.78,-0.84 -1.72,-1.49 -2.46,-2.25 -0.68,-0.78 -1.55,-1.78 -2.27,-2.61 -1.41,-1.56 -2.29,-2.83 -1.9,-3.58 0.38,-0.72 1.78,-0.3 3.85,0.62 1,0.46 2.12,1.09 3.24,1.9 0.98,0.68 1.86,1.62 2.8,2.5 0.89,0.85 2.27,1.31 3.06,2.3 0.81,1.03 1.69,1.98 2.31,3.03 0.73,1.21 0.75,2.72 1.14,3.74 0.8,2.1 1.12,3.52 0.62,3.78z"/>
  <path class="fil0" d="M66.24 497.74c0.4,-1.1 2.42,-1.37 5.03,-1.1 1.43,0.15 2.77,0.29 4.18,0.44 1.28,0.1 2.6,0.65 3.99,0.6 1.34,-0.05 2.62,-0.3 3.85,-0.59 1.31,-0.31 2.44,-0.98 3.55,-1.49 1.29,-0.59 2.48,-1.23 3.43,-1.95 1.93,-1.46 3.03,-2.95 3.86,-2.71 0.76,0.19 0.59,2.3 -1.14,4.97 -0.83,1.27 -2.08,2.59 -3.66,3.66 -1.36,0.93 -3.01,1.55 -4.7,2.05 -1.61,0.48 -3.27,1.41 -4.98,1.41 -1.77,0.01 -3.49,-0.05 -5.04,-0.4 -1.8,-0.41 -3.21,-1.59 -4.46,-2.17 -2.59,-1.19 -4.1,-2.19 -3.91,-2.72z"/>
  <path class="fil0" d="M131.04 517.85c-0.78,-0.88 0.43,-3.14 2.74,-5.79 1.1,-1.28 2.4,-2.71 3.66,-4.29 1.08,-1.34 2.54,-2.52 3.45,-4.11 0.86,-1.53 1.45,-3.17 1.86,-4.82 0.45,-1.74 0.43,-3.54 0.5,-5.27 0.09,-2.01 0.16,-3.97 0.09,-5.67 -0.14,-3.51 -0.06,-5.95 0.76,-6.15 0.79,-0.19 1.66,1.95 2.72,5.49 0.51,1.72 0.94,3.8 1.11,6.14 0.16,2.02 -0.09,4.23 -0.57,6.45 -0.44,2.12 -0.66,4.51 -1.81,6.44 -1.18,1.97 -2.47,3.78 -3.91,5.23 -1.67,1.67 -3.76,2.52 -5.21,3.54 -2.99,2.08 -5.01,3.23 -5.39,2.82z"/>
  <path class="fil0" d="M181.47 522.26c-1.04,-0.57 -0.82,-2.89 -0.04,-5.96 0.36,-1.49 0.84,-3.19 1.22,-5.05 0.37,-1.58 1.15,-3.2 1.42,-4.97 0.24,-1.71 0.31,-3.46 0.42,-5.17 0.09,-1.79 -0.11,-3.54 -0.17,-5.19 -0.01,-1.92 -0.04,-3.73 -0.15,-5.29 -0.24,-3.2 -0.42,-5.43 0.38,-5.75 0.74,-0.31 1.86,1.64 3.05,4.91 0.56,1.59 1.08,3.5 1.36,5.62 0.29,1.82 0.24,3.79 0.23,5.78 -0.03,1.9 0.49,3.92 0.16,5.85 -0.37,1.98 -0.67,3.95 -1.3,5.71 -0.68,2.06 -2.14,3.64 -2.95,5.09 -1.71,2.99 -3.15,4.7 -3.64,4.44z"/>
  <path class="fil0" d="M198.09 480.08c-0.82,-0.84 -0.69,-2.39 -0.07,-4.01 0.4,-0.96 0.74,-1.77 1.07,-2.57 0.35,-0.78 1.13,-1.43 1.49,-2.34 0.32,-0.86 0.53,-1.77 0.81,-2.65 0.27,-0.92 0.29,-1.87 0.5,-2.73 0.23,-0.81 0.55,-1.91 0.81,-2.81 0.42,-1.74 0.84,-3.07 1.67,-3.26 0.79,-0.18 1.36,1.02 1.86,3.04 0.23,0.98 0.37,2.15 0.33,3.42 -0.01,1.1 -0.32,2.24 -0.57,3.39 -0.25,1.09 0.06,2.42 -0.41,3.51 -0.5,1.1 -0.92,2.23 -1.57,3.15 -0.74,1.09 -2.08,1.61 -2.81,2.26 -1.55,1.36 -2.7,1.99 -3.1,1.59z"/>
  <path class="fil0" d="M252.95 505.21c-0.79,0.77 -3.69,-0.9 -5.61,-5.32 -0.9,-2.09 -1.59,-4.67 -1.89,-7.45 -0.28,-2.41 0.19,-4.94 0.32,-7.46 0.12,-2.44 0.31,-4.87 0.62,-7.2 0.32,-2.42 0.4,-4.78 0.65,-6.95 0.31,-2.51 0.61,-4.83 0.68,-6.82 0.18,-4.1 -0.17,-6.88 0.65,-7.17 0.74,-0.29 2.11,2.39 2.87,6.84 0.38,2.15 0.54,4.69 0.47,7.38 -0.05,2.33 -0.39,4.74 -0.64,7.18 -0.24,2.35 0.19,4.76 0.02,7.01 -0.19,2.35 -0.11,4.63 -0.06,6.73 0.03,2.42 -0.31,4.76 0.08,6.69 0.8,3.92 2.33,6.16 1.83,6.56z"/>
  <path class="fil0" d="M44.67 272.6c1.11,-0.45 2.74,1.23 5.21,3.26 1.19,1.01 2.64,2.12 4.32,3.24 1.44,0.96 2.8,2.38 4.53,3.43 1.65,1.01 3.44,1.99 5.1,3.19 1.72,1.23 3.54,2.4 4.95,3.93 1.63,1.75 2.77,3.73 3.52,5.47 1.59,3.69 0.91,6.36 0.14,6.39 -0.88,0.11 -1.2,-2.02 -3.17,-4.56 -0.95,-1.22 -2.17,-2.58 -3.68,-3.87 -1.29,-1.11 -2.72,-2.33 -4.36,-3.42 -1.58,-1.05 -3.62,-1.47 -5.28,-2.56 -1.73,-1.12 -3.54,-2.18 -5.09,-3.49 -1.81,-1.51 -2.89,-3.59 -3.95,-5.1 -2.25,-3.15 -2.73,-5.71 -2.23,-5.9z"/>
  <path class="fil0" d="M164.6 236.4c0.74,0.9 -1.41,3.6 -5.47,6.36 -1.93,1.34 -4.2,2.77 -6.45,4.41 -1.95,1.4 -4.18,2.59 -5.91,4.44 -1.67,1.78 -3.09,3.88 -4.49,6.02 -1.46,2.22 -2.58,4.65 -3.95,6.83 -1.57,2.53 -3.28,4.8 -4.86,6.64 -3.22,3.89 -6.26,5.42 -6.75,4.82 -0.6,-0.66 1.57,-2.73 3.82,-6.8 1.12,-1.95 2.34,-4.29 3.67,-6.9 1.16,-2.25 2.54,-4.62 4.04,-7.05 1.43,-2.32 2.55,-5.08 4.59,-7.19 2.11,-2.18 4.39,-4.09 6.69,-5.47 2.67,-1.62 5.49,-2.25 7.62,-3.22 4.39,-1.93 7.08,-3.36 7.44,-2.9z"/>
  <path class="fil0" d="M201.27 278.56c1.12,0.07 2.07,2.07 1.57,5.1 -0.24,1.44 -0.77,3.09 -1.62,4.75 -0.74,1.44 -2.1,2.56 -3.24,3.84 -1.09,1.24 -2.31,2.44 -3.69,3.36 -1.42,0.96 -2.82,1.93 -4.31,2.46 -1.73,0.62 -3.44,0.8 -4.86,0.88 -2.96,0.16 -4.79,-0.63 -4.79,-1.44 -0.03,-0.86 1.64,-1.07 3.96,-2 1.12,-0.45 2.4,-0.99 3.71,-1.69 1.13,-0.6 2.36,-1.18 3.49,-2.01 1.1,-0.8 1.62,-2.21 2.51,-3.12 0.94,-0.97 1.65,-2.09 2.38,-3.11 0.84,-1.16 2.11,-2.1 2.69,-3.2 1.18,-2.22 1.6,-3.88 2.2,-3.82z"/>
  <path class="fil0" d="M267.96 364.46c1.15,0.03 2.08,2.45 2.02,6.18 -0.03,1.79 -0.25,3.87 -0.64,6.09 -0.34,1.93 -1.31,3.81 -1.92,5.82 -0.59,1.94 -1.18,3.89 -2,5.78 -0.85,1.96 -1.64,3.97 -2.81,5.65 -1.34,1.95 -3.03,3.51 -4.59,4.62 -3.29,2.36 -6.08,2.14 -6.24,1.41 -0.28,-0.86 1.77,-1.54 3.81,-3.99 0.99,-1.18 2.03,-2.65 2.98,-4.42 0.82,-1.52 1.74,-3.17 2.45,-4.98 0.68,-1.76 0.68,-3.83 1.27,-5.61 0.63,-1.87 1.05,-3.76 1.56,-5.5 0.59,-2.01 1.73,-3.79 2.17,-5.44 0.91,-3.37 1.34,-5.63 1.93,-5.62z"/>
  <path class="fil0" d="M293.27 502.06c-1.17,0.17 -2.38,-1.99 -3.66,-5.16 -0.62,-1.54 -1.32,-3.31 -2.16,-5.18 -0.71,-1.6 -1.09,-3.5 -2.02,-5.2 -0.84,-1.59 -2.14,-3.29 -3.1,-4.96 -1.04,-1.76 -2.25,-3.38 -3.14,-5.04 -1.05,-1.96 -1.69,-4.16 -2.06,-5.96 -0.8,-3.84 0.15,-6.36 0.94,-6.29 0.87,0.01 0.94,2.16 2.4,5.1 0.71,1.44 1.56,3.04 2.78,4.8 1.07,1.55 2.05,3.28 3.15,4.99 1.05,1.7 2.74,2.85 3.71,4.78 0.99,1.93 1.96,3.83 2.57,5.74 0.71,2.21 0.56,4.47 0.79,6.24 0.48,3.66 0.34,6.06 -0.21,6.14z"/>
  <path class="fil0" d="M371.72 526.85c-0.98,0.61 -3.79,-2.33 -7.11,-7.4 -1.6,-2.44 -3.36,-5.35 -5.2,-8.52 -1.59,-2.73 -2.79,-5.91 -4.43,-8.93 -1.58,-2.89 -3.21,-5.9 -4.82,-8.57 -1.68,-2.81 -3.76,-5.05 -5.92,-6.61 -2.49,-1.83 -5.67,-2.92 -8.41,-3.92 -2.85,-0.99 -5.26,-2.12 -6.7,-3.25 -1.46,-1.12 -1.98,-2.06 -1.74,-2.37 0.53,-0.63 3.43,1.25 9.34,2.2 2.81,0.61 6.41,1.19 10.05,3.41 3.12,1.93 5.44,4.97 7.35,7.99 1.86,2.93 3.98,5.57 5.52,8.51 1.59,3.06 3.28,6 4.69,8.85 1.65,3.3 2.56,6.66 3.78,9.32 2.5,5.43 4.1,9 3.61,9.31z"/>
  <path class="fil0" d="M383.18 476.08c-0.23,1.11 -2.51,1.67 -5.57,0.64 -1.45,-0.48 -3.05,-1.25 -4.64,-2.2 -1.38,-0.82 -2.46,-2.18 -3.8,-3.16 -1.27,-0.91 -2.54,-1.82 -3.84,-2.75 -1.28,-0.95 -2.66,-1.63 -3.84,-2.43 -1.37,-0.92 -2.62,-1.8 -3.79,-2.42 -2.37,-1.29 -4.2,-1.96 -4.19,-2.82 -0.01,-0.8 2.08,-1.15 5.23,-0.57 1.52,0.28 3.23,0.84 4.93,1.66 1.48,0.7 2.88,1.7 4.3,2.66 1.37,0.93 3.11,1.37 4.36,2.35 1.31,0.98 2.51,1.87 3.78,2.81 1.32,1.05 2.22,2.52 3.32,3.31 2.23,1.61 3.9,2.32 3.76,2.91z"/>
  <path class="fil0" d="M414.01 397.58c0.72,0.97 -1.32,3.26 -4.14,6.18 -1.33,1.43 -2.73,3.08 -3.66,5.04 -0.8,1.65 -1.8,3.43 -1.62,5.34 0.13,1.78 1.2,3.79 2,6.3 0.81,2.6 1.44,5.23 1.42,7.74 0,2.91 -0.65,5.53 -1.36,7.65 -1.5,4.42 -3.75,6.55 -4.41,6.16 -0.79,-0.41 0.46,-2.86 0.94,-6.9 0.23,-1.95 0.37,-4.22 0.14,-6.65 -0.17,-2.09 -0.47,-4.32 -1.2,-6.47 -0.66,-2.05 -2.58,-4.13 -2.86,-7.32 -0.26,-3.21 0.61,-6.21 1.99,-8.52 1.65,-2.74 4.23,-4.15 6.02,-5.41 3.79,-2.56 6.41,-3.57 6.73,-3.16z"/>
  <path class="fil0" d="M458.16 382.7c0.89,0.75 0.59,2.66 -0.63,4.88 -0.59,1.07 -1.35,2.25 -2.19,3.5 -0.73,1.07 -1.93,1.9 -2.77,3.04 -0.8,1.09 -1.55,2.26 -2.38,3.34 -0.86,1.12 -1.51,2.35 -2.34,3.37 -0.96,1.17 -1.98,2.19 -2.82,3.09 -1.72,1.85 -3.14,2.93 -3.87,2.52 -0.73,-0.4 -0.16,-1.97 0.83,-4.34 0.48,-1.15 1.14,-2.45 1.92,-3.8 0.67,-1.17 1.56,-2.3 2.39,-3.51 0.8,-1.16 1.08,-2.73 1.96,-3.83 0.92,-1.15 1.73,-2.35 2.66,-3.34 1.07,-1.16 2.61,-1.77 3.55,-2.58 1.93,-1.67 3.25,-2.69 3.69,-2.32z"/>
  <path class="fil0" d="M491.74 406.69c-0.22,1.19 -3.38,1.32 -7.8,1.87 -2.14,0.26 -4.59,0.69 -7.14,1.46 -2.18,0.65 -4.65,1.09 -6.89,2.29 -2.14,1.15 -4.08,2.6 -5.93,4.2 -1.94,1.67 -3.57,3.69 -5.34,5.46 -2.05,2.05 -4.15,3.89 -6.05,5.36 -3.94,3.1 -7.26,3.86 -7.58,3.14 -0.41,-0.78 2.12,-2.24 5.12,-5.68 1.47,-1.65 3.13,-3.69 5,-5.92 1.62,-1.93 3.55,-3.89 5.67,-5.83 2.01,-1.86 4.02,-4.12 6.57,-5.42 2.63,-1.35 5.34,-2.45 8,-3.02 3.1,-0.67 6.07,-0.19 8.47,-0.02 4.98,0.34 8,1.61 7.9,2.12z"/>
  <path class="fil0" d="M509.02 432.05c0.68,0.92 -0.68,3.17 -3.64,5.54 -1.43,1.14 -3.2,2.35 -5.24,3.5 -1.76,0.99 -3.91,1.47 -5.96,2.26 -1.97,0.75 -4.03,1.48 -6.14,1.89 -2.18,0.43 -4.33,0.9 -6.41,0.89 -2.4,0 -4.61,-0.44 -6.44,-0.92 -3.79,-1 -5.8,-2.67 -5.51,-3.41 0.29,-0.82 2.49,-0.16 5.94,-0.11 1.67,0.02 3.6,-0.01 5.68,-0.23 1.8,-0.19 3.73,-0.37 5.66,-0.81 1.87,-0.43 3.51,-1.66 5.3,-2.29 1.87,-0.65 3.62,-1.53 5.32,-2.27 1.96,-0.85 4.1,-1.15 5.7,-1.89 3.27,-1.52 5.38,-2.63 5.73,-2.15z"/>
  <path class="fil0" d="M526 469.51c-0.32,1.09 -2.48,1.52 -5.44,0.75 -1.42,-0.37 -3.03,-0.96 -4.68,-1.77 -1.45,-0.68 -2.64,-1.96 -4.08,-2.89 -1.36,-0.91 -2.76,-1.84 -4.01,-2.92 -1.28,-1.12 -2.66,-2.11 -3.7,-3.3 -1.22,-1.36 -2.13,-2.83 -2.9,-4.06 -1.57,-2.55 -2.08,-4.51 -1.43,-5 0.68,-0.51 1.94,0.81 4.05,2.63 1.12,0.97 2.25,1.95 3.48,3.01 1.09,0.95 2.19,2.04 3.42,3.02 1.19,0.94 2.83,1.3 4.04,2.17 1.27,0.9 2.61,1.64 3.82,2.42 1.38,0.93 2.43,2.31 3.58,3.04 2.36,1.48 4.01,2.32 3.83,2.89z"/>
  <path class="fil0" d="M506.35 497.79c-1.06,0.53 -3.02,-1.43 -5.29,-4.64 -1.19,-1.71 -2.41,-3.45 -3.71,-5.32 -1.16,-1.67 -2.05,-3.71 -3.39,-5.51 -1.29,-1.71 -2.72,-3.36 -4.08,-5.02 -1.43,-1.71 -3.03,-3.22 -4.4,-4.75 -1.45,-1.66 -3,-3.44 -4.3,-4.93 -2.67,-2.92 -4.38,-4.96 -3.89,-5.67 0.47,-0.66 2.79,0.62 6.16,2.95 1.63,1.14 3.46,2.58 5.3,4.29 1.61,1.46 3.1,3.22 4.66,4.97 1.49,1.7 3.48,3.06 4.81,4.92 1.36,1.93 2.77,3.79 3.84,5.69 1.27,2.2 1.72,4.62 2.49,6.44 1.56,3.76 2.3,6.31 1.8,6.56z"/>
  <path class="fil0" d="M416.32 506.2c-0.48,1.05 -2.1,1.46 -4.1,0.94 -0.96,-0.25 -2.02,-0.66 -3.12,-1.21 -0.96,-0.47 -1.65,-1.45 -2.61,-2.07 -0.92,-0.6 -1.87,-1.18 -2.72,-1.88 -0.87,-0.73 -1.85,-1.29 -2.58,-2.06 -0.85,-0.88 -1.49,-1.87 -2.04,-2.69 -1.14,-1.69 -1.54,-3.09 -0.97,-3.69 0.58,-0.62 1.63,0.06 3.28,1.01 0.81,0.46 1.69,1.05 2.64,1.69 0.81,0.56 1.58,1.28 2.44,1.91 0.84,0.61 2.08,0.64 2.9,1.25 0.86,0.63 1.77,1.12 2.55,1.72 0.9,0.7 1.42,1.9 2.13,2.51 1.45,1.24 2.44,2.03 2.19,2.56z"/>
  <path class="fil0" d="M39.27 240.31c-0.41,-1.03 1.85,-2.93 5.82,-2.44 1.85,0.23 3.91,0.92 5.87,1.99 1.73,0.94 3.03,2.53 4.5,3.76 1.37,1.16 2.74,2.33 4.14,3.51 1.35,1.21 2.8,2.09 4.06,2.95 1.46,1.02 2.89,1.89 4.22,2.42 2.71,1.11 4.88,1.03 5.15,1.86 0.31,0.72 -2.04,1.99 -5.83,1.61 -1.81,-0.18 -3.84,-0.78 -5.81,-1.8 -1.72,-0.88 -3.26,-2.15 -4.76,-3.38 -1.45,-1.18 -3.28,-1.91 -4.58,-3.07 -1.36,-1.21 -2.75,-2.19 -3.99,-3.06 -1.42,-1.02 -2.6,-2.39 -3.94,-2.94 -2.71,-1.13 -4.7,-0.83 -4.85,-1.43z"/>
  <path class="fil0" d="M13.03 161.54c0.24,-1.09 4.61,-0.96 11.07,0.93 3.1,0.94 6.71,2.27 10.43,4.29 3.22,1.74 6.17,4.44 8.97,7.29 2.72,2.74 5.02,5.93 6.81,9.25 1.86,3.45 3.48,6.89 4.6,10.24 1.29,3.9 2.04,7.51 2.94,10.49 1.71,6.15 3.8,9.77 3.16,10.32 -0.61,0.56 -3.77,-2.85 -6.46,-9.04 -1.35,-2.96 -2.56,-6.48 -4.01,-10.1 -1.26,-3.12 -2.55,-6.45 -4.32,-9.58 -1.7,-3.02 -4.25,-5.46 -6.51,-7.82 -2.36,-2.49 -5.18,-4.45 -7.94,-6.17 -3.18,-1.99 -6.17,-4.13 -9.02,-5.43 -5.85,-2.61 -9.87,-4.07 -9.72,-4.67z"/>
  <path class="fil0" d="M63.94 148.8c1.16,-0.27 2.45,1.11 4.04,3.02 0.9,1.12 1.75,2.17 2.63,3.28 0.86,1.06 1.4,2.53 2.35,3.8 0.91,1.22 1.9,2.48 2.69,3.88 0.82,1.45 1.75,2.9 2.19,4.47 0.51,1.81 0.57,3.56 0.52,5 -0.12,3.01 -1.12,4.75 -1.92,4.67 -0.85,-0.07 -0.87,-1.76 -1.58,-4.16 -0.35,-1.16 -0.78,-2.48 -1.38,-3.82 -0.51,-1.16 -1.05,-2.42 -1.82,-3.66 -0.74,-1.19 -2.14,-1.99 -2.97,-3.19 -0.87,-1.27 -1.87,-2.46 -2.65,-3.76 -0.91,-1.5 -1.12,-3.33 -1.58,-4.67 -1.03,-2.76 -1.03,-4.74 -0.51,-4.86z"/>
  <path class="fil0" d="M35.08 116.13c1.09,-0.42 2.59,0.7 3.95,2.71 0.66,0.97 1.34,2.13 2.04,3.38 0.6,1.09 0.78,2.47 1.42,3.67 0.63,1.14 1.25,2.26 1.9,3.43 0.62,1.2 1.44,2.25 2,3.38 0.6,1.23 1.06,2.36 1.62,3.18 1.03,1.72 2.43,2.3 2.56,3.14 0.03,0.4 -0.44,0.75 -1.38,0.78 -0.94,0.03 -2.27,-0.4 -3.49,-1.24 -1.21,-0.81 -2.28,-1.99 -3.22,-3.29 -0.78,-1.06 -1.42,-2.31 -2.14,-3.54 -0.69,-1.18 -1.97,-2.08 -2.57,-3.33 -0.62,-1.3 -1.31,-2.53 -1.77,-3.78 -0.53,-1.45 -0.36,-3.06 -0.64,-4.24 -0.57,-2.42 -0.8,-4.03 -0.27,-4.23z"/>
  <path class="fil0" d="M142.89 117.01c1.06,-0.21 2.62,2.55 0.8,6.6 -0.84,1.85 -2.57,3.88 -4.99,5.11 -2.09,1.1 -4.55,1.09 -6.72,1.15 -2.14,0.08 -4.21,-0.07 -6.15,-0.4 -2.04,-0.34 -3.87,-0.5 -5.56,-0.76 -1.95,-0.32 -3.72,-0.59 -5.24,-0.54 -3.1,0.02 -5.12,1.08 -5.72,0.44 -0.59,-0.51 1.16,-2.79 5.02,-3.92 1.83,-0.55 4.01,-0.75 6.26,-0.66 1.95,0.06 3.95,0.51 5.84,0.76 1.85,0.25 3.73,-0.26 5.35,-0.26 1.73,0.01 3.23,-0.39 4.49,-0.87 1.43,-0.5 3.07,-0.99 4.03,-2.13 1.89,-2.31 1.98,-4.52 2.59,-4.52z"/>
  <path class="fil0" d="M134.19 39.25c1.07,-0.25 2.71,3.36 2.98,9.31 0.1,2.85 -0.02,6.21 -0.63,9.77 -0.45,3.1 -1.79,6.18 -2.83,9.36 -1.04,3.06 -2.26,6.13 -3.78,8.99 -1.61,2.95 -3.14,5.89 -5.07,8.32 -2.15,2.88 -4.59,5.17 -6.69,7.06 -4.38,3.85 -7.85,5.45 -8.31,4.84 -0.56,-0.7 2.22,-3.02 5.72,-7.26 1.67,-2.07 3.62,-4.49 5.42,-7.3 1.62,-2.38 3.26,-4.98 4.7,-7.77 1.36,-2.7 1.92,-5.78 2.93,-8.57 1.02,-2.93 1.77,-5.89 2.38,-8.68 0.79,-3.21 1.84,-6.2 2.17,-8.87 0.61,-5.46 0.37,-9.1 1,-9.21z"/>
  <path class="fil0" d="M108.42 23.33c1.13,0.33 1.17,3.28 0.4,7.48 -0.45,2.19 -0.91,4.46 -1.41,6.9 -0.48,2.17 -1.45,4.37 -1.95,6.74 -0.43,2.29 -0.86,4.59 -1.3,6.9 -0.46,2.38 -0.66,4.75 -1.06,6.94 -0.49,2.36 -1.01,4.84 -1.45,6.93 -0.84,4.18 -1.62,6.93 -2.46,6.91 -0.82,-0.02 -1.02,-2.83 -1.07,-7.17 -0.02,-2.11 0.08,-4.57 0.33,-7.21 0.2,-2.29 0.66,-4.69 1.06,-7.15 0.39,-2.36 0.17,-4.88 0.72,-7.23 0.58,-2.43 1.05,-4.84 1.74,-7.04 0.78,-2.55 2.24,-4.69 3.03,-6.64 1.64,-4 2.88,-6.53 3.43,-6.37z"/>
  <path class="fil0" d="M71.21 7.62c1.15,-0.22 2.42,1.07 3.46,3.1 0.51,0.98 1,2.13 1.56,3.35 0.46,1.05 0.51,2.36 1.03,3.52 0.55,1.09 1.09,2.16 1.65,3.28 0.56,1.14 1.32,2.13 1.86,3.17 0.48,1.04 1.08,2.36 1.57,3.45 0.99,2.08 1.53,3.65 0.92,4.23 -0.59,0.57 -1.87,-0.35 -3.68,-2.02 -0.87,-0.81 -1.81,-1.84 -2.7,-3.05 -0.79,-1.03 -1.4,-2.27 -2.09,-3.49 -0.65,-1.17 -1.88,-2.1 -2.4,-3.38 -0.52,-1.31 -1.13,-2.57 -1.45,-3.85 -0.4,-1.47 -0.01,-3.04 -0.13,-4.21 -0.22,-2.43 -0.16,-4.01 0.39,-4.12z"/>
  <path class="fil0" d="M45.16 25.65c0.33,-1.09 3.16,-1.24 7.04,0.15 1.86,0.67 3.96,1.65 6.12,2.93 1.87,1.11 3.47,2.83 5.26,4.35 1.73,1.46 3.45,3.05 4.89,4.85 1.52,1.86 2.97,3.84 3.86,5.85 1.04,2.34 1.57,4.61 1.99,6.51 0.83,3.93 0.81,6.55 0.04,6.8 -0.81,0.26 -1.75,-2.13 -3.36,-5.59 -0.79,-1.67 -1.69,-3.59 -2.8,-5.53 -0.96,-1.68 -1.94,-3.41 -3.31,-4.98 -1.32,-1.54 -3.26,-2.49 -4.75,-3.83 -1.56,-1.4 -3.29,-2.56 -4.86,-3.72 -1.82,-1.34 -3.28,-3.07 -4.84,-4.08 -3.19,-2.05 -5.45,-3.15 -5.27,-3.72z"/>
 </g>
</svg>
