<?xml version="1.0" encoding="UTF-8"?>
<!DOCTYPE svg PUBLIC "-//W3C//DTD SVG 1.1//EN" "http://www.w3.org/Graphics/SVG/1.1/DTD/svg11.dtd">
<!-- Creator: CorelDRAW 2019 (64-Bit) -->
<svg xmlns="http://www.w3.org/2000/svg" xml:space="preserve" width="3.71768in" height="1.05389in" version="1.1" style="shape-rendering:geometricPrecision; text-rendering:geometricPrecision; image-rendering:optimizeQuality; fill-rule:evenodd; clip-rule:evenodd"
viewBox="0 0 3694.62 1047.36"
 xmlns:xlink="http://www.w3.org/1999/xlink"
 xmlns:xodm="http://www.corel.com/coreldraw/odm/2003">
 <defs>
  <style type="text/css">
   <![CDATA[
    .str0 {stroke:#4A494B;stroke-width:11.04;stroke-miterlimit:10}
    .str1 {stroke:#4A494B;stroke-width:8.28;stroke-miterlimit:10}
    .str2 {stroke:#4A494B;stroke-width:11.37;stroke-miterlimit:10}
    .str3 {stroke:#4A494B;stroke-width:13.8;stroke-miterlimit:10}
    .fil2 {fill:none;fill-rule:nonzero}
    .fil1 {fill:#FEFEFE;fill-rule:nonzero}
    .fil0 {fill:#4A494B;fill-rule:nonzero}
   ]]>
  </style>
 </defs>
 <g id="Layer_x0020_1">
  <metadata id="CorelCorpID_0Corel-Layer"/>
  <path class="fil0" d="M3270.59 553.87c66.02,61.23 156.73,221.05 245.33,167.27 64.75,-65.85 -178.55,-146.53 -245.33,-167.27z"/>
  <path class="fil0" d="M3299.49 528.11c4.68,-4.5 9.22,-9.1 13.62,-13.76 85.31,-8.68 180.17,-29.77 263.37,-62.49 24.21,-9.69 79.13,-35.87 63.42,-60.97 -18.37,-27.7 -152.84,37.64 -180.16,46.24 -46.75,19.49 -96.92,50.48 -137.74,67.47 6.69,-7.58 12.99,-15.4 18.94,-23.41 73.57,-52.35 188.42,-127.36 171,-202.1 -24.2,-81.45 -93.43,61.08 -156.52,156.05 -0.76,0.58 -1.42,1.3 -1.93,2.24 -22.91,41.67 -55.39,78.52 -95.06,109.91 12.01,-78.52 72.65,-252.48 28.37,-275.28 -75.14,-48.4 -56.13,213.92 -32.02,278.22 -80.88,62.87 -190.88,102.18 -306.78,118.03 63.85,-34.44 162.45,-133.35 148.27,-189.97 -36.83,-44.65 -108.88,118.86 -158.24,191.31 -55.31,7.05 -111.77,9.05 -167.27,7.04 -0.07,-0.04 -0.15,-0.08 -0.19,-0.12 0.03,0.04 0.04,0.08 0.07,0.11 -36.78,-1.33 -73.15,-4.38 -108.59,-8.75 -4.37,-0.54 -8.78,-1.17 -13.15,-1.76 68.05,-43.52 135.07,-190.82 70.23,-190.19 -46.6,-2.17 -58.26,132.36 -71.84,189.97 -76.95,-10.49 -153.46,-28.61 -228.33,-51.88 60.26,-8.34 166.53,-76.92 148.05,-122.29 -14.51,-36.23 -63.06,6.57 -76.71,19.64 -28.97,28.39 -65.37,63.51 -84.28,98.58 -165.36,-52.87 -319.7,-128.24 -477.42,-203.43 -0.49,0.39 -0.94,0.79 -1.44,1.17 -1.91,2.86 -5.58,5.05 -8.94,5.92 -0.41,0.11 -0.91,0.15 -1.35,0.25 107.54,51.03 212.22,104.51 320.17,148.96 13.12,32.65 27.54,65.25 43.27,97.67 12,27.38 24.82,54 40.07,77.13 10.97,15.4 46.18,56.48 77.67,44.58 48.3,-20.87 -32.84,-113.42 -52.19,-136.67 -23.86,-26.71 -57.8,-54.38 -89.9,-75 5.58,2.22 11.18,4.42 16.74,6.58 120.62,47 246.01,83.05 375.21,100.54 6.4,58.51 -2.26,119.02 24.56,176.5 6.4,13.98 42.89,34.94 65.56,24.29 10.33,-4.8 16.11,-17.64 18.61,-25.27 7.67,-27.43 -66.08,-132.16 -99.35,-174.33 15.62,2 31.32,3.75 47.05,5.19 24.97,2.28 50.35,3.84 75.93,4.54 53.67,71.01 10.86,186.03 132.54,219.11 94.74,-29.91 -52.77,-164.75 -123.02,-218.9 34.58,0.66 69.47,-0.26 104.22,-3.02 68.1,41.63 262.82,165.65 326.31,115.43 34.77,-23.11 -165.22,-95.12 -308.08,-117.06 100.32,-9.73 198.44,-35.86 280.02,-79.44 29.59,49.25 67.72,194.33 123.15,166.29 87.15,-66.56 -65.29,-133.72 -120.37,-167.74 38.55,-20.8 73.28,-45.45 102.82,-73.53 76.63,36.59 397.12,101.26 396.79,-15.06 -10.38,-54.87 -277.18,26.59 -395.13,13.49z"/>
  <path class="fil0" d="M2754.33 667.59c6.71,-2.23 13.4,-4.5 20.07,-6.82 57.73,-40.55 128.15,-125.33 85.04,-190.89 -102.43,20.03 -92.06,123.92 -105.11,197.71z"/>
  <path class="fil1" d="M1515.68 160.02c-17.17,-16.03 -22.98,-44.75 -0.63,-59.05 18.16,-11.61 39.46,0.87 49.58,16.22 6.61,10.02 11.08,21.28 17.38,31.47 0.75,2.4 1.78,4.65 3.05,6.8 -0.44,0.18 -0.88,0.27 -1.3,0.48 -4.72,2.35 -7.56,6.64 -8.64,11.37 -0.14,0.05 -0.26,0.04 -0.4,0.13 -0.56,0.31 -1.16,0.63 -1.72,0.95 -20.13,5.98 -40.65,7.18 -57.31,-8.38z"/>
  <path class="fil2 str0" d="M1515.68 160.02c-17.17,-16.03 -22.98,-44.75 -0.63,-59.05 18.16,-11.61 39.46,0.87 49.58,16.22 6.61,10.02 11.08,21.28 17.38,31.47 0.75,2.4 1.78,4.65 3.05,6.8 -0.44,0.18 -0.88,0.27 -1.3,0.48 -4.72,2.35 -7.56,6.64 -8.64,11.37 -0.14,0.05 -0.26,0.04 -0.4,0.13 -0.56,0.31 -1.16,0.63 -1.72,0.95 -20.13,5.98 -40.65,7.18 -57.31,-8.38z"/>
  <path class="fil1" d="M1591.37 204.87c4.14,26.92 -33.82,94.19 -60.21,51.79 -19.72,-31.71 19,-65.37 44.24,-79.89 0.79,2.51 2.1,4.86 4,6.86 3.33,3.47 8.03,5.36 12.96,5.98 -0.58,3.69 -0.35,7.49 0.45,11.33 -1.02,0.92 -1.7,2.23 -1.45,3.93z"/>
  <path class="fil2 str0" d="M1591.37 204.87c4.14,26.92 -33.82,94.19 -60.21,51.79 -19.72,-31.71 19,-65.37 44.24,-79.89 0.79,2.51 2.1,4.86 4,6.86 3.33,3.47 8.03,5.36 12.96,5.98 -0.58,3.69 -0.35,7.49 0.45,11.33 -1.02,0.92 -1.7,2.23 -1.45,3.93z"/>
  <path class="fil1" d="M1660.15 175.49c25.52,6.69 32.04,30.87 21.78,52.96 -11.95,25.74 -39.81,25.66 -57.94,7.12 -9.46,-9.69 -26.56,-30.97 -22.87,-46.18 2.68,-0.48 5.22,-1.32 7.45,-2.51 4.1,-2.17 8.03,-6.4 7.56,-11.03 -0.18,-1.87 -0.76,-4.06 -0.91,-5.05 13.85,-3.9 31.65,1.22 44.92,4.7z"/>
  <path class="fil2 str0" d="M1660.15 175.49c25.52,6.69 32.04,30.87 21.78,52.96 -11.95,25.74 -39.81,25.66 -57.94,7.12 -9.46,-9.69 -26.56,-30.97 -22.87,-46.18 2.68,-0.48 5.22,-1.32 7.45,-2.51 4.1,-2.17 8.03,-6.4 7.56,-11.03 -0.18,-1.87 -0.76,-4.06 -0.91,-5.05 13.85,-3.9 31.65,1.22 44.92,4.7z"/>
  <path class="fil1" d="M1652.61 93.41c-26.97,-38.36 -70.59,21.16 -61.19,55.02 0.05,0.07 0.08,0.14 0.14,0.22 0.44,0.73 0.59,1.41 0.59,2.09 0.34,0.98 0.97,1.8 1.42,2.72 1.23,-0.05 2.44,-0.2 3.78,0.04 5.12,0.91 11.12,5.72 13.92,9.69 20.94,-11.25 60.15,-43.02 41.32,-69.77z"/>
  <path class="fil2 str0" d="M1652.61 93.41c-26.97,-38.36 -70.59,21.16 -61.19,55.02 0.05,0.07 0.08,0.14 0.14,0.22 0.44,0.73 0.59,1.41 0.59,2.09 0.34,0.98 0.97,1.8 1.42,2.72 1.23,-0.05 2.44,-0.2 3.78,0.04 5.12,0.91 11.12,5.72 13.92,9.69 20.94,-11.25 60.15,-43.02 41.32,-69.77z"/>
  <path class="fil1" d="M1876.19 727.12c-17.95,-2.07 -34.67,-17.2 -27.37,-36.25 5.94,-15.49 24.82,-17.49 38.09,-12.61 8.67,3.19 16.58,8.11 25.12,11.55 1.56,1.13 3.23,2.07 5,2.81 -0.19,0.31 -0.43,0.57 -0.58,0.88 -1.85,3.62 -1.64,7.56 -0.15,10.99 -0.07,0.1 -0.15,0.15 -0.21,0.26 -0.19,0.44 -0.41,0.91 -0.63,1.38 -9.72,12.88 -21.86,22.99 -39.27,20.98z"/>
  <path class="fil2 str1" d="M1876.19 727.12c-17.95,-2.07 -34.67,-17.2 -27.37,-36.25 5.94,-15.49 24.82,-17.49 38.09,-12.61 8.67,3.19 16.58,8.11 25.12,11.55 1.56,1.13 3.23,2.07 5,2.81 -0.19,0.31 -0.43,0.57 -0.58,0.88 -1.85,3.62 -1.64,7.56 -0.15,10.99 -0.07,0.1 -0.15,0.15 -0.21,0.26 -0.19,0.44 -0.41,0.91 -0.63,1.38 -9.72,12.88 -21.86,22.99 -39.27,20.98z"/>
  <path class="fil1" d="M1943.51 720.31c14.85,14.77 22.09,73.74 -13.61,59.53 -26.68,-10.6 -18.1,-49.12 -9.11,-69.63 1.63,1.2 3.52,2.05 5.61,2.43 3.66,0.62 7.43,-0.36 10.76,-2.24 1.31,2.55 3.2,4.8 5.45,6.82 -0.21,1.04 -0.04,2.15 0.9,3.09z"/>
  <path class="fil2 str1" d="M1943.51 720.31c14.85,14.77 22.09,73.74 -13.61,59.53 -26.68,-10.6 -18.1,-49.12 -9.11,-69.63 1.63,1.2 3.52,2.05 5.61,2.43 3.66,0.62 7.43,-0.36 10.76,-2.24 1.31,2.55 3.2,4.8 5.45,6.82 -0.21,1.04 -0.04,2.15 0.9,3.09z"/>
  <path class="fil1" d="M1972.66 670.72c18.84,-7.51 33.93,4.47 37.65,22.83 4.36,21.38 -12.92,34.06 -32.6,30.86 -10.28,-1.67 -30.59,-7.05 -35.25,-18.14 1.44,-1.52 2.64,-3.2 3.47,-4.95 1.56,-3.22 2.05,-7.63 -0.35,-10.28 -0.97,-1.06 -2.32,-2.16 -2.87,-2.71 6.79,-8.75 20.14,-13.71 29.95,-17.61z"/>
  <path class="fil2 str1" d="M1972.66 670.72c18.84,-7.51 33.93,4.47 37.65,22.83 4.36,21.38 -12.92,34.06 -32.6,30.86 -10.28,-1.67 -30.59,-7.05 -35.25,-18.14 1.44,-1.52 2.64,-3.2 3.47,-4.95 1.56,-3.22 2.05,-7.63 -0.35,-10.28 -0.97,-1.06 -2.32,-2.16 -2.87,-2.71 6.79,-8.75 20.14,-13.71 29.95,-17.61z"/>
  <path class="fil1" d="M1930.5 623.36c-34.2,-11.41 -34.02,45.33 -12.76,61.99 0.07,0.03 0.13,0.05 0.2,0.08 0.61,0.23 1.01,0.59 1.32,1.03 0.67,0.43 1.41,0.66 2.11,1.02 0.75,-0.61 1.44,-1.23 2.36,-1.7 3.59,-1.78 9.5,-1.55 13.04,-0.36 7.83,-16.53 17.6,-54.09 -6.28,-62.06z"/>
  <path class="fil2 str1" d="M1930.5 623.36c-34.2,-11.41 -34.02,45.33 -12.76,61.99 0.07,0.03 0.13,0.05 0.2,0.08 0.61,0.23 1.01,0.59 1.32,1.03 0.67,0.43 1.41,0.66 2.11,1.02 0.75,-0.61 1.44,-1.23 2.36,-1.7 3.59,-1.78 9.5,-1.55 13.04,-0.36 7.83,-16.53 17.6,-54.09 -6.28,-62.06z"/>
  <path class="fil1" d="M2126.13 378.82c-13.73,3.63 -30.32,-2.62 -30.46,-18.67 -0.09,-13.04 13.14,-19.94 24.27,-20.19 7.26,-0.16 14.48,1.17 21.73,1.23 1.48,0.39 2.95,0.59 4.46,0.62 -0.05,0.29 -0.14,0.55 -0.16,0.83 -0.32,3.17 0.97,6.02 3.05,8.09 -0.03,0.08 -0.07,0.14 -0.08,0.23 -0.02,0.39 -0.03,0.8 -0.04,1.2 -3.42,12.23 -9.41,23.13 -22.75,26.66z"/>
  <path class="fil2 str2" d="M2126.13 378.82c-13.73,3.63 -30.32,-2.62 -30.46,-18.67 -0.09,-13.04 13.14,-19.94 24.27,-20.19 7.26,-0.16 14.48,1.17 21.73,1.23 1.48,0.39 2.95,0.59 4.46,0.62 -0.05,0.29 -0.14,0.55 -0.16,0.83 -0.32,3.17 0.97,6.02 3.05,8.09 -0.03,0.08 -0.07,0.14 -0.08,0.23 -0.02,0.39 -0.03,0.8 -0.04,1.2 -3.42,12.23 -9.41,23.13 -22.75,26.66z"/>
  <path class="fil1" d="M2173.47 354.46c15.13,6.56 37.39,47.65 7.16,47.52 -22.58,-0.1 -27.38,-30.76 -26.69,-48.38 1.53,0.4 3.16,0.5 4.79,0.17 2.86,-0.59 5.34,-2.4 7.25,-4.74 1.7,1.49 3.71,2.6 5.95,3.42 0.14,0.83 0.59,1.59 1.55,2z"/>
  <path class="fil2 str2" d="M2173.47 354.46c15.13,6.56 37.39,47.65 7.16,47.52 -22.58,-0.1 -27.38,-30.76 -26.69,-48.38 1.53,0.4 3.16,0.5 4.79,0.17 2.86,-0.59 5.34,-2.4 7.25,-4.74 1.7,1.49 3.71,2.6 5.95,3.42 0.14,0.83 0.59,1.59 1.55,2z"/>
  <path class="fil1" d="M2180.54 309.76c11.65,-10.93 26.14,-6.49 34.15,5.88 9.36,14.41 0.35,28.65 -14.99,31.98 -8.01,1.73 -24.4,3.64 -31.03,-3.13 0.62,-1.53 1.01,-3.11 1.12,-4.64 0.2,-2.79 -0.7,-6.17 -3.22,-7.43 -1.01,-0.5 -2.32,-0.91 -2.89,-1.15 2.47,-8.37 10.81,-15.83 16.86,-21.52z"/>
  <path class="fil2 str2" d="M2180.54 309.76c11.65,-10.93 26.14,-6.49 34.15,5.88 9.36,14.41 0.35,28.65 -14.99,31.98 -8.01,1.73 -24.4,3.64 -31.03,-3.13 0.62,-1.53 1.01,-3.11 1.12,-4.64 0.2,-2.79 -0.7,-6.17 -3.22,-7.43 -1.01,-0.5 -2.32,-0.91 -2.89,-1.15 2.47,-8.37 10.81,-15.83 16.86,-21.52z"/>
  <path class="fil1" d="M2136.07 287.21c-28.33,1.48 -11.88,42.98 8.5,49.05 0.05,0 0.1,0.02 0.15,0.02 0.52,0 0.91,0.15 1.27,0.36 0.61,0.12 1.21,0.08 1.82,0.15 0.39,-0.66 0.7,-1.32 1.26,-1.93 2.13,-2.32 6.51,-3.86 9.46,-4.01 0.97,-14.36 -2.71,-44.67 -22.46,-43.63z"/>
  <path class="fil2 str2" d="M2136.07 287.21c-28.33,1.48 -11.88,42.98 8.5,49.05 0.05,0 0.1,0.02 0.15,0.02 0.52,0 0.91,0.15 1.27,0.36 0.61,0.12 1.21,0.08 1.82,0.15 0.39,-0.66 0.7,-1.32 1.26,-1.93 2.13,-2.32 6.51,-3.86 9.46,-4.01 0.97,-14.36 -2.71,-44.67 -22.46,-43.63z"/>
  <path class="fil0" d="M2066.06 220.31c-4,6.01 -8.54,8.59 -12.96,9.06 -1.48,0.15 -2.95,0.08 -4.38,-0.22 -4.48,-0.98 -8.56,-4.07 -11.52,-8.11 -1.22,-1.69 -2.3,-3.48 -3.08,-5.41 -1.53,-3.88 -1.97,-8.06 -0.95,-11.86 0.51,-1.88 1.44,-3.65 2.76,-5.25 1.09,-1.33 2.37,-2.57 4.08,-3.59 2.39,-1.42 4.96,-2.01 7.57,-2.06 1.34,-0.03 2.7,0.07 4.06,0.36 4.01,0.87 7.83,3.08 10.83,6.01 0.98,0.98 1.86,2.03 2.64,3.12 2.33,3.31 3.63,7.15 3.33,11.03 -0.15,1.95 -0.72,3.89 -1.76,5.79 -0.22,0.38 -0.36,0.77 -0.61,1.14zm17.23 -8.27c22.76,-26.9 88.64,-66.64 65.49,-88.93 -18.29,-14.91 -68.26,37.24 -82.72,62.04 2.06,-14.48 22.74,-113.74 -20.69,-95.13 -22.75,8.27 -10.34,78.58 -14.46,97.2 -8.28,-18.62 -53.79,-78.59 -72.39,-47.58 -14.48,26.89 39.31,64.13 57.9,68.26 -12.41,10.34 -86.86,45.51 -68.23,70.32 16.52,22.75 72.37,-28.96 80.65,-43.42 0,20.66 -6.27,91.33 20.64,99.6 24.8,6.21 14.51,-72.45 14.51,-91.07 16.55,12.41 84.12,53.51 96.51,16.27 8.29,-24.82 -60.62,-45.5 -77.2,-47.57z"/>
  <path class="fil0" d="M1681.87 690.99c-4.86,3.88 -9.25,4.83 -12.99,4.06 -1.27,-0.26 -2.46,-0.69 -3.55,-1.31 -3.44,-1.99 -5.98,-5.58 -7.36,-9.68 -0.56,-1.7 -0.99,-3.46 -1.12,-5.24 -0.25,-3.59 0.47,-7.14 2.3,-9.99 0.9,-1.41 2.12,-2.63 3.63,-3.58 1.24,-0.81 2.62,-1.51 4.29,-1.89 2.33,-0.56 4.6,-0.36 6.75,0.27 1.12,0.33 2.21,0.76 3.23,1.35 3.08,1.75 5.65,4.57 7.34,7.75 0.55,1.05 1.01,2.14 1.35,3.24 1.06,3.33 1.13,6.82 -0.13,9.93 -0.63,1.56 -1.62,3.01 -2.97,4.29 -0.28,0.26 -0.49,0.54 -0.8,0.79zm16.3 -2.32c25.72,-16.17 90.17,-31.68 76.95,-56.01 -11.14,-17 -65.74,12.82 -84.1,29.45 5.47,-11.37 48.28,-87.52 7.77,-83.55 -20.84,0.88 -28.95,61.88 -37.19,76.1 -1.96,-17.46 -23.73,-78.56 -47.09,-57.93 -18.88,18.31 15.61,62.91 29.8,71.14 -12.88,5.27 -83.19,14.78 -74.34,40 7.65,22.99 66.99,-4.94 77.56,-14.67 -5.38,16.98 -28.92,73.4 -8.97,87.19 18.76,11.57 30.76,-55.74 35.61,-71.03 10.36,14.5 55.18,65.85 75.04,38.48 13.28,-18.23 -37.96,-53.15 -51.04,-59.17z"/>
  <path class="fil0" d="M2063.12 741.57c0.83,4.24 0,7.25 -1.7,9.32 -0.57,0.69 -1.21,1.28 -1.96,1.75 -2.32,1.48 -5.36,1.89 -8.32,1.42 -1.23,-0.21 -2.46,-0.51 -3.59,-1.01 -2.29,-1.01 -4.25,-2.59 -5.43,-4.64 -0.58,-1.02 -0.92,-2.17 -1.03,-3.41 -0.1,-1.02 -0.09,-2.1 0.23,-3.24 0.4,-1.61 1.24,-2.95 2.33,-4.07 0.56,-0.58 1.17,-1.12 1.88,-1.56 2.08,-1.33 4.64,-2 7.16,-2.03 0.82,0 1.64,0.09 2.45,0.22 2.37,0.41 4.55,1.5 6.06,3.28 0.76,0.9 1.34,1.96 1.68,3.22 0.08,0.25 0.19,0.47 0.23,0.75zm3.84 -10.81c-1.67,-21.07 9.59,-65.8 -9.68,-65.51 -14.08,1.38 -13.32,44.67 -9.01,61.34 -5.23,-7.02 -38.34,-58.01 -48.97,-31.76 -6.2,13.13 28.79,37.82 34.88,47.49 -11.37,-4.43 -56.08,-10.75 -50.9,10.33 5.19,17.56 43.81,10.68 53.47,4.6 -0.91,9.63 -17.76,56.05 0.65,58.73 16.63,2.72 18.58,-42.87 16.01,-52.53 8.71,8.81 35.89,41.54 50.84,33.7 13.18,-7.84 -24.41,-36.97 -32.28,-44.9 12.28,-1.71 58.41,-12.74 47.96,-33.83 -6.96,-14.06 -45.03,6.24 -52.96,12.36z"/>
  <path class="fil0" d="M3306.72 108.91c-20.03,-2.32 -42.76,14.67 -58.87,26.29 -21.3,15.51 -41.09,33.1 -60.58,50.82 22.6,-27.24 45.66,-54.31 67.22,-81.56 23.41,-28.93 71.47,-68.04 52.45,-102.1 -0.83,-1.49 -2.69,-2.59 -4.66,-2.32 -47.33,6.46 -79.89,59.97 -105.36,94.37 -43.18,59.35 -78.05,115.84 -107.73,181.6 -0.02,0.03 0,0.04 -0.02,0.07 -20.72,18.69 -42.1,36.92 -64.87,53.92 -0.18,0.11 -0.37,0.22 -0.57,0.33 -0.33,0.22 -0.54,0.47 -0.81,0.69 -2.72,2.01 -5.38,4.06 -8.14,6.02 -1.06,0.76 -1.63,1.59 -1.99,2.4 -2.42,0.85 -4.82,1.79 -7.25,2.61 -0.14,0.04 -0.22,0.13 -0.33,0.18 -28.52,4.97 -57.09,12.08 -85.54,20.1 5.41,-7.83 11.1,-15.56 17,-23.2 0.25,-0.17 0.52,-0.23 0.77,-0.46 35.62,-30.01 71.39,-59.2 96.5,-95.65 16.84,-24.4 29.92,-52.24 38.81,-78.65 6.07,-17.79 10.47,-39.74 -3.19,-53.25 -8.29,-8.24 -22.47,-5.68 -31.91,0.81 -32.71,22.75 -48.13,78.4 -62.43,111.25 -15.45,36.12 -27.27,73.71 -46.72,109.25 -8.78,11.03 -17.36,22.13 -25.04,33.66 -0.23,0.37 -0.25,0.69 -0.4,1.02 -37.53,11.07 -74.69,23.33 -110.05,34.45 -1.49,0.14 -2.66,0.69 -3.54,1.53 -0.13,0.08 -0.21,0.18 -0.31,0.25 -24.82,5.37 -48.41,12.2 -71.65,21.17 4.68,-3.7 9.36,-7.43 13.82,-11.29 0.77,-0.43 1.48,-0.99 2.07,-1.75 0.04,-0.07 0.1,-0.13 0.14,-0.19 7.87,-6.9 15.39,-14.02 22.69,-21.3 0.13,-0.08 0.25,-0.11 0.36,-0.18 57.86,-44.9 119.87,-89.5 151.23,-149.64 13.18,-24.46 26.89,-73.35 4.2,-93.31 -9.17,-8.19 -23.44,-3.08 -33.55,1.51 -24.92,11.32 -38.86,35.91 -50.5,57.93 -34.38,64.5 -56.33,134.37 -102.36,196.28 -57.2,47.03 -130.07,80.12 -192.04,123.59 -19.48,1.09 -38.99,1.8 -58.59,1.88 -51.48,0.18 -102.73,-3.37 -154.26,-4.42 24.64,-7.85 49.23,-15.98 70.19,-27.98 0.3,-0.18 0.62,-0.39 0.92,-0.57 35.42,-20.07 78.25,-29.19 119.92,-40.86 0.76,0.09 1.57,0.12 2.48,-0.03 66.74,-10.48 147.49,-38.04 184.47,-85.59 20.21,-25.15 47.04,-63.19 38.04,-93.24 -3.67,-12.58 -19.31,-14.9 -32.16,-14.46 -22.73,0.76 -39.34,19.24 -52.42,33.65 -17.02,18.83 -32.33,39.81 -47.65,59.89 -21.68,28.26 -35.29,61.26 -70.94,81.53 -1.17,0.66 -1.75,1.44 -2.11,2.23 -29.41,9.68 -60.69,16.44 -90.38,25.41 27.92,-19.56 53.72,-40.84 76.37,-63.58 9.26,-9.29 17.82,-18.94 25.85,-28.83 35.46,-34.2 70.79,-68.12 101.59,-104.4 23.3,-27.44 39.28,-52.22 45.51,-85.69 3.6,-18.88 5.55,-52.1 -14.64,-63.63 -9.95,-5.74 -19.24,-1.59 -27.19,5.47 -31.51,28.08 -47.08,84.17 -62.73,121.52 -14.98,35.93 -30.1,72.29 -43.89,108.82 -8.85,11.75 -18.15,23.28 -28.41,34.38 -37.39,40.65 -87.38,75.64 -140.24,105.07 -40.83,22.92 -94.41,28.98 -135.83,51.55 -28.25,-3.8 -56.36,-9.08 -84.36,-14.86 36.04,-8.82 69.03,-24.88 98.75,-39.99 1.01,-0.51 2,-1.02 3,-1.55 61.81,-4.04 109.55,-32.1 148.1,-65.29 19.83,-16.26 70.12,-57.5 47.39,-82.79 -19.37,-22.29 -72.49,15.32 -87.73,23.98 -49.88,30.42 -83.64,72.93 -116.12,115.65 -0.68,0.36 -1.38,0.72 -2.07,1.08 -34.27,17.82 -74.82,37.14 -118.04,43.27 -25.26,-5.4 -50.52,-10.9 -76.05,-15.79 -41.42,-7.69 -93.19,-17.17 -135.45,-14.15 0,0.02 0,0.03 0.02,0.04 3.15,2.61 5.11,6.03 4.25,10.54 28.53,-2.33 61.2,1.62 93.1,6.89 20.62,5.01 50.21,9.29 62.11,11.5 16.35,3.13 32.69,6.46 49.04,9.82 1.38,1.86 103.3,22.22 151.93,26.19 7.58,0.8 15.05,1.78 22.57,2.59 0.55,0.44 1.13,0.86 1.96,1.19 29.58,11.99 54.31,27.29 77.43,44.03 30.37,41.23 54.34,85.15 104.67,117.78 12.92,8.83 69.69,40.46 88.86,19.16 25.23,-28.55 -17.67,-58.41 -45.4,-75.7 -42.44,-25.91 -93.14,-44.75 -138.33,-68.54 -0.57,-0.29 -1.15,-0.41 -1.71,-0.58 -17.18,-12.35 -35.32,-23.89 -55.55,-34.01 39.35,4.24 78.22,8.47 117.1,12.22 0.36,0.65 1.02,1.2 1.85,1.68 0.82,0.57 1.8,0.87 2.81,1.05 17.35,4.06 34.52,8.42 51.77,12.6 0.29,0.55 0.69,1.1 1.37,1.64 68.34,53.06 139.19,141.95 266.74,130.23 44.09,-4.62 38.39,-31.43 21.12,-47.59 -16.4,-15.47 -42.41,-24.39 -65.89,-34.16 -22.29,-9.25 -45.26,-17.76 -68.81,-25.55 27.78,0.72 55.93,-2.61 71.91,-15.05 38.4,-30.35 -30.48,-45.56 -57.96,-49.84 -72.99,-10.25 -142.94,4.98 -215.87,13.74 -66.24,-6.84 -131.79,-10.93 -198.15,-18.85 10.77,-5.18 22.15,-9.62 33.9,-13.67 0.47,0.05 0.86,0.2 1.38,0.2 60.35,-0.2 120.25,4.5 180.37,4.61 62.89,0.1 124.74,-6.5 187.18,-11.39 11.47,-0.88 23.04,-1.87 34.63,-2.94 45.84,5.6 85.53,18.23 127.89,28.56 0.83,0.62 1.89,1.12 3.44,1.26 0.83,0.07 1.67,0.1 2.51,0.16 3.05,0.72 6.16,1.38 9.23,2.07 0.59,0.4 1.33,0.75 2.29,0.97 51.51,11.73 104.9,20.37 160.35,24.35 55.46,4.27 130.95,9.37 190.27,-16.41 14.08,-6.07 26.09,-16.43 25.29,-27.59 -1.53,-20.87 -32.18,-22.72 -56.29,-21.37 -107.94,6.64 -222.7,36.8 -329.13,27.73 -18.11,-4.46 -35.53,-9.91 -52.67,-15.89 -11.36,-3.98 -24,-6.48 -36.93,-8.44 17.17,-1.79 34.4,-3.57 51.62,-5.44 0.58,0.07 1.13,0.21 1.81,0.17 50.59,-2.76 104.49,5.01 155.69,2.69 34.04,-0.91 112.05,-2.32 138.97,-30.26 34.95,-36.12 -66.15,-31.21 -83.33,-31.86 -33.79,0.7 -66.65,3.33 -100.33,11.28 -48.88,11.5 -95.68,30.99 -145.33,40.55 -1.46,0.28 -2.45,0.81 -3.23,1.45 -32.24,3.45 -64.46,6.54 -96.36,8.87 -35.32,2.57 -70.29,5.84 -105.43,8.24 33.65,-22.24 70.52,-41.59 105.62,-62.4 0.68,-0.16 1.35,-0.36 2.07,-0.76 30.66,-17.38 62.1,-31.38 96.7,-42.57 10.38,-3.36 20.7,-5.78 31.07,-7.75 0.22,0.07 0.47,0.08 0.72,0.14 0.21,0.05 0.36,0.18 0.61,0.22 49.31,8.49 101.42,11.18 153.71,10.07 54.3,-0.77 129.08,-3.8 180.03,-34.77 13.39,-8.07 20.61,-19.42 17.58,-30.81 -6.35,-23.15 -46.06,-21.6 -70.38,-21.17 -8.49,0.22 -16.99,0.84 -25.52,1.61 67.69,-28.43 131.25,-69.32 190.08,-110.79 23.08,-13.39 138.98,-109.11 68.85,-116.91z"/>
  <path class="fil1" d="M3023.93 145.1c5.63,-9.64 16.52,-29.68 30.64,-28.93 26.14,1.23 6.53,50.42 0.69,63.63 -9.35,22.76 -22.27,45.99 -37.12,67.07 -13.89,19.74 -32.18,37.2 -51.52,53.82 9.12,-12.02 17.85,-24.18 25.36,-36.73 20.92,-34.92 37.2,-71.15 52.49,-107.18 2.7,-6.4 -8.27,-7.98 -10.97,-1.7 -16.35,38.04 -34.19,76.07 -56.71,112.82 -4.88,7.95 -10.24,15.69 -15.89,23.32 20.76,-49.32 35.86,-99.15 63.04,-146.12z"/>
  <path class="fil1" d="M2814.8 257.04c10.56,-20.32 19.93,-41.12 30.92,-61.05 9.09,-14.99 54.96,-67.73 64.62,-29.84 8.93,33.57 -12.5,75.45 -34.76,104.05 -20.77,27.05 -47.66,50.72 -76.05,73.17 38.06,-43.66 71.87,-92.73 86.71,-141.98 1.92,-6.36 -8.6,-9.4 -10.57,-3 -18.73,61.58 -66.87,121.26 -115.79,172.28 20.73,-37.35 35.44,-76.33 54.92,-113.63z"/>
  <path class="fil1" d="M2628.72 342.02c13.36,-17.22 25.88,-34.6 41.02,-50.61 14.07,-14.43 56.56,-36.2 56.96,-3.52 0.43,26.52 -23.91,61.71 -44.69,82.53 -23.56,23.93 -57.44,42.15 -94.11,54.89 47.57,-26.31 85,-73.25 110.1,-112.28 3.76,-5.84 -6.69,-10.24 -10.46,-4.44 -27.33,41.97 -66.8,88.93 -119.33,114.96 25.08,-24.32 40.28,-55.55 60.5,-81.52z"/>
  <path class="fil1" d="M2638.56 154.52c5.16,-9.28 14.08,-27.83 26.32,-29.86 27.87,-4.75 12.89,66.93 9.07,77.72 -9.74,31.59 -37.6,59.2 -61.15,84.35 -11.15,11.96 -22.73,23.73 -34.53,35.37 34.38,-54.26 60.74,-111.41 94.66,-164.1 3.58,-5.62 -5.85,-10.16 -9.41,-4.61 -33.55,51.65 -60.51,107.24 -94.33,160.47 20.21,-54.45 42.02,-109.74 69.37,-159.35z"/>
  <path class="fil1" d="M2350.83 384.69c20.98,-14.49 55.75,-42.04 84.91,-40.66 29.61,1.53 -39.28,70.46 -47.37,75.96 -29.01,24.5 -64.73,45.63 -107.65,54.19 46.34,-25.42 89.4,-54.82 122.31,-89.94 4.76,-5.12 -5,-11.54 -9.81,-6.46 -32.51,34.36 -74.71,62.4 -119.88,87.29 22.02,-29.13 45.81,-58.16 77.49,-80.37z"/>
  <path class="fil1" d="M2505.32 684.84c-29.67,-16.22 -54.93,-35.93 -79.93,-55.53 54.23,24.4 117.45,48.9 135.52,88.12 4.95,10.82 -6.19,24.62 -25.67,19.82 -9,-2.24 -17.25,-6.38 -24.97,-10.06 -16.91,-8.09 -31.1,-18.54 -44.08,-29.26 -23.51,-19.42 -39.61,-42.58 -55.3,-65.58 27.01,21.32 53.85,43.16 85.74,60.72 7.51,4.13 16.14,-4.18 8.69,-8.22z"/>
  <path class="fil1" d="M2766.48 673.27c11.82,7.07 43.79,30.14 10.78,39.76 -27.76,7.98 -64.68,-0.95 -87.8,-8.26 -70.05,-22.06 -112.19,-67.45 -160.17,-106.4 12.53,2.84 25.19,5.42 37.96,7.75 0.13,1.3 0.9,2.58 2.63,3.58 47.4,27.52 95.85,54.24 148.97,76.36 7.88,3.27 15.46,-6.03 7.65,-9.22 -46.9,-19.36 -90.21,-42.33 -132.32,-66.28 0.15,0.03 0.29,0.04 0.44,0.07 5.52,0.75 12.01,1.67 18.99,2.57 0.73,0.85 1.73,1.64 3.35,2.1 50.75,14.49 107.98,33.72 149.52,57.97z"/>
  <path class="fil1" d="M2640 559.19c25.98,1.44 55.97,4.53 77.11,15.17 30.66,15.26 -13.83,28.26 -31.56,29.98 -62.8,6.65 -123.88,-7.72 -182.1,-22.4 51.62,4.16 103.66,6.97 156.7,7.16 9.16,0 9.54,-10.09 0.5,-10.1 -54.15,-0.18 -107.83,-3.89 -161.27,-8.89 46.79,-6.71 92.55,-13.51 140.62,-10.92z"/>
  <path class="fil1" d="M3100.92 532.58c25.67,-3.24 103.79,-19.34 101.11,10.2 -1.39,14.59 -43.61,21.81 -55.48,23.69 -60.02,10.43 -119.99,9.25 -177.02,2.46 31.03,-0.17 62.59,-2.36 94.2,-6.52 9.21,-1.21 11.15,-11.84 1.96,-10.58 -55.21,7.37 -109.69,8.43 -161.81,3.35 65.08,-2.24 131.35,-12.59 197.05,-22.6z"/>
  <path class="fil1" d="M2981.49 465.75c30.05,-1.63 65.45,-4.29 92.12,3.38 26.17,7.49 -14.04,22 -25.01,24.75 -49.18,13.06 -101.33,13.61 -149.45,13.26 -10.76,-0.07 -21.75,-0.62 -32.8,-1.28 39.4,-3.89 78.64,-7.19 117.56,-8.57 8.8,-0.32 10.79,-10.78 2.05,-10.43 -52.73,1.96 -105.63,7.36 -158.73,13.13 51.04,-14.74 99.41,-31.21 154.26,-34.23z"/>
  <path class="fil1" d="M3131.51 365.72c-0.76,14.93 -36.99,25.04 -49.97,28.61 -83.26,24.2 -176.43,23.28 -256.92,11.81 11.24,-1.42 22.56,-2.75 34,-4.37 66.01,-9.47 129.03,-23.73 195.25,-22.84 8.24,0.08 9.23,-10.38 1.16,-10.45 -67.08,-0.83 -131.04,13.6 -197.66,23.27 60.69,-19.01 122.72,-37.32 184.22,-44.04 24.25,-2.1 91.21,-11.65 89.91,18.01z"/>
  <path class="fil1" d="M3284.4 124.16c8.53,-4.13 17.74,-6.13 25.18,-2.47 14.13,6.89 0.95,24.86 -7.3,35.09 -23.85,29.87 -59.44,54.19 -92.04,75.69 -48.56,32.15 -99.18,64.56 -153.14,89.09 75.51,-48.41 144.63,-105.51 216.73,-156.91 6.68,-4.78 -0.32,-12.12 -6.89,-7.44 -57.48,40.91 -112.78,85.37 -171.28,126.28 13.15,-11.98 26.1,-24.07 39.2,-35.98 44.64,-40.12 93.93,-96.16 149.54,-123.34z"/>
  <path class="fil1" d="M3136.56 232.44c-3.54,3.27 -7.12,6.55 -10.67,9.84 35.09,-60.35 85.69,-115.25 129.53,-170.37 4.71,-5.94 -4.44,-10.9 -9.14,-5.04 -34.53,43.21 -73.31,86.57 -105.64,132.27 16.25,-28.42 34.15,-55.98 54.52,-84.45 25.06,-34.45 54.09,-86.25 97.07,-102.25 19.11,-7.11 0.9,29.08 -2.39,33.47 -6.47,9.21 -14.78,17.57 -22.36,26.06 -14.25,15.97 -26.9,33.51 -40.29,50.08 -29.68,36.7 -61.7,72.89 -90.63,110.38z"/>
  <path class="fil0" d="M424.03 553.87c-66.02,61.23 -156.72,221.05 -245.32,167.27 -64.77,-65.85 178.55,-146.53 245.32,-167.27z"/>
  <path class="fil0" d="M1763.45 417.33c-2.3,-1.39 -3.88,-3.38 -4.64,-5.8 -0.25,-0.41 -0.4,-0.87 -0.61,-1.28 -155.01,73.93 -306.97,147.7 -469.6,199.69 -18.9,-35.08 -55.3,-70.19 -84.27,-98.58 -13.65,-13.07 -62.21,-55.87 -76.72,-19.64 -18.49,45.37 87.79,113.95 148.04,122.29 -74.85,23.27 -151.36,41.4 -228.31,51.88 -13.6,-57.61 -25.25,-192.14 -71.84,-189.97 -64.85,-0.63 2.18,146.67 70.21,190.19 -4.36,0.59 -8.76,1.23 -13.14,1.76 -35.43,4.37 -71.82,7.43 -108.6,8.75 0.03,-0.03 0.06,-0.07 0.1,-0.11 -0.07,0.04 -0.15,0.08 -0.21,0.12 -55.5,2.01 -111.97,0.02 -167.27,-7.04 -49.35,-72.45 -121.41,-235.96 -158.23,-191.31 -14.18,56.62 84.4,155.53 148.25,189.97 -115.89,-15.85 -225.88,-55.16 -306.76,-118.03 24.11,-64.31 43.12,-326.63 -32.02,-278.22 -44.28,22.8 16.36,196.76 28.35,275.28 -39.65,-31.39 -72.14,-68.24 -95.04,-109.91 -0.51,-0.94 -1.17,-1.66 -1.93,-2.24 -63.09,-94.97 -132.34,-237.5 -156.54,-156.05 -17.4,74.74 97.45,149.75 171.02,202.1 5.94,8.01 12.24,15.83 18.94,23.41 -40.82,-16.99 -90.99,-47.98 -137.74,-67.47 -27.31,-8.6 -161.78,-73.94 -180.15,-46.24 -15.72,25.1 39.21,51.28 63.4,60.97 83.22,32.71 178.05,53.81 263.37,62.49 4.4,4.66 8.96,9.26 13.64,13.76 -117.95,13.1 -384.75,-68.35 -395.14,-13.49 -0.33,116.32 320.15,51.65 396.81,15.06 29.51,28.08 64.25,52.73 102.8,73.53 -55.09,34.02 -207.52,101.19 -120.37,167.74 55.43,28.05 93.55,-117.03 123.13,-166.29 81.58,43.58 179.71,69.71 280.02,79.44 -142.86,21.95 -342.84,93.95 -308.06,117.06 63.49,50.21 258.21,-73.8 326.31,-115.43 34.74,2.76 69.65,3.69 104.21,3.02 -70.25,54.15 -217.74,188.99 -123.02,218.9 121.67,-33.07 78.87,-148.09 132.55,-219.11 25.58,-0.7 50.95,-2.27 75.94,-4.54 15.72,-1.44 31.4,-3.19 47.05,-5.19 -33.28,42.17 -107.05,146.9 -99.36,174.33 2.48,7.63 8.28,20.47 18.6,25.27 22.68,10.64 59.15,-10.31 65.56,-24.29 26.82,-57.48 18.17,-117.98 24.54,-176.5 129.21,-17.49 254.62,-53.54 375.22,-100.54 5.56,-2.17 11.18,-4.36 16.74,-6.58 -32.08,20.62 -66.01,48.3 -89.9,75 -19.35,23.26 -100.48,115.8 -52.19,136.67 31.5,11.9 66.71,-29.18 77.67,-44.58 15.26,-23.13 28.09,-49.74 40.08,-77.13 15.74,-32.42 30.16,-65.01 43.27,-97.67 104,-42.82 205,-94.01 308.41,-143.34 -0.91,-0.69 -1.78,-1.41 -2.57,-2.14z"/>
  <path class="fil0" d="M940.29 667.59c-6.72,-2.23 -13.42,-4.5 -20.07,-6.82 -57.71,-40.55 -128.15,-125.33 -85.05,-190.89 102.44,20.03 92.07,123.92 105.12,197.71z"/>
  <path class="fil0" d="M1777.09 499.15c1.62,-0.36 3.12,-0.52 4.61,-0.67 -0.13,-1.53 0,-3.02 0.29,-4.44 -42.64,-3.53 -95.5,6.16 -137.68,13.97 -25.52,4.89 -50.78,10.4 -76.04,15.79 -43.21,-6.13 -83.77,-25.45 -118.05,-43.27 -0.68,-0.36 -1.38,-0.72 -2.06,-1.08 -32.48,-42.72 -66.24,-85.23 -116.12,-115.65 -15.25,-8.65 -68.38,-46.27 -87.74,-23.98 -22.72,25.29 27.55,66.53 47.41,82.79 38.52,33.18 86.27,61.24 148.09,65.29 0.99,0.53 2,1.04 3,1.55 29.72,15.11 62.71,31.16 98.73,39.99 -28.01,5.78 -56.09,11.07 -84.35,14.86 -41.43,-22.57 -95.02,-28.63 -135.85,-51.55 -52.85,-29.43 -102.83,-64.42 -140.24,-105.07 -10.23,-11.1 -19.56,-22.63 -28.39,-34.38 -13.79,-36.54 -28.93,-72.9 -43.9,-108.82 -15.65,-37.35 -31.23,-93.44 -62.73,-121.52 -7.95,-7.05 -17.24,-11.21 -27.21,-5.47 -20.18,11.53 -18.23,44.75 -14.63,63.63 6.22,33.47 22.21,58.25 45.51,85.69 30.79,36.29 66.13,70.2 101.59,104.4 8.04,9.89 16.59,19.54 25.85,28.83 22.65,22.73 48.45,44.02 76.37,63.58 -29.7,-8.97 -60.98,-15.74 -90.39,-25.41 -0.34,-0.8 -0.93,-1.57 -2.1,-2.23 -35.66,-20.28 -49.26,-53.28 -70.95,-81.53 -15.31,-20.08 -30.63,-41.06 -47.66,-59.89 -13.07,-14.41 -29.67,-32.89 -52.41,-33.65 -12.85,-0.43 -28.49,1.89 -32.17,14.46 -8.98,30.05 17.83,68.09 38.05,93.24 36.99,47.55 117.73,75.11 184.46,85.59 0.93,0.15 1.74,0.12 2.5,0.03 41.66,11.66 84.5,20.79 119.91,40.86 0.32,0.18 0.63,0.39 0.95,0.57 20.94,11.99 45.52,20.12 70.17,27.98 -51.52,1.05 -102.79,4.6 -154.26,4.42 -19.6,-0.08 -39.12,-0.79 -58.58,-1.88 -62,-43.46 -134.85,-76.56 -192.05,-123.59 -46.04,-61.91 -67.98,-131.78 -102.35,-196.28 -11.68,-22.02 -25.62,-46.61 -50.52,-57.93 -10.11,-4.59 -24.39,-9.69 -33.55,-1.51 -22.7,19.96 -9,68.85 4.18,93.31 31.36,60.14 93.39,104.74 151.25,149.64 0.11,0.07 0.23,0.09 0.34,0.18 7.32,7.28 14.84,14.4 22.7,21.3 0.04,0.07 0.1,0.13 0.14,0.19 0.59,0.76 1.28,1.33 2.09,1.75 4.44,3.87 9.12,7.59 13.8,11.29 -23.26,-8.97 -46.85,-15.8 -71.65,-21.17 -0.1,-0.07 -0.18,-0.16 -0.3,-0.25 -0.88,-0.84 -2.06,-1.4 -3.55,-1.53 -35.38,-11.12 -72.54,-23.38 -110.05,-34.45 -0.15,-0.33 -0.16,-0.65 -0.41,-1.02 -7.66,-11.54 -16.25,-22.64 -25.04,-33.66 -19.43,-35.54 -31.27,-73.13 -46.71,-109.25 -14.3,-32.85 -29.73,-88.5 -62.43,-111.25 -9.44,-6.5 -23.62,-9.05 -31.9,-0.81 -13.68,13.51 -9.28,35.46 -3.2,53.25 8.91,26.41 21.96,54.25 38.82,78.65 25.11,36.45 60.85,65.65 96.48,95.65 0.26,0.22 0.54,0.29 0.79,0.46 5.91,7.65 11.58,15.37 17,23.2 -28.45,-8.02 -57.03,-15.13 -85.52,-20.1 -0.14,-0.05 -0.21,-0.14 -0.34,-0.18 -2.43,-0.81 -4.83,-1.75 -7.26,-2.61 -0.34,-0.81 -0.91,-1.64 -1.99,-2.4 -2.75,-1.96 -5.42,-4 -8.13,-6.02 -0.27,-0.22 -0.48,-0.47 -0.83,-0.69 -0.2,-0.11 -0.38,-0.22 -0.56,-0.33 -22.77,-16.99 -44.15,-35.23 -64.87,-53.92 -0.02,-0.03 0,-0.04 -0.02,-0.07 -29.67,-65.76 -64.55,-122.25 -107.74,-181.6 -25.46,-34.4 -58.03,-87.91 -105.34,-94.37 -1.98,-0.27 -3.85,0.83 -4.68,2.32 -19.01,34.06 29.04,73.17 52.46,102.1 21.56,27.25 44.62,54.31 67.22,81.56 -19.49,-17.72 -39.28,-35.31 -60.58,-50.82 -16.1,-11.62 -38.86,-28.61 -58.87,-26.29 -70.15,7.8 45.77,103.52 68.83,116.91 58.84,41.48 122.4,82.36 190.08,110.79 -8.52,-0.77 -17.04,-1.39 -25.51,-1.61 -24.32,-0.43 -64.05,-1.98 -70.36,21.17 -3.05,11.39 4.18,22.74 17.56,30.81 50.95,30.98 125.74,34 180.03,34.77 52.3,1.1 104.4,-1.59 153.72,-10.07 0.25,-0.04 0.38,-0.17 0.61,-0.22 0.23,-0.05 0.5,-0.07 0.72,-0.14 10.37,1.97 20.69,4.39 31.07,7.75 34.59,11.19 66.05,25.19 96.7,42.57 0.72,0.4 1.41,0.59 2.07,0.76 35.12,20.81 71.97,40.17 105.6,62.4 -35.13,-2.4 -70.1,-5.67 -105.41,-8.24 -31.89,-2.33 -64.12,-5.42 -96.36,-8.87 -0.79,-0.64 -1.78,-1.17 -3.23,-1.45 -49.64,-9.56 -96.46,-29.05 -145.33,-40.55 -33.68,-7.95 -66.56,-10.58 -100.33,-11.28 -17.17,0.65 -118.27,-4.27 -83.33,31.86 26.93,27.94 104.93,29.34 138.95,30.26 51.21,2.32 105.11,-5.45 155.71,-2.69 0.68,0.04 1.21,-0.1 1.81,-0.17 17.23,1.87 34.45,3.65 51.62,5.44 -12.93,1.96 -25.56,4.46 -36.93,8.44 -17.14,5.97 -34.56,11.43 -52.67,15.89 -106.42,9.07 -221.17,-21.09 -329.14,-27.73 -24.11,-1.35 -54.74,0.5 -56.27,21.37 -0.8,11.17 11.21,21.52 25.28,27.59 59.33,25.78 134.8,20.68 190.26,16.41 55.45,-3.98 108.85,-12.61 160.36,-24.35 0.97,-0.22 1.7,-0.56 2.29,-0.97 3.08,-0.69 6.18,-1.35 9.23,-2.07 0.84,-0.07 1.68,-0.09 2.51,-0.16 1.55,-0.14 2.61,-0.63 3.44,-1.26 42.36,-10.33 82.06,-22.96 127.91,-28.56 11.58,1.06 23.15,2.06 34.62,2.94 62.43,4.89 124.29,11.49 187.17,11.39 60.15,-0.11 120.04,-4.8 180.39,-4.61 0.52,0 0.91,-0.14 1.38,-0.2 11.76,4.05 23.12,8.49 33.9,13.67 -66.37,7.92 -131.91,12.02 -198.15,18.85 -72.95,-8.75 -142.9,-23.99 -215.87,-13.74 -27.5,4.28 -96.36,19.49 -57.97,49.84 16,12.44 44.14,15.76 71.93,15.05 -23.55,7.78 -46.51,16.3 -68.81,25.55 -23.48,9.77 -49.51,18.69 -65.91,34.16 -17.25,16.16 -22.95,42.97 21.13,47.59 127.55,11.72 198.4,-77.17 266.73,-130.23 0.69,-0.54 1.09,-1.09 1.38,-1.64 17.25,-4.18 34.42,-8.55 51.76,-12.6 1.02,-0.18 2,-0.48 2.8,-1.05 0.86,-0.48 1.52,-1.03 1.85,-1.68 38.88,-3.74 77.76,-7.98 117.1,-12.22 -20.22,10.12 -38.37,21.66 -55.56,34.01 -0.56,0.16 -1.13,0.29 -1.71,0.58 -45.18,23.8 -95.87,42.64 -138.32,68.54 -27.73,17.28 -70.63,47.15 -45.41,75.7 19.18,21.3 75.96,-10.33 88.86,-19.16 50.33,-32.63 74.33,-76.55 104.67,-117.78 23.13,-16.74 47.87,-32.04 77.45,-44.03 0.81,-0.33 1.41,-0.75 1.96,-1.19 7.52,-0.81 14.99,-1.79 22.58,-2.59 48.61,-3.98 150.52,-24.33 151.91,-26.19 16.34,-3.36 32.69,-6.68 49.04,-9.82 11.89,-2.21 41.48,-6.49 62.11,-11.5 30.71,-5.07 62.13,-8.92 89.88,-7.11 0.31,-2.32 1.74,-4.41 4.8,-5.08z"/>
  <path class="fil1" d="M733.74 291.21c-5.65,-7.62 -11.03,-15.36 -15.89,-23.32 -22.54,-36.75 -40.37,-74.78 -56.72,-112.82 -2.71,-6.28 -13.68,-4.71 -10.97,1.7 15.29,36.03 31.57,72.26 52.49,107.18 7.52,12.55 16.23,24.71 25.37,36.73 -19.37,-16.62 -37.65,-34.08 -51.54,-53.82 -14.85,-21.08 -27.77,-44.31 -37.11,-67.07 -5.85,-13.21 -25.46,-62.4 0.69,-63.63 14.1,-0.74 25,19.3 30.63,28.93 27.19,46.97 42.31,96.8 63.05,146.12z"/>
  <path class="fil1" d="M934.75 370.66c-48.92,-51.02 -97.06,-110.7 -115.79,-172.28 -1.99,-6.4 -12.51,-3.36 -10.59,3 14.85,49.25 48.67,98.32 86.72,141.98 -28.39,-22.45 -55.3,-46.12 -76.07,-73.17 -22.24,-28.6 -43.67,-70.48 -34.76,-104.05 9.66,-37.89 55.54,14.85 64.64,29.84 10.99,19.93 20.36,40.73 30.92,61.05 19.46,37.29 34.18,76.27 54.92,113.63z"/>
  <path class="fil1" d="M1126.41 423.54c-52.53,-26.03 -92.01,-72.99 -119.33,-114.96 -3.78,-5.8 -14.21,-1.4 -10.46,4.44 25.11,39.03 62.54,85.98 110.1,112.28 -36.67,-12.74 -70.54,-30.96 -94.09,-54.89 -20.81,-20.81 -45.14,-56.01 -44.71,-82.53 0.41,-32.68 42.89,-10.9 56.95,3.52 15.16,16.01 27.68,33.39 41.04,50.61 20.2,25.96 35.42,57.2 60.5,81.52z"/>
  <path class="fil1" d="M1125.44 313.88c-33.82,-53.23 -60.79,-108.82 -94.33,-160.47 -3.58,-5.55 -12.99,-1.01 -9.41,4.61 33.91,52.68 60.28,109.84 94.66,164.1 -11.82,-11.65 -23.4,-23.41 -34.54,-35.37 -23.55,-25.15 -51.39,-52.76 -61.13,-84.35 -3.84,-10.79 -18.82,-82.47 9.04,-77.72 12.26,2.03 21.17,20.58 26.34,29.86 27.37,49.61 49.17,104.9 69.37,159.35z"/>
  <path class="fil1" d="M1421.29 465.06c-45.16,-24.89 -87.37,-52.93 -119.88,-87.29 -4.82,-5.08 -14.59,1.34 -9.81,6.46 32.9,35.12 75.97,64.51 122.31,89.94 -42.91,-8.56 -78.64,-29.69 -107.65,-54.19 -8.09,-5.49 -76.98,-74.43 -47.37,-75.96 29.15,-1.38 63.92,26.17 84.9,40.66 31.68,22.21 55.48,51.25 77.5,80.37z"/>
  <path class="fil1" d="M1197.99 693.06c31.9,-17.56 58.73,-39.39 85.76,-60.72 -15.68,22.99 -31.79,46.16 -55.29,65.58 -13.01,10.72 -27.18,21.17 -44.09,29.26 -7.72,3.69 -15.98,7.83 -24.97,10.06 -19.49,4.8 -30.63,-9 -25.67,-19.82 18.06,-39.22 81.27,-63.71 135.51,-88.12 -25.01,19.6 -50.25,39.31 -79.93,55.53 -7.44,4.04 1.19,12.35 8.68,8.22z"/>
  <path class="fil1" d="M1077.67 615.3c1.62,-0.46 2.62,-1.24 3.35,-2.1 6.99,-0.9 13.46,-1.82 19,-2.57 0.15,-0.03 0.29,-0.04 0.44,-0.07 -42.13,23.95 -85.41,46.92 -132.34,66.28 -7.78,3.19 -0.22,12.49 7.65,9.22 53.14,-22.11 101.59,-48.84 148.97,-76.36 1.73,-0.99 2.51,-2.28 2.64,-3.58 12.77,-2.33 25.42,-4.91 37.94,-7.75 -47.96,38.95 -90.12,84.35 -160.15,106.4 -23.14,7.3 -60.04,16.23 -87.8,8.26 -33,-9.62 -1.04,-32.7 10.78,-39.76 41.54,-24.25 98.76,-43.48 149.52,-57.97z"/>
  <path class="fil1" d="M1195.23 570.11c-53.44,5 -107.12,8.71 -161.26,8.89 -9.04,0.01 -8.67,10.1 0.5,10.1 53.05,-0.19 105.07,-3.01 156.7,-7.16 -58.22,14.69 -119.29,29.05 -182.11,22.4 -17.71,-1.73 -62.21,-14.73 -31.56,-29.98 21.15,-10.64 51.13,-13.73 77.12,-15.17 48.07,-2.59 93.83,4.21 140.61,10.92z"/>
  <path class="fil1" d="M790.75 555.18c-52.13,5.08 -106.61,4.01 -161.82,-3.35 -9.19,-1.26 -7.25,9.37 1.96,10.58 31.62,4.16 63.19,6.35 94.22,6.52 -57.05,6.79 -117.01,7.98 -177.02,-2.46 -11.87,-1.88 -54.09,-9.1 -55.5,-23.69 -2.65,-29.54 75.43,-13.44 101.12,-10.2 65.68,10.01 131.98,20.36 197.05,22.6z"/>
  <path class="fil1" d="M867.4 499.98c-53.1,-5.77 -106,-11.17 -158.73,-13.13 -8.75,-0.34 -6.75,10.12 2.04,10.43 38.92,1.38 78.15,4.68 117.54,8.57 -11.03,0.66 -22,1.22 -32.8,1.28 -48.12,0.34 -100.23,-0.21 -149.43,-13.26 -10.97,-2.75 -51.18,-17.25 -25,-24.75 26.64,-7.68 62.06,-5.01 92.11,-3.38 54.85,3.02 103.21,19.49 154.26,34.23z"/>
  <path class="fil1" d="M653.02 347.71c61.5,6.72 123.55,25.04 184.24,44.04 -66.61,-9.68 -130.56,-24.1 -197.65,-23.27 -8.08,0.07 -7.08,10.53 1.14,10.45 66.24,-0.88 129.26,13.37 195.25,22.84 11.44,1.63 22.78,2.95 34.01,4.37 -80.49,11.47 -173.67,12.38 -256.92,-11.81 -12.97,-3.58 -49.21,-13.68 -49.98,-28.61 -1.28,-29.67 65.67,-20.11 89.91,-18.01z"/>
  <path class="fil1" d="M559.77 247.5c13.1,11.91 26.03,24 39.2,35.98 -58.5,-40.91 -113.81,-85.37 -171.29,-126.28 -6.57,-4.68 -13.55,2.66 -6.89,7.44 72.12,51.4 141.23,108.5 216.73,156.91 -53.94,-24.53 -104.58,-56.94 -153.14,-89.09 -32.6,-21.5 -68.17,-45.82 -92.04,-75.69 -8.24,-10.23 -21.41,-28.2 -7.3,-35.09 7.45,-3.65 16.66,-1.66 25.19,2.47 55.61,27.18 104.9,83.22 149.54,123.34z"/>
  <path class="fil1" d="M467.45 122.06c-13.42,-16.57 -26.06,-34.11 -40.3,-50.08 -7.59,-8.49 -15.9,-16.85 -22.36,-26.06 -3.3,-4.39 -21.49,-40.58 -2.4,-33.47 42.98,15.99 72.02,67.8 97.09,102.25 20.38,28.46 38.27,56.03 54.52,84.45 -32.34,-45.7 -71.12,-89.05 -105.66,-132.27 -4.68,-5.87 -13.83,-0.9 -9.11,5.04 43.82,55.12 94.42,110.02 129.51,170.37 -3.55,-3.3 -7.14,-6.57 -10.69,-9.84 -28.91,-37.49 -60.94,-73.68 -90.6,-110.38z"/>
  <path class="fil0" d="M1941.28 375.74c-17.38,12.59 -35.06,24.94 -52.85,36.96 1.96,5.37 2.51,10.71 1.8,15.87 15.61,5.63 31.38,10.7 47.3,15.4 12.97,3.85 7.69,23.52 -5.18,19.66 -16.95,-4.91 -33.65,-10.55 -50.26,-16.63 -3.85,5.16 -9,9.65 -14.92,13.48 8.79,16.58 21.3,31.43 28.57,48.81 5.18,12.02 -12.85,21.89 -18.07,9.64 -7.58,-17.94 -19.9,-33.3 -29,-50.23 -5.2,1.41 -10.54,2.09 -15.89,2.17 -8.73,17.86 -13.43,37.42 -24.02,54.49 -6.78,11.15 -24.86,0.72 -18.07,-10.53 9.21,-15.02 14.12,-32.11 21.13,-48.34 -8.16,-3.64 -15.65,-9.45 -21.49,-18.62 -0.21,-0.3 -0.39,-0.91 -0.62,-1.21 -18.03,5.63 -35.29,13.29 -53.83,17.21 -12.99,2.91 -18.35,-16.91 -5.34,-19.72 17.71,-3.9 34.38,-11.04 51.55,-16.65 -0.95,-4.71 -1.17,-9.23 -0.84,-13.76 -15.02,-9.55 -31.75,-16.79 -48.24,-23.04 -12.55,-4.82 -7.4,-24.41 5.22,-19.63 16.71,6.51 33.95,13.53 49.59,22.83 3.17,-4.64 7.25,-8.68 12.81,-11.66 -6.21,-17.47 -12.4,-35.12 -15.54,-53.24 -2.18,-12.74 17.96,-17.78 20.15,-4.65 3.09,17.89 9.16,35.32 15.31,52.7 7.86,-0.58 16.1,0.2 24.31,2.14 7.63,-17.95 16.38,-36.11 18.27,-55.22 1.29,-12.99 22.11,-12.62 20.8,0.5 -2.07,21.93 -11.57,41.82 -19.75,61.97 4.62,2.54 8.83,5.56 12.43,8.93 16.8,-11.36 33.61,-22.58 49.88,-34.47 10.51,-7.62 25.44,7.11 14.77,14.82zm-9.71 -81.4c25.67,-168.97 -311.18,-112.49 -215.36,41.11 -196.66,-94.74 -140.85,181.66 -22.28,160.04 -76,63.16 49.53,241.85 190.74,82.26 96.92,108.19 220.39,-47.06 105.84,-143.74 168.15,-13.07 51.09,-219.93 -58.94,-139.67z"/>
  <path class="fil0" d="M1818.67 412.86c-4.83,-3.05 -11.18,-1.81 -14.25,2.8 -2.99,4.72 -1.52,10.99 3.33,14.05 4.78,3.11 11.14,1.81 14.21,-2.81 3.02,-4.73 1.5,-10.93 -3.29,-14.04z"/>
  <path class="fil0" d="M1840.99 409.5c3.04,-4.61 1.62,-10.87 -3.23,-13.93 -4.91,-3.11 -11.21,-1.84 -14.26,2.8 -3.04,4.64 -1.52,10.97 3.3,13.94 4.79,3.15 11.19,1.85 14.19,-2.81z"/>
  <path class="fil0" d="M1818.76 436.71c-2.94,4.68 -1.52,10.97 3.4,14.13 4.75,3.04 11.14,1.74 14.2,-2.88 3,-4.65 1.46,-10.92 -3.26,-14.01 -4.87,-3.08 -11.32,-1.81 -14.34,2.76z"/>
  <path class="fil0" d="M1843.66 431.64c-3.02,4.65 -1.6,10.95 3.29,14.02 4.75,3.02 11.08,1.8 14.19,-2.81 3.01,-4.73 1.53,-10.97 -3.3,-14.05 -4.8,-3.04 -11.19,-1.76 -14.18,2.84z"/>
  <path class="fil0" d="M1846.84 407.61c-3.04,4.6 -1.63,10.89 3.27,14.04 4.91,3.08 11.15,1.82 14.23,-2.79 3.01,-4.75 1.55,-11.06 -3.24,-14.09 -4.84,-3 -11.19,-1.78 -14.26,2.84z"/>
  <path class="fil0" d="M1828.19 421.83c-1.04,1.51 -0.57,3.67 1.09,4.8 1.69,0.98 3.89,0.58 4.89,-1.02 1.02,-1.62 0.54,-3.7 -1.1,-4.78 -1.63,-1.17 -3.84,-0.68 -4.87,0.99z"/>
  <path class="fil0" d="M1835.02 417.67c-0.98,1.55 -0.5,3.78 1.19,4.75 1.63,0.99 3.87,0.73 4.83,-0.9 1.12,-1.68 0.5,-3.78 -1.05,-4.73 -1.71,-1.09 -3.85,-0.66 -4.97,0.88z"/>
  <path class="fil0" d="M1839.78 425.07c-1.67,-1.02 -3.77,-0.63 -4.93,0.98 -1.03,1.67 -0.49,3.7 1.2,4.8 1.58,0.98 3.87,0.66 4.78,-1.01 1.09,-1.52 0.54,-3.73 -1.05,-4.78z"/>
  <path class="fil2 str3" d="M1955.72 493.89c156.3,19.67 430.7,-57.95 543.66,-305.55"/>
  <path class="fil0" d="M2540.27 165.85c0,22.57 -18.3,40.87 -40.89,40.87 -22.57,0 -40.87,-18.3 -40.87,-40.87 0,-22.57 18.3,-40.87 40.87,-40.87 22.58,0 40.89,18.3 40.89,40.87z"/>
  <path class="fil0" d="M2401.16 188.34c0,22.58 -18.3,40.87 -40.89,40.87 -22.56,0 -40.87,-18.29 -40.87,-40.87 0,-22.57 18.3,-40.87 40.87,-40.87 22.58,0 40.89,18.3 40.89,40.87z"/>
  <path class="fil2 str3" d="M2360.28 206.51c16.01,45.34 24.45,93.33 24.86,141.41"/>
  <path class="fil2 str3" d="M1729.26 396.49c-280.06,93.06 -501.11,330.2 -536.42,532.89"/>
  <path class="fil2 str3" d="M1244.19 774.34c45.51,62.68 70.58,154.74 67.43,232.15"/>
  <path class="fil2 str3" d="M1207.86 866.14c-57.89,-2.77 -124.6,19.72 -160.64,65.09"/>
  <path class="fil0" d="M1352.48 1006.94c-0.25,22.57 -18.76,40.66 -41.32,40.41 -22.57,-0.25 -40.66,-18.76 -40.41,-41.32 0.26,-22.57 18.76,-40.66 41.34,-40.41 22.57,0.25 40.65,18.76 40.4,41.32z"/>
  <path class="fil0" d="M1221.06 950.36c-0.25,22.57 -18.76,40.66 -41.32,40.41 -22.57,-0.25 -40.66,-18.76 -40.42,-41.32 0.26,-22.57 18.76,-40.66 41.34,-40.42 22.57,0.25 40.65,18.76 40.4,41.33z"/>
  <path class="fil0" d="M1068.98 948.67c-0.25,22.57 -18.76,40.66 -41.32,40.41 -22.57,-0.26 -40.66,-18.76 -40.42,-41.32 0.25,-22.57 18.76,-40.66 41.32,-40.41 22.57,0.25 40.66,18.76 40.42,41.32z"/>
  <path class="fil2 str3" d="M1402.41 339.26c79.78,104.04 203.19,173.47 333.53,187.63"/>
  <path class="fil0" d="M1443.28 328.29c0,22.57 -18.3,40.87 -40.87,40.87 -22.57,0 -40.87,-18.3 -40.87,-40.87 0,-22.58 18.3,-40.87 40.87,-40.87 22.57,0 40.87,18.29 40.87,40.87z"/>
 </g>
</svg>
